<svg width="534" height="533" viewBox="0 0 534 533" fill="none" xmlns="http://www.w3.org/2000/svg">
<g id="tentaculo 2">
<path id="Vector" fill-rule="evenodd" clip-rule="evenodd" d="M377.061 400.29C378.877 421.42 371.523 436.835 355.001 446.533C355.729 443.126 356.461 439.72 357.19 436.314C362.211 431.792 366.191 426.453 369.129 420.294C369.287 417.69 370.169 415.468 371.773 413.626C373.092 409.344 373.669 404.756 373.507 399.856C374.696 399.157 375.879 399.302 377.061 400.29Z" fill="#204696"/>
<path id="Vector_2" fill-rule="evenodd" clip-rule="evenodd" d="M364.211 409.207C364.727 408.688 365.244 408.168 365.76 407.649C367.765 409.641 369.769 411.634 371.773 413.626C370.169 415.468 369.287 417.69 369.129 420.294C366.759 420.005 364.392 419.716 362.022 419.426C359.369 418.825 355.967 419.573 351.816 421.676C354.291 420.136 355.173 417.914 354.46 415.008C355.493 413.968 356.525 412.93 357.559 411.891C358.896 413.22 360.079 413.364 361.112 412.324C364.817 413.941 365.849 412.903 364.211 409.207Z" fill="#4B64C6"/>
<path id="Vector_3" fill-rule="evenodd" clip-rule="evenodd" d="M369.129 420.294C366.191 426.453 362.211 431.792 357.19 436.314C355.997 438.202 354.296 438.575 352.087 437.438C357.546 432.788 360.859 426.786 362.022 419.426C364.392 419.716 366.759 420.005 369.129 420.294Z" fill="#4B64DC"/>
<path id="Vector_4" fill-rule="evenodd" clip-rule="evenodd" d="M357.19 436.313C356.461 439.72 355.729 443.126 355.001 446.533C350.252 448.784 345.149 449.909 339.692 449.907C338.871 448.059 338.054 446.211 337.233 444.363C342.184 442.056 347.135 439.745 352.087 437.438C354.296 438.575 355.997 438.202 357.19 436.313Z" fill="#28499E"/>
<path id="Vector_5" fill-rule="evenodd" clip-rule="evenodd" d="M337.233 444.363C338.054 446.211 338.871 448.059 339.692 449.907C339.176 450.426 338.658 450.946 338.143 451.465C334.248 452.012 330.177 452.099 325.932 451.722C323.716 452.617 321.345 452.328 318.825 450.854C319.859 449.815 319.707 448.632 318.37 447.303C324.422 445.561 330.709 444.58 337.233 444.363Z" fill="#214694"/>
<path id="Vector_6" fill-rule="evenodd" clip-rule="evenodd" d="M318.37 447.303C319.707 448.632 319.859 449.815 318.825 450.854C313.983 452.907 308.471 453.108 302.287 451.457C302.126 452.533 302.538 453.457 303.516 454.228C303.001 454.747 302.483 455.268 301.967 455.787C299.811 452.612 297.655 449.434 295.499 446.259C302.554 444.201 310.178 444.549 318.37 447.303Z" fill="#2C4DA7"/>
<path id="Vector_7" fill-rule="evenodd" clip-rule="evenodd" d="M297.688 436.04C295.807 437.243 295.444 438.947 296.594 441.149C294.377 442.044 292.007 441.755 289.487 440.282C290.296 439.728 290.48 438.877 290.034 437.727C288.057 438.601 286.023 438.642 283.929 437.855C283.261 437.192 282.592 436.526 281.925 435.863C281.257 435.199 280.588 434.534 279.92 433.871C282.523 433.697 284.74 432.802 286.573 431.187C290.39 432.534 294.278 433.301 298.235 433.485C298.682 434.635 298.497 435.487 297.688 436.04Z" fill="#4B64D5"/>
<path id="Vector_8" fill-rule="evenodd" clip-rule="evenodd" d="M295.499 446.259C297.655 449.434 299.811 452.612 301.967 455.787C301.451 456.306 300.934 456.827 300.418 457.346C299.902 457.865 299.384 458.385 298.868 458.904C295.29 454.294 292.77 452.82 291.306 454.486C288.139 454.662 285.876 452.929 284.519 449.288C287.912 450.275 289.203 448.977 288.392 445.391C290.609 444.496 292.979 444.785 295.499 446.259Z" fill="#2B4B9E"/>
<path id="Vector_9" fill-rule="evenodd" clip-rule="evenodd" d="M286.572 431.187C278.98 429.205 272.022 429.521 265.706 432.135C263.853 431.325 262.001 430.519 260.148 429.709C261.181 428.669 261.03 427.487 259.693 426.158C260.209 425.639 260.726 425.118 261.242 424.599C262.579 425.928 263.763 426.073 264.796 425.033C267.005 426.17 268.707 425.797 269.899 423.908C271.236 425.237 272.419 425.382 273.452 424.342C278.126 424.96 282.863 425.538 287.667 426.078C288.558 428.38 288.192 430.083 286.572 431.187Z" fill="#4361BE"/>
<path id="Vector_10" fill-rule="evenodd" clip-rule="evenodd" d="M289.487 440.282C288.453 441.321 287.421 442.359 286.388 443.399C285.051 442.07 283.868 441.925 282.834 442.965C281.498 441.636 280.314 441.491 279.281 442.531C276.093 440.394 275.576 440.915 277.731 444.09C277.215 444.609 276.698 445.129 276.182 445.648C274.329 444.838 272.477 444.032 270.624 443.222C271.658 442.182 272.689 441.144 273.723 440.105C274.756 439.065 274.605 437.883 273.268 436.554C273.784 436.035 274.301 435.514 274.817 434.995C276.01 433.106 277.711 432.734 279.92 433.871C280.588 434.534 281.257 435.2 281.925 435.863C280.527 438.604 281.196 439.269 283.929 437.855C286.023 438.642 288.057 438.601 290.034 437.727C290.48 438.877 290.296 439.729 289.487 440.282Z" fill="#4C64CD"/>
<path id="Vector_11" fill-rule="evenodd" clip-rule="evenodd" d="M272.543 417.24C268.992 415.176 266.106 415.406 263.886 417.931C260.335 415.867 257.449 416.097 255.23 418.622C253.02 417.485 251.319 417.858 250.127 419.747C239.756 419.58 229.732 420.978 220.056 423.94C226.233 419.699 233.066 416.164 240.56 413.336C248.445 413.653 256.25 413.15 263.978 411.825C268.871 411.077 271.725 412.88 272.543 417.24Z" fill="#4B64D2"/>
<path id="Vector_12" fill-rule="evenodd" clip-rule="evenodd" d="M273.453 424.342C272.116 423.013 270.932 422.869 269.899 423.908C267.689 422.772 265.988 423.144 264.796 425.033C263.459 423.704 262.276 423.56 261.242 424.599C259.033 423.463 257.332 423.835 256.139 425.724C252.952 423.587 252.434 424.108 254.59 427.283C253.557 428.322 252.373 428.178 251.036 426.849C249.7 425.52 248.516 425.375 247.483 426.415C245.273 425.278 243.572 425.651 242.38 427.539C240.171 426.403 238.469 426.775 237.277 428.664C235.068 427.528 233.366 427.9 232.174 429.789C229.965 428.652 228.263 429.025 227.071 430.914C224.862 429.777 223.16 430.149 221.968 432.038C219.759 430.902 218.057 431.274 216.865 433.163C216.198 432.499 215.528 431.834 214.861 431.171C226.207 426.64 237.962 422.832 250.127 419.747C252.336 420.883 254.037 420.511 255.23 418.622C258.78 420.686 261.667 420.457 263.886 417.931C267.437 419.995 270.323 419.766 272.543 417.24C277.753 418.826 278.055 421.192 273.453 424.342Z" fill="#4B64CB"/>
<path id="Vector_13" fill-rule="evenodd" clip-rule="evenodd" d="M240.56 413.336C236.736 412.942 232.997 413.359 229.352 414.589C231.882 410.742 235.65 408.29 240.653 407.23C243.565 407.178 245.492 408.579 246.438 411.432C243.891 410.979 241.931 411.612 240.56 413.336Z" fill="#4B64DE"/>
<path id="Vector_14" fill-rule="evenodd" clip-rule="evenodd" d="M274.817 434.995C274.301 435.514 273.784 436.035 273.268 436.554C272.752 437.073 272.234 437.593 271.719 438.112C268.531 435.975 268.013 436.496 270.169 439.671C269.136 440.71 267.952 440.566 266.616 439.237C265.279 437.908 264.095 437.764 263.062 438.803C259.874 436.666 259.357 437.187 261.513 440.362C260.479 441.401 259.296 441.257 257.959 439.928C254.771 437.791 254.254 438.311 256.41 441.486C253.005 440.878 251.973 441.916 253.311 444.603C251.092 447.129 248.205 447.358 244.655 445.294C243.987 444.631 243.318 443.965 242.65 443.302C243.166 442.783 243.684 442.262 244.2 441.743C245.536 443.072 246.72 443.217 247.753 442.177C249.151 439.436 248.482 438.771 245.749 440.185C245.082 439.521 244.412 438.856 243.745 438.192C251.064 436.173 258.386 434.155 265.706 432.135C268.743 433.088 271.78 434.042 274.817 434.995Z" fill="#4B64CF"/>
<path id="Vector_15" fill-rule="evenodd" clip-rule="evenodd" d="M271.719 438.112C272.386 438.776 273.055 439.441 273.723 440.105C272.689 441.144 271.658 442.182 270.624 443.222C265.295 445.215 259.523 445.675 253.311 444.603C251.973 441.916 253.005 440.878 256.41 441.486C256.926 440.967 257.443 440.447 257.959 439.928C259.296 441.257 260.479 441.401 261.513 440.362C262.029 439.843 262.546 439.322 263.062 438.803C264.399 440.132 265.582 440.277 266.616 439.237C267.953 440.566 269.136 440.71 270.169 439.671C270.685 439.152 271.203 438.631 271.719 438.112Z" fill="#4B64C9"/>
<path id="Vector_16" fill-rule="evenodd" clip-rule="evenodd" d="M259.693 426.158C261.03 427.487 261.181 428.669 260.148 429.709C245.075 431.006 230.951 434.523 217.775 440.265C209.697 438.441 203.563 440.604 199.368 446.756C198.257 440.012 200.688 436.232 206.659 435.412C211.094 437.382 214.496 436.633 216.865 433.163C219.075 434.3 220.776 433.927 221.968 432.038C224.178 433.175 225.879 432.802 227.071 430.914C229.281 432.05 230.982 431.678 232.174 429.789C234.384 430.926 236.085 430.553 237.277 428.664C239.487 429.801 241.188 429.428 242.38 427.54C244.589 428.676 246.291 428.304 247.483 426.415C248.82 427.744 250.003 427.888 251.037 426.849C252.373 428.178 253.557 428.322 254.59 427.283C255.106 426.764 255.624 426.243 256.14 425.724C257.476 427.053 258.66 427.197 259.693 426.158Z" fill="#4661C1"/>
<path id="Vector_17" fill-rule="evenodd" clip-rule="evenodd" d="M243.745 438.192C244.412 438.856 245.082 439.521 245.749 440.185C246.416 440.848 247.086 441.514 247.753 442.177C246.72 443.217 245.537 443.072 244.2 441.743C241.012 439.606 240.495 440.127 242.65 443.302C243.318 443.965 243.987 444.631 244.655 445.294C243.462 447.183 241.761 447.556 239.552 446.419C236.364 444.282 235.847 444.803 238.002 447.978C236.969 449.017 235.786 448.873 234.449 447.544C233.112 446.215 231.929 446.07 230.895 447.11C228.686 445.973 226.984 446.346 225.792 448.235C220.149 446.163 214.561 445.771 209.026 447.061C211.554 444.595 214.47 442.327 217.775 440.265C226.201 438.812 234.858 438.121 243.745 438.192Z" fill="#4B64DD"/>
<path id="Vector_18" fill-rule="evenodd" clip-rule="evenodd" d="M208.863 68.4653C210.765 67.779 212.664 67.0924 214.567 66.4062C216.487 64.9874 218.404 63.5688 220.324 62.15C219.891 59.9597 220.871 58.518 223.257 57.825C223.292 56.3603 224.251 55.651 226.135 55.6969C229.764 50.4289 234.527 48.3468 240.422 49.4505C243.248 49.5194 246.073 49.5883 248.898 49.6572C253.936 47.6667 259.605 47.0722 265.903 47.8736C268.715 47.565 270.579 48.3433 271.5 50.2084C273.385 50.2544 275.266 50.3002 277.151 50.3462C279.035 50.3922 279.994 49.6828 280.029 48.2181C269.744 45.7134 259.927 42.5431 250.579 38.7068C231.245 43.8396 217.34 53.759 208.863 68.4653Z" fill="#385BAC"/>
<path id="Vector_19" fill-rule="evenodd" clip-rule="evenodd" d="M280.029 48.2181C279.994 49.6828 279.035 50.3922 277.151 50.3462C277.115 51.8109 276.156 52.5202 274.272 52.4743C275.193 54.3393 277.057 55.1177 279.869 54.809C284.711 57.2617 289.421 57.3765 293.995 55.1535C290.117 52.004 285.461 49.6922 280.029 48.2181Z" fill="#4A64C4"/>
<path id="Vector_20" fill-rule="evenodd" clip-rule="evenodd" d="M271.5 50.2084C270.579 48.3434 268.715 47.565 265.903 47.8737C260.865 49.8642 255.197 50.4587 248.898 49.6572C246.847 51.5944 244.004 52.2578 240.369 51.6475C240.351 52.3797 240.333 53.1122 240.315 53.8445C242.41 53.6076 244.286 54.0198 245.939 55.0807C243.778 56.5027 242.79 58.3104 242.98 60.5043C244.882 59.818 246.782 59.1314 248.684 58.4451C253.162 52.8559 259.807 50.8197 268.621 52.3365C268.657 50.8718 269.616 50.1625 271.5 50.2084Z" fill="#4B64CA"/>
<path id="Vector_21" fill-rule="evenodd" clip-rule="evenodd" d="M226.135 55.6969C226.118 56.4292 226.1 57.1617 226.082 57.8939C225.239 61.3884 226.111 64.3408 228.693 66.7507C228.26 64.5603 229.239 63.1186 231.625 62.4256C231.192 60.2353 232.172 58.7936 234.558 58.1006C234.125 55.9102 235.104 54.4685 237.49 53.7756C237.526 52.3108 238.484 51.6015 240.369 51.6475C240.387 50.9152 240.405 50.1828 240.422 49.4505C234.527 48.3468 229.764 50.4289 226.135 55.6969Z" fill="#214697"/>
<path id="Vector_22" fill-rule="evenodd" clip-rule="evenodd" d="M293.995 55.1535C289.42 57.3765 284.711 57.2617 279.869 54.809C277.559 58.2792 273.758 59.652 268.461 58.9274C273.237 61.7662 278.851 63.3685 285.305 63.7347C288.156 58.3402 290.509 58.3976 292.368 63.9069C293.822 61.0996 294.365 58.1816 293.995 55.1535Z" fill="#1D4A9A"/>
<path id="Vector_23" fill-rule="evenodd" clip-rule="evenodd" d="M274.272 52.4742C272.387 52.4283 270.506 52.3824 268.621 52.3365C259.807 50.8197 253.162 52.8559 248.684 58.4451C253.394 58.5599 258.1 58.6747 262.81 58.7896C264.695 58.8355 266.576 58.8814 268.461 58.9273C273.758 59.652 277.559 58.2792 279.869 54.809C277.057 55.1177 275.193 54.3393 274.272 52.4742Z" fill="#073F87"/>
<path id="Vector_24" fill-rule="evenodd" clip-rule="evenodd" d="M240.315 53.8444C239.374 53.8215 238.431 53.7985 237.49 53.7755C237.923 55.9659 236.944 57.4076 234.558 58.1006C234.99 60.2909 234.011 61.7326 231.625 62.4256C231.607 63.1578 231.59 63.8903 231.572 64.6226C233.438 65.4008 235.302 66.1791 237.169 66.9573C238.034 64.1697 239.972 62.0187 242.98 60.5042C242.79 58.3103 243.778 56.5026 245.939 55.0807C244.286 54.0197 242.41 53.6075 240.315 53.8444Z" fill="#23489B"/>
<path id="Vector_25" fill-rule="evenodd" clip-rule="evenodd" d="M262.81 58.7896C258.1 58.6747 253.394 58.5599 248.684 58.4451C246.782 59.1314 244.882 59.8179 242.98 60.5042C239.972 62.0187 238.034 64.1697 237.169 66.9573C238.109 66.9803 239.053 67.0033 239.994 67.0262C242.819 67.0951 245.644 67.164 248.47 67.2329C251.76 62.8368 256.541 60.0222 262.81 58.7896Z" fill="#1E4A9B"/>
<path id="Vector_26" fill-rule="evenodd" clip-rule="evenodd" d="M293.995 55.1535C294.365 58.1817 293.822 61.0996 292.368 63.9069C290.509 58.3976 288.156 58.3402 285.305 63.7347C289.419 67.7475 295.034 69.35 302.149 68.542C303.642 62.3956 300.924 57.9327 293.995 55.1535Z" fill="#1D4697"/>
<path id="Vector_27" fill-rule="evenodd" clip-rule="evenodd" d="M226.082 57.8939C225.141 57.8709 224.197 57.8479 223.257 57.825C220.871 58.518 219.891 59.9597 220.324 62.15C223.653 65.9164 222.169 68.8112 215.872 70.8345C214.593 69.4967 214.157 68.0205 214.567 66.4062C212.664 67.0925 210.765 67.779 208.862 68.4653C209.143 69.8294 210.057 70.9508 211.607 71.8297C201.292 76.9454 200.199 83.1471 208.327 90.435C212.435 87.1694 214.298 87.9477 213.924 92.7697C213.906 93.502 213.888 94.2345 213.87 94.9667C214.811 94.9897 215.755 95.0127 216.695 95.0356C216.767 92.1064 216.838 89.177 216.91 86.2477C213.848 85.9093 211.999 84.3986 211.366 81.716C211.537 79.7057 212.513 78.2639 214.299 77.391C214.139 76.4238 214.625 75.7028 215.765 75.2285C216.354 77.9632 217.713 80.1946 219.842 81.9227C219.472 78.8946 220.015 75.9767 221.469 73.1693C224.238 76.589 225.561 80.2851 225.439 84.2575C225.403 85.7222 225.368 87.1867 225.332 88.6514C226.273 88.6744 227.216 88.6974 228.157 88.7203C230.059 88.034 231.959 87.3474 233.861 86.6611C231.839 80.9049 231.038 75.0232 231.464 69.0165C229.58 68.9706 228.657 68.2154 228.693 66.7507C226.111 64.3408 225.239 61.3884 226.082 57.8939ZM219.842 81.9227C220.763 83.7878 222.627 84.5661 225.439 84.2575C225.561 80.2851 224.238 76.589 221.469 73.1693C220.015 75.9767 219.472 78.8946 219.842 81.9227ZM214.299 77.391C212.513 78.2639 211.537 79.7057 211.366 81.716C211.999 84.3986 213.848 85.9093 216.91 86.2477C214.901 83.5435 214.031 80.5911 214.299 77.391Z" fill="#4461BE"/>
<path id="Vector_28" fill-rule="evenodd" clip-rule="evenodd" d="M248.47 67.2329C245.644 67.164 242.819 67.0951 239.994 67.0262C240.827 71.4431 241.664 75.86 242.498 80.2769C243.438 80.2999 244.382 80.3229 245.323 80.3458C247.225 79.6595 249.125 78.9729 251.027 78.2866C249.594 74.6966 248.742 71.012 248.47 67.2329Z" fill="#3959AF"/>
<path id="Vector_29" fill-rule="evenodd" clip-rule="evenodd" d="M231.572 64.6226C231.536 66.0873 231.5 67.5518 231.464 69.0165C231.038 75.0232 231.839 80.9049 233.861 86.6611C236.152 84.2802 237.637 81.3852 238.313 77.9766C239.201 80.1965 240.091 82.4165 240.978 84.6364C242.321 83.3625 242.828 81.9093 242.498 80.2769C241.664 75.8601 240.827 71.4431 239.994 67.0262C239.053 67.0033 238.109 66.9803 237.169 66.9573C235.302 66.1791 233.438 65.4008 231.572 64.6226Z" fill="#0A3E87"/>
<path id="Vector_30" fill-rule="evenodd" clip-rule="evenodd" d="M251.027 78.2867C249.125 78.973 247.225 79.6596 245.323 80.3458C244.784 82.5125 245.692 84.0002 248.041 84.8087C251.789 85.6328 251.771 86.3652 247.987 87.0056C247.97 87.7379 247.952 88.4704 247.934 89.2026C249.8 89.9808 251.664 90.7592 253.531 91.5374C255.451 90.1186 257.368 88.7 259.288 87.2812C256.503 84.1979 253.749 81.1998 251.027 78.2867Z" fill="#3451B2"/>
<path id="Vector_31" fill-rule="evenodd" clip-rule="evenodd" d="M214.299 77.391C214.031 80.5911 214.901 83.5435 216.91 86.2477C216.838 89.177 216.767 92.1064 216.695 95.0356C218.633 92.8846 220.569 90.7335 222.507 88.5825C223.447 88.6054 224.391 88.6285 225.332 88.6514C225.368 87.1867 225.403 85.7222 225.439 84.2575C222.627 84.5661 220.763 83.7878 219.842 81.9227C217.713 80.1946 216.354 77.9632 215.765 75.2285C214.625 75.7028 214.139 76.4238 214.299 77.391Z" fill="#2A549A"/>
<path id="Vector_32" fill-rule="evenodd" clip-rule="evenodd" d="M233.861 86.6611C233.474 91.1645 235.269 94.8722 239.244 97.7838C241.16 94.2242 244.056 91.3637 247.934 89.2026C247.952 88.4704 247.969 87.7379 247.987 87.0056C248.005 86.2734 248.023 85.5409 248.041 84.8087C245.692 84.0002 244.784 82.5125 245.323 80.3458C244.382 80.3229 243.438 80.2999 242.498 80.2769C242.828 81.9093 242.321 83.3625 240.978 84.6364C240.091 82.4165 239.201 80.1965 238.313 77.9766C237.637 81.3853 236.152 84.2802 233.861 86.6611Z" fill="#15458A"/>
<path id="Vector_33" fill-rule="evenodd" clip-rule="evenodd" d="M247.934 89.2026C244.056 91.3636 241.16 94.2242 239.244 97.7837C240.919 99.7832 241.807 102.003 241.908 104.444C246.547 107.488 251.182 110.532 255.82 113.576C259.472 109.559 258.62 105.874 253.263 102.522C255.275 100.334 257.21 98.1827 259.074 96.069C256.267 95.2679 254.418 93.7572 253.531 91.5373C251.664 90.7591 249.8 89.9808 247.934 89.2026Z" fill="#10428B"/>
<path id="Vector_34" fill-rule="evenodd" clip-rule="evenodd" d="M259.288 87.2812C257.368 88.7 255.451 90.1186 253.531 91.5374C254.418 93.7573 256.267 95.268 259.074 96.0691C260.923 97.5798 262.769 99.0902 264.617 100.601C267.499 98.0057 270.315 98.4408 273.066 101.906C267.061 102.511 266.073 104.319 270.107 107.33C271.992 107.375 272.915 108.131 272.879 109.595C274.763 109.641 275.686 110.397 275.651 111.861C277.535 111.907 278.458 112.662 278.422 114.127C281.234 113.818 283.098 114.597 284.019 116.462C285.904 116.508 286.827 117.263 286.791 118.728C288.675 118.774 289.598 119.529 289.562 120.994C291.447 121.04 293.329 121.085 295.213 121.131C296.154 121.154 297.097 121.177 298.038 121.2C298.056 120.468 298.074 119.736 298.092 119.003C296.207 118.957 295.284 118.202 295.32 116.737C293.436 116.692 292.513 115.936 292.548 114.472C290.664 114.426 289.741 113.67 289.777 112.206C289.812 110.741 288.89 109.986 287.005 109.94C285.993 112.846 285.049 112.823 284.18 109.871C282.295 109.825 281.372 109.07 281.408 107.605C280.266 105.991 278.411 104.847 275.838 104.172C277.541 103.193 279.434 102.872 281.515 103.211C274.105 97.9013 266.698 92.5912 259.288 87.2812Z" fill="#2E50A5"/>
<path id="Vector_35" fill-rule="evenodd" clip-rule="evenodd" d="M233.861 86.6611C231.959 87.3474 230.059 88.034 228.157 88.7203C229.026 91.6725 229.899 94.6249 230.768 97.5771C232.755 101.427 236.47 103.716 241.908 104.444C241.807 102.003 240.919 99.7833 239.244 97.7838C235.269 94.8722 233.474 91.1645 233.861 86.6611Z" fill="#4B64DC"/>
<path id="Vector_36" fill-rule="evenodd" clip-rule="evenodd" d="M222.507 88.5825C220.569 90.7335 218.633 92.8846 216.695 95.0356C219.026 98.4668 218.954 101.396 216.481 103.823C216.427 106.02 216.374 108.217 216.32 110.414C218.24 108.996 220.158 107.577 222.078 106.158C223.753 99.0178 226.596 98.3544 230.607 104.168C230.661 101.971 230.714 99.774 230.768 97.577C228.293 95.1028 225.939 95.0454 223.705 97.4048C222.39 94.5299 221.989 91.589 222.507 88.5825Z" fill="#3C5CB7"/>
<path id="Vector_37" fill-rule="evenodd" clip-rule="evenodd" d="M264.617 100.601C263.398 102.157 261.489 103.21 258.887 103.758C260.258 109.207 263.928 113.326 269.893 116.117C270.905 113.211 271.849 113.234 272.718 116.186C274.603 116.232 275.525 116.987 275.49 118.452C276.431 118.475 277.374 118.498 278.315 118.521C280.199 118.567 281.158 117.858 281.194 116.393C279.309 116.347 278.386 115.592 278.422 114.127C276.538 114.081 275.615 113.326 275.65 111.861C273.766 111.815 272.843 111.06 272.879 109.595C270.994 109.549 270.071 108.794 270.107 107.33C266.073 104.319 267.061 102.511 273.066 101.906C270.315 98.4408 267.499 98.0057 264.617 100.601Z" fill="#3B57B5"/>
<path id="Vector_38" fill-rule="evenodd" clip-rule="evenodd" d="M208.327 90.435C206.189 96.2531 207.937 101.791 213.575 107.05C209.859 109.799 209.796 112.362 213.388 114.739C215.272 114.785 216.231 114.076 216.267 112.611C216.285 111.879 216.302 111.147 216.32 110.414C216.374 108.217 216.427 106.02 216.481 103.823C214.472 101.119 213.603 98.1668 213.87 94.9667C210.122 94.1426 210.14 93.4101 213.924 92.7697C214.299 87.9477 212.435 87.1694 208.327 90.435Z" fill="#3B5DB0"/>
<path id="Vector_39" fill-rule="evenodd" clip-rule="evenodd" d="M222.078 106.158C222.894 111.307 226.591 114.329 233.165 115.222C233.2 113.757 233.236 112.293 233.272 110.828C233.17 108.387 232.283 106.168 230.607 104.168C226.596 98.3545 223.753 99.0178 222.078 106.158Z" fill="#3D5DB0"/>
<path id="Vector_40" fill-rule="evenodd" clip-rule="evenodd" d="M259.074 96.0691C257.21 98.1828 255.275 100.334 253.263 102.522C258.62 105.874 259.472 109.559 255.82 113.576C255.802 114.308 255.784 115.041 255.767 115.773C257.651 115.819 258.574 116.574 258.538 118.039C266.002 121.152 273.462 124.265 280.926 127.378C280.824 124.937 279.937 122.718 278.261 120.718C276.377 120.672 275.454 119.917 275.49 118.452C273.605 118.406 272.682 117.651 272.718 116.186C271.777 116.163 270.834 116.14 269.893 116.117C263.928 113.326 260.258 109.207 258.887 103.758C261.489 103.21 263.398 102.157 264.617 100.601C262.769 99.0901 260.923 97.5798 259.074 96.0691Z" fill="#244C93"/>
<path id="Vector_41" fill-rule="evenodd" clip-rule="evenodd" d="M281.515 103.211C279.434 102.872 277.541 103.193 275.838 104.172C278.411 104.847 280.266 105.991 281.408 107.605C283.293 107.651 284.215 108.406 284.18 109.871C285.121 109.894 286.064 109.917 287.005 109.94C288.889 109.986 289.812 110.741 289.777 112.206C291.661 112.252 292.584 113.007 292.548 114.472C294.433 114.518 295.356 115.273 295.32 116.737C297.204 116.783 298.127 117.539 298.092 119.003C299.033 119.026 299.976 119.049 300.917 119.072C303.303 118.379 304.282 116.938 303.849 114.747C297.304 109.799 289.858 105.954 281.515 103.211Z" fill="#284A97"/>
<path id="Vector_42" fill-rule="evenodd" clip-rule="evenodd" d="M233.272 110.828C233.236 112.292 233.2 113.757 233.165 115.222C233.129 116.686 233.093 118.151 233.057 119.616C235.041 121.975 237.831 123.508 241.426 124.216C243.204 122.716 243.258 120.519 241.587 117.625C237.992 115.399 238.045 113.202 241.748 111.034C239.191 108.637 236.366 108.568 233.272 110.828Z" fill="#365AAB"/>
<path id="Vector_43" fill-rule="evenodd" clip-rule="evenodd" d="M216.267 112.611C216.231 114.076 215.272 114.785 213.388 114.739C221.739 120.072 229.131 126.115 235.561 132.866C237.446 132.912 238.404 132.203 238.44 130.738C233.661 128.126 231.866 124.418 233.057 119.616C226.15 119.194 220.553 116.86 216.267 112.611Z" fill="#375DB3"/>
<path id="Vector_44" fill-rule="evenodd" clip-rule="evenodd" d="M255.767 115.773C249.562 115.421 248.585 116.863 252.834 120.098C261.689 123.42 270.076 127.288 277.994 131.703C279.213 130.146 281.122 129.094 283.724 128.545C283.102 127.653 282.167 127.264 280.926 127.378C273.462 124.265 266.002 121.152 258.538 118.039C256.654 117.993 255.731 117.238 255.767 115.773Z" fill="#4B64C2"/>
<path id="Vector_45" fill-rule="evenodd" clip-rule="evenodd" d="M303.849 114.747C304.282 116.938 303.303 118.379 300.917 119.072C300.899 119.804 300.881 120.537 300.863 121.269C302.748 121.315 303.671 122.07 303.635 123.535C310.9 125.733 316.462 129.533 320.319 134.933C322.221 134.247 324.121 133.56 326.023 132.874C319.592 126.122 312.2 120.08 303.849 114.747Z" fill="#2D4BA0"/>
<path id="Vector_46" fill-rule="evenodd" clip-rule="evenodd" d="M284.019 116.462C283.078 116.439 282.135 116.416 281.194 116.393C281.158 117.858 280.199 118.567 278.315 118.521C278.297 119.253 278.279 119.986 278.261 120.718C279.937 122.718 280.824 124.937 280.926 127.378C282.167 127.264 283.102 127.653 283.724 128.545C281.122 129.094 279.213 130.146 277.994 131.703C277.958 133.168 278.881 133.923 280.765 133.969C283.626 132.573 286.487 131.177 289.348 129.781C289.366 129.049 289.384 128.317 289.402 127.584C287.517 127.539 286.594 126.783 286.63 125.319C284.746 125.273 283.823 124.517 283.858 123.053C283.894 121.588 284.853 120.879 286.737 120.925C286.755 120.192 286.773 119.46 286.791 118.728C284.906 118.682 283.983 117.927 284.019 116.462Z" fill="#4862CA"/>
<path id="Vector_47" fill-rule="evenodd" clip-rule="evenodd" d="M300.863 121.269C299.923 121.246 298.979 121.223 298.038 121.2C297.097 121.177 296.154 121.154 295.213 121.131C297.044 123.374 298.872 125.617 300.703 127.86C302.587 127.906 303.51 128.661 303.474 130.126C305.359 130.172 306.282 130.927 306.246 132.392C308.13 132.438 309.053 133.193 309.018 134.658C310.902 134.704 311.825 135.459 311.789 136.924C314.267 139.196 316.148 139.242 317.44 137.061C312.837 132.553 308.238 128.044 303.635 123.535C301.751 123.489 300.828 122.734 300.863 121.269Z" fill="#3D62A8"/>
<path id="Vector_48" fill-rule="evenodd" clip-rule="evenodd" d="M241.587 117.625C243.258 120.519 243.204 122.716 241.426 124.216C252.934 128.52 251.94 130.694 238.44 130.738C238.404 132.203 237.446 132.912 235.561 132.866C239.291 138.145 244.853 141.944 252.245 144.265C253.693 141.583 253.773 138.288 252.486 134.378C257.251 134.79 261.934 136.003 266.532 138.018C266.55 137.286 266.568 136.553 266.585 135.821C264.271 132.541 260.55 130.619 255.418 130.053C256.732 129.175 257.702 128.1 258.324 126.827C255.223 125.069 253.392 122.826 252.834 120.098C250.772 120.965 249.324 122.396 248.489 124.389C247.501 121.194 245.201 118.939 241.587 117.625Z" fill="#405CBC"/>
<path id="Vector_49" fill-rule="evenodd" clip-rule="evenodd" d="M289.562 120.994C288.622 120.971 287.678 120.948 286.737 120.925C284.853 120.879 283.894 121.588 283.858 123.053C285.743 123.099 286.666 123.854 286.63 125.319C288.514 125.365 289.437 126.12 289.402 127.585C291.286 127.63 292.209 128.386 292.173 129.85C294.523 130.659 295.43 132.147 294.891 134.313C296.776 134.359 297.699 135.114 297.663 136.579C298.604 136.602 299.548 136.625 300.488 136.648C301.501 133.742 302.444 133.765 303.314 136.717C305.198 136.763 306.121 137.518 306.085 138.983C307.026 139.006 307.97 139.029 308.91 139.052C308.928 138.319 308.946 137.587 308.964 136.855C308.982 136.122 309 135.39 309.018 134.658C307.133 134.612 306.21 133.857 306.246 132.392C304.362 132.346 303.439 131.591 303.474 130.126C301.59 130.08 300.667 129.325 300.703 127.86C295.336 127.207 291.621 124.918 289.562 120.994Z" fill="#4763C0"/>
<path id="Vector_50" fill-rule="evenodd" clip-rule="evenodd" d="M292.173 129.85C291.233 129.827 290.289 129.804 289.348 129.782C286.487 131.177 283.626 132.573 280.765 133.969C287.18 138.457 293.667 143.012 300.22 147.633C299.351 144.681 298.479 141.728 297.61 138.776C297.627 138.044 297.645 137.311 297.663 136.579C295.779 136.533 294.856 135.778 294.891 134.313C292.542 133.505 291.634 132.017 292.173 129.85Z" fill="#4B64D1"/>
<path id="Vector_51" fill-rule="evenodd" clip-rule="evenodd" d="M326.023 132.874C324.12 133.56 322.221 134.247 320.319 134.933C320.301 135.666 320.283 136.398 320.265 137.13C328.067 142.359 334.516 148.379 339.613 155.188C341.498 155.234 343.379 155.28 345.264 155.326C340.987 146.626 334.574 139.142 326.023 132.874Z" fill="#2C4DA7"/>
<path id="Vector_52" fill-rule="evenodd" clip-rule="evenodd" d="M266.585 135.821C266.568 136.553 266.55 137.286 266.532 138.018C273.138 139.521 272.18 140.23 263.653 140.146C263.617 141.611 263.582 143.075 263.546 144.54C264.433 146.76 266.282 148.271 269.089 149.072C268.489 146.219 269.483 144.045 272.075 142.55C273.96 142.596 274.918 141.887 274.954 140.422C275.431 138.121 275.016 135.912 273.702 133.796C271.766 135.403 269.395 136.078 266.585 135.821Z" fill="#435ECB"/>
<path id="Vector_53" fill-rule="evenodd" clip-rule="evenodd" d="M303.314 136.717C302.373 136.694 301.429 136.671 300.488 136.648C300.471 137.38 300.453 138.113 300.435 138.845C304.975 147.873 312.385 153.183 322.662 154.775C322.697 153.31 322.733 151.846 322.769 150.381C323.308 148.214 322.4 146.727 320.051 145.918C319.11 145.895 318.166 145.872 317.226 145.849C316.213 148.755 315.27 148.732 314.4 145.78C312.516 145.734 311.593 144.979 311.629 143.514C309.744 143.469 308.821 142.713 308.857 141.249C306.973 141.203 306.05 140.447 306.085 138.983C304.201 138.937 303.278 138.182 303.314 136.717Z" fill="#4B64DD"/>
<path id="Vector_54" fill-rule="evenodd" clip-rule="evenodd" d="M274.954 140.422C274.918 141.887 273.96 142.596 272.075 142.55C272.022 144.747 271.968 146.944 271.914 149.141C273.799 149.187 274.722 149.942 274.686 151.407C276.571 151.453 277.494 152.208 277.458 153.672C279.942 155.074 282.75 155.875 285.88 156.076C288.673 156.521 290.573 155.835 291.584 154.017C290.184 148.021 285.557 144.61 277.699 143.786C284.586 142.962 285.102 141.143 279.245 138.328C278.134 139.523 276.703 140.221 274.954 140.422Z" fill="#375BA9"/>
<path id="Vector_55" fill-rule="evenodd" clip-rule="evenodd" d="M252.245 144.265C253.506 147.387 256.295 148.92 260.614 148.865C260.649 147.4 260.685 145.936 260.721 144.471C258.112 142.589 259.091 141.147 263.653 140.146C272.18 140.23 273.139 139.521 266.532 138.018C261.934 136.003 257.251 134.79 252.486 134.378C253.773 138.288 253.693 141.583 252.245 144.265Z" fill="#3756AD"/>
<path id="Vector_56" fill-rule="evenodd" clip-rule="evenodd" d="M320.265 137.13C319.324 137.107 318.381 137.084 317.44 137.061C316.148 139.242 314.267 139.196 311.789 136.924C310.849 136.901 309.905 136.878 308.964 136.855C308.946 137.587 308.928 138.319 308.911 139.052C308.893 139.784 308.875 140.516 308.857 141.249C310.741 141.295 311.664 142.05 311.629 143.514C313.513 143.56 314.436 144.316 314.4 145.78C315.341 145.803 316.285 145.826 317.226 145.849C318.238 142.943 319.181 142.966 320.051 145.918C322.4 146.727 323.308 148.214 322.769 150.381C324.653 150.427 325.576 151.182 325.541 152.647C327.425 152.693 328.384 151.983 328.419 150.519C325.62 146.017 322.902 141.554 320.265 137.13Z" fill="#4B64CC"/>
<path id="Vector_57" fill-rule="evenodd" clip-rule="evenodd" d="M300.435 138.845C299.494 138.822 298.55 138.799 297.61 138.776C298.479 141.728 299.351 144.681 300.221 147.633C300.203 148.365 300.185 149.098 300.167 149.83C303.879 152.119 307.595 154.407 311.307 156.696C311.147 155.729 311.634 155.008 312.773 154.534C315.123 156.945 317.423 159.199 319.676 161.297C320.687 159.479 322.586 158.792 325.38 159.238C325.416 157.773 325.451 156.309 325.487 154.844C324.546 154.821 323.603 154.798 322.662 154.775C312.385 153.183 304.975 147.873 300.435 138.845Z" fill="#4762C2"/>
<path id="Vector_58" fill-rule="evenodd" clip-rule="evenodd" d="M328.419 150.519C328.384 151.983 327.425 152.693 325.541 152.647C325.523 153.379 325.505 154.112 325.487 154.844C329.217 156.4 329.182 157.865 325.38 159.238C324.841 161.404 325.749 162.892 328.098 163.701C328.062 165.165 328.985 165.92 330.87 165.966C334.6 167.523 334.564 168.987 330.762 170.36C330.727 171.825 331.65 172.58 333.534 172.626C337.264 174.183 337.229 175.647 333.427 177.02C332.888 179.187 333.796 180.675 336.145 181.483C337.086 181.506 338.029 181.529 338.97 181.552C339.983 178.646 340.926 178.669 341.796 181.621C342.031 170.582 337.571 160.214 328.419 150.519Z" fill="#4B64DA"/>
<path id="Vector_59" fill-rule="evenodd" clip-rule="evenodd" d="M300.167 149.83C297.306 151.226 294.445 152.621 291.584 154.017C290.573 155.835 288.673 156.522 285.88 156.076C285.862 156.808 285.844 157.541 285.826 158.273C287.693 159.051 289.557 159.83 291.423 160.608C296.512 158.161 299.427 154.568 300.167 149.83Z" fill="#4C64E0"/>
<path id="Vector_60" fill-rule="evenodd" clip-rule="evenodd" d="M263.546 144.54C262.605 144.517 261.661 144.494 260.721 144.471C260.685 145.936 260.649 147.4 260.613 148.865C261.655 157.844 268.142 162.399 280.069 162.529C282.455 161.836 283.434 160.395 283.001 158.204C279.114 158.454 275.354 157.996 271.727 156.83C274.33 156.282 276.238 155.229 277.458 153.672C275.573 153.627 274.65 152.871 274.686 151.407C272.802 151.361 271.879 150.605 271.914 149.141C270.974 149.118 270.03 149.095 269.089 149.072C266.282 148.271 264.433 146.76 263.546 144.54Z" fill="#345CAA"/>
<path id="Vector_61" fill-rule="evenodd" clip-rule="evenodd" d="M285.826 158.273C284.886 158.25 283.942 158.227 283.001 158.204C283.434 160.395 282.455 161.836 280.069 162.529C276.213 166.099 276.124 169.761 279.801 173.514C284.533 174.102 287.394 172.706 288.384 169.327C288.103 167.963 287.189 166.841 285.639 165.963C289.21 165.133 291.139 163.348 291.423 160.608C289.557 159.83 287.693 159.051 285.826 158.273Z" fill="#31549C"/>
<path id="Vector_62" fill-rule="evenodd" clip-rule="evenodd" d="M345.264 155.326C343.379 155.28 341.498 155.234 339.613 155.188C343.563 163.032 346.192 171.156 347.5 179.562C349.849 180.37 350.757 181.858 350.218 184.024C352.102 184.07 353.984 184.116 355.868 184.162C354.611 174.03 351.077 164.418 345.264 155.326Z" fill="#3052A5"/>
<path id="Vector_63" fill-rule="evenodd" clip-rule="evenodd" d="M311.307 156.696C312.177 159.648 313.049 162.601 313.918 165.553C317.187 169.09 319.923 172.82 322.126 176.745C322.889 171.054 324.302 171.088 326.364 176.848C327.344 170.845 325.116 165.661 319.676 161.297C317.423 159.199 315.123 156.945 312.773 154.534C311.634 155.008 311.147 155.729 311.307 156.696Z" fill="#3C5CB4"/>
<path id="Vector_64" fill-rule="evenodd" clip-rule="evenodd" d="M325.38 159.238C322.586 158.792 320.687 159.479 319.676 161.297C325.116 165.661 327.344 170.845 326.364 176.848C324.302 171.088 322.89 171.054 322.126 176.744C321.283 180.239 322.155 183.191 324.737 185.601C325.494 176.939 326.906 176.973 328.975 185.705C329.652 182.296 331.136 179.401 333.427 177.02C333.463 175.555 333.498 174.091 333.534 172.626C331.65 172.58 330.727 171.825 330.762 170.36C330.798 168.896 330.834 167.431 330.87 165.966C328.985 165.92 328.062 165.165 328.098 163.7C325.749 162.892 324.841 161.404 325.38 159.238Z" fill="#3E61A7"/>
<path id="Vector_65" fill-rule="evenodd" clip-rule="evenodd" d="M313.918 165.553C296.736 162.199 292.373 167.222 300.829 180.622C305.115 185.156 310.278 186.015 316.315 183.198C314.184 182.243 311.368 181.808 307.866 181.892C311.542 178.034 311.64 174.006 308.16 169.809C310.296 168.362 312.213 166.944 313.918 165.553Z" fill="#3B5DB5"/>
<path id="Vector_66" fill-rule="evenodd" clip-rule="evenodd" d="M288.384 169.327C287.394 172.706 284.533 174.102 279.801 173.514C282.279 176.793 282.208 179.723 279.587 182.302C282.8 184.168 282.747 186.365 279.426 188.893C282.404 191.614 286.134 193.172 290.62 193.562C289.193 190.844 287.371 188.235 285.157 185.735C290.239 184.946 294.059 182.841 296.618 179.42C293.075 176.237 290.33 172.872 288.384 169.327Z" fill="#435FBD"/>
<path id="Vector_67" fill-rule="evenodd" clip-rule="evenodd" d="M217.485 178.589C229.157 180.687 241.375 182.084 254.133 182.78C250.235 183.568 246.442 184.575 242.751 185.8C231.401 184.056 220.136 182.315 208.955 180.579C202.726 180.655 197.04 181.982 191.897 184.56C192.177 185.924 193.091 187.045 194.642 187.924C192.039 188.472 190.13 189.525 188.911 191.082C197.172 191.371 204.749 189.725 211.647 186.141C220.719 184.594 229.186 185.166 237.047 187.859C243.638 188.02 250.233 188.181 256.824 188.342C256.842 187.609 256.86 186.877 256.877 186.145C258.929 184.207 261.772 183.544 265.407 184.154C263.292 182.415 260.494 181.247 257.011 180.652C243.887 179.235 230.713 178.547 217.485 178.589Z" fill="#29539E"/>
<path id="Vector_68" fill-rule="evenodd" clip-rule="evenodd" d="M217.485 178.589C213.85 177.979 211.007 178.642 208.955 180.579C220.136 182.315 231.401 184.056 242.751 185.8C246.442 184.575 250.235 183.568 254.133 182.78C241.375 182.084 229.157 180.687 217.485 178.589Z" fill="#0A3A86"/>
<path id="Vector_69" fill-rule="evenodd" clip-rule="evenodd" d="M279.586 182.302C277.524 183.169 276.076 184.6 275.241 186.593C272.43 184.685 269.151 183.872 265.407 184.154C261.772 183.544 258.929 184.207 256.877 186.145C262.238 186.926 266.912 188.505 270.896 190.883C271.837 190.906 272.781 190.929 273.722 190.952C275.606 190.998 276.529 191.753 276.493 193.218C278.378 193.264 279.301 194.018 279.265 195.484C282.077 195.174 283.941 195.954 284.862 197.819C285.803 197.841 286.746 197.864 287.687 197.887C290.073 197.194 291.052 195.754 290.62 193.562C286.134 193.172 282.404 191.614 279.426 188.893C282.747 186.365 282.8 184.168 279.586 182.302Z" fill="#1E4592"/>
<path id="Vector_70" fill-rule="evenodd" clip-rule="evenodd" d="M347.5 179.562C346.8 183.774 344.901 184.461 341.796 181.621C340.926 178.669 339.983 178.646 338.97 181.552C339.403 183.742 338.424 185.184 336.038 185.877C334.713 197.775 335.44 206.585 338.22 212.309C338.415 206.979 339.953 201.888 342.833 197.034C344.689 198.732 347.024 199.523 349.843 199.403C349.861 198.672 349.878 197.938 349.896 197.206C350.003 192.812 350.111 188.418 350.218 184.024C350.757 181.858 349.849 180.37 347.5 179.562Z" fill="#4B64CD"/>
<path id="Vector_71" fill-rule="evenodd" clip-rule="evenodd" d="M355.868 184.162C353.984 184.116 352.102 184.07 350.218 184.024C350.111 188.418 350.003 192.812 349.896 197.206C352.507 200.389 353.359 204.072 352.454 208.26C355.413 200.722 356.551 192.688 355.868 184.162Z" fill="#285B9C"/>
<path id="Vector_72" fill-rule="evenodd" clip-rule="evenodd" d="M333.427 177.02C331.136 179.401 329.652 182.296 328.975 185.705C326.906 176.973 325.494 176.939 324.737 185.601C324.701 187.066 324.665 188.531 324.63 189.995C325.571 190.018 326.514 190.041 327.455 190.064C329.739 200.742 331.353 211.773 332.302 223.156C336.129 218.636 340.857 218.017 346.482 221.304C346.499 220.572 346.517 219.839 346.535 219.107C346.434 216.667 345.546 214.447 343.871 212.447C344.28 210.833 343.844 209.356 342.565 208.019C341.731 210.012 340.282 211.441 338.22 212.309C335.44 206.585 334.713 197.775 336.038 185.877C336.074 184.412 336.109 182.948 336.145 181.483C333.796 180.675 332.888 179.187 333.427 177.02Z" fill="#11468A"/>
<path id="Vector_73" fill-rule="evenodd" clip-rule="evenodd" d="M299.095 193.769C300.036 193.792 300.98 193.815 301.921 193.838C305.633 196.127 305.58 198.324 301.76 200.429C301.9 201.626 302.823 202.38 304.532 202.695C306.508 199.558 308.464 196.675 310.396 194.045C310.432 192.579 311.391 191.871 313.275 191.917C315.16 191.963 316.118 191.254 316.154 189.789C312.128 187.244 307.428 186.763 302.055 188.346C299.894 189.767 298.906 191.575 299.095 193.769Z" fill="#4361BC"/>
<path id="Vector_74" fill-rule="evenodd" clip-rule="evenodd" d="M237.047 187.859C229.186 185.166 220.719 184.594 211.647 186.141C204.749 189.725 197.172 191.371 188.911 191.082C195.775 193.388 203.292 194.304 211.459 193.83C216.497 191.841 222.166 191.245 228.464 192.047C230.349 192.093 231.307 191.384 231.343 189.919C224.736 188.416 225.695 187.706 234.222 187.79C235.163 187.813 236.106 187.836 237.047 187.859Z" fill="#4963BF"/>
<path id="Vector_75" fill-rule="evenodd" clip-rule="evenodd" d="M256.877 186.145C256.86 186.877 256.842 187.609 256.824 188.342C256.806 189.074 256.788 189.807 256.77 190.539C257.711 190.562 258.655 190.585 259.596 190.607C261.48 190.653 262.403 191.408 262.367 192.873C265.179 192.564 267.043 193.344 267.964 195.208C274.804 197.699 281.327 200.788 287.527 204.478C290.272 203.512 290.308 202.047 287.634 200.084C285.749 200.038 284.826 199.284 284.862 197.818C282.05 198.128 280.186 197.348 279.265 195.484C277.381 195.438 276.458 194.683 276.493 193.218C276.529 191.752 275.606 190.998 273.722 190.952C272.71 193.858 271.766 193.835 270.897 190.883C266.912 188.505 262.238 186.926 256.877 186.145Z" fill="#4B64CF"/>
<path id="Vector_76" fill-rule="evenodd" clip-rule="evenodd" d="M256.824 188.342C250.233 188.181 243.638 188.02 237.047 187.859C236.106 187.836 235.163 187.813 234.222 187.79C234.186 189.256 233.227 189.964 231.343 189.919C231.307 191.384 230.349 192.093 228.464 192.047C228.446 192.778 228.428 193.512 228.411 194.244C232.943 193.765 236.691 194.591 239.658 196.716C247.699 197.844 255.18 200.225 262.099 203.858C265.497 203.18 265.524 202.082 262.18 200.563C256.583 198.228 250.986 195.893 245.389 193.558C253.476 193.569 260.967 195.585 267.857 199.602C270.603 198.636 270.639 197.17 267.964 195.208C265.152 195.518 263.288 194.738 262.367 192.873C262.403 191.408 261.48 190.653 259.595 190.608C258.583 193.513 257.64 193.49 256.77 190.539C256.788 189.807 256.806 189.074 256.824 188.342Z" fill="#4B64DD"/>
<path id="Vector_77" fill-rule="evenodd" clip-rule="evenodd" d="M188.911 191.082C186.525 191.776 185.546 193.216 185.978 195.407C192.57 195.568 199.164 195.729 205.755 195.889C210.465 196.004 215.172 196.119 219.881 196.234C222.675 196.68 224.574 195.992 225.585 194.175C220.876 194.06 216.169 193.945 211.459 193.83C203.292 194.304 195.775 193.388 188.911 191.082Z" fill="#4261AB"/>
<path id="Vector_78" fill-rule="evenodd" clip-rule="evenodd" d="M327.455 190.064C326.514 190.041 325.571 190.018 324.63 189.995C324.991 193.739 324.432 197.39 322.949 200.946C321.999 196.546 319.735 192.826 316.154 189.789C316.118 191.254 315.16 191.963 313.275 191.917C313.257 192.648 313.239 193.382 313.222 194.114C316.803 197.151 319.067 200.871 320.017 205.271C320.975 204.562 321.937 203.851 322.896 203.143C324.209 205.259 324.625 207.467 324.148 209.768C325.088 209.791 326.032 209.814 326.973 209.837C327.134 203.246 327.294 196.655 327.455 190.064Z" fill="#4B64CF"/>
<path id="Vector_79" fill-rule="evenodd" clip-rule="evenodd" d="M228.411 194.244C227.47 194.221 226.526 194.198 225.585 194.175C224.574 195.992 222.675 196.68 219.881 196.234C218.87 198.051 216.971 198.739 214.177 198.293C214.142 199.758 213.183 200.467 211.298 200.421C215.257 202.608 219.946 203.455 225.371 202.963C227.256 203.008 228.214 202.3 228.25 200.834C225.573 197.687 228.867 197.768 238.138 201.076C246.25 203.905 254.183 207.028 261.939 210.449C265.336 209.771 265.363 208.673 262.019 207.154C253.919 204.156 246.465 200.676 239.658 196.716C235.126 197.195 231.378 196.369 228.411 194.244Z" fill="#4B64D8"/>
<path id="Vector_80" fill-rule="evenodd" clip-rule="evenodd" d="M191.897 184.56C180.861 186.969 172.26 191.887 166.094 199.319C169.86 199.411 173.629 199.502 177.395 199.594C178.807 196.538 181.668 195.141 185.978 195.407C185.546 193.216 186.525 191.776 188.911 191.082C190.13 189.525 192.039 188.472 194.642 187.924C193.091 187.046 192.177 185.924 191.897 184.56Z" fill="#1F4694"/>
<path id="Vector_81" fill-rule="evenodd" clip-rule="evenodd" d="M313.222 194.114C312.281 194.091 311.337 194.068 310.396 194.045C308.464 196.675 306.508 199.558 304.532 202.695C302.823 202.381 301.9 201.626 301.76 200.429C301.813 198.232 301.867 196.035 301.921 193.838C300.98 193.815 300.036 193.792 299.095 193.769C296.199 196.629 293.373 196.56 290.62 193.562C291.052 195.754 290.073 197.194 287.687 197.887C287.669 198.619 287.651 199.353 287.634 200.084C295.977 202.827 303.422 206.673 309.968 211.62C309.535 209.429 310.514 207.989 312.9 207.295C309.241 202.81 309.348 198.416 313.222 194.114Z" fill="#2D50A8"/>
<path id="Vector_82" fill-rule="evenodd" clip-rule="evenodd" d="M205.755 195.889C199.164 195.729 192.57 195.568 185.978 195.407C181.668 195.141 178.807 196.538 177.395 199.594C179.28 199.64 180.203 200.395 180.167 201.86C182.992 201.929 185.818 201.998 188.643 202.067C195.611 200.098 203.164 199.55 211.298 200.421C213.183 200.467 214.141 199.758 214.177 198.293C210.517 198.725 207.71 197.924 205.755 195.889Z" fill="#4063B9"/>
<path id="Vector_83" fill-rule="evenodd" clip-rule="evenodd" d="M180.167 201.86C180.203 200.395 179.28 199.64 177.395 199.594C173.629 199.502 169.861 199.411 166.094 199.319C161.331 201.401 157.494 204.238 154.579 207.831C158.239 207.399 161.047 208.2 163.001 210.235C163.942 210.258 164.886 210.281 165.827 210.304C168.894 208.325 172.678 207.683 177.181 208.382C166.324 206.009 166.378 203.812 177.342 201.791C178.283 201.814 179.226 201.837 180.167 201.86Z" fill="#1B4994"/>
<path id="Vector_84" fill-rule="evenodd" clip-rule="evenodd" d="M349.896 197.206C349.878 197.938 349.861 198.672 349.843 199.403C350.395 204.688 348.404 209.036 343.871 212.447C345.546 214.447 346.434 216.667 346.535 219.107C350.647 216.393 352.621 212.777 352.454 208.26C353.359 204.072 352.507 200.389 349.896 197.206Z" fill="#1B4393"/>
<path id="Vector_85" fill-rule="evenodd" clip-rule="evenodd" d="M338.22 212.309C340.282 211.441 341.731 210.012 342.565 208.019C343.844 209.356 344.28 210.833 343.871 212.447C348.403 209.036 350.395 204.688 349.843 199.403C347.024 199.524 344.689 198.732 342.833 197.034C339.953 201.888 338.415 206.979 338.22 212.309Z" fill="#2F5A9B"/>
<path id="Vector_86" fill-rule="evenodd" clip-rule="evenodd" d="M188.643 202.067C184.805 204.904 181.037 204.812 177.342 201.791C166.378 203.812 166.324 206.009 177.181 208.382C180.006 208.451 182.832 208.52 185.657 208.589C194.538 206.653 203.973 206.149 213.963 207.081C215.847 207.127 216.806 206.418 216.842 204.953C207.596 203.173 198.197 202.212 188.643 202.067Z" fill="#4863C5"/>
<path id="Vector_87" fill-rule="evenodd" clip-rule="evenodd" d="M196.904 211.061C196.922 210.33 196.94 209.596 196.958 208.864C193.192 208.773 189.423 208.681 185.657 208.589C182.832 208.52 180.006 208.451 177.181 208.382C172.678 207.683 168.894 208.325 165.827 210.304C164.814 213.209 163.871 213.186 163.001 210.235C159.2 211.608 159.164 213.071 162.894 214.629C163.835 214.652 164.779 214.675 165.719 214.697C166.66 214.72 167.604 214.743 168.545 214.766C168.58 213.301 169.539 212.592 171.424 212.638C174.249 212.707 177.074 212.776 179.899 212.845C179.935 211.38 180.894 210.671 182.778 210.717C187.488 210.832 192.195 210.947 196.904 211.061Z" fill="#4963BC"/>
<path id="Vector_88" fill-rule="evenodd" clip-rule="evenodd" d="M312.9 207.295C310.514 207.989 309.535 209.429 309.968 211.62C313.68 213.909 317.396 216.198 321.108 218.487C324.85 216.452 326.805 213.568 326.973 209.837C326.032 209.814 325.088 209.791 324.148 209.768C324.478 211.401 323.971 212.854 322.628 214.127C319.757 211.398 316.514 209.12 312.9 207.295Z" fill="#314B9D"/>
<path id="Vector_89" fill-rule="evenodd" clip-rule="evenodd" d="M228.25 200.834C228.214 202.3 227.255 203.008 225.371 202.963C225.353 203.694 225.335 204.428 225.317 205.16C228.978 204.728 231.785 205.528 233.74 207.563C243.048 210.373 252.42 212.433 261.858 213.745C250.934 208.816 239.731 204.511 228.25 200.834Z" fill="#4B64DF"/>
<path id="Vector_90" fill-rule="evenodd" clip-rule="evenodd" d="M196.958 208.864C196.94 209.596 196.922 210.33 196.904 211.061C199.716 210.752 201.58 211.532 202.501 213.396C211.922 212.999 220.362 214.671 227.821 218.41C232.681 219.221 237.382 219.701 241.921 219.853C228.102 213.499 213.115 209.837 196.958 208.864Z" fill="#4B64DD"/>
<path id="Vector_91" fill-rule="evenodd" clip-rule="evenodd" d="M327.455 190.064C327.294 196.655 327.134 203.246 326.973 209.837C326.806 213.568 324.85 216.452 321.108 218.487C324.838 220.044 327.61 222.31 329.423 225.284C331.307 225.33 332.266 224.622 332.302 223.156C331.353 211.773 329.739 200.742 327.455 190.064Z" fill="#043783"/>
<path id="Vector_92" fill-rule="evenodd" clip-rule="evenodd" d="M225.317 205.159C222.492 205.091 219.667 205.022 216.842 204.953C216.806 206.418 215.847 207.127 213.963 207.081C226.159 209.471 237.843 213.418 249.011 218.927C250.999 217.146 250.563 215.672 247.705 214.499C242.39 212.665 237.734 210.353 233.74 207.563C230.08 207.995 227.272 207.194 225.317 205.159Z" fill="#4B64DA"/>
<path id="Vector_93" fill-rule="evenodd" clip-rule="evenodd" d="M182.778 210.717C180.894 210.671 179.935 211.38 179.899 212.845C179.881 213.577 179.863 214.31 179.846 215.042C183.506 214.61 186.313 215.411 188.268 217.446C203.379 218.188 217.921 220.741 231.898 225.104C232.643 222.291 231.284 220.06 227.821 218.41C218.714 217.801 210.274 216.129 202.501 213.396C195.255 213.883 188.679 212.989 182.778 210.717Z" fill="#4B64D6"/>
<path id="Vector_94" fill-rule="evenodd" clip-rule="evenodd" d="M163.001 210.235C161.047 208.2 158.239 207.399 154.579 207.831C150.179 211.496 147.246 215.821 145.782 220.806C147.166 224.81 148.961 228.516 151.165 231.929C152.105 231.952 153.049 231.975 153.99 231.998C154.026 230.532 154.984 229.824 156.869 229.87C156.887 229.138 156.904 228.404 156.922 227.673C153.228 224.652 153.299 221.721 157.137 218.885C158.077 218.908 159.021 218.931 159.962 218.954C159.998 217.488 160.956 216.78 162.841 216.826C162.858 216.094 162.876 215.36 162.894 214.629C159.164 213.071 159.2 211.608 163.001 210.235Z" fill="#224C96"/>
<path id="Vector_95" fill-rule="evenodd" clip-rule="evenodd" d="M332.302 223.156C332.266 224.622 331.307 225.33 329.423 225.284C329.405 226.016 329.387 226.75 329.369 227.481C331.254 227.527 332.177 228.282 332.141 229.747C334.026 229.793 334.948 230.548 334.913 232.013C336.797 232.059 337.72 232.814 337.684 234.279C338.625 234.302 339.569 234.325 340.51 234.348C342.412 233.662 344.311 232.974 346.214 232.289C344.985 230.153 343.148 228.275 340.697 226.659C343.224 225.164 345.15 223.377 346.482 221.304C340.857 218.017 336.129 218.636 332.302 223.156Z" fill="#1C4694"/>
<path id="Vector_96" fill-rule="evenodd" clip-rule="evenodd" d="M176.967 217.17C175.082 217.124 174.124 217.833 174.088 219.298C174.07 220.03 174.052 220.763 174.034 221.495C175.919 221.541 176.842 222.296 176.806 223.761C182.99 223.002 189.593 222.796 196.61 223.145C190.074 220.693 183.528 218.702 176.967 217.17Z" fill="#4B64EA"/>
<path id="Vector_97" fill-rule="evenodd" clip-rule="evenodd" d="M171.423 212.638C169.539 212.592 168.58 213.301 168.545 214.766C167.532 217.672 166.589 217.649 165.719 214.697C164.779 214.674 163.835 214.651 162.894 214.629C162.876 215.36 162.858 216.094 162.841 216.825C160.956 216.78 159.997 217.488 159.962 218.954C158.95 221.859 158.006 221.836 157.137 218.885C153.299 221.721 153.228 224.652 156.922 227.673C157.863 227.695 158.807 227.718 159.747 227.741C160.688 227.764 161.632 227.787 162.573 227.81C163.584 225.993 165.483 225.305 168.277 225.751C170.328 223.814 173.171 223.151 176.806 223.761C176.842 222.296 175.919 221.541 174.034 221.495C166.517 220.58 166.535 219.846 174.088 219.298C174.124 217.833 175.082 217.124 176.967 217.17C180.733 217.262 184.502 217.354 188.268 217.446C186.313 215.411 183.506 214.61 179.846 215.042C176.186 215.474 173.378 214.673 171.423 212.638Z" fill="#4A64CA"/>
<path id="Vector_98" fill-rule="evenodd" clip-rule="evenodd" d="M321.108 218.487C321.439 220.12 320.931 221.573 319.588 222.846C316.744 218.796 313.468 217.982 309.753 220.408C311.638 220.454 312.561 221.209 312.525 222.674C314.41 222.72 315.333 223.475 315.297 224.94C317.181 224.986 318.104 225.741 318.068 227.206C319.953 227.252 320.876 228.006 320.84 229.472C321.781 229.495 322.725 229.518 323.665 229.541C323.233 227.349 324.212 225.909 326.598 225.216C327.539 225.239 328.482 225.262 329.423 225.285C327.61 222.31 324.838 220.044 321.108 218.487Z" fill="#4B64D0"/>
<path id="Vector_99" fill-rule="evenodd" clip-rule="evenodd" d="M334.484 249.589C334.502 248.857 334.52 248.124 334.538 247.392C334.573 245.927 335.532 245.218 337.417 245.264C337.452 243.798 336.529 243.044 334.645 242.998C332.76 242.952 331.837 242.198 331.873 240.732C329.989 240.686 329.066 239.932 329.102 238.466C327.217 238.42 326.294 237.666 326.33 236.2C324.445 236.154 323.522 235.4 323.558 233.935C321.209 233.125 320.301 231.639 320.84 229.472C318.956 229.426 318.033 228.671 318.068 227.206C316.184 227.16 315.261 226.405 315.297 224.94C313.412 224.894 312.489 224.139 312.525 222.674C310.641 222.628 309.718 221.874 309.753 220.408C303.321 216.877 296.792 214.152 290.164 212.237C305.922 224.056 320.694 236.507 334.484 249.589Z" fill="#4B64CA"/>
<path id="Vector_100" fill-rule="evenodd" clip-rule="evenodd" d="M314.868 242.516C314.886 241.784 314.904 241.05 314.922 240.319C312.329 235.824 308.658 231.705 303.915 227.96C297.043 224.587 291.019 220.411 285.846 215.429C292.572 225.821 302.246 234.85 314.868 242.516Z" fill="#4B64DA"/>
<path id="Vector_101" fill-rule="evenodd" clip-rule="evenodd" d="M326.598 225.216C324.212 225.909 323.233 227.349 323.665 229.541C323.63 231.006 323.594 232.469 323.558 233.935C325.443 233.98 326.366 234.735 326.33 236.2C328.214 236.246 329.137 237.001 329.102 238.466C330.986 238.512 331.909 239.267 331.873 240.732C332.814 240.755 333.758 240.778 334.698 240.801C336.601 240.115 338.5 239.427 340.403 238.742C340.42 238.01 340.438 237.276 340.456 236.545C338.572 236.499 337.649 235.744 337.684 234.279C335.8 234.233 334.877 233.479 334.913 232.013C333.028 231.967 332.105 231.213 332.141 229.747C330.257 229.701 329.334 228.947 329.369 227.481C327.485 227.435 326.562 226.681 326.598 225.216Z" fill="#4B64C5"/>
<path id="Vector_102" fill-rule="evenodd" clip-rule="evenodd" d="M168.277 225.751C167.266 227.569 165.366 228.257 162.573 227.81C161.56 230.716 160.617 230.693 159.747 227.741C158.807 227.718 157.863 227.695 156.922 227.673C156.904 228.404 156.886 229.138 156.869 229.869C154.984 229.824 154.026 230.532 153.99 231.998C153.049 231.975 152.105 231.952 151.165 231.929C147.345 234.034 147.291 236.231 151.004 238.52C151.945 238.543 152.888 238.566 153.829 238.588C156.521 233.233 160.794 231.871 166.65 234.505C171.652 233.651 171.207 232.541 165.318 231.175C171.826 229.526 178.456 228.222 185.201 227.263C179.654 226.04 174.012 225.535 168.277 225.751Z" fill="#4B64DC"/>
<path id="Vector_103" fill-rule="evenodd" clip-rule="evenodd" d="M275.529 232.763C271.902 233.943 271.866 235.406 275.422 237.157C278.168 236.191 278.203 234.726 275.529 232.763Z" fill="#4B64E9"/>
<path id="Vector_104" fill-rule="evenodd" clip-rule="evenodd" d="M196.369 233.031C201.729 233.812 206.403 235.393 210.388 237.77C214.154 237.861 217.923 237.953 221.689 238.045C224.482 238.491 226.382 237.803 227.393 235.986C217.491 231.196 207.151 230.212 196.369 233.031Z" fill="#4A64B9"/>
<path id="Vector_105" fill-rule="evenodd" clip-rule="evenodd" d="M145.782 220.806C141.306 225.836 139.281 231.65 139.703 238.244C141.914 236.621 143.38 234.458 144.101 231.756C145.394 236.125 145.759 240.531 145.193 244.973C146.462 250.073 147.278 255.221 147.643 260.42C148.584 260.443 149.527 260.466 150.468 260.489C149.802 253.386 151.847 246.841 156.601 240.854C156.283 239.512 155.36 238.758 153.829 238.588C152.817 241.494 151.873 241.471 151.004 238.52C147.291 236.231 147.345 234.034 151.165 231.929C148.961 228.516 147.166 224.81 145.782 220.806Z" fill="#3254A7"/>
<path id="Vector_106" fill-rule="evenodd" clip-rule="evenodd" d="M346.214 232.289C344.311 232.974 342.412 233.662 340.51 234.348C340.492 235.08 340.474 235.813 340.456 236.545C342.341 236.591 343.264 237.345 343.228 238.811C347.175 239.947 349.006 242.19 348.718 245.539C352.664 246.675 354.495 248.918 354.207 252.268C356.557 253.077 357.464 254.563 356.925 256.731C357.866 256.754 358.81 256.777 359.751 256.8C360.745 254.626 362.665 253.206 365.508 252.544C360.086 245.135 353.655 238.384 346.214 232.289Z" fill="#2C4CA4"/>
<path id="Vector_107" fill-rule="evenodd" clip-rule="evenodd" d="M221.689 238.045C217.923 237.953 214.154 237.861 210.388 237.769C205.596 237.301 200.877 237.551 196.235 238.523C203.056 239.327 209.623 240.587 215.931 242.301C218.743 241.992 220.607 242.771 221.528 244.636C223.412 244.682 225.294 244.728 227.178 244.774C230.838 244.342 233.646 245.143 235.601 247.177C238.394 247.624 240.293 246.936 241.305 245.118C234.322 243.139 227.782 240.781 221.689 238.045Z" fill="#073B88"/>
<path id="Vector_108" fill-rule="evenodd" clip-rule="evenodd" d="M196.369 233.031C195.428 233.008 194.484 232.985 193.543 232.962C193.259 235.703 191.33 237.487 187.759 238.317C193.727 239.214 194.626 241.067 190.45 243.878C189.088 246.641 190.919 248.884 195.94 250.607C195.904 252.072 195.868 253.535 195.833 255.001C198.881 252.657 201.309 249.784 203.11 246.385C205.046 244.779 207.418 244.103 210.227 244.36C213.02 244.807 214.92 244.119 215.931 242.301C209.623 240.587 203.056 239.327 196.235 238.523C200.877 237.551 205.596 237.301 210.388 237.769C206.403 235.393 201.729 233.812 196.369 233.031Z" fill="#124B8C"/>
<path id="Vector_109" fill-rule="evenodd" clip-rule="evenodd" d="M179.31 237.012C174.394 238.048 170.572 240.153 167.848 243.327C169.382 246.602 169.293 250.265 167.58 254.312C170.392 254.002 172.256 254.782 173.177 256.647C173.159 257.378 173.141 258.112 173.124 258.843C176.988 254.559 180.864 250.257 184.746 245.937C169.854 247.08 169.899 245.248 184.88 240.445C183.381 238.832 181.524 237.688 179.31 237.012Z" fill="#375EA4"/>
<path id="Vector_110" fill-rule="evenodd" clip-rule="evenodd" d="M139.703 238.244C135.83 242.546 135.722 246.94 139.381 251.426C138.864 247.722 140.802 245.571 145.193 244.973C145.759 240.531 145.394 236.125 144.101 231.756C143.38 234.458 141.914 236.621 139.703 238.244Z" fill="#1C46A0"/>
<path id="Vector_111" fill-rule="evenodd" clip-rule="evenodd" d="M284.112 228.576C285.996 228.622 286.919 229.377 286.884 230.842C288.768 230.888 289.691 231.642 289.655 233.108C291.54 233.154 292.463 233.908 292.427 235.374C294.311 235.42 295.234 236.174 295.199 237.64C297.083 237.685 298.006 238.44 297.97 239.905C299.855 239.951 300.778 240.706 300.742 242.171C302.626 242.217 303.549 242.972 303.514 244.437C308.451 246.233 311.205 249.232 311.775 253.432C320.326 259.701 326.739 267.184 331.016 275.884C332.9 275.93 333.859 275.221 333.895 273.756C324.253 255.75 309.549 240.37 289.789 227.615C287.179 226.03 285.288 226.352 284.112 228.576Z" fill="#4B64D4"/>
<path id="Vector_112" fill-rule="evenodd" clip-rule="evenodd" d="M227.393 235.986C226.382 237.803 224.482 238.491 221.689 238.045C227.782 240.781 234.322 243.139 241.305 245.118C243.189 245.164 244.148 244.456 244.183 242.99C239.515 239.561 233.918 237.227 227.393 235.986Z" fill="#4262A8"/>
<path id="Vector_113" fill-rule="evenodd" clip-rule="evenodd" d="M193.543 232.962C188.151 233.481 183.406 234.832 179.31 237.012C181.524 237.688 183.381 238.832 184.88 240.445C169.899 245.248 169.854 247.08 184.746 245.937C186.648 245.252 188.548 244.564 190.45 243.878C194.626 241.067 193.727 239.214 187.759 238.317C191.33 237.487 193.259 235.703 193.543 232.962Z" fill="#13438F"/>
<path id="Vector_114" fill-rule="evenodd" clip-rule="evenodd" d="M314.922 240.319C314.904 241.05 314.886 241.784 314.868 242.516C318.748 248.126 323.333 253.368 328.619 258.239C330.504 258.285 331.462 257.576 331.498 256.111C327.982 249.58 322.457 244.314 314.922 240.319Z" fill="#4B64CB"/>
<path id="Vector_115" fill-rule="evenodd" clip-rule="evenodd" d="M221.528 244.636C220.606 242.771 218.743 241.992 215.931 242.301C214.92 244.119 213.02 244.807 210.227 244.36C207.592 247.514 207.52 250.445 210.013 253.148C210.953 253.171 211.897 253.194 212.838 253.217C213.921 247.381 214.865 247.404 215.663 253.286C219.789 253.239 223.537 254.063 226.91 255.759C227.685 251.592 230.582 248.73 235.6 247.177C233.646 245.143 230.838 244.342 227.178 244.774C225.783 250.176 222.949 250.474 218.676 245.666C219.341 244.805 220.294 244.463 221.528 244.636ZM227.178 244.774C225.294 244.728 223.412 244.682 221.528 244.636C220.294 244.463 219.341 244.805 218.676 245.666C222.949 250.474 225.783 250.176 227.178 244.774Z" fill="#425EC0"/>
<path id="Vector_116" fill-rule="evenodd" clip-rule="evenodd" d="M343.228 238.811C342.287 238.788 341.343 238.765 340.403 238.742C338.5 239.428 336.601 240.115 334.698 240.801C334.681 241.533 334.663 242.266 334.645 242.998C336.529 243.044 337.452 243.799 337.417 245.264C337.399 245.995 337.381 246.729 337.363 247.461C339.247 247.507 340.17 248.261 340.135 249.727C342.019 249.773 342.942 250.527 342.906 251.993C342.888 252.724 342.871 253.458 342.853 254.19C343.794 254.212 344.737 254.235 345.678 254.258C345.245 252.067 346.225 250.627 348.61 249.933C348.646 248.468 348.682 247.005 348.718 245.539C344.771 244.403 342.94 242.161 343.228 238.811Z" fill="#4964BA"/>
<path id="Vector_117" fill-rule="evenodd" clip-rule="evenodd" d="M244.183 242.99C244.148 244.456 243.189 245.164 241.305 245.118C240.293 246.936 238.394 247.624 235.601 247.177C236.743 248.792 238.598 249.937 241.171 250.611C229.934 252.786 229.89 254.616 241.037 256.103C240.194 259.598 241.066 262.549 243.648 264.96C244.588 264.983 245.532 265.006 246.473 265.029C247.414 265.052 248.357 265.075 249.298 265.098C248.429 262.146 247.557 259.192 246.687 256.241C243.8 250.941 246.679 248.813 255.324 249.857C252.758 246.554 249.043 244.265 244.183 242.99Z" fill="#3054AB"/>
<path id="Vector_118" fill-rule="evenodd" clip-rule="evenodd" d="M284.112 228.576C281.195 229.378 280.687 230.829 282.592 232.935C293.013 240.321 301.764 248.595 308.843 257.757C309.783 257.78 310.727 257.803 311.668 257.826C311.704 256.36 311.739 254.897 311.775 253.432C306.838 251.636 304.084 248.636 303.514 244.437C301.629 244.391 300.706 243.637 300.742 242.171C298.857 242.125 297.935 241.371 297.97 239.905C296.086 239.859 295.163 239.105 295.199 237.639C293.314 237.594 292.391 236.839 292.427 235.374C290.542 235.328 289.62 234.573 289.655 233.108C287.771 233.062 286.848 232.307 286.884 230.842C284.999 230.796 284.076 230.041 284.112 228.576Z" fill="#4B64D6"/>
<path id="Vector_119" fill-rule="evenodd" clip-rule="evenodd" d="M303.139 259.816C301.748 255.289 298.54 251.546 293.518 248.59C293.614 253.587 296.819 257.327 303.139 259.816Z" fill="#4B64E9"/>
<path id="Vector_120" fill-rule="evenodd" clip-rule="evenodd" d="M255.324 249.857C246.679 248.813 243.8 250.941 246.687 256.241C250.113 258.096 252.885 260.362 255.002 263.039C256.014 260.133 256.958 260.156 257.827 263.107C260.617 264.642 263.407 266.174 266.196 267.708C265.866 266.075 266.373 264.622 267.716 263.349C269.571 265.047 271.907 265.838 274.725 265.718C269.218 259.721 262.751 254.434 255.324 249.857Z" fill="#1D4898"/>
<path id="Vector_121" fill-rule="evenodd" clip-rule="evenodd" d="M337.363 247.461C336.422 247.438 335.479 247.415 334.538 247.392C334.52 248.124 334.502 248.857 334.484 249.589C336.731 254.816 340.393 259.302 345.464 263.046C345.482 262.315 345.499 261.581 345.517 260.849C345.553 259.384 346.512 258.675 348.396 258.721C348.432 257.256 347.509 256.501 345.624 256.455C343.74 256.409 342.817 255.655 342.853 254.19C339.105 253.366 339.122 252.632 342.906 251.993C342.942 250.527 342.019 249.773 340.135 249.727C338.25 249.681 337.327 248.926 337.363 247.461Z" fill="#4B64C6"/>
<path id="Vector_122" fill-rule="evenodd" clip-rule="evenodd" d="M348.61 249.933C346.225 250.627 345.245 252.067 345.678 254.258C345.66 254.99 345.642 255.724 345.624 256.455C347.509 256.501 348.432 257.256 348.396 258.721C346.512 258.675 345.553 259.384 345.517 260.849C345.499 261.581 345.482 262.315 345.464 263.046C347.386 268.488 350.086 273.682 353.564 278.632C355.95 277.938 356.93 276.498 356.497 274.307C353.234 271.998 351.424 269.024 351.061 265.381C353.648 263.707 355.586 261.556 356.872 258.928C356.89 258.196 356.908 257.463 356.925 256.731C354.576 255.922 353.668 254.436 354.207 252.268C352.341 251.491 350.477 250.711 348.61 249.933Z" fill="#4A64BE"/>
<path id="Vector_123" fill-rule="evenodd" clip-rule="evenodd" d="M210.227 244.36C207.418 244.103 205.046 244.779 203.11 246.385C201.309 249.784 198.881 252.657 195.833 255.001C196.738 256.489 197.646 257.975 198.551 259.464C204.766 261.389 208.588 259.284 210.013 253.148C207.52 250.445 207.592 247.514 210.227 244.36Z" fill="#445FB7"/>
<path id="Vector_124" fill-rule="evenodd" clip-rule="evenodd" d="M167.848 243.327C162.829 244.88 159.933 247.741 159.158 251.908C162.773 253.223 165.073 255.477 166.061 258.671C167.403 257.398 167.911 255.944 167.58 254.312C169.293 250.265 169.382 246.602 167.848 243.327Z" fill="#4864B2"/>
<path id="Vector_125" fill-rule="evenodd" clip-rule="evenodd" d="M159.158 251.908C159.389 254.035 158.383 256.576 156.145 259.529C158.977 260.378 160.817 262.254 161.662 265.159C163.724 264.29 165.172 262.861 166.007 260.868C166.93 261.623 167.856 262.38 168.779 263.134C169.5 260.432 170.966 258.27 173.177 256.647C172.256 254.782 170.392 254.002 167.58 254.312C167.911 255.944 167.403 257.398 166.06 258.671C165.073 255.477 162.773 253.223 159.158 251.908Z" fill="#4B64CB"/>
<path id="Vector_126" fill-rule="evenodd" clip-rule="evenodd" d="M359.697 258.997C358.756 258.974 357.813 258.951 356.872 258.928C355.586 261.556 353.648 263.707 351.061 265.381C351.424 269.024 353.234 271.998 356.497 274.307C357.037 270.686 358.99 267.803 362.362 265.657C362.379 264.925 362.397 264.191 362.415 263.46C360.066 262.651 359.158 261.164 359.697 258.997Z" fill="#4C64D1"/>
<path id="Vector_127" fill-rule="evenodd" clip-rule="evenodd" d="M311.668 257.826C310.727 257.803 309.783 257.78 308.843 257.757C318.252 268.03 325.516 279.199 330.641 291.262C332.525 291.308 333.484 290.6 333.52 289.134C329.118 277.317 321.833 266.882 311.668 257.826Z" fill="#4B64D9"/>
<path id="Vector_128" fill-rule="evenodd" clip-rule="evenodd" d="M145.193 244.973C140.802 245.571 138.864 247.722 139.381 251.426C138.907 255.354 139.758 259.037 141.939 262.48C145.883 265.941 147.782 265.256 147.643 260.42C147.278 255.221 146.462 250.073 145.193 244.973Z" fill="#16428D"/>
<path id="Vector_129" fill-rule="evenodd" clip-rule="evenodd" d="M303.139 259.816C302.85 263.166 304.681 265.409 308.628 266.545C308.916 263.195 307.086 260.952 303.139 259.816Z" fill="#4B64E9"/>
<path id="Vector_130" fill-rule="evenodd" clip-rule="evenodd" d="M190.45 243.878C188.548 244.564 186.648 245.252 184.746 245.937C180.864 250.257 176.988 254.559 173.124 258.844C174.389 263.972 177.108 268.435 181.278 272.232C181.314 270.767 181.349 269.303 181.385 267.838C181.403 267.106 181.421 266.373 181.439 265.641C179.554 265.595 178.631 264.841 178.667 263.375C178.738 259.402 180.24 255.775 183.173 252.494C184.161 255.688 186.46 257.942 190.075 259.257C190.093 258.525 190.111 257.792 190.129 257.06C191.414 254.431 193.352 252.28 195.94 250.607C190.919 248.884 189.088 246.641 190.45 243.878Z" fill="#4A64C2"/>
<path id="Vector_131" fill-rule="evenodd" clip-rule="evenodd" d="M173.177 256.647C170.966 258.27 169.5 260.432 168.779 263.134C167.856 262.38 166.93 261.623 166.007 260.868C165.172 262.861 163.724 264.29 161.662 265.159C168.435 272.915 176.831 276.417 186.848 275.665C185.349 274.053 183.492 272.908 181.278 272.232C177.107 268.435 174.389 263.972 173.124 258.843C173.141 258.112 173.159 257.378 173.177 256.647Z" fill="#4B64DA"/>
<path id="Vector_132" fill-rule="evenodd" clip-rule="evenodd" d="M215.663 253.286C214.722 253.263 213.779 253.24 212.838 253.217C207.684 261.704 209.39 269.075 217.953 275.325C219.837 275.371 220.796 274.662 220.831 273.196C215.389 269.063 214.555 264.646 218.328 259.946C218.06 263.147 218.93 266.098 220.939 268.803C223.23 266.421 224.714 263.526 225.391 260.118C225.812 264.982 227.117 269.41 229.307 273.403C232.254 267.443 231.453 261.561 226.91 255.759C223.537 254.063 219.789 253.239 215.663 253.286ZM218.328 259.946C214.555 264.646 215.389 269.063 220.831 273.196C223.697 272.304 223.733 270.84 220.939 268.803C218.93 266.098 218.06 263.147 218.328 259.946Z" fill="#3255A6"/>
<path id="Vector_133" fill-rule="evenodd" clip-rule="evenodd" d="M195.94 250.607C193.352 252.28 191.414 254.431 190.129 257.06C193.442 262.509 197.555 267.74 202.467 272.749C202.151 268.331 200.845 263.903 198.551 259.464C197.646 257.975 196.738 256.489 195.833 255.001C195.868 253.535 195.904 252.072 195.94 250.607Z" fill="#4B64DD"/>
<path id="Vector_134" fill-rule="evenodd" clip-rule="evenodd" d="M150.468 260.489C149.527 260.466 148.584 260.443 147.643 260.42C147.782 265.256 145.883 265.941 141.939 262.48C142.513 265.927 144.326 268.902 147.375 271.405C149.925 270.126 152.768 269.464 155.904 269.415C154.603 266.097 152.793 263.12 150.468 260.489Z" fill="#2B4EA2"/>
<path id="Vector_135" fill-rule="evenodd" clip-rule="evenodd" d="M308.628 266.545C308.451 269.301 309.81 271.533 312.706 273.239C314.439 269.988 313.079 267.757 308.628 266.545Z" fill="#4B64E8"/>
<path id="Vector_136" fill-rule="evenodd" clip-rule="evenodd" d="M331.498 256.111C331.462 257.576 330.504 258.285 328.619 258.239C334.8 266.099 340.254 274.291 344.981 282.819C346.866 282.865 347.825 282.156 347.86 280.691C344.574 271.477 339.12 263.283 331.498 256.111Z" fill="#4B64CE"/>
<path id="Vector_137" fill-rule="evenodd" clip-rule="evenodd" d="M246.687 256.241C247.557 259.192 248.429 262.146 249.298 265.098C248.286 268.003 247.342 267.98 246.473 265.029C245.532 265.006 244.588 264.983 243.648 264.96C241.157 267.761 239.673 270.655 239.195 273.644C248.702 273.441 254.913 269.928 257.827 263.107C256.887 263.084 255.943 263.061 255.002 263.038C252.885 260.362 250.113 258.096 246.687 256.241Z" fill="#4761CB"/>
<path id="Vector_138" fill-rule="evenodd" clip-rule="evenodd" d="M178.667 263.375C180.551 263.421 181.474 264.176 181.439 265.641C181.421 266.373 181.403 267.106 181.385 267.838C185.954 270.594 190.619 272.539 195.377 273.675C192.182 269.185 190.417 264.381 190.075 259.257C186.46 257.942 184.161 255.688 183.173 252.494C180.24 255.775 178.738 259.402 178.667 263.375Z" fill="#4B64DD"/>
<path id="Vector_139" fill-rule="evenodd" clip-rule="evenodd" d="M373.823 259.341C369.705 259.094 365.921 259.733 362.469 261.263C362.451 261.994 362.433 262.728 362.415 263.46C364.764 264.269 365.672 265.755 365.133 267.923C367.483 268.732 368.39 270.218 367.851 272.385C370.201 273.194 371.109 274.681 370.569 276.848C372.919 277.657 373.827 279.143 373.288 281.311C374.228 281.334 375.172 281.357 376.113 281.38C376.149 279.915 376.184 278.451 376.22 276.986C376.256 275.521 376.291 274.057 376.327 272.592C374.381 269.047 371.636 265.683 368.092 262.499C370.695 261.951 372.604 260.899 373.823 259.341Z" fill="#25499B"/>
<path id="Vector_140" fill-rule="evenodd" clip-rule="evenodd" d="M266.196 267.708C267.101 269.196 268.009 270.683 268.914 272.171C271.722 272.971 273.57 274.483 274.458 276.703C276.232 279.619 278.045 282.594 279.894 285.628C272.554 288.325 264.966 290.338 257.131 291.668C256.846 294.409 254.917 296.193 251.347 297.023C252.897 297.902 253.811 299.024 254.091 300.387C255.032 300.41 255.976 300.433 256.917 300.456C257.857 300.479 258.801 300.502 259.742 300.525C259.813 297.596 261.734 296.177 265.5 296.269C270.432 293.39 276.136 291.331 282.612 290.091C284.499 291.77 286.348 293.28 288.155 294.623C287.555 291.77 288.549 289.596 291.141 288.101C287.1 279.928 281.628 272.468 274.725 265.718C271.907 265.838 269.571 265.047 267.716 263.349C266.373 264.622 265.866 266.075 266.196 267.708Z" fill="#1F4993"/>
<path id="Vector_141" fill-rule="evenodd" clip-rule="evenodd" d="M220.938 268.803C223.733 270.84 223.697 272.304 220.831 273.197C220.796 274.662 219.837 275.371 217.952 275.325C222.064 280.485 225.848 279.846 229.307 273.403C227.117 269.411 225.812 264.982 225.391 260.118C224.714 263.526 223.23 266.421 220.938 268.803Z" fill="#4861C7"/>
<path id="Vector_142" fill-rule="evenodd" clip-rule="evenodd" d="M379.045 277.055C378.104 277.032 377.161 277.009 376.22 276.986C376.184 278.451 376.149 279.915 376.113 281.38C376.059 283.577 376.006 285.774 375.952 287.971C378.301 288.78 379.209 290.266 378.67 292.434C379.611 292.457 380.555 292.48 381.495 292.503C384.087 291.007 385.082 288.833 384.481 285.981C382.157 283.35 380.347 280.373 379.045 277.055Z" fill="#1A4293"/>
<path id="Vector_143" fill-rule="evenodd" clip-rule="evenodd" d="M155.904 269.415C152.768 269.464 149.925 270.126 147.375 271.405C150.111 275.136 153.805 278.157 158.462 280.469C158.533 277.54 160.453 276.121 164.219 276.213C162.406 273.238 159.635 270.972 155.904 269.415Z" fill="#244EA7"/>
<path id="Vector_144" fill-rule="evenodd" clip-rule="evenodd" d="M362.362 265.657C358.99 267.803 357.037 270.686 356.497 274.307C359 276.104 360.831 278.347 361.987 281.035C361.969 281.767 361.951 282.501 361.933 283.232C363.995 282.364 365.443 280.935 366.278 278.942C367.183 280.43 368.091 281.916 368.996 283.405C370.136 282.931 370.622 282.209 370.462 281.242C370.498 279.777 370.534 278.314 370.569 276.848C368.22 276.039 367.312 274.553 367.851 272.385C365.502 271.576 364.594 270.09 365.133 267.923C363.249 267.877 362.326 267.122 362.362 265.657Z" fill="#4A64BF"/>
<path id="Vector_145" fill-rule="evenodd" clip-rule="evenodd" d="M356.497 274.307C356.93 276.498 355.95 277.938 353.564 278.632C356.82 283.659 359.52 288.856 361.665 294.217C362.606 294.24 363.55 294.263 364.49 294.286C365.503 291.38 366.446 291.404 367.316 294.355C368.256 294.378 369.2 294.401 370.141 294.424C372.061 293.004 373.978 291.587 375.898 290.168C375.916 289.436 375.934 288.702 375.952 287.971C373.436 286.351 372.549 284.131 373.288 281.311C372.347 281.288 371.403 281.265 370.462 281.242C370.622 282.209 370.136 282.931 368.996 283.405C368.091 281.916 367.183 280.43 366.278 278.942C365.444 280.935 363.995 282.364 361.933 283.232C358.185 282.409 358.203 281.675 361.987 281.035C360.831 278.347 359 276.104 356.497 274.307Z" fill="#4B64CE"/>
<path id="Vector_146" fill-rule="evenodd" clip-rule="evenodd" d="M333.895 273.756C333.859 275.221 332.9 275.93 331.016 275.884C335.396 282.317 339.004 289 341.835 295.932C342.776 295.955 343.719 295.978 344.66 296.001C343.812 287.633 340.222 280.219 333.895 273.756Z" fill="#4B64DD"/>
<path id="Vector_147" fill-rule="evenodd" clip-rule="evenodd" d="M268.914 272.171C254.628 283.135 237.516 289.312 217.577 290.703C221.238 290.272 224.045 291.072 226 293.107C228.812 292.797 230.675 293.577 231.597 295.442C234.422 295.511 237.247 295.58 240.072 295.648C240.09 294.917 240.108 294.183 240.126 293.452C238.031 293.688 236.156 293.276 234.502 292.215C248.895 288.346 262.215 283.175 274.457 276.703C273.57 274.483 271.722 272.971 268.914 272.171Z" fill="#4963C7"/>
<path id="Vector_148" fill-rule="evenodd" clip-rule="evenodd" d="M164.219 276.212C160.453 276.121 158.533 277.54 158.462 280.469C166.435 285.965 175.762 289.857 186.446 292.142C187.423 290.7 188.402 289.26 189.379 287.817C180.711 284.566 172.325 280.697 164.219 276.212Z" fill="#2B4CA3"/>
<path id="Vector_149" fill-rule="evenodd" clip-rule="evenodd" d="M189.379 287.817C188.402 289.26 187.423 290.7 186.446 292.142C189.271 292.211 192.097 292.28 194.922 292.349C203.398 292.556 211.873 292.763 220.349 292.969C222.234 293.015 224.115 293.061 226 293.107C224.045 291.072 221.238 290.272 217.577 290.703C208.179 289.742 198.777 288.779 189.379 287.817Z" fill="#1C4B95"/>
<path id="Vector_150" fill-rule="evenodd" clip-rule="evenodd" d="M220.296 295.166C220.313 294.435 220.331 293.701 220.349 292.969C211.873 292.763 203.398 292.556 194.922 292.349C199.596 293.929 204.267 295.507 208.941 297.088C211.766 297.156 214.591 297.225 217.417 297.294C217.452 295.829 218.411 295.12 220.296 295.166Z" fill="#4B64DA"/>
<path id="Vector_151" fill-rule="evenodd" clip-rule="evenodd" d="M333.52 289.134C333.484 290.6 332.525 291.308 330.641 291.262C335.461 302.844 339.413 314.664 342.497 326.724C343.496 313.49 340.502 300.96 333.52 289.134Z" fill="#4B64E2"/>
<path id="Vector_152" fill-rule="evenodd" clip-rule="evenodd" d="M299.349 299.292C303.061 301.581 303.008 303.778 299.188 305.883C299.135 308.08 299.081 310.277 299.027 312.474C300.876 313.985 302.722 315.495 304.571 317.006C303.97 314.153 304.965 311.979 307.557 310.484C307.682 305.358 307.807 300.231 307.932 295.105C306.141 291.672 304.346 287.963 302.549 283.982C302.276 289.049 301.21 294.154 299.349 299.292Z" fill="#4B64C8"/>
<path id="Vector_153" fill-rule="evenodd" clip-rule="evenodd" d="M291.141 288.101C288.549 289.596 287.555 291.77 288.155 294.623C288.119 296.088 288.084 297.551 288.048 299.017C289.932 299.063 290.855 299.817 290.82 301.283C290.802 302.014 290.784 302.748 290.766 303.48C293.342 306.95 295.134 310.656 296.149 314.602C298.033 314.648 298.992 313.94 299.027 312.474C299.081 310.277 299.135 308.08 299.188 305.883C299.242 303.686 299.295 301.489 299.349 299.292C297.146 295.367 294.41 291.636 291.141 288.101Z" fill="#1C4691"/>
<path id="Vector_154" fill-rule="evenodd" clip-rule="evenodd" d="M375.898 290.168C373.978 291.587 372.061 293.004 370.141 294.424C370.105 295.889 370.069 297.352 370.034 298.818C370.016 299.549 369.998 300.283 369.98 301.015C372.042 300.146 373.491 298.717 374.325 296.724C375.884 299.901 375.341 302.821 372.698 305.478C372.68 306.209 372.662 306.943 372.645 307.675C373.55 309.163 374.458 310.649 375.363 312.137C375.309 314.334 375.256 316.531 375.202 318.728C377.413 317.105 378.879 314.942 379.601 312.241C381.23 315.916 382.553 319.613 383.571 323.329C383.553 324.061 383.535 324.794 383.517 325.526C383.481 326.991 384.404 327.746 386.289 327.792C385.617 324.26 386.632 321.355 389.328 319.073C389.867 316.905 388.959 315.419 386.61 314.61C383.038 313.989 383.091 311.792 386.771 308.019C386.807 306.554 385.884 305.799 383.999 305.753C380.269 304.196 380.305 302.733 384.106 301.359C384.124 300.628 384.142 299.894 384.16 299.162C383.219 299.139 382.275 299.116 381.335 299.093C377.604 297.536 377.64 296.073 381.442 294.7C381.46 293.968 381.478 293.234 381.495 292.503C380.555 292.48 379.611 292.457 378.67 292.434C376.786 292.388 375.863 291.633 375.898 290.168Z" fill="#4B64C5"/>
<path id="Vector_155" fill-rule="evenodd" clip-rule="evenodd" d="M370.141 294.424C369.2 294.401 368.256 294.378 367.316 294.355C366.375 294.332 365.431 294.309 364.49 294.286C363.55 294.263 362.606 294.24 361.665 294.217C363.986 300.016 365.725 305.921 366.887 311.931C369.273 311.237 370.252 309.797 369.819 307.606C369.855 306.14 370.814 305.432 372.698 305.478C375.341 302.821 375.884 299.901 374.325 296.724C373.491 298.717 372.042 300.146 369.98 301.015C366.232 300.191 366.25 299.458 370.034 298.818C370.069 297.352 370.105 295.889 370.141 294.424Z" fill="#4B64D9"/>
<path id="Vector_156" fill-rule="evenodd" clip-rule="evenodd" d="M307.932 295.105C310.55 300.55 311.348 306.433 310.328 312.75C309.423 316.937 310.275 320.62 312.886 323.803C313.047 317.213 313.207 310.622 313.368 304.031C313.934 299.589 313.57 295.183 312.277 290.815C310.222 291.96 308.774 293.391 307.932 295.105Z" fill="#4B64C4"/>
<path id="Vector_157" fill-rule="evenodd" clip-rule="evenodd" d="M389.864 297.103C387.962 297.789 386.062 298.477 384.16 299.162C384.142 299.894 384.124 300.628 384.106 301.359C384.071 302.825 384.035 304.288 383.999 305.753C385.884 305.799 386.807 306.554 386.771 308.019C386.717 310.216 386.664 312.413 386.61 314.61C388.959 315.419 389.867 316.905 389.328 319.073C389.292 320.538 389.257 322.001 389.221 323.467C390.162 323.49 391.106 323.513 392.046 323.536C393.806 328.707 395.562 333.881 397.322 339.052C398.029 330.903 397.282 322.824 395.086 314.817C397.117 311.18 399.09 307.563 401.004 303.97C401.212 303.012 400.76 302.267 399.645 301.738C398.811 303.732 397.362 305.16 395.3 306.029C392.032 307.451 392.049 306.717 395.354 303.832C395.39 302.367 395.425 300.903 395.461 299.438C392.649 299.747 390.785 298.968 389.864 297.103Z" fill="#3255A0"/>
<path id="Vector_158" fill-rule="evenodd" clip-rule="evenodd" d="M347.86 280.691C347.825 282.156 346.866 282.865 344.982 282.819C355.523 301.126 361.65 320.326 363.365 340.422C365.751 339.729 366.73 338.289 366.298 336.097C365.847 316.309 359.702 297.84 347.86 280.691Z" fill="#4B64D2"/>
<path id="Vector_159" fill-rule="evenodd" clip-rule="evenodd" d="M344.66 296.001C343.719 295.978 342.776 295.955 341.835 295.932C345.857 306.026 348.433 316.346 349.56 326.896C350.501 326.919 351.445 326.942 352.386 326.965C353.32 315.895 350.745 305.573 344.66 296.001Z" fill="#4B64E6"/>
<path id="Vector_160" fill-rule="evenodd" clip-rule="evenodd" d="M372.645 307.675C371.704 307.652 370.76 307.629 369.819 307.606C370.252 309.797 369.273 311.237 366.887 311.931C369.321 318.402 371.045 325.039 372.055 331.841C372.996 331.864 373.94 331.887 374.881 331.91C374.181 327.683 375.211 324.046 377.974 320.994C379.858 321.04 380.781 321.795 380.745 323.26C381.686 323.283 382.63 323.306 383.571 323.329C382.553 319.613 381.23 315.916 379.601 312.241C378.879 314.942 377.413 317.105 375.202 318.728C371.49 316.44 371.543 314.243 375.363 312.137C374.458 310.649 373.55 309.163 372.645 307.675Z" fill="#4B64E0"/>
<path id="Vector_161" fill-rule="evenodd" clip-rule="evenodd" d="M313.368 304.031C313.207 310.622 313.046 317.213 312.886 323.803C312.408 326.104 312.824 328.313 314.138 330.429C317.457 328.307 318.924 326.145 318.536 323.941C318.938 316.739 317.214 310.102 313.368 304.031Z" fill="#4B64E3"/>
<path id="Vector_162" fill-rule="evenodd" clip-rule="evenodd" d="M299.027 312.474C298.992 313.939 298.033 314.648 296.149 314.602C295.208 314.579 294.264 314.556 293.323 314.533C293.288 315.999 294.211 316.753 296.095 316.799C297.832 317.085 299.227 317.852 300.279 319.099C301.542 324.947 301.871 330.818 301.263 336.71C304.173 330.654 305.275 324.086 304.571 317.006C302.722 315.494 300.876 313.985 299.027 312.474Z" fill="#265994"/>
<path id="Vector_163" fill-rule="evenodd" clip-rule="evenodd" d="M377.974 320.994C377.867 325.388 377.759 329.782 377.652 334.176C380.273 338.12 381.109 342.537 380.156 347.427C382.04 347.473 382.999 346.764 383.035 345.299C384.047 342.393 384.991 342.416 385.86 345.367C387.852 341.02 389.84 336.671 391.832 332.323C391.903 329.395 391.975 326.464 392.046 323.536C391.106 323.513 390.162 323.49 389.221 323.467C389.654 325.658 388.675 327.098 386.289 327.792C384.404 327.746 383.481 326.991 383.517 325.526C381.633 325.48 380.71 324.725 380.745 323.26C380.781 321.795 379.858 321.04 377.974 320.994Z" fill="#4B64D4"/>
<path id="Vector_164" fill-rule="evenodd" clip-rule="evenodd" d="M310.328 312.75C309.388 312.727 308.444 312.704 307.503 312.681C308.927 323.854 308.659 334.839 306.7 345.635C306.492 346.593 306.944 347.338 308.059 347.867C312.002 342.19 315.406 337.877 318.268 334.926C322.124 331.356 322.213 327.695 318.536 323.941C318.924 326.145 317.457 328.307 314.138 330.429C312.824 328.313 312.408 326.104 312.886 323.803C310.275 320.62 309.423 316.937 310.328 312.75Z" fill="#4B64D7"/>
<path id="Vector_165" fill-rule="evenodd" clip-rule="evenodd" d="M307.557 310.484C304.965 311.979 303.97 314.153 304.571 317.006C305.274 324.086 304.173 330.654 301.263 336.71C301.21 338.907 301.156 341.104 301.103 343.301C300.564 345.468 301.471 346.954 303.821 347.763C303.856 346.298 304.815 345.589 306.7 345.635C308.659 334.839 308.927 323.854 307.503 312.681C307.521 311.949 307.539 311.215 307.557 310.484Z" fill="#4A64B9"/>
<path id="Vector_166" fill-rule="evenodd" clip-rule="evenodd" d="M352.386 326.965C351.445 326.942 350.501 326.919 349.561 326.896C348.28 333.948 349.532 340.573 353.316 346.772C355.561 340.03 355.25 333.427 352.386 326.965Z" fill="#4B64F1"/>
<path id="Vector_167" fill-rule="evenodd" clip-rule="evenodd" d="M296.095 316.799C296.077 317.531 296.059 318.265 296.042 318.996C296.024 319.728 296.006 320.461 295.988 321.193C295.97 321.925 295.952 322.658 295.934 323.39C296.734 329.318 294.727 334.398 289.909 338.631C292.004 338.394 293.879 338.807 295.533 339.867C292.93 340.415 291.021 341.468 289.802 343.025C291.686 343.071 292.609 343.825 292.573 345.291C294.311 345.577 295.705 346.343 296.758 347.591C297.592 345.598 299.04 344.169 301.103 343.301C301.156 341.104 301.21 338.907 301.263 336.71C301.871 330.818 301.542 324.947 300.279 319.099C299.227 317.852 297.832 317.086 296.095 316.799Z" fill="#214799"/>
<path id="Vector_168" fill-rule="evenodd" clip-rule="evenodd" d="M374.881 331.91C373.94 331.887 372.996 331.864 372.055 331.841C374.377 348.73 374.435 365.586 372.236 382.406C376.433 366.547 378.239 350.471 377.652 334.176C375.768 334.13 374.845 333.375 374.881 331.91Z" fill="#4B64E6"/>
<path id="Vector_169" fill-rule="evenodd" clip-rule="evenodd" d="M392.046 323.536C391.975 326.464 391.903 329.395 391.832 332.324C391.582 342.577 391.332 352.828 391.082 363.081C392.931 364.592 394.777 366.101 396.625 367.613C396.857 358.093 397.09 348.572 397.322 339.052C395.562 333.881 393.806 328.707 392.046 323.536Z" fill="#11498C"/>
<path id="Vector_170" fill-rule="evenodd" clip-rule="evenodd" d="M306.7 345.635C304.815 345.589 303.856 346.298 303.821 347.763C303.803 348.495 303.785 349.229 303.767 349.96C307.109 352.618 307.037 355.547 303.553 358.748C304.501 361.018 306.35 362.529 309.096 363.28C308.972 359.92 310.91 357.769 314.907 356.827C314.925 356.095 314.943 355.362 314.961 354.63C315.318 348.69 316.402 342.854 318.215 337.123C318.233 336.391 318.251 335.658 318.268 334.926C315.406 337.877 312.002 342.19 308.059 347.867C306.944 347.338 306.492 346.593 306.7 345.635Z" fill="#4B64CA"/>
<path id="Vector_171" fill-rule="evenodd" clip-rule="evenodd" d="M391.832 332.324C389.84 336.672 387.852 341.02 385.86 345.368C384.919 345.345 383.976 345.322 383.035 345.299C382.999 346.764 382.04 347.473 380.156 347.427C380.861 366.736 378.512 385.731 373.112 404.41C374.101 405.936 375.006 407.424 375.831 408.873C378.837 405.803 380.811 402.186 381.749 398.026C378.019 396.469 378.054 395.005 381.856 393.632C382.797 393.655 383.741 393.678 384.681 393.701C384.699 392.969 384.717 392.235 384.735 391.504C381.058 387.75 381.147 384.089 385.003 380.519C384.147 374.912 385.177 371.273 388.096 369.603C389.037 369.626 389.98 369.649 390.921 369.672C390.975 367.475 391.028 365.278 391.082 363.081C391.332 352.828 391.582 342.577 391.832 332.324Z" fill="#4B64E1"/>
<path id="Vector_172" fill-rule="evenodd" clip-rule="evenodd" d="M366.298 336.097C366.73 338.289 365.751 339.729 363.365 340.422C362.646 350.691 362.867 360.953 364.028 371.214C369.102 359.406 369.859 347.701 366.298 336.097Z" fill="#4B64E5"/>
<path id="Vector_173" fill-rule="evenodd" clip-rule="evenodd" d="M318.215 337.123C316.402 342.854 315.318 348.69 314.961 354.63C315.902 354.653 316.845 354.676 317.786 354.699C318.941 345.934 319.885 345.957 320.612 354.768C321.552 354.791 322.496 354.814 323.437 354.837C323.027 351.92 324.031 349.38 326.45 347.216C323.57 343.695 320.825 340.33 318.215 337.123Z" fill="#4B64DC"/>
<path id="Vector_174" fill-rule="evenodd" clip-rule="evenodd" d="M303.767 349.96C296.879 354.545 292.027 360.29 289.212 367.192C288.992 369.624 287.997 371.798 286.226 373.714C288.111 373.76 289.992 373.805 291.877 373.851C292.417 370.231 294.37 367.348 297.742 365.201C299.751 360.122 301.758 355.04 303.767 349.96Z" fill="#4964B5"/>
<path id="Vector_175" fill-rule="evenodd" clip-rule="evenodd" d="M301.103 343.301C299.04 344.169 297.592 345.598 296.758 347.591C295.705 346.343 294.311 345.577 292.573 345.291C292.555 346.022 292.538 346.756 292.52 347.488C290.635 347.442 289.677 348.15 289.641 349.616C287.631 354.695 285.625 359.777 283.615 364.857C283.58 366.322 284.503 367.077 286.387 367.123C287.328 367.146 288.271 367.169 289.212 367.192C292.027 360.289 296.879 354.545 303.767 349.96C303.785 349.229 303.803 348.495 303.821 347.763C301.471 346.954 300.564 345.468 301.103 343.301Z" fill="#284E97"/>
<path id="Vector_176" fill-rule="evenodd" clip-rule="evenodd" d="M303.767 349.96C301.758 355.04 299.751 360.122 297.742 365.201C298.611 368.153 299.483 371.107 300.353 374.058C302.491 371.235 304.918 368.362 307.63 365.442C308.682 366.69 310.077 367.456 311.814 367.743C311.85 366.277 311.886 364.814 311.921 363.349C310.981 363.326 310.037 363.303 309.096 363.28C306.35 362.529 304.501 361.018 303.553 358.748C307.037 355.547 307.109 352.618 303.767 349.96Z" fill="#4B64D4"/>
<path id="Vector_177" fill-rule="evenodd" clip-rule="evenodd" d="M297.742 365.201C294.37 367.348 292.417 370.231 291.877 373.851C291.859 374.583 291.841 375.317 291.823 376.048C293.499 378.048 294.386 380.268 294.488 382.708C299.997 388.156 302.858 386.759 303.071 378.521C301.186 378.475 300.263 377.72 300.299 376.255C300.317 375.523 300.335 374.79 300.353 374.058C299.483 371.107 298.611 368.153 297.742 365.201Z" fill="#4B64DB"/>
<path id="Vector_178" fill-rule="evenodd" clip-rule="evenodd" d="M323.437 354.837C322.496 354.814 321.552 354.791 320.611 354.768C319.671 354.745 318.727 354.722 317.786 354.699C316.845 354.676 315.902 354.653 314.961 354.63C314.943 355.361 314.925 356.095 314.907 356.827C310.91 357.769 308.972 359.92 309.096 363.28C310.037 363.303 310.981 363.326 311.921 363.349C315.652 364.906 315.616 366.369 311.814 367.743C310.077 367.456 308.682 366.69 307.63 365.442C304.918 368.362 302.491 371.235 300.353 374.058C300.335 374.79 300.317 375.523 300.299 376.255C302.183 376.301 303.106 377.056 303.071 378.521C305.2 380.25 306.559 382.482 307.148 385.215C310.027 380.058 311.894 380.838 312.745 387.55C321.269 377.413 324.834 366.508 323.437 354.837Z" fill="#4B64DF"/>
<path id="Vector_179" fill-rule="evenodd" clip-rule="evenodd" d="M283.615 364.857C278.134 369.381 273.302 374.394 269.114 379.891C270.055 379.914 270.999 379.937 271.939 379.96C278.051 376.612 282.865 372.332 286.387 367.123C284.503 367.077 283.58 366.322 283.615 364.857Z" fill="#284BA1"/>
<path id="Vector_180" fill-rule="evenodd" clip-rule="evenodd" d="M391.082 363.081C391.028 365.278 390.975 367.475 390.921 369.672C390.76 376.263 390.6 382.854 390.439 389.445C394.871 382.861 396.934 375.583 396.625 367.613C394.777 366.101 392.931 364.592 391.082 363.081Z" fill="#2D4FAA"/>
<path id="Vector_181" fill-rule="evenodd" clip-rule="evenodd" d="M291.823 376.048C285.049 381.071 279.256 386.793 274.443 393.211C280.606 394.942 284.897 392.848 287.317 386.93C288.223 388.418 289.13 389.904 290.036 391.393C292.337 388.712 293.821 385.818 294.488 382.708C294.386 380.268 293.499 378.048 291.823 376.048Z" fill="#4B64E3"/>
<path id="Vector_182" fill-rule="evenodd" clip-rule="evenodd" d="M289.212 367.192C288.272 367.169 287.328 367.146 286.387 367.123C282.865 372.332 278.051 376.612 271.939 379.96C271.904 381.425 271.868 382.889 271.832 384.354C271.797 385.819 272.719 386.574 274.604 386.62C279.476 382.991 283.349 378.688 286.226 373.714C287.997 371.798 288.992 369.624 289.212 367.192Z" fill="#4662B0"/>
<path id="Vector_183" fill-rule="evenodd" clip-rule="evenodd" d="M390.921 369.672C389.98 369.649 389.037 369.626 388.096 369.603C388.796 373.83 387.766 377.467 385.003 380.519C384.914 384.181 384.824 387.841 384.735 391.504C384.717 392.235 384.699 392.969 384.681 393.701C384.142 395.868 385.05 397.355 387.399 398.164C390.095 395.882 391.111 392.976 390.439 389.445C390.6 382.854 390.76 376.263 390.921 369.672Z" fill="#234693"/>
<path id="Vector_184" fill-rule="evenodd" clip-rule="evenodd" d="M271.939 379.96C270.999 379.937 270.055 379.914 269.114 379.891C263.422 384.826 257.646 389.816 251.788 394.856C250.775 397.762 249.76 400.67 248.748 403.575C250.65 402.89 252.55 402.202 254.452 401.516C259.193 395.136 264.986 389.414 271.832 384.354C271.868 382.889 271.904 381.425 271.939 379.96Z" fill="#254693"/>
<path id="Vector_185" fill-rule="evenodd" clip-rule="evenodd" d="M291.823 376.048C291.841 375.317 291.859 374.583 291.877 373.851C289.992 373.805 288.111 373.76 286.226 373.714C283.349 378.688 279.476 382.991 274.604 386.62C269.787 390.899 264.973 395.178 260.156 399.457C267.018 400.123 271.778 398.041 274.443 393.211C279.256 386.793 285.049 381.071 291.823 376.048Z" fill="#4B64D8"/>
<path id="Vector_186" fill-rule="evenodd" clip-rule="evenodd" d="M271.832 384.354C264.986 389.414 259.193 395.136 254.452 401.516C255.693 401.404 256.628 401.791 257.251 402.684C255.093 404.915 252.241 405.945 248.694 405.772C248.659 407.238 247.7 407.946 245.816 407.9C245.798 408.632 245.78 409.366 245.762 410.097C246.703 410.12 247.646 410.143 248.587 410.166C257.355 408.822 261.211 405.251 260.156 399.457C264.973 395.178 269.787 390.899 274.604 386.62C272.719 386.574 271.796 385.819 271.832 384.354Z" fill="#4B64CA"/>
<path id="Vector_187" fill-rule="evenodd" clip-rule="evenodd" d="M251.788 394.856C246.066 397.647 241.267 401.195 237.393 405.497C239.743 406.306 240.651 407.792 240.112 409.96C241.052 409.983 241.996 410.006 242.937 410.029C242.973 408.563 243.931 407.854 245.816 407.9C247.7 407.946 248.659 407.238 248.694 405.772C248.712 405.041 248.73 404.307 248.748 403.575C249.76 400.67 250.775 397.762 251.788 394.856Z" fill="#29489B"/>
<path id="Vector_188" fill-rule="evenodd" clip-rule="evenodd" d="M384.681 393.701C383.741 393.678 382.797 393.655 381.856 393.632C381.82 395.097 381.785 396.56 381.749 398.026C380.811 402.186 378.837 405.803 375.831 408.873C375.813 409.604 375.795 410.338 375.777 411.07C376.664 413.29 378.513 414.801 381.32 415.601C385.053 410.212 387.078 404.401 387.399 398.164C385.05 397.354 384.142 395.868 384.681 393.701Z" fill="#2B4C9B"/>
<path id="Vector_189" fill-rule="evenodd" clip-rule="evenodd" d="M342.05 386.88C343.934 386.926 344.857 387.681 344.821 389.146C350.865 381.14 354.374 372.433 355.353 363.024C350.875 371.03 346.44 378.983 342.05 386.88Z" fill="#4B64E1"/>
<path id="Vector_190" fill-rule="evenodd" clip-rule="evenodd" d="M291.073 406.806C285.535 408.328 283.11 411.202 283.796 415.421C288.032 413.39 290.46 410.519 291.073 406.806Z" fill="#4B64E3"/>
<path id="Vector_191" fill-rule="evenodd" clip-rule="evenodd" d="M237.393 405.497C234.6 405.051 232.701 405.738 231.689 407.556C239.171 409.937 239.117 412.134 231.529 414.147C232.434 415.635 233.342 417.121 234.247 418.61C235.188 418.633 236.131 418.656 237.072 418.679C237.108 417.213 238.066 416.505 239.951 416.551C239.987 415.085 240.945 414.376 242.83 414.422C243.77 414.445 244.714 414.468 245.655 414.491C245.691 413.026 246.649 412.317 248.534 412.363C248.552 411.632 248.569 410.898 248.587 410.166C247.647 410.143 246.703 410.12 245.762 410.097C244.821 410.074 243.878 410.051 242.937 410.029C241.925 412.934 240.981 412.911 240.112 409.96C240.651 407.792 239.743 406.306 237.393 405.497Z" fill="#3855AE"/>
<path id="Vector_192" fill-rule="evenodd" clip-rule="evenodd" d="M353.136 395.944C353.101 397.409 354.024 398.164 355.908 398.209C361.716 390.046 364.283 381.316 363.614 372.018C359.819 379.958 356.328 387.932 353.136 395.944Z" fill="#4B64CC"/>
<path id="Vector_193" fill-rule="evenodd" clip-rule="evenodd" d="M271.189 410.718C266.179 408.456 262.377 409.83 259.781 414.836C261.666 414.882 263.547 414.928 265.432 414.974C265.467 413.508 266.426 412.8 268.31 412.846C268.346 411.38 269.305 410.672 271.189 410.718Z" fill="#4B64E0"/>
<path id="Vector_194" fill-rule="evenodd" clip-rule="evenodd" d="M254.131 414.698C253.209 412.833 251.346 412.054 248.534 412.363C246.649 412.317 245.691 413.026 245.655 414.491C245.637 415.223 245.619 415.957 245.601 416.688C247.486 416.734 249.367 416.78 251.252 416.826C251.288 415.361 252.246 414.652 254.131 414.698Z" fill="#4B64DC"/>
<path id="Vector_195" fill-rule="evenodd" clip-rule="evenodd" d="M231.689 407.556C226.926 409.638 223.089 412.475 220.174 416.068C220.315 417.265 221.237 418.02 222.946 418.334C225.859 416.882 228.72 415.487 231.529 414.147C239.117 412.134 239.171 409.937 231.689 407.556Z" fill="#1B4595"/>
<path id="Vector_196" fill-rule="evenodd" clip-rule="evenodd" d="M375.777 411.07C371.464 419.05 366.56 426.991 361.061 434.892C362.928 435.669 364.792 436.449 366.658 437.227C372.971 430.742 377.856 423.534 381.32 415.602C378.513 414.801 376.664 413.29 375.777 411.07Z" fill="#2D4DA3"/>
<path id="Vector_197" fill-rule="evenodd" clip-rule="evenodd" d="M271.189 410.718C269.305 410.672 268.346 411.38 268.31 412.846C266.426 412.8 265.467 413.508 265.432 414.974C259.656 419.961 253.881 424.951 248.105 429.939C248.087 430.671 248.069 431.404 248.052 432.136C261.032 425.095 271.135 416.548 278.36 406.496C276.312 408.383 273.92 409.788 271.189 410.718Z" fill="#4B64E1"/>
<path id="Vector_198" fill-rule="evenodd" clip-rule="evenodd" d="M342.05 386.88C332.474 404.538 320.762 421.107 306.914 436.584C306.897 437.315 306.879 438.049 306.861 438.781C323.038 424.124 335.69 407.578 344.821 389.146C344.857 387.681 343.934 386.926 342.05 386.88Z" fill="#4B64D5"/>
<path id="Vector_199" fill-rule="evenodd" clip-rule="evenodd" d="M242.83 414.422C240.945 414.377 239.987 415.085 239.951 416.551C238.066 416.505 237.108 417.213 237.072 418.679C236.131 418.656 235.188 418.633 234.247 418.61C230.316 420.738 226.497 422.844 222.785 424.925C224.669 424.971 225.592 425.725 225.557 427.191C230.487 423.959 236.191 421.9 242.669 421.013C243.645 419.571 244.625 418.131 245.601 416.688C243.717 416.642 242.794 415.888 242.83 414.422Z" fill="#4B64E1"/>
<path id="Vector_200" fill-rule="evenodd" clip-rule="evenodd" d="M353.136 395.944C344.395 408.834 335.598 421.809 326.745 434.869C327.686 434.892 328.629 434.915 329.57 434.938C330.564 432.764 332.485 431.344 335.328 430.682C335.203 427.322 337.141 425.171 341.139 424.229C346.069 415.547 350.993 406.874 355.908 398.21C354.024 398.164 353.101 397.409 353.136 395.944Z" fill="#4B64C3"/>
<path id="Vector_201" fill-rule="evenodd" clip-rule="evenodd" d="M295.828 427.52C297.712 427.566 298.635 428.321 298.599 429.786C314.217 416.632 325.421 401.517 332.215 384.442C320.752 399.249 308.622 413.609 295.828 427.52Z" fill="#4B64DD"/>
<path id="Vector_202" fill-rule="evenodd" clip-rule="evenodd" d="M216.384 455.545C216.367 456.276 216.349 457.01 216.331 457.742C216.313 458.473 216.295 459.207 216.277 459.939C242.027 449.879 262.633 435.725 278.092 417.481C260.231 433.233 239.661 445.921 216.384 455.545Z" fill="#4B64D7"/>
<path id="Vector_203" fill-rule="evenodd" clip-rule="evenodd" d="M231.529 414.147C228.72 415.487 225.859 416.882 222.946 418.334C221.238 418.02 220.315 417.265 220.174 416.068C212.157 420.606 203.592 424.059 194.479 426.433C200.285 426.359 204.958 427.939 208.498 431.171C212.592 428.139 217.355 426.057 222.785 424.925C226.497 422.844 230.316 420.738 234.247 418.61C233.342 417.121 232.434 415.635 231.529 414.147Z" fill="#1B4893"/>
<path id="Vector_204" fill-rule="evenodd" clip-rule="evenodd" d="M259.781 414.836C257.897 414.79 256.015 414.744 254.131 414.698C252.246 414.652 251.288 415.361 251.252 416.826C249.84 419.882 246.979 421.279 242.669 421.013C236.486 426.492 229.769 431.459 222.517 435.91C223.458 435.933 224.402 435.956 225.342 435.979C237.864 429.999 249.344 422.952 259.781 414.836Z" fill="#4B64D1"/>
</g>
</svg>
