<svg width="410" height="288" viewBox="0 0 410 288" fill="none" xmlns="http://www.w3.org/2000/svg">
<g id="tentaculo 4">
<path id="Vector" fill-rule="evenodd" clip-rule="evenodd" d="M332.978 123.791C332.492 125.971 333.436 127.434 335.804 128.186C335.804 129.652 336.745 130.383 338.63 130.383C338.144 132.563 339.088 134.027 341.457 134.779C341.457 136.244 341.457 137.708 341.457 139.174C337.689 136.244 333.919 133.313 330.152 130.383C330.042 128.003 329.098 125.806 327.326 123.791C328.654 121.674 330.539 121.674 332.978 123.791Z" fill="#4B64E9"/>
<path id="Vector_2" fill-rule="evenodd" clip-rule="evenodd" d="M344.283 128.186C344.076 131.541 345.961 133.739 349.935 134.779C349.935 135.51 349.935 136.244 349.935 136.976C348.994 136.976 348.05 136.976 347.109 136.976C345.224 136.244 343.342 135.51 341.457 134.779C341.943 132.599 340.999 131.135 338.63 130.383C336.745 130.383 335.804 129.652 335.804 128.186C336.29 126.006 335.347 124.542 332.978 123.79C331.486 120.83 331.014 117.899 331.565 115C335.174 119.938 339.413 124.333 344.283 128.186Z" fill="#4B64DD"/>
<path id="Vector_3" fill-rule="evenodd" clip-rule="evenodd" d="M324.5 134.779C327.046 136.515 328.931 138.712 330.152 141.371C321.801 139.923 313.323 139.191 304.717 139.174C310.194 135.519 316.79 134.056 324.5 134.779Z" fill="#0A4288"/>
<path id="Vector_4" fill-rule="evenodd" clip-rule="evenodd" d="M321.674 123.79C323.856 126.414 326.682 128.612 330.152 130.383C331.495 135.403 334.321 139.798 338.63 143.569C335.496 143.444 332.67 142.712 330.152 141.371C328.931 138.712 327.046 136.515 324.5 134.779C324.986 132.599 324.042 131.135 321.674 130.383C319.789 130.383 318.848 129.652 318.848 128.186C318.362 126.006 319.306 124.542 321.674 123.79Z" fill="#244599"/>
<path id="Vector_5" fill-rule="evenodd" clip-rule="evenodd" d="M341.457 139.174C343.342 139.906 345.224 140.64 347.109 141.371C347.109 142.837 348.05 143.569 349.935 143.569C349.935 145.035 349.935 146.498 349.935 147.964C344.955 146.29 342.129 143.358 341.457 139.174Z" fill="#4B64E2"/>
<path id="Vector_6" fill-rule="evenodd" clip-rule="evenodd" d="M330.152 141.371C332.67 142.712 335.496 143.444 338.63 143.569C343.508 147.367 347.275 151.762 349.935 156.755C348.05 156.755 346.168 156.755 344.283 156.755C342.796 152.953 339.97 150.021 335.804 147.964C332.385 147.015 329.559 145.549 327.326 143.569C329.211 143.569 330.152 142.837 330.152 141.371Z" fill="#284F9D"/>
<path id="Vector_7" fill-rule="evenodd" clip-rule="evenodd" d="M324.5 143.569C325.441 143.569 326.385 143.569 327.326 143.569C329.559 145.549 332.385 147.015 335.804 147.964C336.062 152.795 334.179 153.526 330.152 150.162C325.173 149.848 320.462 150.582 316.022 152.36C313.767 151.355 312.825 149.889 313.196 147.964C316.963 146.498 320.733 145.035 324.5 143.569Z" fill="#013C85"/>
<path id="Vector_8" fill-rule="evenodd" clip-rule="evenodd" d="M347.109 136.976C348.05 136.976 348.994 136.976 349.935 136.976C350.876 139.174 352.761 140.64 355.587 141.371C355.381 144.727 357.266 146.925 361.239 147.964C361.239 149.43 362.18 150.162 364.065 150.162C364.226 152.599 365.167 154.797 366.891 156.755C366.891 157.487 366.891 158.221 366.891 158.952C365.95 158.952 365.006 158.952 364.065 158.952C364.065 157.487 363.124 156.755 361.239 156.755C361.725 154.575 360.781 153.111 358.413 152.36C358.413 150.894 357.472 150.162 355.587 150.162C355.587 148.696 354.646 147.964 352.761 147.964C353.247 145.784 352.303 144.321 349.935 143.569C348.05 143.569 347.109 142.837 347.109 141.371C347.109 139.906 347.109 138.442 347.109 136.976Z" fill="#4B64D2"/>
<path id="Vector_9" fill-rule="evenodd" clip-rule="evenodd" d="M304.717 150.162C306.721 148.175 309.547 147.443 313.196 147.964C312.825 149.889 313.767 151.355 316.022 152.36C320.462 150.582 325.173 149.848 330.152 150.162C325.125 154.214 318.531 155.678 310.37 154.557C295.408 154.157 295.408 153.058 310.37 151.261C308.691 150.241 306.806 149.874 304.717 150.162Z" fill="#355E9E"/>
<path id="Vector_10" fill-rule="evenodd" clip-rule="evenodd" d="M349.935 147.964C350.876 147.964 351.82 147.964 352.761 147.964C354.646 147.964 355.587 148.696 355.587 150.162C357.472 150.162 358.413 150.894 358.413 152.36C358.413 153.825 358.413 155.289 358.413 156.755C353.434 155.08 350.607 152.149 349.935 147.964Z" fill="#4B64DE"/>
<path id="Vector_11" fill-rule="evenodd" clip-rule="evenodd" d="M335.804 147.964C339.97 150.021 342.796 152.953 344.283 156.755C339.572 156.755 334.863 156.755 330.152 156.755C320.349 159.392 310.929 159.392 301.891 156.755C305.54 157.276 308.366 156.544 310.37 154.557C318.531 155.678 325.125 154.214 330.152 150.162C334.179 153.526 336.062 152.795 335.804 147.964Z" fill="#0B4389"/>
<path id="Vector_12" fill-rule="evenodd" clip-rule="evenodd" d="M366.891 156.755C367.832 156.755 368.776 156.755 369.717 156.755C371.602 156.755 372.544 157.487 372.544 158.952C374.429 158.952 375.37 159.684 375.37 161.15C375.37 162.616 376.311 163.348 378.196 163.348C378.196 164.813 379.137 165.545 381.022 165.545C381.022 167.011 381.963 167.743 383.848 167.743C383.848 169.209 384.789 169.941 386.674 169.941C386.674 174.336 389.5 176.533 395.152 176.533C395.152 177.999 396.093 178.731 397.978 178.731C397.978 180.197 398.919 180.929 400.804 180.929C400.804 182.394 401.745 183.126 403.63 183.126C403.63 184.592 404.572 185.324 406.457 185.324C406.457 186.79 407.398 187.521 409.283 187.521C409.283 188.253 409.283 188.987 409.283 189.719C408.342 189.719 407.398 189.719 406.457 189.719C405.515 189.719 404.572 189.719 403.63 189.719C403.63 188.253 402.689 187.521 400.804 187.521C398.919 184.592 396.093 182.394 392.326 180.929C391.385 180.929 390.441 180.929 389.5 180.929C389.5 179.463 388.559 178.731 386.674 178.731C386.674 177.265 385.733 176.533 383.848 176.533C383.848 175.068 382.907 174.336 381.022 174.336C381.022 173.604 381.022 172.87 381.022 172.138C380.081 169.941 378.196 168.475 375.37 167.743C375.37 166.277 374.429 165.545 372.544 165.545C372.544 164.079 371.602 163.348 369.717 163.348C369.717 161.882 368.776 161.15 366.891 161.15C366.891 160.418 366.891 159.684 366.891 158.952C366.891 158.221 366.891 157.487 366.891 156.755Z" fill="#4964C7"/>
<path id="Vector_13" fill-rule="evenodd" clip-rule="evenodd" d="M301.304 157.188C310.342 159.825 319.762 159.825 329.565 157.188C337.515 158.467 345.052 160.664 352.174 163.781C350.289 163.781 348.407 163.781 346.522 163.781C333.999 163.189 321.751 163.921 309.783 165.978C306.81 162.119 302.098 160.653 295.652 161.583C292.849 161.961 290.967 161.227 290 159.385C294.123 159.533 297.89 158.801 301.304 157.188Z" fill="#275797"/>
<path id="Vector_14" fill-rule="evenodd" clip-rule="evenodd" d="M347.109 163.348C347.109 164.079 347.109 164.813 347.109 165.545C332.874 165.354 318.743 166.086 304.717 167.743C304.717 167.011 304.717 166.277 304.717 165.545C306.602 165.545 308.485 165.545 310.37 165.545C322.338 163.488 334.586 162.756 347.109 163.348Z" fill="#4B64DA"/>
<path id="Vector_15" fill-rule="evenodd" clip-rule="evenodd" d="M347.109 165.545C348.05 165.545 348.994 165.545 349.935 165.545C351.116 167.132 352.998 168.231 355.587 168.842C354.943 169.719 353.999 170.083 352.761 169.94C338.63 169.94 324.5 169.94 310.37 169.94C307.566 170.318 305.684 169.584 304.717 167.743C318.743 166.086 332.874 165.354 347.109 165.545Z" fill="#264F9B"/>
<path id="Vector_16" fill-rule="evenodd" clip-rule="evenodd" d="M330.152 156.755C334.863 156.755 339.572 156.755 344.283 156.755C346.168 156.755 348.05 156.755 349.935 156.755C352.761 158.221 355.587 159.684 358.413 161.15C361.957 166.848 366.665 171.978 372.543 176.533C370.175 177.285 369.231 178.749 369.717 180.929C366.657 181.014 363.831 181.748 361.239 183.126C358.899 181.115 356.073 179.652 352.761 178.731C341.403 180.199 330.099 181.665 318.848 183.126C317.881 181.285 315.999 180.551 313.196 180.929C323.559 179.463 333.919 177.999 344.283 176.533C350.944 176.892 357.537 176.527 364.065 175.435C360.227 173.382 356.457 171.549 352.761 169.941C353.999 170.083 354.943 169.719 355.587 168.842C352.998 168.231 351.116 167.132 349.935 165.545C351.82 165.545 352.761 164.813 352.761 163.348C345.639 160.231 338.102 158.034 330.152 156.755Z" fill="#3958B3"/>
<path id="Vector_17" fill-rule="evenodd" clip-rule="evenodd" d="M358.413 156.755C359.354 156.755 360.298 156.755 361.239 156.755C363.124 156.755 364.065 157.487 364.065 158.952C364.065 160.418 365.006 161.15 366.891 161.15C368.776 161.15 369.717 161.882 369.717 163.348C371.602 163.348 372.544 164.079 372.544 165.545C374.429 165.545 375.37 166.277 375.37 167.743C378.196 168.475 380.081 169.941 381.022 172.138C377.255 172.87 377.255 173.604 381.022 174.336C382.907 174.336 383.848 175.068 383.848 176.533C385.733 176.533 386.674 177.265 386.674 178.731C388.559 178.731 389.5 179.463 389.5 180.929C390.441 183.858 391.385 183.858 392.326 180.929C396.093 182.394 398.919 184.592 400.804 187.521C398.919 187.521 397.037 187.521 395.152 187.521C393.267 187.521 391.385 187.521 389.5 187.521C389.5 186.056 388.559 185.324 386.674 185.324C386.674 183.858 385.733 183.126 383.848 183.126C383.848 181.66 382.907 180.929 381.022 180.929C381.022 179.463 380.081 178.731 378.196 178.731C378.196 177.265 377.255 176.533 375.37 176.533C371.817 170.101 366.165 164.972 358.413 161.15C358.413 159.684 358.413 158.221 358.413 156.755Z" fill="#4B64DC"/>
<path id="Vector_18" fill-rule="evenodd" clip-rule="evenodd" d="M344.283 176.533C333.919 177.999 323.559 179.463 313.196 180.929C311.311 180.929 309.428 180.929 307.543 180.929C308.485 179.463 309.428 177.999 310.37 176.533C322.146 174.544 333.45 174.544 344.283 176.533Z" fill="#234CA0"/>
<path id="Vector_19" fill-rule="evenodd" clip-rule="evenodd" d="M369.717 180.929C372.193 180.641 374.078 181.372 375.37 183.126C372.623 183.331 369.797 184.062 366.891 185.324C350.896 182.572 334.88 182.572 318.848 185.324C314.055 188.904 311.229 188.172 310.37 183.126C313.196 183.126 316.022 183.126 318.848 183.126C330.098 181.665 341.403 180.199 352.761 178.731C356.073 179.652 358.899 181.115 361.239 183.126C363.831 181.748 366.657 181.014 369.717 180.929Z" fill="#104287"/>
<path id="Vector_20" fill-rule="evenodd" clip-rule="evenodd" d="M366.891 185.324C371.116 186.398 374.886 187.862 378.196 189.719C378.379 190.682 377.91 191.416 376.783 191.917C372.829 190.319 368.59 189.22 364.065 188.62C349.022 187.524 333.95 187.157 318.848 187.521C318.848 186.79 318.848 186.056 318.848 185.324C334.88 182.572 350.896 182.572 366.891 185.324Z" fill="#4B64D1"/>
<path id="Vector_21" fill-rule="evenodd" clip-rule="evenodd" d="M372.544 176.533C373.485 176.533 374.429 176.533 375.37 176.533C377.255 176.533 378.196 177.265 378.196 178.731C380.081 178.731 381.022 179.463 381.022 180.929C382.907 180.929 383.848 181.66 383.848 183.126C385.733 183.126 386.674 183.858 386.674 185.324C388.559 185.324 389.5 186.056 389.5 187.521C390.441 188.987 391.385 190.451 392.326 191.917C392.812 194.097 391.868 195.56 389.5 196.312C386.366 196.187 383.54 195.455 381.022 194.114C381.508 191.934 380.564 190.471 378.196 189.719C374.886 187.862 371.116 186.398 366.891 185.324C369.797 184.062 372.623 183.331 375.37 183.126C374.078 181.372 372.193 180.641 369.717 180.929C369.231 178.749 370.175 177.285 372.544 176.533Z" fill="#16428E"/>
<path id="Vector_22" fill-rule="evenodd" clip-rule="evenodd" d="M304.717 183.126C306.602 183.126 308.485 183.126 310.37 183.126C311.229 188.172 314.055 188.904 318.848 185.324C318.848 186.056 318.848 186.79 318.848 187.521C320.852 189.508 323.678 190.24 327.326 189.719C327.326 190.451 327.326 191.185 327.326 191.917C321.914 191.293 317.206 192.024 313.196 194.114C308.677 193.525 304.91 194.259 301.891 196.312C300.006 196.312 298.124 196.312 296.239 196.312C297.146 192.91 299.972 191.444 304.717 191.917C304.717 189.719 304.717 187.521 304.717 185.324C304.717 184.592 304.717 183.858 304.717 183.126Z" fill="#3355A8"/>
<path id="Vector_23" fill-rule="evenodd" clip-rule="evenodd" d="M327.326 191.917C327.326 191.185 327.326 190.451 327.326 189.719C338.147 188.469 347.569 189.934 355.587 194.114C347.109 194.114 338.63 194.114 330.152 194.114C330.152 192.648 329.211 191.917 327.326 191.917Z" fill="#4B64CA"/>
<path id="Vector_24" fill-rule="evenodd" clip-rule="evenodd" d="M318.848 187.521C333.95 187.157 349.022 187.524 364.065 188.62C368.59 189.22 372.829 190.319 376.783 191.917C377.91 191.416 378.379 190.682 378.196 189.719C380.564 190.471 381.508 191.934 381.022 194.114C375.765 192.859 371.054 192.859 366.891 194.114C363.124 194.114 359.354 194.114 355.587 194.114C347.569 189.934 338.147 188.469 327.326 189.719C323.678 190.24 320.851 189.508 318.848 187.521Z" fill="#1F448E"/>
<path id="Vector_25" fill-rule="evenodd" clip-rule="evenodd" d="M324.5 194.114C326.385 194.114 328.267 194.114 330.152 194.114C338.63 194.114 347.109 194.114 355.587 194.114C359.354 194.114 363.124 194.114 366.891 194.114C367.832 195.58 368.776 197.044 369.717 198.509C360.298 197.778 350.876 197.044 341.457 196.312C335.14 196.96 329.488 196.226 324.5 194.114Z" fill="#164191"/>
<path id="Vector_26" fill-rule="evenodd" clip-rule="evenodd" d="M381.022 194.114C383.54 195.455 386.366 196.187 389.5 196.312C387.615 197.778 385.733 199.241 383.848 200.707C381.33 199.367 378.504 198.635 375.37 198.51C373.485 198.51 371.602 198.51 369.717 198.51C368.776 197.044 367.832 195.58 366.891 194.114C371.054 192.859 375.765 192.859 381.022 194.114Z" fill="#275998"/>
<path id="Vector_27" fill-rule="evenodd" clip-rule="evenodd" d="M318.261 198.942C336.571 201.12 355.413 201.852 374.783 201.14C374.783 201.872 374.783 202.606 374.783 203.338C355.941 203.338 337.102 203.338 318.261 203.338C309.732 203.786 301.253 204.518 292.826 205.535C300.609 202.358 309.087 200.16 318.261 198.942Z" fill="#4B64D5"/>
<path id="Vector_28" fill-rule="evenodd" clip-rule="evenodd" d="M327.326 205.102C340.134 204.404 352.382 205.135 364.065 207.3C348.889 207.063 333.818 207.794 318.848 209.498C321.674 208.032 324.5 206.568 327.326 205.102Z" fill="#4462B6"/>
<path id="Vector_29" fill-rule="evenodd" clip-rule="evenodd" d="M318.848 202.905C337.689 202.905 356.528 202.905 375.37 202.905C376.311 202.905 377.255 202.905 378.196 202.905C386.742 206.23 394.279 210.625 400.804 216.09C398.919 216.09 397.037 216.09 395.152 216.09C384.724 212.798 374.361 209.869 364.065 207.3C352.382 205.135 340.134 204.404 327.326 205.102C323.678 205.623 320.851 204.891 318.848 202.905Z" fill="#1D4291"/>
<path id="Vector_30" fill-rule="evenodd" clip-rule="evenodd" d="M84.7826 10.5461C79.2421 6.56397 72.6477 4.36635 65 3.9532C72.3238 11.8888 79.8601 19.9475 87.6087 28.127C87.6087 29.5928 86.6668 30.3246 84.7826 30.3246C84.7826 28.8588 83.8407 28.127 81.9565 28.127C82.4415 25.947 81.4993 24.4834 79.1305 23.7318C79.1305 22.266 78.1885 21.5341 76.3044 21.5341C76.3044 20.0683 75.3624 19.3365 73.4783 19.3365C73.4783 17.8707 72.5363 17.1389 70.6522 17.1389C69.7103 14.2095 68.768 14.2095 67.8261 17.1389C65.942 17.1389 65 16.4071 65 14.9413C64.0343 13.0997 62.1502 12.3657 59.3478 12.7437C57.3441 10.757 54.5181 10.0252 50.8696 10.5461C53.0245 8.85828 55.8506 7.75947 59.3478 7.24962C54.7297 6.164 50.0195 5.7992 45.2174 6.15081C56.2304 -0.743117 68.477 -1.84193 81.9565 2.85439C84.3208 5.07618 85.2631 7.6408 84.7826 10.5461Z" fill="#4361BE"/>
<path id="Vector_31" fill-rule="evenodd" clip-rule="evenodd" d="M113.043 19.3365C113.985 20.8023 114.928 22.2659 115.87 23.7318C110.101 22.9538 104.92 22.9538 100.326 23.7318C95.2462 18.9629 90.0648 14.5677 84.7826 10.546C89.2147 8.40776 93.925 8.04076 98.913 9.44724C102.165 14.282 106.876 17.5784 113.043 19.3365Z" fill="#3F5DBE"/>
<path id="Vector_32" fill-rule="evenodd" clip-rule="evenodd" d="M45.2173 6.15082C50.0194 5.7992 54.7297 6.16401 59.3478 7.24963C55.8505 7.75948 53.0244 8.85829 50.8695 10.5461C48.0672 10.1681 46.183 10.9021 45.2173 12.7437C44.5527 14.0557 43.1396 14.7875 40.9782 14.9413C37.9348 12.8997 34.6376 11.4339 31.0869 10.5461C35.404 8.76818 40.1143 7.30237 45.2173 6.15082Z" fill="#3757AB"/>
<path id="Vector_33" fill-rule="evenodd" clip-rule="evenodd" d="M28.2609 10.5461C29.2029 10.5461 30.145 10.5461 31.087 10.5461C34.6376 11.4339 37.9348 12.8997 40.9783 14.9413C43.1396 14.7875 44.5527 14.0556 45.2174 12.7437C49.9276 12.7437 54.6376 12.7437 59.3478 12.7437C60.3135 14.5853 62.1976 15.3193 65 14.9413C65 16.4071 65.9419 17.1389 67.8261 17.1389C68.768 17.1389 69.7102 17.1389 70.6522 17.1389C72.5363 17.1389 73.4783 17.8707 73.4783 19.3365C75.3624 19.3365 76.3043 20.0683 76.3043 21.5341C76.3043 22.266 76.3043 23 76.3043 23.7318C75.0674 25.9426 73.1835 25.9426 70.6522 23.7318C70.6522 22.266 69.7102 21.5341 67.8261 21.5341C67.8261 20.0683 66.8841 19.3365 65 19.3365C64.0581 19.3365 63.1158 19.3365 62.1739 19.3365C61.2082 17.4949 59.3241 16.7609 56.5217 17.1389C52.7537 17.1389 48.9854 17.1389 45.2174 17.1389C42.0833 17.2642 39.2572 17.996 36.7391 19.3365C34.9106 15.7302 32.0846 12.8008 28.2609 10.5461Z" fill="#2A5295"/>
<path id="Vector_34" fill-rule="evenodd" clip-rule="evenodd" d="M28.2608 10.5461C32.0845 12.8008 34.9106 15.7302 36.7391 19.3365C34.8549 19.3365 33.913 20.0683 33.913 21.5341C32.9711 23.7318 31.0869 25.1976 28.2608 25.9294C27.3188 25.9294 26.3767 25.9294 25.4347 25.9294C25.7476 24.5735 26.6896 23.4746 28.2608 22.633C25.6727 22.022 23.7886 20.9232 22.6086 19.3365C23.0597 15.7039 24.9438 12.7744 28.2608 10.5461Z" fill="#2D51A3"/>
<path id="Vector_35" fill-rule="evenodd" clip-rule="evenodd" d="M45.2174 17.1389C48.9855 20.0683 52.7538 20.0683 56.5218 17.1389C59.3241 16.7609 61.2083 17.4949 62.174 19.3365C60.2449 21.8506 61.1868 21.8506 65 19.3365C66.8842 19.3365 67.8261 20.0683 67.8261 21.5341C69.7103 21.5341 70.6522 22.2659 70.6522 23.7318C73.1835 25.9426 75.0674 25.9426 76.3044 23.7318C77.2463 23.7318 78.1885 23.7318 79.1305 23.7318C78.6455 25.9118 79.5877 27.3754 81.9566 28.127C79.3978 30.7685 79.3978 33.7002 81.9566 36.9175C80.0724 42.7785 78.1885 48.6374 76.3044 54.4984C82.2502 35.0319 72.83 25.5096 48.0435 25.9294C43.7264 24.1515 39.0162 22.6857 33.9131 21.5341C33.9131 20.0683 34.855 19.3365 36.7392 19.3365C39.2572 17.996 42.0833 17.2642 45.2174 17.1389Z" fill="#3554B0"/>
<path id="Vector_36" fill-rule="evenodd" clip-rule="evenodd" d="M33.913 21.5341C39.0161 22.6857 43.7263 24.1515 48.0435 25.9294C44.2754 27.3952 40.5071 28.8588 36.7391 30.3246C33.913 28.8588 31.087 27.3952 28.2609 25.9294C31.087 25.1975 32.9711 23.7317 33.913 21.5341Z" fill="#1E4790"/>
<path id="Vector_37" fill-rule="evenodd" clip-rule="evenodd" d="M22.6086 19.3365C23.7886 20.9232 25.6727 22.022 28.2608 22.6329C26.6896 23.4746 25.7476 24.5734 25.4347 25.9294C21.9351 26.6106 21.9351 27.7094 25.4347 29.2258C17.9545 29.9181 16.0705 32.4827 19.7825 36.9175C17.6446 39.715 15.7605 39.715 14.1304 36.9175C14.1304 33.254 14.1304 29.5928 14.1304 25.9294C14.1304 21.5341 16.9565 19.3365 22.6086 19.3365Z" fill="#154791"/>
<path id="Vector_38" fill-rule="evenodd" clip-rule="evenodd" d="M118.696 43.5103C115.562 43.6356 112.735 44.3674 110.217 45.708C106.713 42.4709 103.887 38.8074 101.739 34.7199C90.3036 33.6958 90.7747 30.7641 103.152 25.9294C113.248 29.1797 118.429 35.0407 118.696 43.5103Z" fill="#3051AA"/>
<path id="Vector_39" fill-rule="evenodd" clip-rule="evenodd" d="M25.4348 25.9294C26.3768 25.9294 27.3188 25.9294 28.2608 25.9294C31.0869 27.3952 33.913 28.8588 36.7391 30.3246C30.1097 37.7328 23.5153 45.0575 16.9565 52.3008C13.4943 50.868 11.6103 48.3033 11.3043 44.6091C11.3447 41.5654 12.2867 39.003 14.1304 36.9175C15.7606 39.715 17.6446 39.715 19.7826 36.9175C16.0705 32.4827 17.9546 29.9181 25.4348 29.2258C21.9351 27.7095 21.9351 26.6106 25.4348 25.9294Z" fill="#11438C"/>
<path id="Vector_40" fill-rule="evenodd" clip-rule="evenodd" d="M113.043 19.3365C118.331 20.1255 122.57 22.3231 125.761 25.9294C128.177 31.6761 131.945 36.8032 137.065 41.3127C138.765 47.2924 138.294 53.1513 135.652 58.8937C132.396 56.4213 129.57 56.4213 127.174 58.8937C125.639 58.7618 124.697 58.03 124.348 56.696C133.391 52.7491 134.804 47.6221 128.587 41.3127C127.645 42.0445 126.703 42.7785 125.761 43.5103C121.537 39.9722 121.066 36.3109 124.348 32.5222C122.836 28.6522 120.009 25.7228 115.87 23.7318C114.928 22.2659 113.985 20.8023 113.043 19.3365Z" fill="#3C5EB9"/>
<path id="Vector_41" fill-rule="evenodd" clip-rule="evenodd" d="M87.6087 28.127C92.8279 34.955 93.7698 42.2796 90.4348 50.1032C89.2133 44.0355 87.3292 37.4427 84.7826 30.3246C86.6667 30.3246 87.6087 29.5928 87.6087 28.127Z" fill="#4B64DF"/>
<path id="Vector_42" fill-rule="evenodd" clip-rule="evenodd" d="M14.1305 25.9294C14.1305 29.5928 14.1305 33.254 14.1305 36.9175C12.2868 39.003 11.3448 41.5654 11.3044 44.6091C11.6104 48.3033 13.4944 50.868 16.9566 52.3008C14.953 54.2875 12.1269 55.0193 8.47833 54.4984C7.50632 44.341 9.39039 34.8188 14.1305 25.9294Z" fill="#4561B8"/>
<path id="Vector_43" fill-rule="evenodd" clip-rule="evenodd" d="M81.9564 36.9175C85.1804 43.818 85.6516 51.1427 83.3695 58.8937C82.3137 63.2691 79.9584 66.9326 76.3043 69.8818C76.562 65.0514 74.6779 64.3196 70.6521 67.6841C71.9823 63.1153 73.8662 58.7201 76.3043 54.4984C78.1884 48.6374 80.0723 42.7785 81.9564 36.9175Z" fill="#264698"/>
<path id="Vector_44" fill-rule="evenodd" clip-rule="evenodd" d="M118.696 43.5103C118.477 46.2574 116.593 48.088 113.044 49.0044C121.852 59.0145 119.026 66.7062 104.565 72.0794C99.1841 70.4158 98.2419 68.2182 101.739 65.4865C103.623 68.416 105.507 68.416 107.391 65.4865C109.275 65.4865 110.217 64.7547 110.217 63.2889C112.102 63.2889 113.044 62.5571 113.044 61.0913C113.8 57.5773 112.858 54.6479 110.217 52.3008C107.247 50.7141 105.363 48.5165 104.565 45.708C106.449 45.708 108.333 45.708 110.217 45.708C112.735 44.3674 115.562 43.6356 118.696 43.5103Z" fill="#4160B2"/>
<path id="Vector_45" fill-rule="evenodd" clip-rule="evenodd" d="M104.565 45.7079C105.363 48.5165 107.247 50.7141 110.217 52.3008C109.461 55.8148 110.402 58.7442 113.043 61.0913C113.043 62.5571 112.102 63.2889 110.217 63.2889C108.333 63.2889 107.391 64.0207 107.391 65.4865C105.507 65.4865 103.623 65.4865 101.739 65.4865C101.336 61.6143 102.278 57.9509 104.565 54.4984C102.411 53.5952 99.5845 53.2304 96.0869 53.3996C99.2985 50.8833 102.125 48.3187 104.565 45.7079Z" fill="#3C58C2"/>
<path id="Vector_46" fill-rule="evenodd" clip-rule="evenodd" d="M127.174 58.8937C129.57 56.4213 132.396 56.4213 135.652 58.8937C138.797 62.0714 139.268 65.7349 137.065 69.8818C133.979 75.4725 132.095 81.3336 131.413 87.4627C130.332 88.6846 128.919 89.4164 127.174 89.6603C126.232 89.6603 125.29 89.6603 124.348 89.6603C123.108 84.5179 123.108 79.7579 124.348 75.3758C129.078 74.6484 131.904 71.352 132.826 65.4865C132.958 62.1066 131.074 59.909 127.174 58.8937Z" fill="#405FB1"/>
<path id="Vector_47" fill-rule="evenodd" clip-rule="evenodd" d="M101.739 78.6722C99.8549 78.6722 98.913 79.404 98.913 80.8699C97.9711 80.8699 97.0288 80.8699 96.0869 80.8699C94.0544 76.8768 91.2283 75.411 87.6086 76.4746C93.4923 73.4111 98.2025 74.1429 101.739 78.6722Z" fill="#4B64DB"/>
<path id="Vector_48" fill-rule="evenodd" clip-rule="evenodd" d="M76.3044 69.8817C75.1951 73.8023 73.311 77.4635 70.6522 80.8698C63.6418 81.472 58.9316 84.4014 56.5218 89.6603C56.5218 90.3921 56.5218 91.1261 56.5218 91.8579C54.6376 91.8579 53.6957 92.5897 53.6957 94.0556C51.8115 94.0556 50.8696 94.7874 50.8696 96.2532C48.9854 95.5214 47.1016 94.7874 45.2174 94.0556C53.7844 85.2123 62.2627 76.4219 70.6522 67.6841C74.678 64.3196 76.5621 65.0514 76.3044 69.8817Z" fill="#244895"/>
<path id="Vector_49" fill-rule="evenodd" clip-rule="evenodd" d="M101.739 78.6722C105.452 85.0673 103.568 90.5614 96.087 95.1544C91.0314 96.2971 86.3212 95.5653 81.9565 92.9568C84.6699 89.8383 87.0251 86.5419 89.0218 83.0675C90.9175 81.4149 93.2725 80.6809 96.087 80.8699C95.145 83.7993 94.2028 86.7309 93.2609 89.6603C97.7945 87.9308 99.6787 85.0014 98.9131 80.8699C98.9131 79.404 99.855 78.6722 101.739 78.6722ZM96.087 80.8699C97.0289 80.8699 97.9711 80.8699 98.9131 80.8699C99.6787 85.0014 97.7945 87.9308 93.2609 89.6603C94.2028 86.7309 95.145 83.7993 96.087 80.8699Z" fill="#4661C0"/>
<path id="Vector_50" fill-rule="evenodd" clip-rule="evenodd" d="M70.6522 80.8698C59.3479 96.2532 48.0435 111.637 36.7392 127.02C34.855 127.02 33.9131 126.288 33.9131 124.822C33.9131 123.356 33.9131 121.893 33.9131 120.427C36.2819 119.675 37.2241 118.212 36.7392 116.032C38.6233 116.032 39.5653 115.3 39.5653 113.834C41.9341 113.083 42.8763 111.619 42.3913 109.439C44.7602 108.687 45.7024 107.224 45.2174 105.044C47.1016 105.044 48.0435 104.312 48.0435 102.846C50.4123 102.094 51.3546 100.631 50.8696 98.4508C54.6376 97.719 54.6376 96.985 50.8696 96.2532C50.8696 94.7874 51.8115 94.0556 53.6957 94.0556C55.5798 94.0556 56.5218 93.3238 56.5218 91.8579C60.2898 91.1261 60.2898 90.3921 56.5218 89.6603C58.9316 84.4014 63.6418 81.472 70.6522 80.8698Z" fill="#4563BB"/>
<path id="Vector_51" fill-rule="evenodd" clip-rule="evenodd" d="M124.348 89.6603C125.29 89.6603 126.232 89.6603 127.174 89.6603C122.006 92.4601 121.064 95.7565 124.348 99.5496C122.219 108.177 115.625 112.206 104.565 111.636C104.252 110.281 103.31 109.182 101.739 108.34C112.338 105.334 116.577 99.8397 114.457 91.8579C117.315 90.0185 120.611 89.2867 124.348 89.6603Z" fill="#415FBD"/>
<path id="Vector_52" fill-rule="evenodd" clip-rule="evenodd" d="M81.9564 107.241C79.5876 107.993 78.6454 109.456 79.1303 111.637C78.1884 111.637 77.2462 111.637 76.3043 111.637C75.3386 109.795 73.4544 109.061 70.6521 109.439C70.9649 108.083 71.9069 106.984 73.4782 106.142C69.4143 105.661 65.6462 104.562 62.1738 102.846C70.773 99.3409 77.3672 100.807 81.9564 107.241Z" fill="#4662CE"/>
<path id="Vector_53" fill-rule="evenodd" clip-rule="evenodd" d="M45.2174 94.0556C47.1015 94.7874 48.9854 95.5214 50.8696 96.2532C50.8696 96.985 50.8696 97.719 50.8696 98.4508C48.5007 99.2024 47.5585 100.666 48.0435 102.846C46.1593 102.846 45.2174 103.578 45.2174 105.044C42.8486 105.795 41.9063 107.259 42.3913 109.439C40.0225 110.19 39.0803 111.654 39.5652 113.834C37.6811 113.834 36.7391 114.566 36.7391 116.032C35.7972 116.032 34.855 116.032 33.913 116.032C32.0289 115.3 30.145 114.566 28.2609 113.834C33.2492 106.782 38.9014 100.189 45.2174 94.0556Z" fill="#2B4CA1"/>
<path id="Vector_54" fill-rule="evenodd" clip-rule="evenodd" d="M28.2608 113.834C30.145 114.566 32.0288 115.3 33.913 116.032C33.913 117.498 33.913 118.961 33.913 120.427C31.5442 121.179 30.6019 122.642 31.0869 124.822C28.7179 125.574 27.7759 127.037 28.2608 129.217C27.3188 129.217 26.3767 129.217 25.4347 129.217C23.7114 127.259 22.7694 125.062 22.6086 122.625C24.4927 119.695 26.3767 116.764 28.2608 113.834Z" fill="#264B95"/>
<path id="Vector_55" fill-rule="evenodd" clip-rule="evenodd" d="M104.565 111.637C111.411 116.528 111.411 121.658 104.565 127.02C102.526 126.101 101.113 124.638 100.326 122.625C98.3244 124.561 95.9694 126.024 93.2609 127.02C94.9791 120.634 98.7471 115.504 104.565 111.637Z" fill="#375BB1"/>
<path id="Vector_56" fill-rule="evenodd" clip-rule="evenodd" d="M319.348 116.032C321.072 117.99 322.013 120.187 322.174 122.625C319.806 123.376 318.862 124.84 319.348 127.02C310.121 123.218 307.295 124.684 310.87 131.415C308.985 132.147 307.102 132.881 305.217 133.613C303.214 131.626 300.388 130.894 296.739 131.415C295.798 129.949 294.854 128.486 293.913 127.02C299.328 122.488 305.921 119.557 313.696 118.229C315.581 117.498 317.463 116.764 319.348 116.032Z" fill="#3457A6"/>
<path id="Vector_57" fill-rule="evenodd" clip-rule="evenodd" d="M70.6521 109.439C73.4544 109.061 75.3386 109.795 76.3043 111.637C76.3043 112.368 76.3043 113.102 76.3043 113.834C73.9354 114.586 72.9932 116.049 73.4782 118.229C71.594 118.229 70.6521 118.961 70.6521 120.427C66.8841 121.159 66.8841 121.893 70.6521 122.625C70.6521 123.356 70.6521 124.09 70.6521 124.822C63.9119 127.389 58.2597 125.923 53.6956 120.427C57.5616 118.023 60.8588 118.757 63.5869 122.625C64.2552 117.471 66.6102 113.076 70.6521 109.439Z" fill="#3A5BB0"/>
<path id="Vector_58" fill-rule="evenodd" clip-rule="evenodd" d="M81.9564 107.241C84.3589 112.529 82.9459 117.658 77.7173 122.625C75.8216 124.277 73.4666 125.011 70.6521 124.822C70.6521 124.09 70.6521 123.356 70.6521 122.625C70.6521 121.893 70.6521 121.159 70.6521 120.427C72.5363 120.427 73.4782 119.695 73.4782 118.229C75.847 117.478 76.7892 116.014 76.3043 113.834C78.1884 113.834 79.1304 113.102 79.1304 111.637C78.6454 109.456 79.5876 107.993 81.9564 107.241Z" fill="#2D52A8"/>
<path id="Vector_59" fill-rule="evenodd" clip-rule="evenodd" d="M104.565 127.02C100.12 134.476 92.5838 137.406 81.9565 135.81C84.0187 132.415 87.7868 130.584 93.2609 130.316C89.7613 128.8 89.7613 127.701 93.2609 127.02C95.9694 126.024 98.3244 124.561 100.326 122.625C101.113 124.638 102.526 126.101 104.565 127.02Z" fill="#405CBB"/>
<path id="Vector_60" fill-rule="evenodd" clip-rule="evenodd" d="M293.913 127.02C291.395 128.36 288.569 129.092 285.435 129.217C283.551 126.288 281.667 126.288 279.783 129.217C277.898 129.217 276.015 129.217 274.13 129.217C275.582 124.956 279.351 122.759 285.435 122.625C289.781 122.521 292.607 123.987 293.913 127.02Z" fill="#4764C0"/>
<path id="Vector_61" fill-rule="evenodd" clip-rule="evenodd" d="M274.13 129.217C276.015 129.217 277.898 129.217 279.783 129.217C280.725 129.217 281.667 129.217 282.609 129.217C277.898 130.683 273.188 132.147 268.478 133.613C261.826 131.652 256.174 131.652 251.522 133.613C257.472 127.328 265.008 125.864 274.13 129.217Z" fill="#24519C"/>
<path id="Vector_62" fill-rule="evenodd" clip-rule="evenodd" d="M48.0435 129.217C61.0681 134.107 65.3072 142.164 60.7609 153.391C55.3043 159.116 50.1229 159.116 45.2174 153.391C49.4254 153.319 53.1937 152.22 56.5217 150.095C50.5771 146.374 46.3379 141.612 43.8044 135.81C41.5115 139.019 39.1566 139.751 36.7391 138.008C39.1925 133.839 42.9605 130.91 48.0435 129.217Z" fill="#3B59B5"/>
<path id="Vector_63" fill-rule="evenodd" clip-rule="evenodd" d="M293.913 127.02C294.854 128.486 295.798 129.949 296.739 131.415C293.605 131.54 290.779 132.272 288.261 133.613C286.376 133.613 285.435 134.345 285.435 135.81C286.376 137.276 287.32 138.74 288.261 140.206C287.32 140.206 286.376 140.206 285.435 140.206C281.097 142.082 277.328 142.082 274.13 140.206C274.13 138.74 273.189 138.008 271.304 138.008C270.362 136.542 269.42 135.079 268.478 133.613C273.189 132.147 277.898 130.683 282.609 129.217C283.551 129.217 284.494 129.217 285.435 129.217C288.569 129.092 291.395 128.36 293.913 127.02Z" fill="#1B4292"/>
<path id="Vector_64" fill-rule="evenodd" clip-rule="evenodd" d="M296.739 131.415C300.388 130.894 303.214 131.626 305.217 133.613C299.382 133.65 293.729 134.382 288.261 135.81C288.261 135.079 288.261 134.345 288.261 133.613C290.779 132.272 293.605 131.54 296.739 131.415Z" fill="#4B64DB"/>
<path id="Vector_65" fill-rule="evenodd" clip-rule="evenodd" d="M31.087 124.822C32.0289 124.822 32.9711 124.822 33.913 124.822C33.913 126.288 34.855 127.02 36.7391 127.02C33.3829 131.903 30.5568 137.03 28.2609 142.403C26.9697 144.157 25.0856 144.889 22.6087 144.601C22.6087 143.869 22.6087 143.135 22.6087 142.403C26.3768 140.937 26.3768 139.474 22.6087 138.008C22.1238 135.828 23.0658 134.364 25.4348 133.613C28.668 135.114 28.668 134.38 25.4348 131.415C25.4348 130.683 25.4348 129.949 25.4348 129.217C26.3768 129.217 27.3188 129.217 28.2609 129.217C30.6297 128.466 31.5719 127.002 31.087 124.822Z" fill="#4B64DB"/>
<path id="Vector_66" fill-rule="evenodd" clip-rule="evenodd" d="M268.478 133.613C269.42 135.079 270.362 136.542 271.304 138.008C268.502 137.63 266.618 138.364 265.652 140.206C262.004 139.685 259.178 140.417 257.174 142.403C254.372 142.025 252.487 142.759 251.522 144.601C248.719 144.223 246.835 144.957 245.87 146.798C244.928 146.798 243.985 146.798 243.043 146.798C241.32 144.84 240.378 142.643 240.217 140.206C244.248 138.357 248.016 136.16 251.522 133.613C256.174 131.652 261.826 131.652 268.478 133.613Z" fill="#264C9C"/>
<path id="Vector_67" fill-rule="evenodd" clip-rule="evenodd" d="M322.174 129.217C324.542 129.969 325.486 131.433 325 133.613C317.29 132.89 310.694 134.353 305.217 138.008C299.565 138.74 293.913 139.474 288.261 140.206C287.32 138.74 286.376 137.276 285.435 135.81C286.376 135.81 287.32 135.81 288.261 135.81C293.729 134.382 299.381 133.65 305.217 133.613C307.102 132.881 308.985 132.147 310.87 131.415C315.388 132.004 319.156 131.27 322.174 129.217Z" fill="#1B5190"/>
<path id="Vector_68" fill-rule="evenodd" clip-rule="evenodd" d="M22.6087 122.625C22.7695 125.062 23.7115 127.259 25.4348 129.217C25.4348 129.949 25.4348 130.683 25.4348 131.415C25.4348 132.147 25.4348 132.881 25.4348 133.613C23.0658 134.364 22.1238 135.828 22.6087 138.008C22.6087 139.474 22.6087 140.937 22.6087 142.403C22.6087 143.135 22.6087 143.869 22.6087 144.601C23.0936 146.781 22.1516 148.244 19.7826 148.996C16.9565 150.462 14.1304 151.925 11.3044 153.391C11.3044 151.925 10.3623 151.194 8.47827 151.194C10.9361 140.814 15.6462 131.292 22.6087 122.625Z" fill="#214899"/>
<path id="Vector_69" fill-rule="evenodd" clip-rule="evenodd" d="M305.217 138.008C313.823 138.026 322.301 138.757 330.652 140.206C330.652 141.671 329.711 142.403 327.826 142.403C326.885 142.403 325.941 142.403 325 142.403C316.522 142.403 308.043 142.403 299.565 142.403C296.739 142.403 293.913 142.403 291.087 142.403C288.283 142.781 286.401 142.047 285.435 140.206C286.376 140.206 287.32 140.206 288.261 140.206C293.913 139.474 299.565 138.74 305.217 138.008Z" fill="#4A64C2"/>
<path id="Vector_70" fill-rule="evenodd" clip-rule="evenodd" d="M265.652 140.206C268.478 140.206 271.304 140.206 274.13 140.206C277.328 142.082 281.097 142.082 285.435 140.206C286.401 142.047 288.283 142.781 291.087 142.403C291.087 143.135 291.087 143.869 291.087 144.601C279.033 144.746 267.728 146.943 257.174 151.194C255.451 149.236 254.509 147.038 254.348 144.601C256.232 144.601 257.174 143.869 257.174 142.403C260.822 142.924 263.648 142.192 265.652 140.206Z" fill="#395DAA"/>
<path id="Vector_71" fill-rule="evenodd" clip-rule="evenodd" d="M299.565 142.403C308.043 142.403 316.522 142.403 325 142.403C321.233 143.869 317.463 145.333 313.696 146.798C310.047 146.278 307.221 147.009 305.217 148.996C302.391 148.996 299.565 148.996 296.739 148.996C295.301 147.148 297.183 146.049 302.391 145.7C300.82 144.858 299.879 143.759 299.565 142.403Z" fill="#003788"/>
<path id="Vector_72" fill-rule="evenodd" clip-rule="evenodd" d="M81.9564 135.81C87.2997 140.944 88.7128 146.803 86.1956 153.391C83.2638 159.729 78.0827 161.193 70.6521 157.787C77.045 151.717 77.9869 145.124 73.4782 138.008C75.8097 136.061 78.6358 135.329 81.9564 135.81Z" fill="#3559AB"/>
<path id="Vector_73" fill-rule="evenodd" clip-rule="evenodd" d="M237.391 140.206C238.333 140.206 239.275 140.206 240.217 140.206C240.378 142.643 241.32 144.84 243.043 146.798C241.159 146.798 240.217 147.53 240.217 148.996C238.333 148.996 237.391 149.728 237.391 151.194C235.507 151.194 233.623 151.194 231.739 151.194C229.651 151.482 227.767 151.115 226.087 150.095C230.868 147.223 234.636 143.926 237.391 140.206Z" fill="#1A4891"/>
<path id="Vector_74" fill-rule="evenodd" clip-rule="evenodd" d="M291.087 142.403C293.913 142.403 296.739 142.403 299.565 142.403C299.879 143.759 300.82 144.858 302.391 145.7C297.183 146.049 295.301 147.148 296.739 148.996C296.739 150.462 295.798 151.194 293.913 151.194C292.972 151.194 292.028 151.194 291.087 151.194C290.917 150 289.976 149.269 288.261 148.996C283.419 149.829 280.593 152.027 279.783 155.589C278.841 155.589 277.898 155.589 276.957 155.589C277.441 153.409 276.499 151.945 274.13 151.194C279.783 148.996 285.435 146.798 291.087 144.601C291.087 143.869 291.087 143.135 291.087 142.403Z" fill="#255396"/>
<path id="Vector_75" fill-rule="evenodd" clip-rule="evenodd" d="M237.391 140.206C234.636 143.926 230.868 147.223 226.087 150.095C227.767 151.115 229.651 151.482 231.739 151.194C231.739 151.925 231.739 152.659 231.739 153.391C229.855 153.391 228.913 154.123 228.913 155.589C224.598 155.428 221.772 156.894 220.435 159.984C219.493 159.984 218.551 159.984 217.609 159.984C213.841 157.787 213.841 155.589 217.609 153.391C222.468 147.416 229.062 143.021 237.391 140.206Z" fill="#284B9F"/>
<path id="Vector_76" fill-rule="evenodd" clip-rule="evenodd" d="M251.522 144.601C252.464 144.601 253.406 144.601 254.348 144.601C254.509 147.038 255.451 149.236 257.174 151.194C247.802 154.451 240.266 158.114 234.565 162.182C233.6 164.023 231.715 164.757 228.913 164.379C227.971 161.45 227.029 161.45 226.087 164.379C225.145 164.379 224.203 164.379 223.261 164.379C221.377 164.379 220.435 163.648 220.435 162.182C220.435 161.45 220.435 160.716 220.435 159.984C224.75 160.145 227.576 158.679 228.913 155.589C230.797 155.589 231.739 154.857 231.739 153.391C234.541 153.769 236.426 153.035 237.391 151.194C239.275 151.194 240.217 150.462 240.217 148.996C243.02 149.374 244.904 148.64 245.87 146.798C248.672 147.176 250.556 146.442 251.522 144.601Z" fill="#3956B3"/>
<path id="Vector_77" fill-rule="evenodd" clip-rule="evenodd" d="M291.087 144.601C285.435 146.798 279.783 148.996 274.13 151.194C266.129 152.466 259.535 155.396 254.348 159.984C251.545 159.606 249.661 160.34 248.696 162.182C246.811 162.182 245.87 162.914 245.87 164.379C243.985 164.379 242.102 164.379 240.217 164.379C239.252 162.538 237.368 161.804 234.565 162.182C240.266 158.114 247.802 154.451 257.174 151.194C267.728 146.943 279.033 144.746 291.087 144.601Z" fill="#0E3E85"/>
<path id="Vector_78" fill-rule="evenodd" clip-rule="evenodd" d="M291.087 151.194C292.028 154.123 292.972 154.123 293.913 151.194C295.798 151.194 296.739 150.462 296.739 148.996C299.565 148.996 302.391 148.996 305.217 148.996C307.306 148.708 309.191 149.075 310.87 150.095C295.908 151.893 295.908 152.991 310.87 153.391C308.866 155.378 306.04 156.11 302.391 155.589C298.977 157.202 295.21 157.934 291.087 157.787C291.087 156.321 290.146 155.589 288.261 155.589C286.376 152.659 284.494 152.659 282.609 155.589C282.609 157.055 281.667 157.787 279.783 157.787C279.783 157.055 279.783 156.321 279.783 155.589C280.593 152.027 283.419 149.829 288.261 148.996C289.976 149.269 290.917 150 291.087 151.194Z" fill="#3858B2"/>
<path id="Vector_79" fill-rule="evenodd" clip-rule="evenodd" d="M274.13 151.194C276.499 151.945 277.441 153.409 276.956 155.589C276.956 156.321 276.956 157.055 276.956 157.787C276.956 159.252 276.015 159.984 274.13 159.984C273.188 157.055 272.246 157.055 271.304 159.984C271.304 160.716 271.304 161.45 271.304 162.182C270.362 162.182 269.42 162.182 268.478 162.182C268.478 161.45 268.478 160.716 268.478 159.984C264.242 157.8 259.532 157.8 254.348 159.984C259.535 155.396 266.129 152.466 274.13 151.194Z" fill="#3553B5"/>
<path id="Vector_80" fill-rule="evenodd" clip-rule="evenodd" d="M217.609 153.391C213.841 155.589 213.841 157.787 217.609 159.984C217.609 160.716 217.609 161.45 217.609 162.182C215.725 162.182 214.783 162.914 214.783 164.379C213.841 164.379 212.898 164.379 211.956 164.379C208.188 164.379 206.304 162.914 206.304 159.984C208.459 156.112 212.227 153.914 217.609 153.391Z" fill="#264B9E"/>
<path id="Vector_81" fill-rule="evenodd" clip-rule="evenodd" d="M268.478 159.984C264.71 160.716 264.71 161.45 268.478 162.182C269.42 162.182 270.362 162.182 271.304 162.182C278.841 162.914 278.841 163.648 271.304 164.379C266.94 164.826 263.172 166.291 260 168.775C258.285 168.502 257.343 167.77 257.174 166.577C260.162 165.025 259.22 164.294 254.348 164.379C254.348 162.914 254.348 161.45 254.348 159.984C259.532 157.8 264.242 157.8 268.478 159.984Z" fill="#3455A6"/>
<path id="Vector_82" fill-rule="evenodd" clip-rule="evenodd" d="M19.7825 148.996C19.7825 149.728 19.7825 150.462 19.7825 151.194C19.734 155.732 18.792 160.127 16.9564 164.379C14.2684 167.498 13.3264 171.159 14.1303 175.367C11.7614 174.616 10.8193 173.152 11.3042 170.972C11.3042 165.111 11.3042 159.252 11.3042 153.391C14.1303 151.925 16.9564 150.462 19.7825 148.996Z" fill="#245A97"/>
<path id="Vector_83" fill-rule="evenodd" clip-rule="evenodd" d="M19.7826 151.194C22.2595 150.906 24.1436 151.638 25.4348 153.391C22.8182 161.29 21.8762 169.346 22.6087 177.565C22.6087 179.763 22.6087 181.96 22.6087 184.158C20.2241 177.906 18.3401 171.313 16.9565 164.379C18.7921 160.127 19.7342 155.732 19.7826 151.194Z" fill="#4B64D6"/>
<path id="Vector_84" fill-rule="evenodd" clip-rule="evenodd" d="M36.7391 162.182C40.6722 159.936 44.4402 160.668 48.0435 164.379C51.5865 169.089 51.5865 173.484 48.0435 177.565C44.0822 172.346 40.3141 167.216 36.7391 162.182Z" fill="#445FC5"/>
<path id="Vector_85" fill-rule="evenodd" clip-rule="evenodd" d="M282.609 155.589C284.494 155.589 286.376 155.589 288.261 155.589C290.146 155.589 291.087 156.321 291.087 157.787C292.053 159.628 293.936 160.362 296.739 159.984C290.705 163.437 284.112 166.366 276.956 168.775C275.072 167.309 273.188 165.845 271.304 164.379C278.841 163.648 278.841 162.914 271.304 162.182C271.304 161.45 271.304 160.716 271.304 159.984C272.246 159.984 273.188 159.984 274.13 159.984C276.015 159.984 276.956 159.252 276.956 157.787C277.898 157.787 278.841 157.787 279.783 157.787C281.667 157.787 282.609 157.055 282.609 155.589Z" fill="#3C5FA9"/>
<path id="Vector_86" fill-rule="evenodd" clip-rule="evenodd" d="M296.739 159.984C303.185 159.055 307.897 160.52 310.87 164.379C308.985 164.379 307.102 164.379 305.217 164.379C296.064 166.494 287.585 169.423 279.783 173.17C278.841 173.17 277.898 173.17 276.957 173.17C274.588 172.418 273.645 170.955 274.13 168.775C275.072 168.775 276.015 168.775 276.957 168.775C284.112 166.366 290.705 163.437 296.739 159.984Z" fill="#195292"/>
<path id="Vector_87" fill-rule="evenodd" clip-rule="evenodd" d="M8.47819 151.194C10.3623 151.194 11.3043 151.925 11.3043 153.391C11.3043 159.252 11.3043 165.111 11.3043 170.972C6.34153 168.66 4.45749 164.997 5.6521 159.984C4.89525 156.47 5.83727 153.541 8.47819 151.194Z" fill="#0C3D8A"/>
<path id="Vector_88" fill-rule="evenodd" clip-rule="evenodd" d="M217.609 162.182C218.551 162.182 219.493 162.182 220.435 162.182C220.435 163.648 221.377 164.379 223.261 164.379C223.261 165.111 223.261 165.845 223.261 166.577C221.377 166.577 220.435 167.309 220.435 168.775C218.551 168.775 217.609 169.506 217.609 170.972C215.725 170.972 214.783 171.704 214.783 173.17C213.841 175.367 211.957 176.833 209.13 177.565C206.716 175.077 206.716 172.148 209.13 168.775C211.015 168.775 211.957 168.043 211.957 166.577C213.841 166.577 214.783 165.845 214.783 164.379C216.667 164.379 217.609 163.648 217.609 162.182Z" fill="#3C5AC5"/>
<path id="Vector_89" fill-rule="evenodd" clip-rule="evenodd" d="M79.1304 175.368C74.9636 173.311 72.1375 170.379 70.6521 166.577C68.4461 161.824 70.8014 161.092 77.7174 164.379C79.112 167.97 79.5831 171.634 79.1304 175.368Z" fill="#355FA7"/>
<path id="Vector_90" fill-rule="evenodd" clip-rule="evenodd" d="M206.304 159.984C206.304 162.914 208.188 164.379 211.956 164.379C211.956 165.111 211.956 165.845 211.956 166.577C210.072 166.577 209.13 167.309 209.13 168.775C204.342 171.032 200.574 173.963 197.826 177.565C198.433 173.875 196.549 171.678 192.174 170.972C195.942 166.577 200.652 162.914 206.304 159.984Z" fill="#264CA3"/>
<path id="Vector_91" fill-rule="evenodd" clip-rule="evenodd" d="M234.565 162.182C237.368 161.804 239.252 162.538 240.217 164.379C240.217 165.111 240.217 165.845 240.217 166.577C238.333 166.577 237.391 167.309 237.391 168.775C236.449 168.775 235.507 168.775 234.565 168.775C231.739 169.506 229.855 170.972 228.913 173.17C227.029 173.17 226.087 173.902 226.087 175.367C225.145 175.367 224.203 175.367 223.261 175.367C219.705 174.234 216.879 175.697 214.783 179.763C212.898 179.763 211.015 179.763 209.13 179.763C209.13 179.031 209.13 178.297 209.13 177.565C211.957 176.833 213.841 175.367 214.783 173.17C216.667 173.17 217.609 172.438 217.609 170.972C219.493 170.972 220.435 170.24 220.435 168.775C222.319 168.775 223.261 168.043 223.261 166.577C225.145 166.577 226.087 165.845 226.087 164.379C227.029 164.379 227.971 164.379 228.913 164.379C231.715 164.757 233.6 164.023 234.565 162.182Z" fill="#275197"/>
<path id="Vector_92" fill-rule="evenodd" clip-rule="evenodd" d="M254.935 159.551C254.935 161.017 254.935 162.481 254.935 163.946C254.935 164.678 254.935 165.412 254.935 166.144C253.051 166.144 252.109 166.876 252.109 168.342C249.306 167.964 247.422 168.698 246.456 170.539C244.572 170.539 243.63 171.271 243.63 172.737C240.828 172.359 238.944 173.093 237.978 174.935C236.094 174.935 235.152 175.666 235.152 177.132C233.268 177.132 232.326 177.864 232.326 179.33C227.912 179.842 224.144 181.308 221.022 183.725C218.178 182.762 218.178 181.299 221.022 179.33C222.906 179.33 223.848 178.598 223.848 177.132C225.732 177.132 226.674 176.4 226.674 174.935C228.558 174.935 229.5 174.203 229.5 172.737C230.442 170.539 232.326 169.073 235.152 168.342C236.094 171.271 237.036 171.271 237.978 168.342C239.862 168.342 240.804 167.61 240.804 166.144C240.804 165.412 240.804 164.678 240.804 163.946C242.688 163.946 244.572 163.946 246.456 163.946C248.341 163.946 249.283 163.215 249.283 161.749C250.248 159.907 252.132 159.173 254.935 159.551Z" fill="#3554B2"/>
<path id="Vector_93" fill-rule="evenodd" clip-rule="evenodd" d="M271.304 164.379C273.189 165.845 275.072 167.309 276.957 168.775C276.015 168.775 275.072 168.775 274.13 168.775C268.668 172.199 263.016 173.297 257.174 172.071C259.882 174.592 258.939 176.789 254.348 178.664C255.886 180.24 257.77 181.338 260 181.96C255.946 186.087 251.236 187.553 245.87 186.356C245.87 185.624 245.87 184.89 245.87 184.158C249.406 180.859 252.233 177.196 254.348 173.17C254.348 171.704 254.348 170.24 254.348 168.775C254.348 168.043 254.348 167.309 254.348 166.577C255.29 166.577 256.232 166.577 257.174 166.577C257.343 167.77 258.285 168.502 260 168.775C263.172 166.291 266.94 164.826 271.304 164.379Z" fill="#4361C6"/>
<path id="Vector_94" fill-rule="evenodd" clip-rule="evenodd" d="M305.217 164.379C305.217 165.111 305.217 165.845 305.217 166.577C306.184 168.419 308.066 169.153 310.87 168.775C295.671 172.293 281.07 177.42 267.065 184.158C265.753 182.853 265.282 181.387 265.652 179.763C265.652 178.297 266.594 177.565 268.478 177.565C269.42 180.495 270.362 180.495 271.304 177.565C273.188 177.565 274.13 176.833 274.13 175.367C275.072 175.367 276.015 175.367 276.957 175.367C278.841 175.367 279.783 174.636 279.783 173.17C287.585 169.423 296.064 166.494 305.217 164.379Z" fill="#4662C4"/>
<path id="Vector_95" fill-rule="evenodd" clip-rule="evenodd" d="M16.9565 164.379C18.3401 171.313 20.2241 177.906 22.6087 184.158C22.8665 188.988 20.9824 189.72 16.9565 186.356C16.9565 184.89 16.0145 184.158 14.1304 184.158C14.1304 181.229 14.1304 178.297 14.1304 175.367C13.3265 171.159 14.2685 167.498 16.9565 164.379Z" fill="#4964B6"/>
<path id="Vector_96" fill-rule="evenodd" clip-rule="evenodd" d="M48.0435 177.565C51.5866 173.484 51.5866 169.089 48.0435 164.379C44.4402 160.668 40.6722 159.936 36.7392 162.182C35.6667 163.573 34.7244 165.039 33.9131 166.577C30.3039 161.896 31.7169 158.235 38.1522 155.589C54.1812 161.026 58.4203 169.449 50.8696 180.862C41.5339 182.299 40.5917 181.2 48.0435 177.565Z" fill="#395CB1"/>
<path id="Vector_97" fill-rule="evenodd" clip-rule="evenodd" d="M274.13 168.775C273.645 170.955 274.588 172.418 276.956 173.17C276.956 173.902 276.956 174.636 276.956 175.368C276.015 175.368 275.072 175.368 274.13 175.368C272.246 175.368 271.304 176.099 271.304 177.565C270.362 177.565 269.42 177.565 268.478 177.565C266.594 177.565 265.652 178.297 265.652 179.763C263.768 180.495 261.884 181.229 260 181.96C257.77 181.338 255.886 180.24 254.348 178.664C258.939 176.789 259.882 174.592 257.174 172.071C263.016 173.297 268.668 172.199 274.13 168.775Z" fill="#395FA5"/>
<path id="Vector_98" fill-rule="evenodd" clip-rule="evenodd" d="M5.65217 159.984C4.45756 164.997 6.3416 168.66 11.3043 170.972C10.8194 173.152 11.7615 174.616 14.1304 175.367C14.1304 178.297 14.1304 181.229 14.1304 184.158C12.0912 183.239 10.6781 181.776 9.8913 179.763C7.7898 185.037 5.43471 190.164 2.82609 195.146C1.88406 195.146 0.942028 195.146 0 195.146C0 187.821 0 180.495 0 173.17C1.88406 168.775 3.76812 164.379 5.65217 159.984Z" fill="#1C4899"/>
<path id="Vector_99" fill-rule="evenodd" clip-rule="evenodd" d="M70.6521 166.577C72.1375 170.379 74.9636 173.311 79.1304 175.368C77.2462 179.031 75.3624 182.692 73.4782 186.356C71.5941 184.89 69.7102 183.426 67.826 181.96C69.1419 176.609 70.0841 171.482 70.6521 166.577Z" fill="#3053AB"/>
<path id="Vector_100" fill-rule="evenodd" clip-rule="evenodd" d="M192.174 170.972C196.549 171.678 198.433 173.875 197.826 177.565C191.304 187.004 183.768 195.794 175.217 203.937C175.824 200.247 173.94 198.049 169.565 197.344C175.993 187.955 183.529 179.165 192.174 170.972Z" fill="#224A9A"/>
<path id="Vector_101" fill-rule="evenodd" clip-rule="evenodd" d="M252.109 168.342C253.051 168.342 253.993 168.342 254.935 168.342C254.935 169.807 254.935 171.271 254.935 172.737C250.62 172.576 247.794 174.042 246.457 177.132C244.572 177.132 243.63 177.864 243.63 179.33C239.315 179.169 236.489 180.635 235.152 183.725C233.268 183.725 232.326 184.457 232.326 185.923C228.558 188.12 224.79 190.318 221.022 192.515C220.08 192.515 219.138 192.515 218.196 192.515C222.906 188.12 227.616 183.725 232.326 179.33C234.21 179.33 235.152 178.598 235.152 177.132C237.036 177.132 237.978 176.4 237.978 174.935C240.781 175.313 242.665 174.579 243.63 172.737C245.515 172.737 246.457 172.005 246.457 170.539C249.259 170.917 251.143 170.183 252.109 168.342Z" fill="#335AA7"/>
<path id="Vector_102" fill-rule="evenodd" clip-rule="evenodd" d="M254.348 173.17C252.232 177.196 249.406 180.859 245.87 184.158C242.102 184.89 238.333 185.624 234.565 186.356C234.565 185.624 234.565 184.89 234.565 184.158C235.902 181.068 238.728 179.602 243.043 179.763C244.928 179.763 245.87 179.031 245.87 177.565C247.207 174.475 250.033 173.009 254.348 173.17Z" fill="#4B64DB"/>
<path id="Vector_103" fill-rule="evenodd" clip-rule="evenodd" d="M310.87 175.367C309.928 176.833 308.985 178.297 308.043 179.763C306.158 179.763 305.217 180.494 305.217 181.96C295.563 182.022 287.085 184.219 279.783 188.553C277.898 188.553 276.015 188.553 274.13 188.553C272.246 188.553 271.304 187.821 271.304 186.356C283.651 180.956 296.841 177.295 310.87 175.367Z" fill="#4361BA"/>
<path id="Vector_104" fill-rule="evenodd" clip-rule="evenodd" d="M223.261 175.367C223.261 176.099 223.261 176.833 223.261 177.565C221.377 177.565 220.435 178.297 220.435 179.763C217.591 181.732 217.591 183.195 220.435 184.158C216.667 187.821 212.898 191.483 209.13 195.146C200.754 200.557 192.747 206.418 185.109 212.727C183.797 211.422 183.325 209.956 183.696 208.332C185.58 208.332 186.522 207.6 186.522 206.134C188.406 206.134 189.348 205.402 189.348 203.936C191.232 203.936 192.174 203.205 192.174 201.739C194.058 201.739 195 201.007 195 199.541C197.369 198.79 198.311 197.326 197.826 195.146C199.71 195.146 200.652 194.414 200.652 192.948C202.536 192.948 203.478 192.217 203.478 190.751C205.362 190.751 206.304 190.019 206.304 188.553C208.189 188.553 209.13 187.821 209.13 186.356C211.015 186.356 211.957 185.624 211.957 184.158C213.841 184.158 214.783 183.426 214.783 181.96C214.783 181.228 214.783 180.494 214.783 179.763C216.879 175.697 219.705 174.233 223.261 175.367Z" fill="#4260CA"/>
<path id="Vector_105" fill-rule="evenodd" clip-rule="evenodd" d="M70.6522 206.134C68.768 204.668 66.8841 203.205 65 201.739C64.0343 203.581 62.1502 204.315 59.3478 203.937C55.103 200.256 51.335 196.227 48.0435 191.85C36.851 191.566 37.3221 189.004 49.4565 184.158C61.618 188.81 68.6832 196.135 70.6522 206.134Z" fill="#3657B2"/>
<path id="Vector_106" fill-rule="evenodd" clip-rule="evenodd" d="M67.826 181.96C69.7102 183.426 71.594 184.89 73.4782 186.356C84.8487 189.388 88.6167 195.247 84.7825 203.937C83.8406 203.937 82.8984 203.937 81.9565 203.937C81.0145 203.937 80.0723 203.937 79.1304 203.937C80.0723 202.471 81.0145 201.007 81.9565 199.541C82.8314 192.869 78.1215 189.206 67.826 188.553C64.058 186.356 64.058 184.158 67.826 181.96Z" fill="#335CA7"/>
<path id="Vector_107" fill-rule="evenodd" clip-rule="evenodd" d="M209.13 179.763C211.015 179.763 212.898 179.763 214.783 179.763C214.783 180.495 214.783 181.229 214.783 181.96C212.898 181.96 211.957 182.692 211.957 184.158C210.072 184.158 209.13 184.89 209.13 186.356C207.246 186.356 206.304 187.087 206.304 188.553C204.42 188.553 203.478 189.285 203.478 190.751C201.594 190.751 200.652 191.483 200.652 192.948C198.768 192.948 197.826 193.68 197.826 195.146C195.457 195.898 194.515 197.361 195 199.541C193.116 199.541 192.174 200.273 192.174 201.739C190.29 201.739 189.348 202.471 189.348 203.937C187.464 203.937 186.522 204.668 186.522 206.134C184.638 206.134 183.696 206.866 183.696 208.332C173.237 218.663 160.991 227.453 146.957 234.703C147.898 233.237 148.841 231.774 149.783 230.308C151.667 230.308 152.609 229.576 152.609 228.11C154.493 228.11 155.435 227.379 155.435 225.913C157.319 225.913 158.261 225.181 158.261 223.715C160.145 223.715 161.087 222.983 161.087 221.517C162.971 221.517 163.913 220.786 163.913 219.32C165.797 219.32 166.739 218.588 166.739 217.122C169.108 216.371 170.05 214.907 169.565 212.727C171.449 212.727 172.391 211.995 172.391 210.529C184.638 200.273 196.884 190.019 209.13 179.763Z" fill="#3857B1"/>
<path id="Vector_108" fill-rule="evenodd" clip-rule="evenodd" d="M14.1304 184.158C16.0145 184.158 16.9565 184.89 16.9565 186.356C16.9565 187.821 16.9565 189.285 16.9565 190.751C13.6057 193.962 13.6057 196.893 16.9565 199.541C17.6271 202.378 16.6851 204.576 14.1304 206.134C11.1391 203.717 8.78401 200.785 7.06518 197.344C6.27834 199.357 4.8653 200.82 2.82605 201.739C2.82605 199.541 2.82605 197.344 2.82605 195.146C5.43467 190.164 7.78976 185.037 9.89127 179.763C10.6781 181.776 12.0912 183.239 14.1304 184.158Z" fill="#29579B"/>
<path id="Vector_109" fill-rule="evenodd" clip-rule="evenodd" d="M22.6087 177.565C25.8215 183.762 27.2345 190.355 26.8478 197.344C25.7666 196.122 24.3536 195.39 22.6087 195.146C22.6087 193.68 21.6667 192.948 19.7826 192.948C19.7826 191.483 18.8406 190.751 16.9565 190.751C16.9565 189.285 16.9565 187.821 16.9565 186.356C20.9824 189.72 22.8665 188.988 22.6087 184.158C22.6087 181.96 22.6087 179.763 22.6087 177.565Z" fill="#4B64E1"/>
<path id="Vector_110" fill-rule="evenodd" clip-rule="evenodd" d="M305.217 184.158C305.217 186.356 305.217 188.553 305.217 190.751C300.472 190.278 297.646 191.744 296.739 195.146C294.854 195.146 293.913 195.878 293.913 197.344C290.265 196.823 287.438 197.555 285.435 199.541C282.632 199.163 280.748 199.897 279.783 201.739C276.134 201.218 273.308 201.95 271.304 203.937C270.362 203.937 269.42 203.937 268.478 203.937C266.39 204.224 264.506 203.857 262.826 202.838C268.478 200.64 274.13 198.442 279.783 196.245C273.94 195.067 268.759 196.166 264.239 199.541C262.927 198.236 262.456 196.77 262.826 195.146C263.768 195.146 264.71 195.146 265.652 195.146C267.536 195.146 268.478 194.414 268.478 192.948C271.281 193.326 273.165 192.592 274.13 190.751C276.933 191.129 278.817 190.395 279.783 188.553C288.261 187.087 296.739 185.624 305.217 184.158Z" fill="#2D519E"/>
<path id="Vector_111" fill-rule="evenodd" clip-rule="evenodd" d="M271.304 186.356C271.304 187.821 272.246 188.553 274.13 188.553C274.13 189.285 274.13 190.019 274.13 190.751C271.328 190.373 269.444 191.107 268.478 192.948C268.478 194.414 267.536 195.146 265.652 195.146C264.472 193.559 262.588 192.461 260 191.85C264.194 190.395 267.962 188.562 271.304 186.356Z" fill="#4B64E6"/>
<path id="Vector_112" fill-rule="evenodd" clip-rule="evenodd" d="M16.9564 190.751C18.8405 190.751 19.7825 191.483 19.7825 192.948C21.6666 192.948 22.6086 193.68 22.6086 195.146C23.5506 198.076 24.4927 201.007 25.4347 203.937C25.4347 205.402 25.4347 206.866 25.4347 208.332C24.4927 208.332 23.5506 208.332 22.6086 208.332C22.6086 207.6 22.6086 206.866 22.6086 206.134C21.3876 203.475 19.5035 201.277 16.9564 199.541C13.6057 196.893 13.6057 193.962 16.9564 190.751Z" fill="#3B5CAD"/>
<path id="Vector_113" fill-rule="evenodd" clip-rule="evenodd" d="M67.826 188.553C78.1215 189.206 82.8314 192.869 81.9565 199.541C75.4104 197.515 70.7002 193.852 67.826 188.553Z" fill="#405AC1"/>
<path id="Vector_114" fill-rule="evenodd" clip-rule="evenodd" d="M245.87 184.158C245.87 184.89 245.87 185.624 245.87 186.356C240.217 190.019 234.565 193.68 228.913 197.344C228.913 195.878 227.971 195.146 226.087 195.146C229.197 192.718 231.081 189.788 231.739 186.356C232.681 186.356 233.623 186.356 234.565 186.356C238.333 185.624 242.101 184.89 245.87 184.158Z" fill="#3659B1"/>
<path id="Vector_115" fill-rule="evenodd" clip-rule="evenodd" d="M313.696 192.948C317.463 192.948 321.233 192.948 325 192.948C329.988 195.06 335.64 195.794 341.956 195.146C335.038 197.284 327.501 198.016 319.348 197.344C310.174 198.561 301.696 200.759 293.913 203.936C290.177 203.563 286.879 204.295 284.022 206.134C282.71 204.829 282.238 203.363 282.609 201.739C284.494 201.739 285.435 201.007 285.435 199.541C289.083 200.062 291.909 199.33 293.913 197.344C297.561 197.864 300.388 197.133 302.391 195.146C306.91 195.735 310.677 195.001 313.696 192.948Z" fill="#2C4FA0"/>
<path id="Vector_116" fill-rule="evenodd" clip-rule="evenodd" d="M226.087 195.146C227.971 195.146 228.913 195.878 228.913 197.344C221.377 202.471 213.841 207.6 206.304 212.727C205.362 212.727 204.42 212.727 203.478 212.727C207.505 209.602 210.332 205.939 211.957 201.739C217.358 200.475 222.068 198.278 226.087 195.146Z" fill="#3B62AC"/>
<path id="Vector_117" fill-rule="evenodd" clip-rule="evenodd" d="M262.826 195.146C262.456 196.77 262.927 198.236 264.239 199.541C268.759 196.166 273.94 195.067 279.783 196.245C274.13 198.443 268.478 200.64 262.826 202.838C264.506 203.857 266.39 204.224 268.478 203.937C268.478 204.668 268.478 205.402 268.478 206.134C268.478 207.6 267.536 208.332 265.652 208.332C264.71 205.402 263.768 205.402 262.826 208.332C262.826 209.798 261.884 210.529 260 210.529C260 209.798 260 209.064 260 208.332C260 206.866 260 205.402 260 203.937C259.058 201.007 258.116 201.007 257.174 203.937C257.174 205.402 256.232 206.134 254.348 206.134C254.348 205.402 254.348 204.668 254.348 203.937C254.348 202.471 254.348 201.007 254.348 199.541C256.582 197.561 259.408 196.095 262.826 195.146Z" fill="#415AC0"/>
<path id="Vector_118" fill-rule="evenodd" clip-rule="evenodd" d="M217.609 192.948C218.551 192.948 219.493 192.948 220.435 192.948C217.609 195.878 214.783 198.809 211.957 201.739C206.304 205.402 200.652 209.064 195 212.727C195 211.995 195 211.261 195 210.529C200.878 205.974 205.588 200.844 209.13 195.146C212.265 195.021 215.091 194.289 217.609 192.948Z" fill="#4A64C4"/>
<path id="Vector_119" fill-rule="evenodd" clip-rule="evenodd" d="M279.783 201.739C280.725 201.739 281.667 201.739 282.609 201.739C282.238 203.363 282.71 204.829 284.022 206.134C286.879 204.295 290.177 203.563 293.913 203.937C297.68 206.134 301.45 208.332 305.217 210.529C302.352 213.109 298.585 214.573 293.913 214.925C289.807 212.013 290.751 210.182 296.739 209.431C294.15 208.609 291.793 207.51 289.674 206.134C285.915 208.512 281.677 209.978 276.957 210.529C276.015 207.6 275.072 207.6 274.13 210.529C274.13 211.995 273.188 212.727 271.304 212.727C270.362 209.798 269.42 209.798 268.478 212.727C265.676 212.349 263.792 213.083 262.826 214.925C260.024 214.547 258.14 215.281 257.174 217.122C255.29 217.122 254.348 217.854 254.348 219.32C253.406 219.32 252.464 219.32 251.522 219.32C251.522 217.854 251.522 216.39 251.522 214.925C251.522 214.193 251.522 213.459 251.522 212.727C253.406 212.727 254.348 211.995 254.348 210.529C254.348 209.064 255.29 208.332 257.174 208.332C257.174 209.798 258.116 210.529 260 210.529C261.884 210.529 262.826 209.798 262.826 208.332C263.768 208.332 264.71 208.332 265.652 208.332C267.536 208.332 268.478 207.6 268.478 206.134C270.362 206.134 271.304 205.402 271.304 203.937C274.953 204.457 277.779 203.726 279.783 201.739Z" fill="#304EAB"/>
<path id="Vector_120" fill-rule="evenodd" clip-rule="evenodd" d="M319.348 201.739C321.352 203.726 324.178 204.457 327.826 203.937C325 205.402 322.174 206.866 319.348 208.332C314.778 209.514 310.067 210.246 305.217 210.529C301.45 208.332 297.68 206.134 293.913 203.937C302.34 202.919 310.819 202.187 319.348 201.739Z" fill="#154589"/>
<path id="Vector_121" fill-rule="evenodd" clip-rule="evenodd" d="M65 201.739C66.8841 203.205 68.768 204.668 70.6521 206.134C71.5941 207.6 72.5363 209.064 73.4782 210.529C68.1064 209.971 66.2225 210.705 67.826 212.727C66.4506 214.865 65.0375 217.063 63.5869 219.32C61.4874 215.054 61.9585 211.026 65 207.233C62.4118 206.622 60.5277 205.523 59.3478 203.937C62.1501 204.315 64.0343 203.58 65 201.739Z" fill="#4562C8"/>
<path id="Vector_122" fill-rule="evenodd" clip-rule="evenodd" d="M79.1304 203.936C80.0723 203.936 81.0145 203.936 81.9564 203.936C82.8984 206.866 83.8406 206.866 84.7825 203.936C89.3014 203.347 93.0697 204.081 96.0869 206.134C92.3189 206.134 90.4347 207.6 90.4347 210.529C87.0366 208.54 83.2686 208.54 79.1304 210.529C75.951 207.998 75.951 205.8 79.1304 203.936Z" fill="#3C59B2"/>
<path id="Vector_123" fill-rule="evenodd" clip-rule="evenodd" d="M169.565 197.344C173.94 198.049 175.824 200.247 175.217 203.936C173.494 205.895 172.552 208.092 172.391 210.529C170.507 210.529 169.565 211.261 169.565 212.727C167.196 213.479 166.254 214.942 166.739 217.122C164.855 217.122 163.913 217.854 163.913 219.32C162.971 219.32 162.029 219.32 161.087 219.32C157.319 219.32 155.435 217.854 155.435 214.925C160.145 209.064 164.855 203.205 169.565 197.344Z" fill="#224B98"/>
<path id="Vector_124" fill-rule="evenodd" clip-rule="evenodd" d="M14.1304 206.134C15.4206 212.52 18.2466 218.379 22.6087 223.715C21.6666 223.715 20.7246 223.715 19.7826 223.715C17.4796 221.673 15.1245 219.476 12.7174 217.122C11.6361 218.344 10.2231 219.076 8.47822 219.32C5.72273 213.679 3.83867 207.82 2.82605 201.739C4.8653 200.82 6.27834 199.357 7.06518 197.344C8.78401 200.785 11.1391 203.717 14.1304 206.134Z" fill="#17438F"/>
<path id="Vector_125" fill-rule="evenodd" clip-rule="evenodd" d="M16.9565 199.541C19.5036 201.277 21.3876 203.475 22.6086 206.134C18.8405 206.866 18.8405 207.6 22.6086 208.332C22.1237 210.512 23.0658 211.975 25.4347 212.727C24.9498 214.907 25.8918 216.371 28.2608 217.122C28.2608 218.588 29.2028 219.32 31.0869 219.32C31.0869 220.786 32.0288 221.517 33.913 221.517C34.0738 223.955 35.0157 226.152 36.7391 228.11C36.7391 228.842 36.7391 229.576 36.7391 230.308C34.8549 229.576 32.971 228.842 31.0869 228.11C28.2608 226.644 25.4347 225.181 22.6086 223.715C18.2466 218.379 15.4205 212.52 14.1304 206.134C16.6851 204.576 17.6271 202.378 16.9565 199.541Z" fill="#3D5DB8"/>
<path id="Vector_126" fill-rule="evenodd" clip-rule="evenodd" d="M254.348 199.541C254.348 201.007 254.348 202.471 254.348 203.936C250.58 204.668 250.58 205.402 254.348 206.134C256.232 206.134 257.174 205.402 257.174 203.936C258.116 203.936 259.058 203.936 260 203.936C260 205.402 260 206.866 260 208.332C259.058 208.332 258.116 208.332 257.174 208.332C255.29 208.332 254.348 209.064 254.348 210.529C252.464 210.529 251.522 211.261 251.522 212.727C247.754 213.459 247.754 214.193 251.522 214.925C251.522 216.39 251.522 217.854 251.522 219.32C249.638 219.32 248.696 220.052 248.696 221.517C246.811 221.517 245.87 222.249 245.87 223.715C243.985 223.715 243.043 224.447 243.043 225.913C242.102 225.913 241.159 225.913 240.217 225.913C238.333 225.913 237.391 226.644 237.391 228.11C235.507 228.11 234.565 228.842 234.565 230.308C232.681 230.308 231.739 231.04 231.739 232.506C230.797 232.506 229.855 232.506 228.913 232.506C228.913 231.04 228.913 229.576 228.913 228.11C228.913 227.379 228.913 226.644 228.913 225.913C230.797 225.913 231.739 225.181 231.739 223.715C233.623 223.715 234.565 222.983 234.565 221.517C237.368 221.895 239.252 221.161 240.217 219.32C242.102 219.32 243.043 218.588 243.043 217.122C246.811 216.39 246.811 215.656 243.043 214.925C243.043 213.459 243.043 211.995 243.043 210.529C246.811 209.798 246.811 209.064 243.043 208.332C241.159 208.332 240.217 209.064 240.217 210.529C238.333 210.529 237.391 211.261 237.391 212.727C235.507 212.727 234.565 213.459 234.565 214.925C233.623 214.925 232.681 214.925 231.739 214.925C229.855 214.925 228.913 215.656 228.913 217.122C227.971 217.122 227.029 217.122 226.087 217.122C226.087 215.656 226.087 214.193 226.087 212.727C234.649 207.202 244.069 202.807 254.348 199.541Z" fill="#2B4D9F"/>
<path id="Vector_127" fill-rule="evenodd" clip-rule="evenodd" d="M293.913 214.925C292.028 215.656 290.146 216.39 288.261 217.122C284.855 213.523 281.089 212.791 276.956 214.925C272.592 215.371 268.824 216.837 265.652 219.32C263.938 219.047 262.996 218.316 262.826 217.122C262.826 216.39 262.826 215.656 262.826 214.925C265.628 215.303 267.513 214.569 268.478 212.727C269.42 212.727 270.362 212.727 271.304 212.727C273.188 212.727 274.13 211.995 274.13 210.529C275.072 210.529 276.015 210.529 276.956 210.529C281.677 209.978 285.915 208.512 289.674 206.134C291.793 207.51 294.15 208.609 296.739 209.431C290.751 210.182 289.807 212.013 293.913 214.925Z" fill="#13428E"/>
<path id="Vector_128" fill-rule="evenodd" clip-rule="evenodd" d="M243.043 208.332C243.043 209.064 243.043 209.798 243.043 210.529C243.043 211.995 243.043 213.459 243.043 214.925C243.043 215.656 243.043 216.39 243.043 217.122C241.159 217.122 240.217 217.854 240.217 219.32C237.415 218.942 235.531 219.676 234.565 221.518C232.681 221.518 231.739 222.249 231.739 223.715C229.855 223.715 228.913 224.447 228.913 225.913C224.499 226.425 220.731 227.891 217.609 230.308C214.765 229.345 214.765 227.882 217.609 225.913C219.493 225.913 220.435 225.181 220.435 223.715C222.319 223.715 223.261 222.983 223.261 221.518C225.145 221.518 226.087 220.786 226.087 219.32C227.971 219.32 228.913 218.588 228.913 217.122C228.913 215.656 229.855 214.925 231.739 214.925C232.681 217.854 233.623 217.854 234.565 214.925C236.449 214.925 237.391 214.193 237.391 212.727C239.275 212.727 240.217 211.995 240.217 210.529C240.217 209.064 241.159 208.332 243.043 208.332Z" fill="#3152AD"/>
<path id="Vector_129" fill-rule="evenodd" clip-rule="evenodd" d="M59.3478 223.715C57.4637 223.715 56.5217 224.447 56.5217 225.913C49.5597 221.603 42.9656 216.841 36.7391 211.628C38.6233 210.162 40.5072 210.162 42.3913 211.628C47.7501 216.173 53.4023 220.201 59.3478 223.715Z" fill="#4B64E0"/>
<path id="Vector_130" fill-rule="evenodd" clip-rule="evenodd" d="M96.087 206.134C103.277 208.789 107.045 213.184 107.391 219.32C104.565 220.052 102.681 221.517 101.739 223.715C99.855 223.715 98.9131 224.447 98.9131 225.913C97.0289 225.913 95.1451 225.913 93.2609 225.913C95.4932 223.069 98.3193 220.504 101.739 218.221C96.5852 216.771 92.8172 214.206 90.4348 210.529C90.4348 207.6 92.319 206.134 96.087 206.134Z" fill="#3E5FB2"/>
<path id="Vector_131" fill-rule="evenodd" clip-rule="evenodd" d="M73.4782 210.529C75.3624 210.529 77.2462 210.529 79.1304 210.529C80.0723 211.995 81.0145 213.459 81.9565 214.925C81.9565 217.854 81.9565 220.786 81.9565 223.715C78.2405 221.57 74.4724 219.373 70.6521 217.122C74.8376 213.949 73.8956 212.483 67.826 212.727C66.2225 210.705 68.1064 209.971 73.4782 210.529Z" fill="#3057A7"/>
<path id="Vector_132" fill-rule="evenodd" clip-rule="evenodd" d="M195 210.529C195 211.261 195 211.995 195 212.727C191.89 215.155 190.006 218.085 189.348 221.518C187.464 221.518 186.522 222.249 186.522 223.715C184.638 223.715 183.696 224.447 183.696 225.913C181.811 225.913 180.87 226.645 180.87 228.11C178.261 229.875 175.434 230.242 172.391 229.209C179.646 222.61 187.182 216.384 195 210.529Z" fill="#4B64DE"/>
<path id="Vector_133" fill-rule="evenodd" clip-rule="evenodd" d="M203.478 212.727C204.42 212.727 205.362 212.727 206.304 212.727C198.875 219.608 190.868 226.201 182.283 232.506C180.97 231.2 180.499 229.734 180.87 228.11C182.754 228.11 183.696 227.378 183.696 225.913C185.58 225.913 186.522 225.181 186.522 223.715C188.406 223.715 189.348 222.983 189.348 221.517C194.058 218.588 198.768 215.656 203.478 212.727Z" fill="#4A64C5"/>
<path id="Vector_134" fill-rule="evenodd" clip-rule="evenodd" d="M276.956 214.925C272.014 219.355 266.361 223.016 260 225.913C257.469 228.124 255.585 228.124 254.348 225.913C257.458 223.484 259.342 220.555 260 217.122C260.942 217.122 261.884 217.122 262.826 217.122C262.996 218.316 263.938 219.047 265.652 219.32C268.824 216.837 272.592 215.371 276.956 214.925Z" fill="#2B599A"/>
<path id="Vector_135" fill-rule="evenodd" clip-rule="evenodd" d="M81.9565 214.925C84.771 214.736 87.126 215.47 89.0218 217.122C89.6152 220.546 91.0283 223.476 93.2609 225.913C93.2609 227.379 94.2028 228.11 96.087 228.11C96.087 228.842 96.087 229.576 96.087 230.308C94.2028 230.308 92.319 230.308 90.4348 230.308C88.4503 228.954 85.6242 228.954 81.9565 230.308C85.1359 227.776 85.1359 225.579 81.9565 223.715C81.9565 220.786 81.9565 217.854 81.9565 214.925Z" fill="#385FAA"/>
<path id="Vector_136" fill-rule="evenodd" clip-rule="evenodd" d="M155.435 214.925C155.435 217.854 157.319 219.32 161.087 219.32C161.087 220.052 161.087 220.786 161.087 221.518C159.203 221.518 158.261 222.249 158.261 223.715C156.377 223.715 155.435 224.447 155.435 225.913C153.551 225.913 152.609 226.645 152.609 228.11C150.725 228.11 149.783 228.842 149.783 230.308C146.648 230.433 143.822 231.165 141.304 232.506C141.789 230.326 140.847 228.862 138.478 228.11C143.189 222.983 148.841 218.588 155.435 214.925Z" fill="#274CA2"/>
<path id="Vector_137" fill-rule="evenodd" clip-rule="evenodd" d="M25.4348 203.937C32.1911 214.439 41.6113 223.229 53.6957 230.308C56.5396 232.277 56.5396 233.741 53.6957 234.703C49.677 231.572 44.9667 229.374 39.5652 228.11C39.7716 224.755 37.8874 222.557 33.9131 221.517C32.0289 221.517 31.087 220.786 31.087 219.32C29.2029 219.32 28.2609 218.588 28.2609 217.122C28.7458 214.942 27.8038 213.479 25.4348 212.727C25.4348 211.261 25.4348 209.798 25.4348 208.332C25.4348 206.866 25.4348 205.402 25.4348 203.937Z" fill="#4663BB"/>
<path id="Vector_138" fill-rule="evenodd" clip-rule="evenodd" d="M107.391 219.32C115.068 219.711 122.605 220.81 130 222.616C133.55 223.533 135.433 225.363 135.652 228.11C135.652 229.576 134.71 230.308 132.826 230.308C129.3 225.495 124.59 224.763 118.696 228.11C118.696 226.644 117.754 225.913 115.87 225.913C114.904 224.071 113.02 223.337 110.217 223.715C110.402 222.753 109.931 222.019 108.804 221.517C108.018 223.53 106.605 224.994 104.565 225.913C104.565 224.447 103.623 223.715 101.739 223.715C102.681 221.517 104.565 220.052 107.391 219.32Z" fill="#4663C4"/>
<path id="Vector_139" fill-rule="evenodd" clip-rule="evenodd" d="M226.087 212.727C226.087 214.193 226.087 215.656 226.087 217.122C226.087 217.854 226.087 218.588 226.087 219.32C224.203 219.32 223.261 220.052 223.261 221.517C221.377 221.517 220.435 222.249 220.435 223.715C219.493 223.715 218.551 223.715 217.609 223.715C212.898 225.913 209.13 228.842 206.304 232.506C204.42 232.506 203.478 233.237 203.478 234.703C201.594 234.703 200.652 235.435 200.652 236.901C198.768 236.901 197.826 237.633 197.826 239.098C195.024 238.72 193.14 239.454 192.174 241.296C190.29 241.296 189.348 242.028 189.348 243.494C188.406 243.494 187.464 243.494 186.522 243.494C186.522 242.762 186.522 242.028 186.522 241.296C199.636 231.835 212.825 222.311 226.087 212.727Z" fill="#3150A9"/>
<path id="Vector_140" fill-rule="evenodd" clip-rule="evenodd" d="M288.261 217.122C282.127 220.608 275.533 223.539 268.478 225.913C265.652 225.913 262.826 225.913 260 225.913C266.362 223.016 272.014 219.355 276.957 214.925C281.089 212.791 284.855 213.523 288.261 217.122Z" fill="#17448D"/>
<path id="Vector_141" fill-rule="evenodd" clip-rule="evenodd" d="M110.217 223.715C111.183 225.557 113.067 226.291 115.87 225.913C117.754 225.913 118.696 226.645 118.696 228.11C111.159 231.04 103.623 231.04 96.087 228.11C94.2028 228.11 93.2609 227.379 93.2609 225.913C95.145 225.913 97.0289 225.913 98.913 225.913C100.797 225.913 102.681 225.913 104.565 225.913C106.605 224.994 108.018 223.53 108.804 221.517C109.931 222.019 110.402 222.753 110.217 223.715Z" fill="#2F5AA2"/>
<path id="Vector_142" fill-rule="evenodd" clip-rule="evenodd" d="M19.7826 223.715C19.9434 226.152 20.8854 228.35 22.6087 230.308C18.8406 231.04 18.8406 231.774 22.6087 232.506C22.6087 233.971 22.6087 235.435 22.6087 236.901C21.6667 236.901 20.7246 236.901 19.7826 236.901C14.5311 231.664 10.763 225.803 8.47827 219.32C10.2232 219.076 11.6362 218.344 12.7174 217.122C15.1245 219.476 17.4796 221.673 19.7826 223.715Z" fill="#4863BE"/>
<path id="Vector_143" fill-rule="evenodd" clip-rule="evenodd" d="M257.174 217.122C258.116 217.122 259.058 217.122 260 217.122C259.342 220.555 257.458 223.484 254.348 225.913C252.464 225.913 251.522 226.644 251.522 228.11C247.233 228.134 243.936 229.598 241.63 232.506C240.318 231.2 239.847 229.734 240.217 228.11C242.102 228.11 243.043 227.378 243.043 225.913C244.928 225.913 245.87 225.181 245.87 223.715C247.754 223.715 248.696 222.983 248.696 221.517C251.498 221.895 253.382 221.161 254.348 219.32C256.232 219.32 257.174 218.588 257.174 217.122Z" fill="#214593"/>
<path id="Vector_144" fill-rule="evenodd" clip-rule="evenodd" d="M19.7826 223.715C20.7246 223.715 21.6667 223.715 22.6087 223.715C25.4348 225.181 28.2609 226.645 31.0869 228.11C26.9784 231.985 27.9205 234.916 33.913 236.901C33.913 238.367 34.855 239.098 36.7391 239.098C36.7391 239.83 36.7391 240.564 36.7391 241.296C35.7972 241.296 34.855 241.296 33.913 241.296C32.9711 241.296 32.0289 241.296 31.0869 241.296C31.0869 239.83 30.145 239.098 28.2609 239.098C28.2609 237.633 27.3188 236.901 25.4348 236.901C25.9197 234.721 24.9776 233.257 22.6087 232.506C22.6087 231.774 22.6087 231.04 22.6087 230.308C20.8854 228.35 19.9433 226.152 19.7826 223.715Z" fill="#395DA5"/>
<path id="Vector_145" fill-rule="evenodd" clip-rule="evenodd" d="M31.087 228.11C32.9711 228.842 34.855 229.576 36.7391 230.308C40.5072 233.971 44.2755 237.633 48.0435 241.296C48.0435 242.762 48.9854 243.494 50.8696 243.494C50.8696 244.959 51.8115 245.691 53.6957 245.691C53.6957 247.157 54.6376 247.889 56.5217 247.889C55.5561 249.731 53.6719 250.465 50.8696 250.087C50.8696 248.621 49.9276 247.889 48.0435 247.889C48.0435 246.423 47.1016 245.691 45.2174 245.691C45.2174 244.225 44.2755 243.494 42.3913 243.494C42.3913 242.028 41.4494 241.296 39.5652 241.296C39.5652 239.83 38.6233 239.098 36.7391 239.098C34.855 239.098 33.9131 238.367 33.9131 236.901C27.9205 234.916 26.9785 231.985 31.087 228.11Z" fill="#4662C7"/>
<path id="Vector_146" fill-rule="evenodd" clip-rule="evenodd" d="M36.7391 228.11C37.6811 228.11 38.6233 228.11 39.5652 228.11C46.5228 234.624 54.0591 240.85 62.1739 246.79C60.4941 247.81 58.6099 248.177 56.5217 247.889C54.6376 247.889 53.6957 247.157 53.6957 245.691C51.8115 245.691 50.8696 244.959 50.8696 243.494C48.9854 243.494 48.0435 242.762 48.0435 241.296C44.2755 237.633 40.5072 233.971 36.7391 230.308C36.7391 229.576 36.7391 228.842 36.7391 228.11Z" fill="#3959B7"/>
<path id="Vector_147" fill-rule="evenodd" clip-rule="evenodd" d="M56.5217 225.913C56.5217 224.447 57.4637 223.715 59.3478 223.715C66.2816 227.143 73.8179 229.341 81.9565 230.308C84.7826 233.237 87.6087 233.237 90.4348 230.308C92.3189 230.308 94.2028 230.308 96.0869 230.308C95.145 231.774 94.2028 233.237 93.2609 234.703C90.4585 234.325 88.5744 235.059 87.6087 236.901C76.1376 235.002 65.7752 231.341 56.5217 225.913Z" fill="#4B64D0"/>
<path id="Vector_148" fill-rule="evenodd" clip-rule="evenodd" d="M254.348 225.913C255.585 228.124 257.469 228.124 260 225.913C262.826 225.913 265.652 225.913 268.478 225.913C262.939 229.552 257.286 233.215 251.522 236.901C250.556 235.059 248.672 234.325 245.87 234.703C247.754 232.506 249.638 230.308 251.522 228.11C251.522 226.645 252.464 225.913 254.348 225.913Z" fill="#1E479B"/>
<path id="Vector_149" fill-rule="evenodd" clip-rule="evenodd" d="M135.652 228.11C136.594 228.11 137.536 228.11 138.478 228.11C140.847 228.862 141.789 230.326 141.304 232.506C141.304 233.237 141.304 233.971 141.304 234.703C135.079 234.932 129.427 236.395 124.348 239.098C120.58 237.633 116.811 236.169 113.043 234.703C119.265 232.361 125.859 230.895 132.826 230.308C134.71 230.308 135.652 229.576 135.652 228.11Z" fill="#23489D"/>
<path id="Vector_150" fill-rule="evenodd" clip-rule="evenodd" d="M240.217 225.913C240.217 226.645 240.217 227.379 240.217 228.11C239.847 229.734 240.318 231.2 241.63 232.506C243.936 229.598 247.233 228.135 251.522 228.11C249.638 230.308 247.754 232.506 245.87 234.703C237.519 238.268 229.983 242.663 223.261 247.889C217.679 251.486 212.027 255.15 206.304 258.877C203.936 258.125 202.993 256.662 203.478 254.482C204.42 253.016 205.362 251.552 206.304 250.087C208.189 250.087 209.13 249.355 209.13 247.889C211.015 247.889 211.957 247.157 211.957 245.691C213.841 245.691 214.783 244.959 214.783 243.494C216.667 243.494 217.609 242.762 217.609 241.296C217.609 239.83 218.551 239.098 220.435 239.098C221.377 242.028 222.319 242.028 223.261 239.098C225.145 239.098 226.087 238.367 226.087 236.901C227.971 236.901 228.913 236.169 228.913 234.703C230.797 234.703 231.739 233.971 231.739 232.506C233.623 232.506 234.565 231.774 234.565 230.308C236.449 230.308 237.391 229.576 237.391 228.11C237.391 226.645 238.333 225.913 240.217 225.913Z" fill="#3554AB"/>
<path id="Vector_151" fill-rule="evenodd" clip-rule="evenodd" d="M53.6956 230.308C60.2478 231.389 65.9 233.587 70.6521 236.901C70.6521 237.633 70.6521 238.367 70.6521 239.098C67.6641 240.65 68.6063 241.382 73.4782 241.296C76.1044 243.087 78.9305 244.918 81.9564 246.79C70.6052 245.669 61.185 241.641 53.6956 234.703C56.5394 233.741 56.5394 232.277 53.6956 230.308Z" fill="#4B64DC"/>
<path id="Vector_152" fill-rule="evenodd" clip-rule="evenodd" d="M228.913 228.11C228.913 229.576 228.913 231.04 228.913 232.506C228.913 233.237 228.913 233.971 228.913 234.703C227.029 234.703 226.087 235.435 226.087 236.901C224.203 236.901 223.261 237.633 223.261 239.098C222.319 239.098 221.377 239.098 220.435 239.098C218.551 239.098 217.609 239.83 217.609 241.296C215.725 241.296 214.783 242.028 214.783 243.494C213.841 243.494 212.898 243.494 211.957 243.494C211.957 242.028 211.957 240.564 211.957 239.098C217.609 235.435 223.261 231.774 228.913 228.11Z" fill="#2F4DA3"/>
<path id="Vector_153" fill-rule="evenodd" clip-rule="evenodd" d="M19.7826 236.901C20.7246 236.901 21.6667 236.901 22.6087 236.901C23.5507 236.901 24.4927 236.901 25.4348 236.901C27.3188 236.901 28.2609 237.633 28.2609 239.098C30.145 239.098 31.0869 239.83 31.0869 241.296C36.6241 249.265 44.1604 255.857 53.6956 261.075C51.8115 261.075 50.8695 261.806 50.8695 263.272C38.504 255.857 28.1416 247.067 19.7826 236.901Z" fill="#4B64CF"/>
<path id="Vector_154" fill-rule="evenodd" clip-rule="evenodd" d="M87.6086 236.901C88.5743 235.059 90.4585 234.325 93.2608 234.703C99.8549 234.703 106.449 234.703 113.043 234.703C116.811 236.169 120.58 237.633 124.348 239.098C122.464 239.098 120.58 239.098 118.696 239.098C113.043 239.098 107.391 239.098 101.739 239.098C100.797 239.098 99.8549 239.098 98.913 239.098C96.9093 237.112 94.0832 236.38 90.4347 236.901C89.4928 236.901 88.5506 236.901 87.6086 236.901Z" fill="#3F62AA"/>
<path id="Vector_155" fill-rule="evenodd" clip-rule="evenodd" d="M141.304 234.703C143.188 234.703 145.072 234.703 146.956 234.703C140.428 242.914 138.544 242.914 141.304 234.703Z" fill="#4B64E5"/>
<path id="Vector_156" fill-rule="evenodd" clip-rule="evenodd" d="M70.6521 239.098C70.6521 238.367 70.6521 237.633 70.6521 236.901C77.7309 238.916 84.3253 238.916 90.4347 236.901C94.0832 236.38 96.9093 237.112 98.913 239.098C96.9839 241.612 97.9258 241.612 101.739 239.098C107.391 239.098 113.043 239.098 118.696 239.098C112.663 242.467 105.598 243.933 97.4999 243.494C89.4032 243.089 81.3958 242.355 73.4782 241.296C73.4782 239.83 72.5363 239.098 70.6521 239.098Z" fill="#4B64D8"/>
<path id="Vector_157" fill-rule="evenodd" clip-rule="evenodd" d="M217.609 223.715C217.609 224.447 217.609 225.181 217.609 225.913C214.765 227.882 214.765 229.345 217.609 230.308C210.887 235.534 203.351 239.929 195 243.494C194.058 243.494 193.116 243.494 192.174 243.494C192.174 242.762 192.174 242.028 192.174 241.296C193.14 239.454 195.024 238.72 197.826 239.098C199.71 239.098 200.652 238.367 200.652 236.901C202.536 236.901 203.478 236.169 203.478 234.703C205.362 234.703 206.304 233.971 206.304 232.506C209.13 228.842 212.898 225.913 217.609 223.715Z" fill="#4060CB"/>
<path id="Vector_158" fill-rule="evenodd" clip-rule="evenodd" d="M245.87 234.703C248.672 234.325 250.556 235.059 251.522 236.901C244.785 242.142 237.249 246.537 228.913 250.087C227.947 248.245 226.063 247.511 223.261 247.889C229.983 242.663 237.519 238.268 245.87 234.703Z" fill="#1B4591"/>
<path id="Vector_159" fill-rule="evenodd" clip-rule="evenodd" d="M211.957 239.098C211.957 240.564 211.957 242.028 211.957 243.494C211.957 244.225 211.957 244.959 211.957 245.691C210.072 245.691 209.13 246.423 209.13 247.889C207.246 247.889 206.304 248.621 206.304 250.086C201.989 249.926 199.163 251.392 197.826 254.482C196.884 254.482 195.942 254.482 195 254.482C195 253.016 195 251.552 195 250.086C200.582 246.489 206.234 242.826 211.957 239.098Z" fill="#2F50AA"/>
<path id="Vector_160" fill-rule="evenodd" clip-rule="evenodd" d="M33.9131 241.296C34.855 241.296 35.7972 241.296 36.7392 241.296C37.6811 241.296 38.6233 241.296 39.5653 241.296C41.4494 241.296 42.3913 242.028 42.3913 243.494C44.2755 243.494 45.2174 244.225 45.2174 245.691C47.1016 245.691 48.0435 246.423 48.0435 247.889C49.9277 247.889 50.8696 248.621 50.8696 250.086C49.7488 252.339 47.8649 252.706 45.2174 251.185C40.8613 248.172 37.0933 244.876 33.9131 241.296Z" fill="#4B64D4"/>
<path id="Vector_161" fill-rule="evenodd" clip-rule="evenodd" d="M186.522 241.296C186.522 242.028 186.522 242.762 186.522 243.494C186.522 244.225 186.522 244.959 186.522 245.691C183.719 245.313 181.835 246.047 180.87 247.889C176.554 247.728 173.728 249.194 172.391 252.284C167.766 253.862 163.056 254.227 158.261 253.383C167.381 248.742 176.801 244.713 186.522 241.296Z" fill="#4B64E0"/>
<path id="Vector_162" fill-rule="evenodd" clip-rule="evenodd" d="M189.348 243.494C190.29 243.494 191.232 243.494 192.174 243.494C193.116 243.494 194.058 243.494 195 243.494C192.174 246.423 189.348 249.355 186.522 252.284C182.207 252.124 179.381 253.59 178.043 256.679C175.241 256.301 173.357 257.035 172.391 258.877C171.449 258.877 170.507 258.877 169.565 258.877C167.681 258.877 166.739 258.145 166.739 256.679C169.565 255.948 171.449 254.482 172.391 252.284C176.706 252.445 179.533 250.979 180.87 247.889C183.672 248.267 185.556 247.533 186.522 245.691C188.406 245.691 189.348 244.959 189.348 243.494Z" fill="#4964C3"/>
<path id="Vector_163" fill-rule="evenodd" clip-rule="evenodd" d="M223.261 247.889C226.063 247.511 227.947 248.245 228.913 250.086C216.861 259.18 203.672 267.239 189.348 274.26C189.348 272.794 188.406 272.063 186.522 272.063C193.116 267.667 199.71 263.272 206.304 258.877C212.027 255.15 217.679 251.486 223.261 247.889Z" fill="#1E4597"/>
<path id="Vector_164" fill-rule="evenodd" clip-rule="evenodd" d="M195 250.087C195 251.552 195 253.016 195 254.482C188.866 257.967 182.272 260.899 175.217 263.272C173.333 263.272 172.391 262.54 172.391 261.075C172.391 260.343 172.391 259.609 172.391 258.877C175.194 259.255 177.078 258.521 178.043 256.679C182.359 256.84 185.185 255.374 186.522 252.284C189.656 252.159 192.482 251.427 195 250.087Z" fill="#355AA9"/>
<path id="Vector_165" fill-rule="evenodd" clip-rule="evenodd" d="M50.8695 263.272C50.8695 261.806 51.8114 261.075 53.6956 261.075C56.4448 263.912 59.2709 263.912 62.1739 261.075C61.5985 263.336 63.0115 265.534 66.413 267.667C69.1746 264.868 71.5299 264.868 73.4782 267.667C71.5941 267.667 70.6521 268.399 70.6521 269.865C68.768 269.865 67.826 270.597 67.826 272.063C62.1739 269.133 56.5217 266.202 50.8695 263.272Z" fill="#4A64C7"/>
<path id="Vector_166" fill-rule="evenodd" clip-rule="evenodd" d="M166.739 256.679C166.739 258.145 167.681 258.877 169.565 258.877C169.565 259.609 169.565 260.343 169.565 261.075C133.61 270.181 132.668 268.716 166.739 256.679Z" fill="#4B64E0"/>
<path id="Vector_167" fill-rule="evenodd" clip-rule="evenodd" d="M197.826 254.482C199.71 254.482 201.594 254.482 203.478 254.482C202.993 256.662 203.935 258.125 206.304 258.877C199.71 263.272 193.116 267.667 186.522 272.063C183.967 270.505 183.025 268.307 183.696 265.47C189.348 262.54 194.058 258.877 197.826 254.482Z" fill="#275299"/>
<path id="Vector_168" fill-rule="evenodd" clip-rule="evenodd" d="M67.826 272.063C67.826 270.597 68.768 269.865 70.6521 269.865C71.5941 269.865 72.5363 269.865 73.4782 269.865C75.7122 271.845 78.5383 273.311 81.9565 274.26C82.8984 274.26 83.8406 274.26 84.7826 274.26C93.273 278.528 102.693 280.359 113.043 279.754C107.836 279.405 105.952 278.306 107.391 276.458C110.217 276.458 113.043 276.458 115.87 276.458C115.87 277.924 116.811 278.656 118.696 278.656C127.174 280.121 135.652 281.585 144.13 283.051C133.189 282.359 122.827 283.09 113.043 285.248C96.7932 283.326 81.7205 278.93 67.826 272.063Z" fill="#395AB1"/>
<path id="Vector_169" fill-rule="evenodd" clip-rule="evenodd" d="M169.565 261.075C170.507 261.075 171.449 261.075 172.391 261.075C172.391 262.54 173.333 263.272 175.217 263.272C164.211 269.061 151.964 272.724 138.478 274.26C135.676 274.638 133.792 273.904 132.826 272.063C146.362 270.516 158.608 266.852 169.565 261.075Z" fill="#4A64CA"/>
<path id="Vector_170" fill-rule="evenodd" clip-rule="evenodd" d="M183.696 265.47C183.025 268.307 183.967 270.505 186.522 272.063C188.406 272.063 189.348 272.795 189.348 274.26C180.094 279.688 169.732 283.35 158.261 285.248C155.876 280.284 151.165 278.086 144.13 278.656C158.417 276.777 171.605 272.381 183.696 265.47Z" fill="#214A9B"/>
<path id="Vector_171" fill-rule="evenodd" clip-rule="evenodd" d="M73.4783 267.667C85.1986 270.217 96.503 273.146 107.391 276.458C105.952 278.306 107.836 279.405 113.043 279.754C102.693 280.359 93.273 278.528 84.7826 274.26C83.8407 271.331 82.8985 271.331 81.9565 274.26C78.5384 273.311 75.7123 271.845 73.4783 269.865C73.4783 269.133 73.4783 268.399 73.4783 267.667Z" fill="#4B64D5"/>
<path id="Vector_172" fill-rule="evenodd" clip-rule="evenodd" d="M132.826 272.063C133.792 273.904 135.676 274.638 138.478 274.26C134.71 275.726 130.942 277.19 127.174 278.656C124.348 278.656 121.522 278.656 118.696 278.656C116.812 278.656 115.87 277.924 115.87 276.458C117.309 274.61 115.425 273.511 110.217 273.162C117.695 272.069 125.232 271.702 132.826 272.063Z" fill="#4B64E4"/>
<path id="Vector_173" fill-rule="evenodd" clip-rule="evenodd" d="M118.696 278.656C121.522 278.656 124.348 278.656 127.174 278.656C132.826 278.656 138.478 278.656 144.13 278.656C151.165 278.086 155.876 280.284 158.261 285.248C156.377 285.248 154.493 285.248 152.609 285.248C150.605 283.262 147.779 282.53 144.13 283.051C135.652 281.585 127.174 280.121 118.696 278.656Z" fill="#205496"/>
<path id="Vector_174" fill-rule="evenodd" clip-rule="evenodd" d="M113.043 285.248C122.827 283.09 133.189 282.359 144.13 283.051C147.779 282.53 150.605 283.262 152.609 285.248C139.703 288.099 126.515 288.099 113.043 285.248Z" fill="#214493"/>
</g>
</svg>
