<svg width="328" height="290" viewBox="0 0 328 290" fill="none" xmlns="http://www.w3.org/2000/svg">
<g id="tentaculo 6">
<path id="Vector" fill-rule="evenodd" clip-rule="evenodd" d="M101.223 17.1976C105.855 22.2653 111.507 26.6606 118.18 30.3833C118.632 34.016 120.514 36.9454 123.832 39.1738C123.346 41.3539 124.29 42.8175 126.658 43.5691C128.543 42.1032 130.425 40.6396 132.31 39.1738C134.195 39.1738 135.136 38.442 135.136 36.9762C137.504 37.7278 138.448 39.1914 137.962 41.3714C137.021 41.3714 136.077 41.3714 135.136 41.3714C133.251 42.8373 131.369 44.3009 129.484 45.7667C126.929 47.3248 125.988 49.5224 126.658 52.3595C126.658 59.6842 126.658 67.0111 126.658 74.3357C124.773 67.7429 122.891 61.15 121.006 54.5572C121.492 52.3771 120.548 50.9135 118.18 50.1619C118.18 47.9643 118.18 45.7667 118.18 43.5691C118.18 42.1032 117.239 41.3714 115.354 41.3714C115.84 39.1914 114.896 37.7278 112.527 36.9762C112.527 36.2444 112.527 35.5104 112.527 34.7786C112.527 33.3128 111.586 32.581 109.701 32.581C109.701 31.1152 108.76 30.3833 106.875 30.3833C107.361 28.2033 106.417 26.7397 104.049 25.9881C104.049 24.5223 103.108 23.7905 101.223 23.7905C101.223 22.3247 101.223 20.8611 101.223 19.3953C101.223 18.6634 101.223 17.9294 101.223 17.1976Z" fill="#1E4091"/>
<path id="Vector_2" fill-rule="evenodd" clip-rule="evenodd" d="M92.7448 15C93.6859 15 94.6298 15 95.5709 15C96.512 17.1976 98.397 18.6634 101.223 19.3952C101.223 20.861 101.223 22.3247 101.223 23.7905C103.108 23.7905 104.049 24.5223 104.049 25.9881C106.417 26.7397 107.361 28.2033 106.875 30.3833C108.76 30.3833 109.701 31.1151 109.701 32.581C111.586 32.581 112.527 33.3128 112.527 34.7786C108.76 35.5104 108.76 36.2444 112.527 36.9762C112.041 39.1562 112.985 40.6198 115.354 41.3714C117.239 41.3714 118.18 42.1032 118.18 43.569C114.412 45.7667 114.412 47.9643 118.18 50.1619C118.482 54.2912 117.069 55.023 113.94 52.3595C112.047 46.4831 108.749 41.356 104.049 36.9762C104.535 34.7962 103.591 33.3325 101.223 32.581C101.223 31.1151 100.282 30.3833 98.397 30.3833C98.2359 27.9462 97.2948 25.7486 95.5709 23.7905C96.8087 23.9333 97.7526 23.5685 98.397 22.6917C94.6581 20.8984 92.7759 18.3338 92.7448 15Z" fill="#4762CB"/>
<path id="Vector_3" fill-rule="evenodd" clip-rule="evenodd" d="M72.9622 30.3833C72.9622 29.6515 72.9622 28.9175 72.9622 28.1857C78.3629 29.4494 83.074 31.647 87.0927 34.7786C89.249 38.8837 92.075 42.5472 95.5709 45.7667C95.5709 47.2325 95.5709 48.6961 95.5709 50.1619C95.5709 51.6277 95.5709 53.0913 95.5709 54.5572C96.057 56.7372 95.1131 58.2008 92.7448 58.9524C92.7448 58.2206 92.7448 57.4866 92.7448 56.7548C91.5155 50.9157 88.6894 45.7865 84.2666 41.3714C84.2666 39.9056 83.3255 39.1738 81.4405 39.1738C80.7679 34.9896 77.9418 32.0579 72.9622 30.3833Z" fill="#1D418A"/>
<path id="Vector_4" fill-rule="evenodd" clip-rule="evenodd" d="M126.658 21.5928C130.304 22.8191 132.658 25.0167 133.723 28.1857C134.806 26.9638 136.219 26.232 137.962 25.9881C139.183 28.6472 141.068 30.8448 143.614 32.5809C145.451 36.8333 146.393 41.2286 146.441 45.7666C143.668 41.6 140.842 37.2047 137.962 32.5809C135.823 29.7834 133.941 29.7834 132.31 32.5809C131.369 32.5809 130.425 32.5809 129.484 32.5809C125.511 33.6204 123.626 35.818 123.832 39.1738C120.514 36.9454 118.632 34.016 118.18 30.3833C120.065 29.6515 121.947 28.9175 123.832 28.1857C127.599 27.4539 127.599 26.7199 123.832 25.9881C121.947 25.9881 121.006 25.2563 121.006 23.7905C121.947 23.7905 122.891 23.7905 123.832 23.7905C125.717 23.7905 126.658 23.0586 126.658 21.5928Z" fill="#3450AF"/>
<path id="Vector_5" fill-rule="evenodd" clip-rule="evenodd" d="M146.441 45.7667C148.809 46.5183 149.753 47.9819 149.267 50.1619C149.267 54.5572 149.267 58.9524 149.267 63.3476C149.267 68.4747 149.267 73.6039 149.267 78.731C146.441 77.2652 143.614 75.8015 140.788 74.3357C140.788 65.5452 140.788 56.7548 140.788 47.9643C141.274 45.7843 140.331 44.3206 137.962 43.5691C137.962 42.8373 137.962 42.1032 137.962 41.3714C138.448 39.1914 137.504 37.7278 135.136 36.9762C133.251 36.9762 132.31 37.708 132.31 39.1738C130.425 40.6396 128.543 42.1032 126.658 43.5691C127.144 41.389 126.2 39.9254 123.832 39.1738C123.626 35.8181 125.511 33.6204 129.484 32.581C130.425 35.5104 131.369 35.5104 132.31 32.581C133.941 29.7834 135.823 29.7834 137.962 32.581C140.842 37.2048 143.668 41.6 146.441 45.7667Z" fill="#2B4D9C"/>
<path id="Vector_6" fill-rule="evenodd" clip-rule="evenodd" d="M70.1362 30.3833C72.9623 34.0467 76.7294 36.9762 81.4405 39.1738C81.4405 39.9056 81.4405 40.6396 81.4405 41.3714C84.2412 44.9381 82.3562 47.1357 75.7884 47.9643C72.6684 43.813 68.9012 40.1517 64.484 36.9762C65.7049 34.317 67.5899 32.1194 70.1362 30.3833Z" fill="#15458F"/>
<path id="Vector_7" fill-rule="evenodd" clip-rule="evenodd" d="M98.397 32.5809C99.3381 32.5809 100.282 32.5809 101.223 32.5809C100.737 34.761 101.681 36.2246 104.049 36.9762C106.239 41.6175 106.239 46.0128 104.049 50.1619C101.98 47.2874 99.6235 44.3558 96.984 41.3714C95.6727 42.6768 95.2007 44.1426 95.5709 45.7666C92.075 42.5471 89.249 38.8837 87.0927 34.7786C88.9777 34.7786 90.8598 34.7786 92.7448 34.7786C94.6298 34.7786 95.5709 35.5104 95.5709 36.9762C97.9392 36.2246 98.8831 34.761 98.397 32.5809Z" fill="#4A63CE"/>
<path id="Vector_8" fill-rule="evenodd" clip-rule="evenodd" d="M169.049 39.1738C170.934 39.1738 172.816 39.1738 174.701 39.1738C177.527 42.1032 180.354 45.0348 183.18 47.9642C180.464 51.843 179.52 56.2383 180.354 61.15C178.938 53.1836 175.17 45.8589 169.049 39.1738Z" fill="#3B59BB"/>
<path id="Vector_9" fill-rule="evenodd" clip-rule="evenodd" d="M146.441 30.3833C146.989 35.684 150.756 37.8816 157.745 36.9762C157.075 34.139 158.016 31.9414 160.571 30.3833C161.512 30.3833 162.456 30.3833 163.397 30.3833C163.397 33.3127 163.397 36.2444 163.397 39.1738C163.397 40.6396 163.397 42.1032 163.397 43.569C162.456 43.569 161.512 43.569 160.571 43.569C160.401 42.3757 159.46 41.6439 157.745 41.3714C155.908 45.0722 153.082 48.0016 149.267 50.1619C149.753 47.9818 148.809 46.5182 146.441 45.7666C146.392 41.2286 145.451 36.8333 143.614 32.5809C143.614 31.1151 144.556 30.3833 146.441 30.3833Z" fill="#0D408B"/>
<path id="Vector_10" fill-rule="evenodd" clip-rule="evenodd" d="M160.571 43.5691C160.54 48.0676 159.599 52.4628 157.745 56.7548C158.22 60.427 160.105 63.3564 163.397 65.5453C164.067 68.3824 163.126 70.58 160.571 72.1381C160.571 69.2087 158.686 67.7429 154.919 67.7429C155.379 62.5631 154.91 57.4361 153.506 52.3596C152.946 56.4955 151.533 60.1567 149.267 63.3477C149.267 58.9524 149.267 54.5572 149.267 50.1619C153.082 48.0017 155.908 45.0723 157.745 41.3715C159.46 41.644 160.401 42.3758 160.571 43.5691Z" fill="#0D498B"/>
<path id="Vector_11" fill-rule="evenodd" clip-rule="evenodd" d="M81.4405 41.3715C82.3816 41.3715 83.3255 41.3715 84.2666 41.3715C88.6894 45.7865 91.5155 50.9157 92.7449 56.7548C91.8038 56.7548 90.8599 56.7548 89.9188 56.7548C89.9188 55.289 88.9777 54.5572 87.0927 54.5572C87.4629 52.6321 86.5218 51.1662 84.2666 50.1619C81.6412 52.7749 80.7001 55.7043 81.4405 58.9524C79.1542 55.5944 77.2692 51.9332 75.7883 47.9643C82.3562 47.1358 84.2412 44.9382 81.4405 41.3715Z" fill="#3758BB"/>
<path id="Vector_12" fill-rule="evenodd" clip-rule="evenodd" d="M135.136 41.3715C135.026 45.1602 135.967 45.892 137.962 43.5691C140.331 44.3207 141.274 45.7843 140.788 47.9643C138.01 56.3109 137.066 65.1013 137.962 74.3357C136.238 76.2938 135.297 78.4914 135.136 80.9286C135.136 82.3944 135.136 83.858 135.136 85.3238C132.768 86.0754 131.824 87.539 132.31 89.7191C132.31 90.4509 132.31 91.1849 132.31 91.9167C131.072 94.1275 129.19 94.1275 126.658 91.9167C126.658 89.7191 126.658 87.5215 126.658 85.3238C129.297 82.9768 130.241 80.0474 129.484 76.5334C131.852 75.7818 132.796 74.3182 132.31 72.1381C132.31 66.2771 132.31 60.4182 132.31 54.5572C132.796 52.3771 131.852 50.9135 129.484 50.1619C129.484 48.6961 129.484 47.2325 129.484 45.7667C131.369 44.3009 133.251 42.8373 135.136 41.3715Z" fill="#254C97"/>
<path id="Vector_13" fill-rule="evenodd" clip-rule="evenodd" d="M154.919 67.7428C155.196 72.2545 153.311 75.918 149.267 78.7309C149.267 73.6039 149.267 68.4746 149.267 63.3476C151.533 60.1567 152.946 56.4954 153.506 52.3595C154.91 57.436 155.379 62.563 154.919 67.7428Z" fill="#023B85"/>
<path id="Vector_14" fill-rule="evenodd" clip-rule="evenodd" d="M129.484 50.1619C131.852 50.9135 132.796 52.3771 132.31 54.5572C128.543 60.4182 128.543 66.2771 132.31 72.1381C132.796 74.3182 131.852 75.7818 129.484 76.5334C129.484 75.0675 128.543 74.3357 126.658 74.3357C126.658 67.0111 126.658 59.6842 126.658 52.3595C128.543 52.3595 129.484 51.6277 129.484 50.1619Z" fill="#4B64D0"/>
<path id="Vector_15" fill-rule="evenodd" clip-rule="evenodd" d="M87.0927 54.5572C87.0927 60.4182 87.0927 66.2771 87.0927 72.1381C87.0927 74.3357 87.0927 76.5334 87.0927 78.731C87.0927 79.4628 87.0927 80.1968 87.0927 80.9286C87.0927 82.3944 86.1516 83.1262 84.2666 83.1262C81.1325 83.2515 78.3064 83.9833 75.7883 85.3238C78.7614 76.696 80.6435 67.9055 81.4405 58.9524C80.7001 55.7043 81.6412 52.7749 84.2666 50.1619C86.5218 51.1662 87.4629 52.6321 87.0927 54.5572Z" fill="#19448F"/>
<path id="Vector_16" fill-rule="evenodd" clip-rule="evenodd" d="M87.0927 54.5571C88.9777 54.5571 89.9187 55.2889 89.9187 56.7547C89.9187 58.2206 90.8598 58.9524 92.7448 58.9524C95.1131 58.2008 96.057 56.7372 95.5709 54.5571C96.512 54.5571 97.4559 54.5571 98.397 54.5571C98.397 60.4182 98.397 66.277 98.397 72.1381C96.512 70.6723 94.6298 69.2087 92.7448 67.7428C93.1659 65.4309 92.6968 63.2333 91.3318 61.15C89.9357 64.7409 89.4666 68.4043 89.9187 72.1381C88.9777 72.1381 88.0337 72.1381 87.0927 72.1381C87.0927 66.277 87.0927 60.4182 87.0927 54.5571Z" fill="#2A589F"/>
<path id="Vector_17" fill-rule="evenodd" clip-rule="evenodd" d="M104.049 50.1619C106.426 54.2913 107.37 58.6865 106.875 63.3477C104.99 66.2771 103.108 69.2087 101.223 72.1381C102.184 64.508 101.243 58.6469 98.397 54.5572C97.4559 54.5572 96.512 54.5572 95.5709 54.5572C95.5709 53.0914 95.5709 51.6277 95.5709 50.1619C99.3381 48.6961 99.3381 47.2325 95.5709 45.7667C95.2007 44.1427 95.6727 42.6768 96.984 41.3715C99.6236 44.3558 101.981 47.2875 104.049 50.1619Z" fill="#4863BE"/>
<path id="Vector_18" fill-rule="evenodd" clip-rule="evenodd" d="M121.006 54.5571C122.891 61.15 124.773 67.7428 126.658 74.3357C126.658 77.2651 126.658 80.1967 126.658 83.1262C124.773 81.6604 122.891 80.1967 121.006 78.7309C121.006 70.6723 121.006 62.6158 121.006 54.5571Z" fill="#4260BC"/>
<path id="Vector_19" fill-rule="evenodd" clip-rule="evenodd" d="M160.571 43.569C161.512 43.569 162.456 43.569 163.397 43.569C163.397 50.8937 163.397 58.2206 163.397 65.5452C160.105 63.3564 158.22 60.427 157.745 56.7547C159.599 52.4628 160.54 48.0676 160.571 43.569Z" fill="#003A83"/>
<path id="Vector_20" fill-rule="evenodd" clip-rule="evenodd" d="M163.397 39.1738C166.893 51.1728 168.778 63.6267 169.049 76.5333C167.164 72.8699 165.282 69.2086 163.397 65.5452C163.397 58.2205 163.397 50.8937 163.397 43.569C163.397 42.1032 163.397 40.6396 163.397 39.1738Z" fill="#4764B3"/>
<path id="Vector_21" fill-rule="evenodd" clip-rule="evenodd" d="M154.919 67.7429C158.686 67.7429 160.571 69.2087 160.571 72.1381C160.571 75.0675 160.571 77.9991 160.571 80.9286C160.571 81.6604 160.571 82.3944 160.571 83.1262C159.63 84.592 158.686 86.0556 157.745 87.5214C157.745 88.2532 157.745 88.9872 157.745 89.719C151.451 87.739 148.625 84.0778 149.267 78.731C153.311 75.918 155.196 72.2546 154.919 67.7429Z" fill="#0B4289"/>
<path id="Vector_22" fill-rule="evenodd" clip-rule="evenodd" d="M106.875 96.3119C104.99 96.3119 104.049 95.5801 104.049 94.1143C104.049 91.9167 104.049 89.719 104.049 87.5214C106.689 85.1744 107.633 82.2449 106.875 78.731C109.195 71.8282 110.609 64.5014 111.114 56.7548C116.687 70.1844 115.274 83.3701 106.875 96.3119Z" fill="#4664BA"/>
<path id="Vector_23" fill-rule="evenodd" clip-rule="evenodd" d="M183.18 47.9643C184.675 52.9815 185.619 58.1107 186.006 63.3476C180.823 74.3335 178.938 85.3216 180.354 96.3119C177.714 93.9649 176.77 91.0354 177.527 87.5214C175.716 85.3634 173.834 83.1658 171.875 80.9286C176.861 74.962 179.687 68.3692 180.354 61.15C179.52 56.2383 180.464 51.8431 183.18 47.9643Z" fill="#3051AC"/>
<path id="Vector_24" fill-rule="evenodd" clip-rule="evenodd" d="M137.962 74.3357C138.903 74.3357 139.847 74.3357 140.788 74.3357C143.614 75.8015 146.441 77.2651 149.267 78.7309C148.625 84.0777 151.451 87.739 157.745 89.719C158.686 92.6485 159.63 92.6485 160.571 89.719C162.456 89.719 163.397 90.4508 163.397 91.9166C163.129 96.9404 161.244 101.336 157.745 105.102C155.86 105.102 153.978 105.102 152.093 105.102C151.152 105.102 150.208 105.102 149.267 105.102C149.267 104.371 149.267 103.637 149.267 102.905C150.208 102.905 151.152 102.905 152.093 102.905C154.461 102.153 155.405 100.69 154.919 98.5095C158.686 97.0437 158.686 95.5801 154.919 94.1143C149.792 89.1389 144.612 84.0118 139.375 78.7309C138.248 79.232 137.779 79.966 137.962 80.9286C137.021 80.9286 136.077 80.9286 135.136 80.9286C135.297 78.4914 136.238 76.2938 137.962 74.3357Z" fill="#294DA7"/>
<path id="Vector_25" fill-rule="evenodd" clip-rule="evenodd" d="M92.7449 67.7429C94.6299 69.2087 96.512 70.6723 98.397 72.1381C98.397 74.3357 98.397 76.5333 98.397 78.731C95.7575 81.078 94.8136 84.0074 95.571 87.5214C93.2027 88.273 92.2588 89.7366 92.7449 91.9167C90.1901 93.4748 89.249 95.6724 89.9188 98.5095C87.5505 99.2611 86.6066 100.725 87.0927 102.905C84.7244 103.656 83.7805 105.12 84.2666 107.3C81.8983 108.052 80.9544 109.515 81.4405 111.695C79.5555 111.695 78.6144 112.427 78.6144 113.893C77.6733 113.893 76.7294 113.893 75.7883 113.893C73.9033 113.161 72.0212 112.427 70.1362 111.695C70.1362 110.963 70.1362 110.229 70.1362 109.498C74.6579 104.656 78.4251 99.5292 81.4405 94.1143C85.2077 93.3825 85.2077 92.6485 81.4405 91.9167C82.3816 90.4509 83.3255 88.9872 84.2666 87.5214C88.0338 86.7896 88.0338 86.0556 84.2666 85.3238C84.2666 84.592 84.2666 83.858 84.2666 83.1262C86.1516 83.1262 87.0927 82.3944 87.0927 80.9286C90.8599 80.1968 90.8599 79.4628 87.0927 78.731C87.0927 76.5333 87.0927 74.3357 87.0927 72.1381C88.0338 72.1381 88.9777 72.1381 89.9188 72.1381C92.287 71.3865 93.231 69.9229 92.7449 67.7429Z" fill="#3351AD"/>
<path id="Vector_26" fill-rule="evenodd" clip-rule="evenodd" d="M163.397 65.5452C165.282 69.2087 167.164 72.8699 169.049 76.5333C168.425 82.1746 166.54 87.3039 163.397 91.9167C163.397 90.4508 162.456 89.719 160.571 89.719C160.571 88.2532 159.63 87.5214 157.745 87.5214C158.686 86.0556 159.63 84.592 160.571 83.1262C164.338 82.3944 164.338 81.6604 160.571 80.9286C160.571 77.9991 160.571 75.0675 160.571 72.1381C163.126 70.58 164.067 68.3824 163.397 65.5452Z" fill="#4261BD"/>
<path id="Vector_27" fill-rule="evenodd" clip-rule="evenodd" d="M106.875 63.3476C106.875 68.4746 106.875 73.6039 106.875 78.7309C104.236 81.078 103.292 84.0074 104.049 87.5214C101.494 89.0795 100.553 91.2771 101.223 94.1143C99.3381 95.5801 97.4559 97.0437 95.5709 98.5095C95.5709 97.0437 94.6298 96.3119 92.7448 96.3119C92.7448 94.8461 92.7448 93.3825 92.7448 91.9166C95.1131 91.1651 96.057 89.7014 95.5709 87.5214C98.2105 85.1743 99.1544 82.2449 98.397 78.7309C100.952 77.1728 101.893 74.9752 101.223 72.1381C103.108 69.2086 104.99 66.277 106.875 63.3476Z" fill="#4162B6"/>
<path id="Vector_28" fill-rule="evenodd" clip-rule="evenodd" d="M84.2666 83.1262C84.2666 83.858 84.2666 84.592 84.2666 85.3238C84.2666 86.0556 84.2666 86.7896 84.2666 87.5214C83.3255 88.9872 82.3816 90.4508 81.4405 91.9166C81.4405 92.6484 81.4405 93.3824 81.4405 94.1143C78.4251 99.5292 74.6579 104.656 70.1362 109.498C70.3934 104.667 68.5112 103.935 64.484 107.3C68.2597 99.9643 72.0268 92.6397 75.7884 85.3238C78.3064 83.9832 81.1325 83.2514 84.2666 83.1262Z" fill="#1E468F"/>
<path id="Vector_29" fill-rule="evenodd" clip-rule="evenodd" d="M121.006 78.731C122.891 80.1968 124.773 81.6604 126.658 83.1262C126.658 83.858 126.658 84.592 126.658 85.3238C124.103 86.8819 123.162 89.0795 123.832 91.9167C121.277 93.4748 120.336 95.6724 121.006 98.5095C120.065 98.5095 119.121 98.5095 118.18 98.5095C116.295 98.5095 114.413 98.5095 112.528 98.5095C114.958 91.6266 117.784 85.0337 121.006 78.731Z" fill="#2A4BA3"/>
<path id="Vector_30" fill-rule="evenodd" clip-rule="evenodd" d="M154.919 94.1143C154.919 95.5801 154.919 97.0437 154.919 98.5095C152.551 99.2611 151.607 100.725 152.093 102.905C151.152 102.905 150.208 102.905 149.267 102.905C148.102 94.4725 144.332 93.0067 137.962 98.5095C136.238 96.5515 135.297 94.3538 135.136 91.9167C135.136 90.4509 134.195 89.7191 132.31 89.7191C131.824 87.539 132.768 86.0754 135.136 85.3238C137.504 84.5722 138.448 83.1086 137.962 80.9286C137.779 79.966 138.248 79.232 139.375 78.731C144.612 84.0118 149.792 89.1389 154.919 94.1143Z" fill="#264C9B"/>
<path id="Vector_31" fill-rule="evenodd" clip-rule="evenodd" d="M92.7449 96.3119C94.6299 96.3119 95.571 97.0437 95.571 98.5095C90.4614 109.388 83.8653 119.644 75.7883 129.276C73.9033 129.276 72.0212 129.276 70.1362 129.276C70.1362 127.81 70.1362 126.347 70.1362 124.881C72.0212 124.881 72.9623 124.149 72.9623 122.683C75.3305 121.932 76.2744 120.468 75.7883 118.288C78.1566 117.536 79.1005 116.073 78.6144 113.893C80.4994 113.893 81.4405 113.161 81.4405 111.695C83.8088 110.944 84.7527 109.48 84.2666 107.3C86.6349 106.548 87.5788 105.085 87.0927 102.905C89.461 102.153 90.4049 100.69 89.9188 98.5095C91.8038 98.5095 92.7449 97.7777 92.7449 96.3119Z" fill="#3358A9"/>
<path id="Vector_32" fill-rule="evenodd" clip-rule="evenodd" d="M149.267 102.905C149.267 103.637 149.267 104.371 149.267 105.102C149.267 106.568 149.267 108.032 149.267 109.498C146.898 110.249 145.954 111.713 146.441 113.893C145.499 113.893 144.556 113.893 143.614 113.893C141.082 111.682 139.2 111.682 137.962 113.893C134.195 118.288 130.425 122.683 126.658 127.079C128.673 120.279 131.499 113.686 135.136 107.3C136.077 104.371 137.021 101.439 137.962 98.5096C144.332 93.0067 148.102 94.4725 149.267 102.905Z" fill="#0E4089"/>
<path id="Vector_33" fill-rule="evenodd" clip-rule="evenodd" d="M101.223 94.1143C102.164 94.1143 103.108 94.1143 104.049 94.1143C104.049 95.5801 104.99 96.3119 106.875 96.3119C103.877 103.173 100.107 109.766 95.5709 116.09C93.6859 116.09 92.7448 115.359 92.7448 113.893C96.382 107.507 99.2081 100.914 101.223 94.1143Z" fill="#4964BE"/>
<path id="Vector_34" fill-rule="evenodd" clip-rule="evenodd" d="M123.832 91.9167C124.773 91.9167 125.717 91.9167 126.658 91.9167C129.19 94.1275 131.072 94.1275 132.31 91.9167C133.251 91.9167 134.195 91.9167 135.136 91.9167C135.297 94.3538 136.238 96.5515 137.962 98.5095C137.021 101.439 136.077 104.371 135.136 107.3C132.31 107.3 129.484 107.3 126.658 107.3C122.891 108.032 122.891 108.766 126.658 109.498C127.627 113.856 125.742 116.787 121.006 118.288C117.239 119.02 117.239 119.754 121.006 120.486C121.763 124 120.819 126.929 118.18 129.276C118.18 127.81 118.18 126.347 118.18 124.881C117.239 121.952 116.295 121.952 115.354 124.881C112.985 124.129 112.041 122.666 112.528 120.486C112.528 119.02 112.528 117.556 112.528 116.09C114.896 115.339 115.84 113.875 115.354 111.695C117.908 110.137 118.849 107.94 118.18 105.102C120.734 103.544 121.676 101.347 121.006 98.5095C123.561 96.9514 124.502 94.7538 123.832 91.9167Z" fill="#2E50A4"/>
<path id="Vector_35" fill-rule="evenodd" clip-rule="evenodd" d="M177.527 87.5214C176.77 91.0354 177.714 93.9648 180.354 96.3119C179.769 102.336 176.942 107.463 171.875 111.695C171.875 110.229 170.934 109.498 169.049 109.498C171.906 101.938 174.732 94.6109 177.527 87.5214Z" fill="#395AB1"/>
<path id="Vector_36" fill-rule="evenodd" clip-rule="evenodd" d="M70.1362 109.498C70.1362 110.229 70.1362 110.963 70.1362 111.695C66.6403 114.915 63.8143 118.578 61.6579 122.683C59.1399 124.024 56.3138 124.756 53.1797 124.881C55.514 118.321 59.2812 112.462 64.484 107.3C68.5112 103.935 70.3934 104.667 70.1362 109.498Z" fill="#1C4393"/>
<path id="Vector_37" fill-rule="evenodd" clip-rule="evenodd" d="M112.527 98.5095C114.412 98.5095 116.295 98.5095 118.18 98.5095C118.18 100.707 118.18 102.905 118.18 105.102C115.625 106.66 114.684 108.858 115.354 111.695C112.985 112.447 112.041 113.91 112.527 116.09C110.159 116.842 109.215 118.306 109.701 120.486C107.816 120.486 106.875 121.218 106.875 122.683C104.507 121.932 103.563 120.468 104.049 118.288C106.316 111.533 109.142 104.94 112.527 98.5095Z" fill="#2B4E9C"/>
<path id="Vector_38" fill-rule="evenodd" clip-rule="evenodd" d="M169.049 109.498C170.934 109.498 171.875 110.229 171.875 111.695C170.095 116.64 167.269 121.035 163.397 124.881C161.512 124.881 159.63 124.881 157.745 124.881C160.201 120.009 161.142 114.882 160.571 109.498C163.397 109.498 166.223 109.498 169.049 109.498Z" fill="#3555B1"/>
<path id="Vector_39" fill-rule="evenodd" clip-rule="evenodd" d="M70.1362 111.695C72.0212 112.427 73.9034 113.161 75.7884 113.893C75.7884 115.359 75.7884 116.822 75.7884 118.288C73.4201 119.04 72.4762 120.503 72.9623 122.683C72.0212 122.683 71.0773 122.683 70.1362 122.683C70.5064 121.059 70.0345 119.593 68.7232 118.288C67.539 120.864 65.6569 123.061 63.071 124.881C61.9434 124.38 61.4743 123.646 61.658 122.683C63.8143 118.578 66.6403 114.915 70.1362 111.695Z" fill="#30579F"/>
<path id="Vector_40" fill-rule="evenodd" clip-rule="evenodd" d="M152.093 105.102C153.978 105.102 155.86 105.102 157.745 105.102C152.542 116.126 145.949 126.38 137.962 135.869C137.021 135.869 136.077 135.869 135.136 135.869C134.195 135.869 133.251 135.869 132.31 135.869C132.31 135.137 132.31 134.403 132.31 133.671C137.513 128.509 141.28 122.65 143.614 116.091C145.499 116.091 146.441 115.359 146.441 113.893C148.809 113.141 149.753 111.678 149.267 109.498C151.635 108.746 152.579 107.282 152.093 105.102Z" fill="#405FB7"/>
<path id="Vector_41" fill-rule="evenodd" clip-rule="evenodd" d="M92.7449 113.893C92.7449 115.359 93.686 116.09 95.571 116.09C88.7036 126.061 81.1664 135.583 72.9623 144.659C72.0212 144.659 71.0773 144.659 70.1362 144.659C76.2518 133.671 83.789 123.415 92.7449 113.893Z" fill="#4A64C6"/>
<path id="Vector_42" fill-rule="evenodd" clip-rule="evenodd" d="M126.658 107.3C129.484 107.3 132.31 107.3 135.136 107.3C131.499 113.686 128.673 120.279 126.658 127.079C126.658 128.544 126.658 130.008 126.658 131.474C126.658 132.206 126.658 132.94 126.658 133.671C124.914 133.427 123.501 132.696 122.419 131.474C120.011 133.827 117.657 136.025 115.354 138.067C115.354 135.869 115.354 133.671 115.354 131.474C115.354 130.742 115.354 130.008 115.354 129.276C116.295 129.276 117.239 129.276 118.18 129.276C120.819 126.929 121.763 124 121.006 120.486C121.006 119.754 121.006 119.02 121.006 118.288C125.742 116.787 127.627 113.855 126.658 109.498C126.658 108.766 126.658 108.032 126.658 107.3Z" fill="#2A5795"/>
<path id="Vector_43" fill-rule="evenodd" clip-rule="evenodd" d="M70.1362 122.683C70.1362 123.415 70.1362 124.149 70.1362 124.881C67.7679 125.633 66.824 127.096 67.3101 129.276C64.9418 130.028 63.9979 131.491 64.484 133.671C62.599 133.671 61.6579 134.403 61.6579 135.869C59.7729 135.869 58.8318 136.601 58.8318 138.067C58.8318 138.798 58.8318 139.532 58.8318 140.264C56.9468 140.264 56.0057 140.996 56.0057 142.462C56.0057 143.194 56.0057 143.928 56.0057 144.66C55.0646 144.66 54.1207 144.66 53.1796 144.66C52.7275 141.027 50.8453 138.097 47.5275 135.869C47.2505 131.357 49.1355 127.694 53.1796 124.881C56.3138 124.756 59.1399 124.024 61.6579 122.683C61.4742 123.646 61.9433 124.38 63.0709 124.881C65.6568 123.061 67.539 120.864 68.7231 118.288C70.0344 119.593 70.5064 121.059 70.1362 122.683Z" fill="#194791"/>
<path id="Vector_44" fill-rule="evenodd" clip-rule="evenodd" d="M143.614 113.893C143.614 114.625 143.614 115.359 143.614 116.09C141.28 122.65 137.513 128.509 132.31 133.671C133.364 126.916 135.246 120.323 137.962 113.893C139.2 111.682 141.082 111.682 143.614 113.893Z" fill="#3560A0"/>
<path id="Vector_45" fill-rule="evenodd" clip-rule="evenodd" d="M104.049 118.288C103.563 120.468 104.507 121.932 106.875 122.683C106.875 124.149 106.875 125.613 106.875 127.079C104.507 127.83 103.563 129.294 104.049 131.474C101.681 132.225 100.737 133.689 101.223 135.869C98.8548 136.621 97.9109 138.084 98.397 140.264C96.512 140.264 95.5709 140.996 95.5709 142.462C93.6859 142.462 92.7448 141.73 92.7448 140.264C95.0452 132.318 98.8152 124.993 104.049 118.288Z" fill="#3759AD"/>
<path id="Vector_46" fill-rule="evenodd" clip-rule="evenodd" d="M109.701 120.486C110.642 120.486 111.586 120.486 112.527 120.486C112.041 122.666 112.985 124.129 115.354 124.881C116.295 124.881 117.239 124.881 118.18 124.881C118.18 126.347 118.18 127.81 118.18 129.276C117.239 129.276 116.295 129.276 115.354 129.276C111.586 130.008 111.586 130.742 115.354 131.474C115.354 133.671 115.354 135.869 115.354 138.067C113.469 138.067 111.586 138.067 109.701 138.067C105.934 138.798 105.934 139.532 109.701 140.264C109.701 141.73 108.76 142.462 106.875 142.462C103.108 143.194 103.108 143.928 106.875 144.659C106.875 146.125 105.934 146.857 104.049 146.857C100.282 147.589 100.282 148.323 104.049 149.055C106.768 154.518 109.122 154.518 111.114 149.055C112.197 150.277 113.61 151.008 115.354 151.252C115.354 151.984 115.354 152.718 115.354 153.45C112.985 154.202 112.041 155.665 112.527 157.845C109.973 159.403 109.032 161.601 109.701 164.438C108.76 164.438 107.816 164.438 106.875 164.438C106.875 162.24 106.875 160.043 106.875 157.845C105.934 155.648 104.049 154.182 101.223 153.45C101.223 151.984 100.282 151.252 98.397 151.252C98.397 149.787 97.4559 149.055 95.5709 149.055C97.6453 146.4 98.5864 143.471 98.397 140.264C100.765 139.513 101.709 138.049 101.223 135.869C103.591 135.117 104.535 133.654 104.049 131.474C106.417 130.722 107.361 129.259 106.875 127.079C109.43 125.52 110.371 123.323 109.701 120.486Z" fill="#3757B1"/>
<path id="Vector_47" fill-rule="evenodd" clip-rule="evenodd" d="M157.745 124.881C159.63 124.881 161.512 124.881 163.397 124.881C161.506 132.241 156.795 138.102 149.267 142.462C149.267 140.996 149.267 139.533 149.267 138.067C152.093 133.671 154.919 129.276 157.745 124.881Z" fill="#3456AD"/>
<path id="Vector_48" fill-rule="evenodd" clip-rule="evenodd" d="M47.5275 135.869C50.8453 138.097 52.7275 141.027 53.1797 144.659C53.1797 145.391 53.1797 146.125 53.1797 146.857C53.1797 147.589 53.1797 148.323 53.1797 149.055C51.2947 149.055 50.3536 149.787 50.3536 151.252C47.6066 146.872 43.8395 146.141 39.0493 149.055C40.4397 143.958 43.2658 139.563 47.5275 135.869Z" fill="#1B4492"/>
<path id="Vector_49" fill-rule="evenodd" clip-rule="evenodd" d="M67.3101 129.276C68.2512 129.276 69.1951 129.276 70.1362 129.276C72.0212 129.276 73.9034 129.276 75.7884 129.276C70.0938 136.68 64.4416 144.005 58.8318 151.252C56.9468 151.252 55.0647 151.252 53.1797 151.252C52.2386 151.252 51.2947 151.252 50.3536 151.252C50.3536 149.787 51.2947 149.055 53.1797 149.055C56.9468 148.323 56.9468 147.589 53.1797 146.857C53.1797 146.125 53.1797 145.391 53.1797 144.66C54.1208 144.66 55.0647 144.66 56.0058 144.66C59.7729 143.928 59.7729 143.194 56.0058 142.462C56.0058 140.996 56.9468 140.264 58.8318 140.264C62.599 139.532 62.599 138.798 58.8318 138.067C58.8318 136.601 59.7729 135.869 61.6579 135.869C63.5429 135.869 64.484 135.137 64.484 133.671C66.8523 132.92 67.7962 131.456 67.3101 129.276Z" fill="#3D5BB9"/>
<path id="Vector_50" fill-rule="evenodd" clip-rule="evenodd" d="M126.658 133.671C126.658 134.403 126.658 135.137 126.658 135.869C124.29 136.621 123.346 138.084 123.832 140.264C121.464 141.016 120.52 142.479 121.006 144.66C118.637 145.411 117.694 146.875 118.18 149.055C117.239 149.055 116.295 149.055 115.354 149.055C112.352 145.541 112.352 141.877 115.354 138.067C117.657 136.025 120.011 133.827 122.419 131.474C123.501 132.696 124.914 133.427 126.658 133.671Z" fill="#25499D"/>
<path id="Vector_51" fill-rule="evenodd" clip-rule="evenodd" d="M92.7449 140.264C92.7449 141.73 93.6859 142.462 95.5709 142.462C90.2268 149.305 86.4596 156.632 84.2666 164.438C81.7203 166.174 79.8353 168.372 78.6144 171.031C76.7294 171.031 75.7883 170.299 75.7883 168.833C79.2079 158.392 84.8601 148.87 92.7449 140.264Z" fill="#3759AA"/>
<path id="Vector_52" fill-rule="evenodd" clip-rule="evenodd" d="M126.658 144.66C126.658 143.194 127.599 142.462 129.484 142.462C130.425 142.462 131.369 142.462 132.31 142.462C132.31 143.928 133.251 144.66 135.136 144.66C130.728 150.052 127.901 155.911 126.658 162.24C126.658 162.972 126.658 163.706 126.658 164.438C123.012 165.664 120.658 167.862 119.593 171.031C118.228 168.948 117.759 166.75 118.18 164.438C120.734 162.88 121.676 160.682 121.006 157.845C123.374 157.094 124.318 155.63 123.832 153.45C123.832 152.718 123.832 151.984 123.832 151.252C127.599 150.521 127.599 149.787 123.832 149.055C123.832 147.589 124.773 146.857 126.658 146.857C130.425 146.125 130.425 145.391 126.658 144.66Z" fill="#4B64D2"/>
<path id="Vector_53" fill-rule="evenodd" clip-rule="evenodd" d="M109.701 138.067C111.586 138.067 113.469 138.067 115.354 138.067C112.352 141.877 112.352 145.541 115.354 149.055C115.354 149.787 115.354 150.521 115.354 151.252C113.61 151.008 112.197 150.277 111.114 149.055C109.122 154.518 106.768 154.518 104.049 149.055C104.049 148.323 104.049 147.589 104.049 146.857C105.934 146.857 106.875 146.125 106.875 144.66C106.875 143.928 106.875 143.194 106.875 142.462C108.76 142.462 109.701 141.73 109.701 140.264C109.701 139.533 109.701 138.799 109.701 138.067Z" fill="#305A9A"/>
<path id="Vector_54" fill-rule="evenodd" clip-rule="evenodd" d="M137.962 113.893C135.246 120.323 133.364 126.916 132.31 133.671C132.31 134.403 132.31 135.137 132.31 135.869C133.251 138.798 134.195 138.798 135.136 135.869C136.077 135.869 137.021 135.869 137.962 135.869C137.021 138.798 136.077 141.73 135.136 144.659C133.251 144.659 132.31 143.928 132.31 142.462C131.369 139.532 130.425 139.532 129.484 142.462C127.599 142.462 126.658 143.194 126.658 144.659C126.658 145.391 126.658 146.125 126.658 146.857C124.773 146.857 123.832 147.589 123.832 149.055C123.832 149.787 123.832 150.521 123.832 151.252C123.832 151.984 123.832 152.718 123.832 153.45C121.947 153.45 121.006 154.182 121.006 155.648C119.121 155.648 118.18 154.916 118.18 153.45C118.18 151.984 118.18 150.521 118.18 149.055C120.548 148.303 121.492 146.84 121.006 144.659C123.374 143.908 124.318 142.444 123.832 140.264C126.2 139.513 127.144 138.049 126.658 135.869C130.425 134.403 130.425 132.94 126.658 131.474C126.658 130.008 126.658 128.544 126.658 127.079C130.425 122.683 134.195 118.288 137.962 113.893Z" fill="#3E5EAF"/>
<path id="Vector_55" fill-rule="evenodd" clip-rule="evenodd" d="M149.267 138.067C149.267 139.533 149.267 140.996 149.267 142.462C149.566 148.13 147.681 153.257 143.614 157.845C141.729 157.845 139.847 157.845 137.962 157.845C143.49 152.391 144.431 146.532 140.788 140.264C142.577 135.827 145.403 135.093 149.267 138.067Z" fill="#3259AB"/>
<path id="Vector_56" fill-rule="evenodd" clip-rule="evenodd" d="M95.5709 149.055C97.4559 149.055 98.397 149.787 98.397 151.252C100.282 151.252 101.223 151.984 101.223 153.45C104.049 154.182 105.934 155.648 106.875 157.845C103.521 161.3 100.695 164.963 98.397 168.833C96.512 168.833 94.6298 168.833 92.7448 168.833C91.8038 162.972 90.8598 162.972 89.9188 168.833C88.0338 168.833 87.0927 169.565 87.0927 171.031C87.0927 172.497 87.0927 173.96 87.0927 175.426C84.7244 176.178 83.7805 177.641 84.2666 179.821C82.3816 179.821 81.4405 179.09 81.4405 177.624C82.3816 173.229 83.3255 168.833 84.2666 164.438C88.7064 159.746 92.4735 154.619 95.5709 149.055Z" fill="#3C5EAB"/>
<path id="Vector_57" fill-rule="evenodd" clip-rule="evenodd" d="M256.658 157.845C254.773 158.577 252.891 159.311 251.006 160.043C250.065 154.182 249.121 154.182 248.18 160.043C247.239 160.043 246.295 160.043 245.354 160.043C243.469 157.113 241.586 157.113 239.701 160.043C239.701 160.775 239.701 161.509 239.701 162.24C237.613 162.528 235.728 162.161 234.049 161.142C237.548 159.625 237.548 158.526 234.049 157.845C238.04 155.575 242.748 154.111 248.18 153.45C252.526 153.347 255.352 154.813 256.658 157.845Z" fill="#4B64D1"/>
<path id="Vector_58" fill-rule="evenodd" clip-rule="evenodd" d="M304.701 166.636C303.76 166.636 302.816 166.636 301.875 166.636C298.425 165.475 295.129 164.01 291.984 162.24C289.958 163.436 288.545 164.902 287.745 166.636C284.919 165.904 283.034 164.438 282.093 162.24C279.12 158.381 274.409 156.916 267.962 157.845C257.039 158.294 257.509 156.096 269.375 151.252C279.267 154.549 289.158 157.845 299.049 161.142C301.539 162.698 303.421 164.53 304.701 166.636Z" fill="#4261B6"/>
<path id="Vector_59" fill-rule="evenodd" clip-rule="evenodd" d="M50.3536 151.252C50.3536 152.718 50.3536 154.182 50.3536 155.648C47.9853 156.399 47.0414 157.863 47.5275 160.043C45.1593 160.794 44.2153 162.258 44.7014 164.438C44.7014 165.17 44.7014 165.904 44.7014 166.636C44.7014 168.101 43.7603 168.833 41.8753 168.833C41.8753 167.367 41.8753 165.904 41.8753 164.438C41.0925 159.878 40.1514 155.483 39.0493 151.252C39.0493 150.52 39.0493 149.786 39.0493 149.055C43.8395 146.141 47.6066 146.872 50.3536 151.252Z" fill="#17478B"/>
<path id="Vector_60" fill-rule="evenodd" clip-rule="evenodd" d="M267.962 157.845C274.409 156.916 279.12 158.381 282.093 162.24C281.152 162.24 280.208 162.24 279.267 162.24C278.325 159.311 277.382 159.311 276.44 162.24C274.555 162.24 272.673 162.24 270.788 162.24C269.847 160.775 268.903 159.311 267.962 157.845Z" fill="#4B64E0"/>
<path id="Vector_61" fill-rule="evenodd" clip-rule="evenodd" d="M39.0492 151.252C40.1514 155.483 41.0925 159.878 41.8753 164.438C39.9903 165.17 38.1081 165.904 36.2231 166.636C33.397 171.031 30.571 175.426 27.7449 179.821C29.319 169.57 33.0862 160.047 39.0492 151.252Z" fill="#254C9C"/>
<path id="Vector_62" fill-rule="evenodd" clip-rule="evenodd" d="M53.1797 151.252C55.0647 151.252 56.9468 151.252 58.8318 151.252C55.4462 157.683 52.6201 164.275 50.3536 171.031C47.9853 170.279 47.0414 168.816 47.5275 166.636C47.5275 165.17 46.5864 164.438 44.7014 164.438C44.2153 162.258 45.1592 160.794 47.5275 160.043C49.8958 159.291 50.8397 157.828 50.3536 155.648C52.7218 154.896 53.6658 153.432 53.1797 151.252Z" fill="#405EB5"/>
<path id="Vector_63" fill-rule="evenodd" clip-rule="evenodd" d="M70.1362 144.66C71.0773 144.66 72.0212 144.66 72.9623 144.66C66.5273 155.399 60.8751 166.387 56.0058 177.624C54.1208 177.624 53.1797 176.892 53.1797 175.426C55.8136 164.023 61.4658 153.766 70.1362 144.66Z" fill="#4B64D1"/>
<path id="Vector_64" fill-rule="evenodd" clip-rule="evenodd" d="M137.962 157.845C139.847 157.845 141.729 157.845 143.614 157.845C141.792 160.729 138.966 162.926 135.136 164.438C133.07 173.143 128.362 180.835 121.006 187.513C122.577 188.355 123.518 189.454 123.832 190.81C121.947 194.473 120.065 198.134 118.18 201.798C119.135 195.959 117.25 190.832 112.528 186.414C123.21 181.52 127.921 174.196 126.658 164.438C126.658 163.706 126.658 162.972 126.658 162.241C131.072 161.728 134.839 160.263 137.962 157.845Z" fill="#3F5DB4"/>
<path id="Vector_65" fill-rule="evenodd" clip-rule="evenodd" d="M256.658 157.845C258.984 162.142 259.456 166.537 258.071 171.031C255.717 168.833 253.36 166.636 251.006 164.438C248.117 165.218 246.232 166.684 245.354 168.833C244.412 168.833 243.469 168.833 242.527 168.833C242.366 166.396 241.425 164.199 239.701 162.241C239.701 161.509 239.701 160.775 239.701 160.043C241.586 160.043 243.469 160.043 245.354 160.043C246.295 160.043 247.239 160.043 248.18 160.043C249.121 160.043 250.065 160.043 251.006 160.043C252.891 159.311 254.773 158.577 256.658 157.845Z" fill="#3A5AAC"/>
<path id="Vector_66" fill-rule="evenodd" clip-rule="evenodd" d="M106.875 157.845C106.875 160.043 106.875 162.241 106.875 164.438C106.875 165.904 106.875 167.368 106.875 168.833C104.321 170.391 103.379 172.589 104.049 175.426C103.108 175.426 102.164 175.426 101.223 175.426C100.282 175.426 99.3381 175.426 98.397 175.426C98.397 173.229 98.397 171.031 98.397 168.833C100.695 164.963 103.521 161.3 106.875 157.845Z" fill="#1D4095"/>
<path id="Vector_67" fill-rule="evenodd" clip-rule="evenodd" d="M115.354 153.45C116.295 153.45 117.239 153.45 118.18 153.45C118.18 154.916 119.121 155.648 121.006 155.648C121.006 156.379 121.006 157.113 121.006 157.845C118.451 159.403 117.51 161.601 118.18 164.438C114.308 168.284 111.482 172.679 109.701 177.624C107.816 177.624 106.875 176.892 106.875 175.426C106.875 173.229 106.875 171.031 106.875 168.833C109.244 168.082 110.187 166.618 109.701 164.438C112.256 162.88 113.197 160.682 112.527 157.845C114.896 157.094 115.84 155.63 115.354 153.45Z" fill="#4A63BD"/>
<path id="Vector_68" fill-rule="evenodd" clip-rule="evenodd" d="M234.049 157.845C237.548 158.527 237.548 159.625 234.049 161.142C235.728 162.161 237.613 162.528 239.701 162.241C241.425 164.199 242.366 166.396 242.528 168.833C239.724 168.455 237.842 169.189 236.875 171.031C236.875 171.763 236.875 172.497 236.875 173.229C232.729 172.363 228.49 171.631 224.158 171.031C219.356 170.783 216.058 172.246 214.267 175.426C213.326 175.426 212.382 175.426 211.441 175.426C211.441 173.96 211.441 172.497 211.441 171.031C216.098 167.895 221.75 166.064 228.397 165.537C230.05 162.676 231.933 160.111 234.049 157.845Z" fill="#365BA6"/>
<path id="Vector_69" fill-rule="evenodd" clip-rule="evenodd" d="M270.788 162.24C272.673 162.24 274.556 162.24 276.441 162.24C277.382 162.24 278.326 162.24 279.267 162.24C280.208 162.24 281.152 162.24 282.093 162.24C283.034 164.438 284.919 165.904 287.745 166.636C287.745 167.368 287.745 168.102 287.745 168.833C287.745 170.299 287.745 171.763 287.745 173.229C287.745 173.96 287.745 174.694 287.745 175.426C285.86 175.426 284.919 174.694 284.919 173.229C279.476 171.062 273.824 168.864 267.962 166.636C266.077 166.636 265.136 165.904 265.136 164.438C266.103 162.597 267.985 161.863 270.788 162.24Z" fill="#375BA9"/>
<path id="Vector_70" fill-rule="evenodd" clip-rule="evenodd" d="M98.3971 168.833C98.3971 171.031 98.3971 173.229 98.3971 175.426C96.5121 176.892 94.6299 178.356 92.7449 179.821C90.5744 181.498 89.1614 183.696 88.5057 186.414C87.3781 185.913 86.909 185.179 87.0927 184.217C87.0927 181.287 87.0927 178.356 87.0927 175.426C90.8599 173.96 90.8599 172.497 87.0927 171.031C87.0927 169.565 88.0338 168.833 89.9188 168.833C90.8599 168.833 91.8038 168.833 92.7449 168.833C94.6299 168.833 96.5121 168.833 98.3971 168.833Z" fill="#4864C2"/>
<path id="Vector_71" fill-rule="evenodd" clip-rule="evenodd" d="M245.354 168.833C246.888 168.965 247.829 169.697 248.18 171.031C244.819 173.073 241.052 173.804 236.875 173.229C236.875 172.497 236.875 171.763 236.875 171.031C240.524 171.552 243.35 170.82 245.354 168.833Z" fill="#4B64EA"/>
<path id="Vector_72" fill-rule="evenodd" clip-rule="evenodd" d="M287.745 168.833C289.63 169.565 291.512 170.299 293.397 171.031C296.023 172.822 298.849 174.653 301.875 176.525C300.304 177.367 299.363 178.465 299.049 179.821C295.958 174.688 292.19 174.688 287.745 179.821C283.429 179.982 280.603 178.516 279.267 175.426C281.152 174.694 283.034 173.96 284.919 173.229C284.919 174.694 285.86 175.426 287.745 175.426C291.512 174.694 291.512 173.96 287.745 173.229C287.745 171.763 287.745 170.299 287.745 168.833Z" fill="#4B64D2"/>
<path id="Vector_73" fill-rule="evenodd" clip-rule="evenodd" d="M265.136 164.438C265.136 165.904 266.077 166.636 267.962 166.636C268.039 170.369 269.924 173.301 273.614 175.426C268.903 175.426 264.195 175.426 259.484 175.426C260.665 173.84 262.547 172.741 265.136 172.13C261.488 169.29 261.488 166.728 265.136 164.438Z" fill="#4B64DF"/>
<path id="Vector_74" fill-rule="evenodd" clip-rule="evenodd" d="M301.875 166.636C302.816 166.636 303.76 166.636 304.701 166.636C309.412 168.833 313.18 171.763 316.006 175.426C316.763 178.94 315.819 181.87 313.18 184.217C313.18 183.485 313.18 182.751 313.18 182.019C314.406 176.16 311.58 173.596 304.701 174.327C306.273 175.169 307.214 176.268 307.527 177.624C305.009 178.964 302.183 179.696 299.049 179.821C299.363 178.465 300.304 177.367 301.875 176.525C298.849 174.653 296.022 172.822 293.397 171.031C298.142 171.503 300.968 170.038 301.875 166.636Z" fill="#3F5FA9"/>
<path id="Vector_75" fill-rule="evenodd" clip-rule="evenodd" d="M75.7883 168.833C75.7883 170.299 76.7294 171.031 78.6144 171.031C75.7883 178.356 72.9622 185.682 70.1361 193.007C68.2511 193.007 67.31 192.275 67.31 190.81C66.8013 182.489 69.6274 175.165 75.7883 168.833Z" fill="#4863C0"/>
<path id="Vector_76" fill-rule="evenodd" clip-rule="evenodd" d="M211.441 171.031C211.441 172.497 211.441 173.96 211.441 175.426C212.382 181.287 213.326 181.287 214.267 175.426C221.911 171.791 227.563 173.257 231.223 179.821C229.036 182.483 226.682 182.483 224.158 179.821C222.965 184.054 219.667 186.252 214.267 186.414C212.382 186.414 210.499 186.414 208.614 186.414C204.161 180.448 205.104 175.321 211.441 171.031Z" fill="#4260BD"/>
<path id="Vector_77" fill-rule="evenodd" clip-rule="evenodd" d="M44.7013 166.636C45.6424 166.636 46.5863 166.636 47.5274 166.636C47.0413 168.816 47.9852 170.279 50.3535 171.031C50.3535 172.497 50.3535 173.96 50.3535 175.426C47.7139 177.773 46.77 180.703 47.5274 184.217C46.5863 184.217 45.6424 184.217 44.7013 184.217C42.627 181.562 41.6859 178.632 41.8752 175.426C41.8752 173.229 41.8752 171.031 41.8752 168.833C43.7602 168.833 44.7013 168.101 44.7013 166.636Z" fill="#4A64CE"/>
<path id="Vector_78" fill-rule="evenodd" clip-rule="evenodd" d="M256.658 175.426C257.599 175.426 258.543 175.426 259.484 175.426C264.195 175.426 268.903 175.426 273.614 175.426C275.499 175.426 277.382 175.426 279.267 175.426C280.603 178.516 283.429 179.982 287.745 179.821C295.723 183.1 300.434 188.23 301.875 195.205C301.875 196.671 300.934 197.402 299.049 197.402C291.227 186.232 278.981 180.373 262.31 179.821C259.484 179.09 257.599 177.624 256.658 175.426Z" fill="#274C9B"/>
<path id="Vector_79" fill-rule="evenodd" clip-rule="evenodd" d="M81.4406 177.624C81.4406 179.09 82.3816 179.821 84.2666 179.821C84.2666 181.287 84.2666 182.751 84.2666 184.217C81.124 188.829 79.239 193.959 78.6145 199.6C76.2462 198.848 75.3023 197.385 75.7884 195.205C75.2062 188.623 77.0884 182.762 81.4406 177.624Z" fill="#4A64C0"/>
<path id="Vector_80" fill-rule="evenodd" clip-rule="evenodd" d="M256.658 175.426C257.599 177.624 259.484 179.09 262.31 179.821C255.445 182.131 248.852 185.061 242.527 188.612C241.586 187.146 240.642 185.682 239.701 184.217C243.381 179.114 249.033 176.184 256.658 175.426Z" fill="#2D4CA5"/>
<path id="Vector_81" fill-rule="evenodd" clip-rule="evenodd" d="M98.397 175.426C99.3381 175.426 100.282 175.426 101.223 175.426C101.223 178.356 101.223 181.287 101.223 184.217C98.9905 186.654 97.5775 189.583 96.984 193.007C95.5738 202.503 95.1018 212.025 95.5709 221.576C93.6859 220.844 91.8038 220.11 89.9188 219.379C89.9188 217.913 89.9188 216.449 89.9188 214.983C89.9188 209.122 89.9188 203.263 89.9188 197.402C89.9188 196.671 89.9188 195.937 89.9188 195.205C91.9507 190.229 92.8918 185.102 92.7448 179.821C94.6298 178.356 96.512 176.892 98.397 175.426Z" fill="#2C4CA1"/>
<path id="Vector_82" fill-rule="evenodd" clip-rule="evenodd" d="M36.2231 166.636C36.2231 172.497 36.2231 178.356 36.2231 184.217C32.5492 194.985 32.5492 205.973 36.2231 217.181C36.2231 218.647 36.2231 220.11 36.2231 221.576C33.397 224.506 30.5709 224.506 27.7448 221.576C24.0851 207.591 24.0851 193.673 27.7448 179.821C30.5709 175.426 33.397 171.031 36.2231 166.636Z" fill="#1E4790"/>
<path id="Vector_83" fill-rule="evenodd" clip-rule="evenodd" d="M307.528 177.624C309.413 179.09 311.295 180.553 313.18 182.019C313.18 182.751 313.18 183.485 313.18 184.217C313.55 185.841 313.078 187.307 311.767 188.612C309.591 186.199 307.236 186.199 304.701 188.612C306.287 185.17 304.402 182.241 299.049 179.821C302.183 179.696 305.009 178.964 307.528 177.624Z" fill="#4060AF"/>
<path id="Vector_84" fill-rule="evenodd" clip-rule="evenodd" d="M41.8753 164.438C41.8753 165.904 41.8753 167.368 41.8753 168.833C41.8753 171.031 41.8753 173.229 41.8753 175.426C39.9903 183.485 38.1081 191.541 36.2231 199.6C36.2231 194.473 36.2231 189.344 36.2231 184.217C36.2231 178.356 36.2231 172.497 36.2231 166.636C38.1081 165.904 39.9903 165.17 41.8753 164.438Z" fill="#003D87"/>
<path id="Vector_85" fill-rule="evenodd" clip-rule="evenodd" d="M92.7449 179.821C92.8918 185.102 91.9507 190.229 89.9188 195.205C88.0338 195.205 87.0927 195.937 87.0927 197.402C85.3688 202.567 84.4249 201.835 84.2666 195.205C84.2666 191.541 84.2666 187.88 84.2666 184.217C85.2077 184.217 86.1516 184.217 87.0927 184.217C86.909 185.179 87.3781 185.913 88.5057 186.414C89.1614 183.696 90.5744 181.498 92.7449 179.821Z" fill="#4B64CF"/>
<path id="Vector_86" fill-rule="evenodd" clip-rule="evenodd" d="M208.614 186.414C210.499 186.414 212.382 186.414 214.267 186.414C225.37 192.946 223.485 194.411 208.614 190.809C203.881 191.618 201.055 193.816 200.136 197.402C198.251 197.402 197.31 198.134 197.31 199.6C193.543 200.332 193.543 201.066 197.31 201.798C197.31 203.263 196.369 203.995 194.484 203.995C193.543 203.995 192.599 203.995 191.658 203.995C190.584 193.864 196.236 188.005 208.614 186.414Z" fill="#4660B8"/>
<path id="Vector_87" fill-rule="evenodd" clip-rule="evenodd" d="M239.701 184.217C240.642 185.682 241.586 187.146 242.527 188.612C237.777 194.552 233.069 200.411 228.397 206.193C227.431 204.351 225.548 203.617 222.745 203.995C226.303 196.249 231.955 189.656 239.701 184.217Z" fill="#3050A8"/>
<path id="Vector_88" fill-rule="evenodd" clip-rule="evenodd" d="M41.8753 175.426C41.6859 178.633 42.627 181.562 44.7014 184.217C44.7014 192.275 44.7014 200.332 44.7014 208.39C41.8866 208.201 39.5325 208.936 37.6362 210.588C36.2401 206.997 35.7709 203.334 36.2231 199.6C38.1081 191.541 39.9903 183.485 41.8753 175.426Z" fill="#4963B5"/>
<path id="Vector_89" fill-rule="evenodd" clip-rule="evenodd" d="M50.3536 175.426C51.2946 175.426 52.2386 175.426 53.1796 175.426C53.1796 176.892 54.1207 177.624 56.0057 177.624C51.5829 190.546 49.6979 203.732 50.3536 217.181C49.4125 217.181 48.4686 217.181 47.5275 217.181C47.5275 206.193 47.5275 195.205 47.5275 184.217C50.167 181.87 51.1109 178.94 50.3536 175.426Z" fill="#4B64E2"/>
<path id="Vector_90" fill-rule="evenodd" clip-rule="evenodd" d="M316.006 175.426C319.643 181.085 323.413 186.944 327.31 193.007C326.96 194.341 326.019 195.073 324.484 195.205C324.484 193.739 323.543 193.007 321.658 193.007C320.717 187.146 319.773 187.146 318.832 193.007C315.065 195.205 315.065 197.402 318.832 199.6C315.065 201.798 315.065 203.995 318.832 206.193C318.832 207.659 317.891 208.39 316.006 208.39C313.807 206.949 311.925 205.118 310.354 202.896C312.425 199.015 313.369 194.987 313.18 190.81C309.531 191.33 306.705 190.599 304.701 188.612C307.236 186.199 309.59 186.199 311.767 188.612C313.078 187.307 313.55 185.841 313.18 184.217C315.819 181.87 316.763 178.94 316.006 175.426Z" fill="#4963D0"/>
<path id="Vector_91" fill-rule="evenodd" clip-rule="evenodd" d="M75.7883 195.205C75.3022 197.385 76.2461 198.848 78.6144 199.6C78.6144 201.066 78.6144 202.529 78.6144 203.995C76.7294 209.856 74.8472 215.715 72.9622 221.576C72.0663 212.342 73.0103 203.551 75.7883 195.205Z" fill="#4B64CB"/>
<path id="Vector_92" fill-rule="evenodd" clip-rule="evenodd" d="M84.2666 195.205C84.4249 201.835 85.3688 202.567 87.0927 197.402C88.0338 197.402 88.9777 197.402 89.9188 197.402C89.9188 203.263 89.9188 209.122 89.9188 214.983C87.5505 215.735 86.6066 217.199 87.0927 219.379C85.2077 219.379 84.2666 220.11 84.2666 221.576C80.4994 212.786 80.4994 203.995 84.2666 195.205Z" fill="#4B64D9"/>
<path id="Vector_93" fill-rule="evenodd" clip-rule="evenodd" d="M104.049 175.426C104.99 175.426 105.934 175.426 106.875 175.426C106.875 176.892 107.816 177.624 109.701 177.624C105.279 190.546 103.394 203.732 104.049 217.181C103.108 217.181 102.164 217.181 101.223 217.181C98.2558 206.327 98.2558 195.339 101.223 184.217C103.863 181.87 104.807 178.94 104.049 175.426Z" fill="#4B64CA"/>
<path id="Vector_94" fill-rule="evenodd" clip-rule="evenodd" d="M123.832 190.81C127.178 193.42 127.178 195.985 123.832 198.501C131.462 202.582 136.17 208.076 137.962 214.983C137.962 217.181 137.962 219.379 137.962 221.576C137.021 221.576 136.077 221.576 135.136 221.576C133.251 221.576 132.31 220.844 132.31 219.379C134.322 214.337 131.968 209.942 125.245 206.193C122.337 213.61 116.213 216.174 106.875 213.885C113.429 211.364 117.196 207.333 118.18 201.798C120.065 198.134 121.947 194.473 123.832 190.81Z" fill="#3255A9"/>
<path id="Vector_95" fill-rule="evenodd" clip-rule="evenodd" d="M222.745 203.995C225.548 203.617 227.431 204.351 228.397 206.193C227.456 209.122 226.512 212.054 225.571 214.983C222.151 214.034 219.325 212.568 217.093 210.588C216.886 207.232 218.771 205.035 222.745 203.995Z" fill="#224A95"/>
<path id="Vector_96" fill-rule="evenodd" clip-rule="evenodd" d="M301.875 195.205C307.522 203.173 310.348 211.964 310.354 221.576C306.934 220.627 304.108 219.161 301.875 217.181C304.328 210.687 303.387 204.094 299.049 197.402C300.934 197.402 301.875 196.671 301.875 195.205Z" fill="#4B64C7"/>
<path id="Vector_97" fill-rule="evenodd" clip-rule="evenodd" d="M200.136 197.402C207.136 196.416 212.789 197.879 217.093 201.798C214.575 204.193 211.749 204.193 208.614 201.798C205.907 206.817 202.137 211.212 197.31 214.983C196.369 214.983 195.425 214.983 194.484 214.983C193.543 214.983 192.599 214.983 191.658 214.983C192.034 207.457 190.152 206.725 186.006 212.786C186.006 210.588 186.006 208.391 186.006 206.193C186.972 204.351 188.854 203.617 191.658 203.995C192.599 206.925 193.543 206.925 194.484 203.995C196.369 203.995 197.31 203.263 197.31 201.798C197.31 201.066 197.31 200.332 197.31 199.6C199.195 199.6 200.136 198.868 200.136 197.402Z" fill="#2C55A4"/>
<path id="Vector_98" fill-rule="evenodd" clip-rule="evenodd" d="M36.2231 184.217C36.2231 189.344 36.2231 194.473 36.2231 199.6C35.7709 203.334 36.24 206.997 37.6361 210.588C39.5324 208.935 41.8866 208.201 44.7013 208.39C44.7013 211.32 44.7013 214.252 44.7013 217.181C44.7013 217.913 44.7013 218.647 44.7013 219.379C42.9577 219.623 41.5446 220.354 40.4622 221.576C39.6766 219.563 38.2635 218.1 36.2231 217.181C32.5492 205.973 32.5492 194.985 36.2231 184.217Z" fill="#4B64C7"/>
<path id="Vector_99" fill-rule="evenodd" clip-rule="evenodd" d="M318.832 193.007C319.773 195.937 320.717 195.937 321.658 193.007C323.543 193.007 324.484 193.739 324.484 195.205C327.754 201.373 327.754 207.235 324.484 212.786C322.444 213.704 321.03 215.168 320.245 217.181C318.385 213.647 319.798 211.083 324.484 209.489C322.913 208.648 321.972 207.549 321.658 206.193C322.328 203.356 321.387 201.158 318.832 199.6C315.065 197.402 315.065 195.205 318.832 193.007Z" fill="#4060AE"/>
<path id="Vector_100" fill-rule="evenodd" clip-rule="evenodd" d="M67.3101 190.81C67.3101 192.275 68.2512 193.007 70.1362 193.007C68.4971 202.479 67.5531 212.001 67.3101 221.576C67.7962 223.756 66.8523 225.22 64.484 225.971C62.096 214.106 63.0371 202.387 67.3101 190.81Z" fill="#4B64C5"/>
<path id="Vector_101" fill-rule="evenodd" clip-rule="evenodd" d="M186.006 206.193C186.006 208.39 186.006 210.588 186.006 212.786C186.006 213.517 186.006 214.251 186.006 214.983C185.065 214.983 184.121 214.983 183.18 214.983C180.376 214.605 178.494 215.339 177.527 217.181C177.527 217.913 177.527 218.647 177.527 219.379C175.642 219.379 173.76 219.379 171.875 219.379C174.472 213.689 179.184 209.294 186.006 206.193Z" fill="#295396"/>
<path id="Vector_102" fill-rule="evenodd" clip-rule="evenodd" d="M217.093 210.588C219.325 212.568 222.151 214.034 225.571 214.983C222.705 219.541 219.879 223.936 217.093 228.169C217.469 220.642 215.586 219.91 211.441 225.971C211.441 225.24 211.441 224.506 211.441 223.774C211.271 222.581 210.33 221.849 208.614 221.576C205.738 223.099 202.911 224.563 200.136 225.971C200.136 225.24 200.136 224.506 200.136 223.774C199.65 221.594 200.594 220.13 202.962 219.379C208.821 217.621 213.532 214.691 217.093 210.588Z" fill="#3756B2"/>
<path id="Vector_103" fill-rule="evenodd" clip-rule="evenodd" d="M137.962 214.983C145.884 215.186 154.362 215.55 163.397 216.082C167.741 218.522 169.623 221.818 169.049 225.971C167.164 225.971 166.223 226.703 166.223 228.169C163.668 226.611 162.727 224.413 163.397 221.576C157.507 223.22 151.855 223.22 146.441 221.576C143.436 230.213 140.61 230.213 137.962 221.576C137.962 219.379 137.962 217.181 137.962 214.983Z" fill="#3D5CB6"/>
<path id="Vector_104" fill-rule="evenodd" clip-rule="evenodd" d="M186.006 214.983C187.891 214.983 189.773 214.983 191.658 214.983C192.599 217.913 193.543 217.913 194.484 214.983C195.425 214.983 196.369 214.983 197.31 214.983C200.136 215.715 202.021 217.181 202.962 219.379C200.594 220.13 199.65 221.594 200.136 223.774C196.369 222.308 192.599 220.844 188.832 219.379C186.028 219.757 184.146 219.023 183.18 217.181C185.065 217.181 186.006 216.449 186.006 214.983Z" fill="#3B62B1"/>
<path id="Vector_105" fill-rule="evenodd" clip-rule="evenodd" d="M282.093 214.983C288.765 215.366 295.358 216.098 301.875 217.181C304.108 219.161 306.934 220.627 310.354 221.576C310.354 223.774 310.354 225.971 310.354 228.169C309.413 228.169 308.469 228.169 307.528 228.169C306.586 228.169 305.643 228.169 304.701 228.169C305.077 220.642 303.195 219.91 299.049 225.971C298.108 224.506 297.164 223.042 296.223 221.576C293.205 219.524 289.438 218.79 284.919 219.379C285.724 223.308 284.783 226.971 282.093 230.367C280.377 230.094 279.436 229.362 279.267 228.169C283.034 227.437 283.034 226.703 279.267 225.971C281.53 222.583 282.471 218.921 282.093 214.983ZM296.223 221.576C297.164 223.042 298.108 224.506 299.049 225.971C297.164 225.971 295.282 225.971 293.397 225.971C285.806 222.701 286.747 221.236 296.223 221.576Z" fill="#3659A5"/>
<path id="Vector_106" fill-rule="evenodd" clip-rule="evenodd" d="M318.832 206.193C319.773 206.193 320.717 206.193 321.658 206.193C321.972 207.549 322.913 208.648 324.484 209.489C319.798 211.083 318.385 213.647 320.245 217.181C321.03 215.168 322.444 213.704 324.484 212.786C326.623 220.376 325.682 227.703 321.658 234.762C322.144 232.582 321.2 231.118 318.832 230.367C318.609 227.224 319.55 224.292 321.658 221.576C319.123 221.205 316.297 220.473 313.18 219.379C315.466 215.926 316.41 212.263 316.006 208.39C317.891 208.39 318.832 207.659 318.832 206.193Z" fill="#4861CE"/>
<path id="Vector_107" fill-rule="evenodd" clip-rule="evenodd" d="M132.31 219.379C132.31 220.844 133.251 221.576 135.136 221.576C135.136 223.042 134.195 223.774 132.31 223.774C126.782 220.093 123.015 220.825 121.006 225.971C118.965 225.053 117.552 223.589 116.767 221.576C114.243 224.237 111.889 224.237 109.701 221.576C110.292 220.288 111.236 219.19 112.528 218.28C119.268 217.058 125.861 217.423 132.31 219.379Z" fill="#3B5EBB"/>
<path id="Vector_108" fill-rule="evenodd" clip-rule="evenodd" d="M78.6144 203.995C75.6922 220.622 80.4005 235.639 92.7448 249.046C91.0661 250.066 89.1811 250.433 87.0927 250.145C80.0642 241.397 75.3559 231.874 72.9622 221.576C74.8472 215.715 76.7294 209.856 78.6144 203.995Z" fill="#4B64D7"/>
<path id="Vector_109" fill-rule="evenodd" clip-rule="evenodd" d="M177.527 217.181C178.494 215.339 180.376 214.605 183.18 214.983C183.18 215.715 183.18 216.449 183.18 217.181C184.146 219.023 186.028 219.757 188.832 219.379C188.832 220.844 188.832 222.308 188.832 223.774C186.947 223.774 185.065 223.774 183.18 223.774C182.239 220.844 181.295 220.844 180.354 223.774C178.469 223.774 177.527 224.506 177.527 225.971C174.995 228.182 173.113 228.182 171.875 225.971C171.875 223.774 171.875 221.576 171.875 219.379C173.76 219.379 175.642 219.379 177.527 219.379C181.295 218.647 181.295 217.913 177.527 217.181Z" fill="#4161BA"/>
<path id="Vector_110" fill-rule="evenodd" clip-rule="evenodd" d="M282.093 214.983C282.471 218.921 281.53 222.583 279.267 225.971C274.62 226.653 271.794 228.85 270.788 232.564C268.27 231.224 265.444 230.492 262.31 230.367C269.847 225.971 276.44 220.844 282.093 214.983Z" fill="#20479A"/>
<path id="Vector_111" fill-rule="evenodd" clip-rule="evenodd" d="M36.2231 217.181C38.2636 218.1 39.6766 219.563 40.4623 221.576C41.5447 220.354 42.9577 219.623 44.7014 219.379C46.5864 219.379 47.5275 220.11 47.5275 221.576C47.5275 223.774 47.5275 225.971 47.5275 228.169C47.5275 229.635 48.4686 230.367 50.3536 230.367C51.0234 233.204 50.0823 235.401 47.5275 236.96C45.6425 236.228 43.7603 235.494 41.8753 234.762C39.9903 230.367 38.1081 225.971 36.2231 221.576C36.2231 220.11 36.2231 218.647 36.2231 217.181Z" fill="#4B64D0"/>
<path id="Vector_112" fill-rule="evenodd" clip-rule="evenodd" d="M89.9188 219.379C91.8038 220.11 93.6859 220.844 95.5709 221.576C95.1922 225.514 96.1333 229.176 98.397 232.564C99.3381 235.494 100.282 235.494 101.223 232.564C100.737 230.384 101.681 228.921 104.049 228.169C104.049 228.901 104.049 229.635 104.049 230.367C104.049 231.832 104.99 232.564 106.875 232.564C106.875 234.03 107.816 234.762 109.701 234.762C110.642 236.228 111.586 237.691 112.527 239.157C110.642 239.889 108.76 240.623 106.875 241.355C105.934 238.425 104.99 238.425 104.049 241.355C103.108 241.355 102.164 241.355 101.223 241.355C100.282 241.355 99.3381 241.355 98.397 241.355C98.397 240.623 98.397 239.889 98.397 239.157C98.397 237.691 97.4559 236.959 95.5709 236.959C95.5709 236.228 95.5709 235.494 95.5709 234.762C95.5709 233.296 94.6298 232.564 92.7448 232.564C92.7448 231.098 92.7448 229.635 92.7448 228.169C93.2309 225.989 92.287 224.525 89.9188 223.774C89.9188 222.308 89.9188 220.844 89.9188 219.379Z" fill="#2E549F"/>
<path id="Vector_113" fill-rule="evenodd" clip-rule="evenodd" d="M44.7014 219.379C44.7014 218.647 44.7014 217.913 44.7014 217.181C45.6425 217.181 46.5864 217.181 47.5275 217.181C48.4686 217.181 49.4125 217.181 50.3536 217.181C54.1123 224.884 56.4664 232.942 57.4188 241.355C54.6351 237.674 52.2782 234.01 50.3536 230.367C48.4686 230.367 47.5275 229.635 47.5275 228.169C51.2947 225.971 51.2947 223.774 47.5275 221.576C47.5275 220.11 46.5864 219.379 44.7014 219.379Z" fill="#4B64E9"/>
<path id="Vector_114" fill-rule="evenodd" clip-rule="evenodd" d="M180.354 223.774C181.295 223.774 182.239 223.774 183.18 223.774C185.065 223.774 186.947 223.774 188.832 223.774C186.285 228.668 181.577 230.866 174.701 230.367C174.512 233.573 175.453 236.502 177.527 239.157C174.713 239.346 172.359 238.612 170.462 236.96C169.869 233.536 168.456 230.606 166.223 228.169C166.223 226.703 167.164 225.971 169.049 225.971C169.99 225.971 170.934 225.971 171.875 225.971C173.113 228.182 174.995 228.182 177.527 225.971C179.412 225.971 180.354 225.24 180.354 223.774Z" fill="#455FC2"/>
<path id="Vector_115" fill-rule="evenodd" clip-rule="evenodd" d="M217.093 228.169C216.256 232.351 214.371 236.014 211.441 239.157C211.862 236.845 211.392 234.648 210.027 232.564C208.131 234.217 205.777 234.951 202.962 234.762C202.962 234.03 202.962 233.296 202.962 232.564C206.729 231.832 206.729 231.098 202.962 230.367C203.903 228.169 205.788 226.703 208.614 225.971C209.556 225.971 210.499 225.971 211.441 225.971C215.586 219.91 217.469 220.642 217.093 228.169Z" fill="#294CA4"/>
<path id="Vector_116" fill-rule="evenodd" clip-rule="evenodd" d="M304.701 228.169C305.371 231.006 304.43 233.204 301.875 234.762C297.729 228.701 295.847 229.433 296.223 236.959C292.575 237.48 289.749 236.749 287.745 234.762C287.745 233.296 287.745 231.832 287.745 230.367C289.63 230.367 290.571 229.635 290.571 228.169C292.456 228.169 293.397 227.437 293.397 225.971C295.282 225.971 297.164 225.971 299.049 225.971C303.195 219.91 305.077 220.642 304.701 228.169Z" fill="#3C5BAE"/>
<path id="Vector_117" fill-rule="evenodd" clip-rule="evenodd" d="M101.223 217.181C102.164 217.181 103.108 217.181 104.049 217.181C106.42 222.194 109.246 227.323 112.527 232.564C112.177 233.898 111.236 234.63 109.701 234.762C107.816 234.762 106.875 234.03 106.875 232.564C104.99 232.564 104.049 231.832 104.049 230.367C107.816 229.635 107.816 228.901 104.049 228.169C101.681 228.921 100.737 230.384 101.223 232.564C100.282 232.564 99.3381 232.564 98.397 232.564C96.1333 229.176 95.1922 225.514 95.5709 221.576C99.3381 221.576 101.223 220.11 101.223 217.181Z" fill="#4B64DA"/>
<path id="Vector_118" fill-rule="evenodd" clip-rule="evenodd" d="M166.223 239.157C166.223 240.623 165.282 241.355 163.397 241.355C160.667 235.586 157.841 235.586 154.919 241.355C150.394 239.893 146.155 239.159 142.201 239.157C135.622 247.906 133.265 247.906 135.136 239.157C141.664 229.995 151.084 228.165 163.397 233.663C165.522 235.138 166.466 236.968 166.223 239.157Z" fill="#3C5AB5"/>
<path id="Vector_119" fill-rule="evenodd" clip-rule="evenodd" d="M211.441 223.774C209.556 223.774 208.614 224.506 208.614 225.971C205.788 226.703 203.903 228.169 202.962 230.367C202.962 231.098 202.962 231.832 202.962 232.564C201.077 232.564 200.136 233.296 200.136 234.762C198.251 234.762 197.31 235.494 197.31 236.96C195.425 236.96 193.543 236.96 191.658 236.96C191.658 236.228 191.658 235.494 191.658 234.762C194.484 231.832 197.31 228.901 200.136 225.971C202.911 224.563 205.737 223.099 208.614 221.576C210.33 221.849 211.271 222.58 211.441 223.774Z" fill="#294F9D"/>
<path id="Vector_120" fill-rule="evenodd" clip-rule="evenodd" d="M296.223 221.576C286.747 221.236 285.806 222.701 293.397 225.971C293.397 227.437 292.456 228.169 290.571 228.169C288.686 228.169 287.745 228.901 287.745 230.367C287.745 231.832 287.745 233.296 287.745 234.762C286.804 234.762 285.86 234.762 284.919 234.762C281.152 235.494 277.382 236.228 273.614 236.96C277.941 233.828 277 232.364 270.788 232.564C271.794 228.85 274.621 226.653 279.267 225.971C279.267 226.703 279.267 227.437 279.267 228.169C279.436 229.362 280.377 230.094 282.093 230.367C284.783 226.971 285.724 223.308 284.919 219.379C289.438 218.79 293.205 219.524 296.223 221.576Z" fill="#3757B8"/>
<path id="Vector_121" fill-rule="evenodd" clip-rule="evenodd" d="M132.31 223.774C134.766 228.646 135.707 233.773 135.136 239.157C123.97 245.458 122.088 244.359 129.484 235.861C124.736 235.087 121.91 231.791 121.006 225.971C123.015 220.825 126.782 220.093 132.31 223.774Z" fill="#3659AD"/>
<path id="Vector_122" fill-rule="evenodd" clip-rule="evenodd" d="M27.7449 221.576C30.571 224.506 33.397 224.506 36.2231 221.576C38.1081 225.971 39.9903 230.367 41.8753 234.762C39.4788 237.234 36.6527 237.234 33.397 234.762C30.9581 230.54 29.076 226.145 27.7449 221.576Z" fill="#17428D"/>
<path id="Vector_123" fill-rule="evenodd" clip-rule="evenodd" d="M87.0927 219.379C86.3749 223.556 87.3188 225.02 89.9188 223.774C92.287 224.525 93.2309 225.989 92.7449 228.169C88.9777 229.635 88.9777 231.098 92.7449 232.564C94.6299 232.564 95.5709 233.296 95.5709 234.762C93.6859 234.762 92.7449 235.494 92.7449 236.959C92.7449 238.425 91.8038 239.157 89.9188 239.157C86.3183 233.678 84.4362 227.82 84.2666 221.576C84.2666 220.11 85.2077 219.379 87.0927 219.379Z" fill="#4B64D6"/>
<path id="Vector_124" fill-rule="evenodd" clip-rule="evenodd" d="M262.31 230.367C265.444 230.492 268.27 231.224 270.788 232.564C270.788 236.228 270.788 239.889 270.788 243.552C268.618 241.876 267.205 239.678 266.549 236.96C265.467 238.181 264.054 238.913 262.31 239.157C258.958 235.946 258.958 233.015 262.31 230.367Z" fill="#3F60A8"/>
<path id="Vector_125" fill-rule="evenodd" clip-rule="evenodd" d="M307.528 228.169C308.469 228.169 309.413 228.169 310.354 228.169C312.657 230.211 315.011 232.408 317.419 234.762C318.73 233.457 319.202 231.991 318.832 230.367C321.2 231.118 322.144 232.582 321.658 234.762C319.934 236.72 318.993 238.918 318.832 241.355C316.028 240.977 314.146 241.711 313.18 243.552C310.037 238.94 308.152 233.81 307.528 228.169Z" fill="#3D5AB3"/>
<path id="Vector_126" fill-rule="evenodd" clip-rule="evenodd" d="M33.3971 234.762C36.6527 237.234 39.4788 237.234 41.8754 234.762C43.7604 235.494 45.6425 236.228 47.5275 236.96C47.6886 239.397 48.6297 241.594 50.3536 243.552C46.6091 246.746 44.2549 246.012 43.2884 241.355C41.9771 242.66 41.5051 244.126 41.8754 245.75C36.9297 243.203 34.1036 239.54 33.3971 234.762Z" fill="#2D50A6"/>
<path id="Vector_127" fill-rule="evenodd" clip-rule="evenodd" d="M191.658 234.762C191.658 235.494 191.658 236.228 191.658 236.96C189.773 239.157 187.891 241.355 186.006 243.552C179.658 245.651 173.065 247.117 166.223 247.948C168.108 246.482 169.99 245.018 171.875 243.552C174.701 242.821 176.586 241.355 177.527 239.157C182.239 237.691 186.947 236.228 191.658 234.762Z" fill="#3558AE"/>
<path id="Vector_128" fill-rule="evenodd" clip-rule="evenodd" d="M301.875 234.762C304.574 239.698 306.459 244.825 307.527 250.145C307.711 251.108 307.242 251.842 306.114 252.343C305.329 250.33 303.916 248.866 301.875 247.948C301.723 243.262 298.897 240.333 293.397 239.157C290.571 239.889 288.686 241.355 287.745 243.552C281.753 241.568 280.81 238.636 284.919 234.762C285.86 234.762 286.804 234.762 287.745 234.762C289.748 236.749 292.575 237.48 296.223 236.96C295.847 229.433 297.729 228.701 301.875 234.762Z" fill="#4561BE"/>
<path id="Vector_129" fill-rule="evenodd" clip-rule="evenodd" d="M67.3101 221.576C70.1503 232.584 76.7464 242.106 87.0927 250.145C88.0338 251.611 88.9777 253.075 89.9188 254.54C75.2514 248.646 66.7731 239.124 64.484 225.971C66.8523 225.22 67.7962 223.756 67.3101 221.576Z" fill="#4B64DC"/>
<path id="Vector_130" fill-rule="evenodd" clip-rule="evenodd" d="M112.527 239.157C115.354 239.889 117.239 241.355 118.18 243.552C115.376 243.174 113.494 243.908 112.527 245.75C110.642 245.75 109.701 246.482 109.701 247.948C109.885 248.91 109.416 249.644 108.288 250.145C104.103 248.011 101.746 245.082 101.223 241.355C102.164 241.355 103.108 241.355 104.049 241.355C104.99 241.355 105.934 241.355 106.875 241.355C108.76 240.623 110.642 239.889 112.527 239.157Z" fill="#3956AF"/>
<path id="Vector_131" fill-rule="evenodd" clip-rule="evenodd" d="M284.919 234.762C280.81 238.636 281.754 241.568 287.745 243.552C288.115 245.176 287.643 246.642 286.332 247.948C282.963 243.223 278.724 241.757 273.614 243.552C273.614 241.355 273.614 239.157 273.614 236.96C277.382 236.228 281.152 235.494 284.919 234.762Z" fill="#4763B1"/>
<path id="Vector_132" fill-rule="evenodd" clip-rule="evenodd" d="M92.7448 236.96C93.6859 236.96 94.6298 236.96 95.5709 236.96C97.4559 236.96 98.397 237.691 98.397 239.157C94.6298 239.889 94.6298 240.623 98.397 241.355C99.3381 241.355 100.282 241.355 101.223 241.355C101.746 245.082 104.103 248.011 108.288 250.145C109.416 249.644 109.885 248.91 109.701 247.948C110.642 247.948 111.586 247.948 112.527 247.948C114.412 247.948 115.354 248.679 115.354 250.145C115.354 251.611 116.295 252.343 118.18 252.343C119.121 255.272 120.065 255.272 121.006 252.343C122.891 252.343 123.832 253.075 123.832 254.54C124.202 256.165 123.73 257.63 122.419 258.936C108.627 255.158 97.7922 248.565 89.9188 239.157C91.8038 239.157 92.7448 238.425 92.7448 236.96Z" fill="#4B64DD"/>
<path id="Vector_133" fill-rule="evenodd" clip-rule="evenodd" d="M270.788 243.552C270.788 245.018 271.729 245.75 273.614 245.75C273.614 247.216 274.556 247.948 276.441 247.948C276.441 249.413 277.382 250.145 279.267 250.145C280.233 251.987 282.115 252.721 284.919 252.343C283.978 253.809 283.034 255.272 282.093 256.738C275.115 254.389 268.522 251.459 262.31 247.948C259.871 245.253 259.871 242.322 262.31 239.157C264.054 238.913 265.467 238.181 266.549 236.96C267.205 239.678 268.618 241.876 270.788 243.552Z" fill="#2D4FA1"/>
<path id="Vector_134" fill-rule="evenodd" clip-rule="evenodd" d="M166.223 239.157C168.108 240.623 169.99 242.087 171.875 243.552C169.99 245.018 168.108 246.482 166.223 247.948C163.397 249.413 160.571 250.877 157.745 252.343C153.568 252.919 149.801 252.187 146.44 250.145C150.9 248.391 155.608 247.293 160.571 246.849C162.696 245.374 163.64 243.544 163.397 241.355C165.282 241.355 166.223 240.623 166.223 239.157Z" fill="#4B64DA"/>
<path id="Vector_135" fill-rule="evenodd" clip-rule="evenodd" d="M211.441 239.157C212.432 246.436 208.665 251.563 200.136 254.54C196.881 252.068 194.054 252.068 191.658 254.54C186.947 253.075 182.239 251.611 177.527 250.145C180.902 248.449 183.728 246.251 186.006 243.552C191.387 243.029 195.157 240.832 197.31 236.96C199.195 236.96 200.136 236.228 200.136 234.762C201.077 234.762 202.021 234.762 202.962 234.762C205.777 234.951 208.131 234.217 210.027 232.564C211.392 234.648 211.862 236.845 211.441 239.157Z" fill="#14438F"/>
<path id="Vector_136" fill-rule="evenodd" clip-rule="evenodd" d="M293.397 239.157C292.792 242.77 293.736 246.066 296.223 249.046C291.82 249.508 288.053 250.607 284.919 252.343C282.115 252.721 280.233 251.987 279.267 250.145C277.382 250.145 276.441 249.413 276.441 247.948C274.556 247.948 273.614 247.216 273.614 245.75C271.729 245.75 270.788 245.018 270.788 243.552C271.729 243.552 272.673 243.552 273.614 243.552C278.724 241.757 282.963 243.223 286.332 247.948C287.643 246.642 288.115 245.176 287.745 243.552C288.686 241.355 290.571 239.889 293.397 239.157Z" fill="#4B64D9"/>
<path id="Vector_137" fill-rule="evenodd" clip-rule="evenodd" d="M318.832 241.355C318.832 247.216 318.832 253.075 318.832 258.936C316.947 258.936 315.065 258.936 313.18 258.936C313.18 253.809 313.18 248.679 313.18 243.552C314.146 241.711 316.028 240.977 318.832 241.355Z" fill="#2F579D"/>
<path id="Vector_138" fill-rule="evenodd" clip-rule="evenodd" d="M118.18 243.552C127.212 246.693 135.69 250.354 143.614 254.541C141.729 254.541 140.788 255.272 140.788 256.738C134.953 256.701 129.3 255.969 123.832 254.541C123.832 253.075 122.891 252.343 121.006 252.343C120.065 252.343 119.121 252.343 118.18 252.343C116.295 252.343 115.354 251.611 115.354 250.145C115.354 248.679 114.413 247.948 112.528 247.948C112.528 247.216 112.528 246.482 112.528 245.75C113.494 243.908 115.376 243.174 118.18 243.552Z" fill="#254A9A"/>
<path id="Vector_139" fill-rule="evenodd" clip-rule="evenodd" d="M70.1361 252.343C71.0772 255.272 72.0211 258.204 72.9622 261.133C72.0211 261.133 71.0772 261.133 70.1361 261.133C70.1361 259.668 69.195 258.936 67.31 258.936C67.31 257.47 66.369 256.738 64.484 256.738C64.484 255.272 63.5429 254.54 61.6579 254.54C58.8318 253.809 56.9468 252.343 56.0057 250.145C59.7729 249.413 59.7729 248.679 56.0057 247.948C55.6355 246.324 56.1074 244.858 57.4187 243.552C62.1298 246.262 66.369 249.194 70.1361 252.343Z" fill="#4B64D7"/>
<path id="Vector_140" fill-rule="evenodd" clip-rule="evenodd" d="M284.919 252.343C289.63 252.343 294.338 252.343 299.049 252.343C299.99 253.809 300.934 255.272 301.875 256.738C295.282 259.667 288.686 259.667 282.093 256.738C283.034 255.272 283.978 253.809 284.919 252.343Z" fill="#3458A7"/>
<path id="Vector_141" fill-rule="evenodd" clip-rule="evenodd" d="M301.875 247.948C303.916 248.866 305.329 250.33 306.114 252.343C307.242 251.842 307.711 251.108 307.528 250.145C309.413 255.272 311.295 260.402 313.18 265.529C313.01 266.722 312.069 267.454 310.354 267.726C308.859 262.349 306.974 258.687 304.701 256.738C303.76 256.738 302.816 256.738 301.875 256.738C300.934 255.272 299.99 253.809 299.049 252.343C299.99 250.877 300.934 249.413 301.875 247.948Z" fill="#405BC3"/>
<path id="Vector_142" fill-rule="evenodd" clip-rule="evenodd" d="M50.3535 243.552C51.2946 245.75 53.1796 247.216 56.0057 247.948C56.0057 248.679 56.0057 249.413 56.0057 250.145C56.9468 252.343 58.8318 253.809 61.6579 254.54C63.5429 254.54 64.484 255.272 64.484 256.738C66.369 256.738 67.31 257.47 67.31 258.936C69.195 258.936 70.1361 259.667 70.1361 261.133C70.1361 262.599 71.0772 263.331 72.9622 263.331C72.9622 264.063 72.9622 264.797 72.9622 265.529C69.9892 265.201 67.1631 265.566 64.484 266.627C68.0335 267.544 69.9185 269.374 70.1361 272.121C56.7433 265.961 47.3211 257.171 41.8753 245.75C41.505 244.126 41.977 242.66 43.2883 241.355C44.2548 246.011 46.609 246.745 50.3535 243.552Z" fill="#224B96"/>
<path id="Vector_143" fill-rule="evenodd" clip-rule="evenodd" d="M89.9188 254.54C91.8038 254.54 93.6859 254.54 95.5709 254.54C95.5709 256.006 96.512 256.738 98.397 256.738C94.7825 259.408 91.9564 258.676 89.9188 254.54Z" fill="#4B64EC"/>
<path id="Vector_144" fill-rule="evenodd" clip-rule="evenodd" d="M95.5709 254.54C98.3885 251.875 101.215 252.242 104.049 255.639C102.37 256.659 100.485 257.026 98.397 256.738C96.512 256.738 95.5709 256.006 95.5709 254.54Z" fill="#4B64ED"/>
<path id="Vector_145" fill-rule="evenodd" clip-rule="evenodd" d="M177.527 250.145C182.239 251.611 186.947 253.075 191.658 254.541C191.658 256.738 191.658 258.936 191.658 261.133C186.808 260.85 182.097 260.118 177.527 258.936C170.934 257.47 164.338 256.006 157.745 254.541C157.745 253.809 157.745 253.075 157.745 252.343C164.417 251.96 171.011 251.229 177.527 250.145Z" fill="#134790"/>
<path id="Vector_146" fill-rule="evenodd" clip-rule="evenodd" d="M70.1362 252.343C85.1144 262.162 101.13 270.22 118.18 276.517C109.492 275.697 101.014 274.233 92.7449 272.121C88.0903 268.109 82.4381 265.177 75.7883 263.331C74.8473 263.331 73.9033 263.331 72.9623 263.331C72.9623 262.599 72.9623 261.865 72.9623 261.133C72.0212 258.204 71.0773 255.272 70.1362 252.343Z" fill="#4B64D7"/>
<path id="Vector_147" fill-rule="evenodd" clip-rule="evenodd" d="M140.788 256.738C150.9 256.846 160.319 258.309 169.049 261.133C166.223 261.133 163.397 261.133 160.571 261.133C158.686 261.133 156.804 261.133 154.919 261.133C146.39 261.496 137.911 261.129 129.484 260.035C133.887 259.573 137.654 258.474 140.788 256.738Z" fill="#4B64BE"/>
<path id="Vector_148" fill-rule="evenodd" clip-rule="evenodd" d="M140.788 256.738C140.788 255.272 141.729 254.54 143.614 254.54C148.326 254.54 153.034 254.54 157.745 254.54C164.338 256.006 170.934 257.47 177.527 258.936C179.268 261.788 179.268 263.986 177.527 265.529C174.108 264.579 171.282 263.113 169.049 261.133C160.319 258.309 150.9 256.846 140.788 256.738Z" fill="#215997"/>
<path id="Vector_149" fill-rule="evenodd" clip-rule="evenodd" d="M200.136 254.54C192.785 263.926 183.366 271.983 171.875 278.714C171.875 275.785 169.99 274.319 166.223 274.319C168.108 272.853 169.99 271.39 171.875 269.924C174.701 269.192 176.586 267.726 177.527 265.529C179.268 263.986 179.268 261.788 177.527 258.936C182.097 260.118 186.808 260.85 191.658 261.133C191.658 258.936 191.658 256.738 191.658 254.54C194.054 252.068 196.88 252.068 200.136 254.54Z" fill="#1B4694"/>
<path id="Vector_150" fill-rule="evenodd" clip-rule="evenodd" d="M154.919 261.133C156.804 261.133 158.686 261.133 160.571 261.133C159.291 263.239 157.409 265.071 154.919 266.627C155.563 267.504 156.507 267.869 157.745 267.726C157.745 268.458 157.745 269.192 157.745 269.924C153.034 269.924 148.326 269.924 143.614 269.924C140.882 267.054 137.112 265.588 132.31 265.529C138.16 263.876 145.697 262.412 154.919 261.133Z" fill="#4B64C6"/>
<path id="Vector_151" fill-rule="evenodd" clip-rule="evenodd" d="M160.571 261.133C163.397 261.133 166.223 261.133 169.049 261.133C171.282 263.113 174.108 264.579 177.527 265.529C176.586 267.726 174.701 269.192 171.875 269.924C169.838 265.788 167.012 265.056 163.397 267.726C161.512 267.726 159.63 267.726 157.745 267.726C156.507 267.869 155.563 267.504 154.919 266.627C157.409 265.071 159.291 263.239 160.571 261.133Z" fill="#4363AB"/>
<path id="Vector_152" fill-rule="evenodd" clip-rule="evenodd" d="M313.18 265.529C313.18 263.331 313.18 261.133 313.18 258.936C315.065 258.936 316.947 258.936 318.832 258.936C320.197 267.895 315.486 273.022 304.701 274.319C304.701 268.458 304.701 262.599 304.701 256.738C306.974 258.687 308.859 262.349 310.354 267.726C312.069 267.454 313.01 266.722 313.18 265.529Z" fill="#2C529F"/>
<path id="Vector_153" fill-rule="evenodd" clip-rule="evenodd" d="M75.7883 265.529C75.7883 264.797 75.7883 264.063 75.7883 263.331C82.4381 265.177 88.0903 268.109 92.7449 272.121C92.7449 272.853 92.7449 273.587 92.7449 274.319C91.8038 274.319 90.8599 274.319 89.9188 274.319C85.0296 273.163 81.2596 270.966 78.6144 267.726C78.6144 266.26 77.6733 265.529 75.7883 265.529Z" fill="#4261C0"/>
<path id="Vector_154" fill-rule="evenodd" clip-rule="evenodd" d="M171.875 269.924C169.99 271.39 168.108 272.853 166.223 274.319C160.348 275.354 154.696 276.818 149.267 278.714C145.256 276.624 140.548 275.892 135.136 276.517C135.136 275.051 136.077 274.319 137.962 274.319C138.903 274.319 139.847 274.319 140.788 274.319C144.437 274.84 147.263 274.108 149.267 272.121C152.915 272.642 155.741 271.91 157.745 269.924C160.548 270.302 162.431 269.568 163.397 267.726C167.012 265.056 169.838 265.788 171.875 269.924Z" fill="#4763C3"/>
<path id="Vector_155" fill-rule="evenodd" clip-rule="evenodd" d="M72.9623 265.529C73.9034 265.529 74.8473 265.529 75.7884 265.529C77.6734 265.529 78.6144 266.26 78.6144 267.726C81.2597 270.965 85.0297 273.163 89.9188 274.319C86.6405 278.062 88.5255 279.525 95.571 278.714C95.571 280.912 95.571 283.109 95.571 285.307C85.5271 282.518 77.0488 278.123 70.1362 272.121C69.9186 269.374 68.0336 267.544 64.484 266.627C67.1631 265.566 69.9892 265.201 72.9623 265.529Z" fill="#194693"/>
<path id="Vector_156" fill-rule="evenodd" clip-rule="evenodd" d="M132.31 265.529C137.112 265.588 140.882 267.054 143.614 269.924C144.581 271.765 146.463 272.499 149.267 272.121C147.263 274.108 144.437 274.84 140.788 274.319C139.847 271.39 138.903 271.39 137.962 274.319C136.077 274.319 135.136 275.051 135.136 276.517C133.588 272.891 132.646 269.227 132.31 265.529Z" fill="#4B64E9"/>
<path id="Vector_157" fill-rule="evenodd" clip-rule="evenodd" d="M92.7448 272.121C101.014 274.233 109.492 275.697 118.18 276.517C122.699 275.928 126.466 276.662 129.484 278.714C123.648 278.752 117.996 279.483 112.527 280.912C104.781 280.457 98.1879 278.259 92.7448 274.319C92.7448 273.587 92.7448 272.853 92.7448 272.121Z" fill="#385CAF"/>
<path id="Vector_158" fill-rule="evenodd" clip-rule="evenodd" d="M129.484 278.714C134.195 278.714 138.903 278.714 143.614 278.714C138.903 280.18 134.195 281.644 129.484 283.109C124.773 283.109 120.065 283.109 115.354 283.109C113.469 283.109 112.528 282.378 112.528 280.912C117.996 279.483 123.648 278.752 129.484 278.714Z" fill="#255697"/>
<path id="Vector_159" fill-rule="evenodd" clip-rule="evenodd" d="M166.223 274.319C169.99 274.319 171.875 275.785 171.875 278.714C165.127 282.804 157.592 285.733 149.267 287.505C146.709 284.863 146.709 281.932 149.267 278.714C154.696 276.818 160.348 275.354 166.223 274.319Z" fill="#18438F"/>
<path id="Vector_160" fill-rule="evenodd" clip-rule="evenodd" d="M89.9188 274.319C90.8599 274.319 91.8038 274.319 92.7449 274.319C98.188 278.259 104.781 280.457 112.528 280.912C112.528 282.378 113.469 283.11 115.354 283.11C113.121 285.09 110.295 286.555 106.875 287.505C102.752 287.652 98.9849 286.92 95.571 285.307C95.571 283.11 95.571 280.912 95.571 278.714C88.5256 279.525 86.6406 278.062 89.9188 274.319Z" fill="#13448B"/>
<path id="Vector_161" fill-rule="evenodd" clip-rule="evenodd" d="M143.614 278.714C145.499 278.714 147.382 278.714 149.267 278.714C146.709 281.932 146.709 284.863 149.267 287.505C148.326 287.505 147.382 287.505 146.441 287.505C140.229 286.681 134.577 285.215 129.484 283.109C134.195 281.644 138.903 280.18 143.614 278.714Z" fill="#0D4586"/>
<path id="Vector_162" fill-rule="evenodd" clip-rule="evenodd" d="M115.354 283.11C120.065 283.11 124.773 283.11 129.484 283.11C134.577 285.215 140.229 286.681 146.44 287.505C133.251 290.434 120.065 290.434 106.875 287.505C110.295 286.555 113.121 285.09 115.354 283.11Z" fill="#204999"/>
<path id="Vector_163" fill-rule="evenodd" clip-rule="evenodd" d="M87.608 6.59288C87.608 5.86108 87.608 5.12707 87.608 4.39526C92.3191 4.39526 97.0273 4.39526 101.738 4.39526C106.936 7.14668 112.116 7.14668 117.282 4.39526C119.308 5.59077 120.721 7.05658 121.521 8.7905C119.986 8.92236 119.045 9.65417 118.695 10.9881C122.798 14.1527 125.624 17.8139 127.173 21.9762C127.173 23.442 126.232 24.1738 124.347 24.1738C124.347 22.708 123.406 21.9762 121.521 21.9762C121.521 21.2444 121.521 20.5104 121.521 19.7786C120.58 17.581 118.695 16.1152 115.869 15.3834C115.869 13.9175 114.928 13.1857 113.043 13.1857C113.043 11.7199 112.102 10.9881 110.217 10.9881C110.4 10.0256 109.931 9.29156 108.804 8.7905C104.618 10.9244 102.261 13.8538 101.738 17.581C101.738 18.3128 101.738 19.0468 101.738 19.7786C98.9123 19.0468 97.0273 17.581 96.0862 15.3834C94.9388 12.2737 96.8238 9.7113 101.738 7.69169C97.1206 6.60607 92.4095 6.24126 87.608 6.59288Z" fill="#184A8E"/>
<path id="Vector_164" fill-rule="evenodd" clip-rule="evenodd" d="M141.304 2.19766C141.304 2.92947 141.304 3.66347 141.304 4.39528C136.118 5.7622 132.82 8.69382 131.412 13.1858C128.524 11.309 126.17 9.11137 124.347 6.5929C128.374 4.43264 134.027 2.96683 141.304 2.19766Z" fill="#1E5192"/>
<path id="Vector_165" fill-rule="evenodd" clip-rule="evenodd" d="M87.608 6.59287C92.4095 6.24125 97.1206 6.60605 101.738 7.69168C96.8239 9.71129 94.9389 12.2737 96.0863 15.3833C95.1452 15.3833 94.2013 15.3833 93.2602 15.3833C93.2602 14.6515 93.2602 13.9175 93.2602 13.1857C88.8798 13.2033 84.1687 12.4715 79.1298 10.9881C81.9558 9.52229 84.7819 8.05868 87.608 6.59287Z" fill="#093B80"/>
<path id="Vector_166" fill-rule="evenodd" clip-rule="evenodd" d="M152.608 0C153.549 0 154.493 0 155.434 0C158.989 4.80619 161.815 9.93324 163.912 15.3833C162.027 16.8491 160.145 18.3128 158.26 19.7786C158.26 18.3128 157.319 17.581 155.434 17.581C152.608 16.8491 150.723 15.3833 149.782 13.1857C147.897 10.2563 145.071 8.05867 141.304 6.59286C141.304 5.86105 141.304 5.12705 141.304 4.39524C141.304 3.66343 141.304 2.92943 141.304 2.19762C144.079 3.60629 146.905 5.06991 149.782 6.59286C152.286 4.77982 153.227 2.5822 152.608 0Z" fill="#3353AE"/>
<path id="Vector_167" fill-rule="evenodd" clip-rule="evenodd" d="M87.608 6.59286C84.7819 8.05868 81.9558 9.52229 79.1297 10.9881C76.5749 12.5462 75.6339 14.7438 76.3036 17.581C72.7541 17.6667 69.928 16.5679 67.8254 14.2845C70.9284 12.5924 70.9284 10.7617 67.8254 8.79048C74.3423 7.70706 80.9356 6.97525 87.608 6.59286Z" fill="#1B4991"/>
<path id="Vector_168" fill-rule="evenodd" clip-rule="evenodd" d="M79.1298 10.9881C84.1687 12.4715 88.8798 13.2033 93.2602 13.1857C89.493 13.9176 89.493 14.6516 93.2602 15.3834C93.2913 18.7172 95.1735 21.2818 98.9124 23.075C98.268 23.9519 97.3241 24.3167 96.0863 24.1738C95.1452 24.1738 94.2013 24.1738 93.2602 24.1738C93.2602 22.708 92.3191 21.9762 90.4341 21.9762C90.4341 20.5104 89.493 19.7786 87.608 19.7786C87.608 18.3128 86.667 17.581 84.782 17.581C83.8409 14.6516 82.897 14.6516 81.9559 17.581C80.0709 17.581 78.1887 17.581 76.3037 17.581C75.6339 14.7439 76.575 12.5462 79.1298 10.9881Z" fill="#314D9E"/>
<path id="Vector_169" fill-rule="evenodd" clip-rule="evenodd" d="M42.3906 6.59286C43.3571 8.43447 45.2393 9.16847 48.0428 8.79048C33.0617 12.6825 17.9902 17.0777 2.82538 21.9762C-0.941793 20.5104 -0.941793 19.0468 2.82538 17.581C15.2545 12.1616 28.441 8.5004 42.3906 6.59286Z" fill="#3E61BA"/>
<path id="Vector_170" fill-rule="evenodd" clip-rule="evenodd" d="M67.8254 8.7905C70.9285 10.7618 70.9285 12.5924 67.8254 14.2845C69.928 16.5679 72.7541 17.6667 76.3037 17.581C78.1887 17.581 80.0709 17.581 81.9559 17.581C82.897 17.581 83.8409 17.581 84.782 17.581C86.667 17.581 87.608 18.3128 87.608 19.7786C89.493 19.7786 90.4341 20.5104 90.4341 21.9762C92.3191 21.9762 93.2602 22.708 93.2602 24.1738C93.0539 27.5296 94.9389 29.7272 98.9124 30.7667C98.9124 31.4985 98.9124 32.2325 98.9124 32.9643C99.3985 35.1443 98.4546 36.608 96.0863 37.3595C96.0863 35.8937 95.1452 35.1619 93.2602 35.1619C92.0393 32.5028 90.1544 30.3052 87.608 28.5691C87.608 27.1033 86.667 26.3714 84.782 26.3714C84.782 24.9056 83.8409 24.1738 81.9559 24.1738C73.9665 22.8377 66.4322 20.6401 59.3472 17.581C62.0687 15.6844 62.0687 14.2186 59.3472 13.1857C54.9074 14.9636 50.1963 15.6976 45.2167 15.3834C52.1011 12.3704 59.6383 10.1728 67.8254 8.7905Z" fill="#2A4DA1"/>
<path id="Vector_171" fill-rule="evenodd" clip-rule="evenodd" d="M121.521 8.7905C124.347 12.4539 128.114 15.3834 132.825 17.581C132.619 20.9367 134.504 23.1344 138.478 24.1738C138.478 24.9056 138.478 25.6396 138.478 26.3715C136.734 26.6154 135.321 27.3472 134.238 28.5691C133.173 25.4001 130.819 23.2025 127.173 21.9762C125.625 17.8139 122.798 14.1527 118.695 10.9881C119.045 9.65416 119.987 8.92235 121.521 8.7905Z" fill="#3E61A9"/>
<path id="Vector_172" fill-rule="evenodd" clip-rule="evenodd" d="M110.217 10.9881C112.102 10.9881 113.043 11.7199 113.043 13.1857C114.928 13.1857 115.869 13.9175 115.869 15.3834C118.695 16.1152 120.58 17.581 121.521 19.7786C117.754 20.5104 117.754 21.2444 121.521 21.9762C121.521 22.708 121.521 23.442 121.521 24.1738C121.521 25.6396 122.462 26.3714 124.347 26.3714C124.347 27.1033 124.347 27.8373 124.347 28.5691C122.462 29.3009 120.58 30.0349 118.695 30.7667C112.023 27.0439 106.37 22.6487 101.738 17.581C102.261 13.8538 104.618 10.9244 108.804 8.7905C109.931 9.29155 110.4 10.0256 110.217 10.9881Z" fill="#3556A6"/>
<path id="Vector_173" fill-rule="evenodd" clip-rule="evenodd" d="M141.304 6.59286C145.071 8.05868 147.897 10.2563 149.782 13.1857C145.252 12.7726 141.482 13.8714 138.478 16.4822C140.363 17.214 142.245 17.948 144.13 18.6798C140.363 20.1456 140.363 21.6092 144.13 23.075C142.451 24.0947 140.566 24.4617 138.478 24.1738C134.504 23.1343 132.619 20.9367 132.825 17.581C134.939 13.5549 137.765 9.89149 141.304 6.59286Z" fill="#154A8A"/>
<path id="Vector_174" fill-rule="evenodd" clip-rule="evenodd" d="M163.912 15.3834C166.716 15.0054 168.598 15.7394 169.565 17.581C167.335 18.2029 165.45 19.3017 163.912 20.8774C168.595 23.1388 172.362 26.4352 175.217 30.7667C174.276 30.7667 173.332 30.7667 172.391 30.7667C170.506 30.7667 168.623 30.7667 166.738 30.7667C165.797 30.7667 164.853 30.7667 163.912 30.7667C164.398 28.5867 163.455 27.1231 161.086 26.3715C160.145 26.3715 159.201 26.3715 158.26 26.3715C158.26 25.6397 158.26 24.9057 158.26 24.1738C162.027 23.442 162.027 22.708 158.26 21.9762C156.375 21.9762 155.434 21.2444 155.434 19.7786C156.375 19.7786 157.319 19.7786 158.26 19.7786C160.145 18.3128 162.027 16.8492 163.912 15.3834Z" fill="#3150B4"/>
<path id="Vector_175" fill-rule="evenodd" clip-rule="evenodd" d="M59.3471 17.581C53.5141 17.9919 47.8619 19.0907 42.3906 20.8774C43.2356 23.2354 43.2356 25.8001 42.3906 28.5691C34.9382 26.0858 27.4039 26.0858 19.7819 28.5691C18.8408 27.1033 17.8969 25.6396 16.9558 24.1738C24.8039 18.5985 34.2232 15.669 45.2167 15.3833C50.1962 15.6976 54.9073 14.9636 59.3471 13.1857C62.0686 14.2186 62.0686 15.6844 59.3471 17.581Z" fill="#1A4592"/>
<path id="Vector_176" fill-rule="evenodd" clip-rule="evenodd" d="M59.3471 17.581C66.4321 20.6401 73.9665 22.8377 81.9558 24.1739C83.8408 24.1739 84.7819 24.9057 84.7819 26.3715C86.6669 26.3715 87.608 27.1033 87.608 28.5691C87.608 30.7667 87.608 32.9643 87.608 35.1619C83.5893 32.0303 78.8782 29.8327 73.4776 28.5691C66.2089 25.9144 59.6128 26.6462 53.695 30.7667C49.9278 30.0349 46.1578 29.3009 42.3906 28.5691C43.2356 25.8001 43.2356 23.2355 42.3906 20.8774C47.8619 19.0908 53.5141 17.9919 59.3471 17.581Z" fill="#254E9A"/>
<path id="Vector_177" fill-rule="evenodd" clip-rule="evenodd" d="M169.565 17.581C175.686 21.8707 179.453 27.3648 180.869 34.0631C180.476 36.9222 178.594 38.7529 175.217 39.5572C173.332 39.5572 171.45 39.5572 169.565 39.5572C168.623 36.6278 167.68 33.6961 166.738 30.7667C168.623 30.7667 170.506 30.7667 172.391 30.7667C173.332 36.6278 174.276 36.6278 175.217 30.7667C172.362 26.4352 168.595 23.1388 163.912 20.8774C165.45 19.3017 167.335 18.2029 169.565 17.581Z" fill="#3558A9"/>
<path id="Vector_178" fill-rule="evenodd" clip-rule="evenodd" d="M149.782 13.1857C150.723 15.3834 152.608 16.8492 155.434 17.581C155.434 18.3128 155.434 19.0468 155.434 19.7786C149.935 20.9543 147.108 23.8838 146.956 28.5691C146.956 29.3009 146.956 30.0349 146.956 30.7667C145.071 30.7667 144.13 31.4985 144.13 32.9643C141.583 31.2282 139.698 29.0306 138.478 26.3715C138.478 25.6397 138.478 24.9056 138.478 24.1738C140.566 24.4617 142.451 24.0947 144.13 23.075C140.363 21.6092 140.363 20.1456 144.13 18.6798C142.245 17.948 140.363 17.214 138.478 16.4822C141.482 13.8714 145.252 12.7726 149.782 13.1857Z" fill="#053F85"/>
<path id="Vector_179" fill-rule="evenodd" clip-rule="evenodd" d="M155.434 19.7786C155.434 21.2444 156.375 21.9762 158.26 21.9762C158.26 22.708 158.26 23.442 158.26 24.1738C158.26 24.9056 158.26 25.6396 158.26 26.3714C155.708 31.0304 151.938 31.7644 146.956 28.569C147.108 23.8837 149.935 20.9543 155.434 19.7786Z" fill="#073F8B"/>
<path id="Vector_180" fill-rule="evenodd" clip-rule="evenodd" d="M73.4776 28.5691C73.4776 29.3009 73.4776 30.0349 73.4776 30.7667C72.5365 30.7667 71.5926 30.7667 70.6515 30.7667C68.1052 32.5028 66.2202 34.7004 64.9994 37.3596C61.122 35.1356 57.3548 32.9379 53.695 30.7667C59.6128 26.6462 66.2089 25.9144 73.4776 28.5691Z" fill="#294B9F"/>
<path id="Vector_181" fill-rule="evenodd" clip-rule="evenodd" d="M158.26 26.3715C159.201 26.3715 160.145 26.3715 161.086 26.3715C161.086 27.8373 161.086 29.3009 161.086 30.7667C158.531 32.3248 157.59 34.5224 158.26 37.3596C151.271 38.265 147.504 36.0674 146.956 30.7667C146.956 30.0349 146.956 29.3009 146.956 28.5691C151.938 31.7644 155.708 31.0304 158.26 26.3715Z" fill="#0C4589"/>
<path id="Vector_182" fill-rule="evenodd" clip-rule="evenodd" d="M70.6515 30.7667C71.5926 30.7667 72.5365 30.7667 73.4776 30.7667C78.4571 32.4412 81.2832 35.3729 81.9558 39.5571C77.2448 37.3595 73.4776 34.4301 70.6515 30.7667Z" fill="#4B64E0"/>
</g>
</svg>
