<svg width="266" height="422" viewBox="0 0 266 422" fill="none" xmlns="http://www.w3.org/2000/svg">
<g id="tentaculo 5">
<path id="Vector" fill-rule="evenodd" clip-rule="evenodd" d="M197.865 30.7667C195.98 30.0342 194.098 29.3015 192.213 28.569C190.328 27.1039 188.446 25.639 186.561 24.1738C187.047 21.9947 186.103 20.5295 183.735 19.7786C183.735 18.3134 182.794 17.581 180.909 17.581C177.41 12.226 172.699 10.0284 166.778 10.9881C163.952 10.9881 161.126 10.9881 158.3 10.9881C153.312 8.87531 147.66 8.14284 141.343 8.79048C138.54 8.41337 136.658 9.14605 135.691 10.9881C133.806 10.9881 131.924 10.9881 130.039 10.9881C128.154 10.9881 127.213 10.2556 127.213 8.79048C137.556 6.53726 147.448 3.60717 156.887 0C176.09 5.60261 189.749 15.858 197.865 30.7667Z" fill="#385BAC"/>
<path id="Vector_2" fill-rule="evenodd" clip-rule="evenodd" d="M127.213 8.79047C127.213 10.2556 128.154 10.9881 130.039 10.9881C130.039 12.4532 130.98 13.1857 132.865 13.1857C131.899 15.0277 130.016 15.7604 127.213 15.3833C122.313 17.7172 117.601 17.7172 113.083 15.3833C117.036 12.3293 121.747 10.1317 127.213 8.79047Z" fill="#4A64C4"/>
<path id="Vector_3" fill-rule="evenodd" clip-rule="evenodd" d="M135.691 10.9881C136.658 9.14605 138.54 8.41336 141.343 8.79048C146.332 10.9033 151.984 11.6357 158.3 10.9881C160.304 12.9747 163.13 13.7072 166.778 13.1857C166.778 13.9182 166.778 14.6509 166.778 15.3833C164.69 15.0954 162.805 15.4618 161.126 16.4821C163.251 17.9563 164.195 19.7876 163.952 21.9762C162.067 21.2437 160.185 20.511 158.3 19.7786C153.959 14.0819 147.366 11.8843 138.517 13.1857C138.517 11.7206 137.576 10.9881 135.691 10.9881Z" fill="#4B64CA"/>
<path id="Vector_4" fill-rule="evenodd" clip-rule="evenodd" d="M180.909 17.581C180.909 18.3134 180.909 19.0461 180.909 19.7786C181.666 23.2926 180.722 26.2229 178.083 28.5691C178.569 26.3899 177.625 24.9247 175.256 24.1738C175.743 21.9947 174.799 20.5295 172.43 19.7786C172.916 17.5994 171.973 16.1343 169.604 15.3833C169.604 13.9182 168.663 13.1857 166.778 13.1857C166.778 12.4533 166.778 11.7206 166.778 10.9881C172.699 10.0284 177.41 12.226 180.909 17.581Z" fill="#214697"/>
<path id="Vector_5" fill-rule="evenodd" clip-rule="evenodd" d="M113.083 15.3833C117.601 17.7172 122.313 17.7172 127.213 15.3833C129.437 18.9088 133.204 20.3739 138.517 19.7786C133.673 22.5001 128.021 23.965 121.561 24.1738C118.842 18.7114 116.488 18.7114 114.496 24.1738C113.111 21.3318 112.639 18.4015 113.083 15.3833Z" fill="#1D4A9A"/>
<path id="Vector_6" fill-rule="evenodd" clip-rule="evenodd" d="M132.865 13.1857C134.75 13.1857 136.632 13.1857 138.517 13.1857C147.366 11.8843 153.959 14.0819 158.3 19.7786C153.589 19.7786 148.881 19.7786 144.17 19.7786C142.285 19.7786 140.402 19.7786 138.517 19.7786C133.204 20.3739 129.437 18.9087 127.213 15.3833C130.016 15.7604 131.899 15.0277 132.865 13.1857Z" fill="#073F87"/>
<path id="Vector_7" fill-rule="evenodd" clip-rule="evenodd" d="M166.778 15.3833C167.719 15.3833 168.663 15.3833 169.604 15.3833C169.118 17.5625 170.062 19.0276 172.43 19.7786C171.944 21.9577 172.888 23.4229 175.256 24.1738C175.256 24.9063 175.256 25.6389 175.256 26.3714C173.371 27.1039 171.489 27.8366 169.604 28.569C168.807 25.7611 166.922 23.5635 163.952 21.9762C164.195 19.7876 163.251 17.9563 161.126 16.4821C162.805 15.4618 164.69 15.0954 166.778 15.3833Z" fill="#23489B"/>
<path id="Vector_8" fill-rule="evenodd" clip-rule="evenodd" d="M144.169 19.7786C148.881 19.7786 153.589 19.7786 158.3 19.7786C160.185 20.511 162.067 21.2437 163.952 21.9762C166.922 23.5635 168.807 25.7611 169.604 28.569C168.663 28.569 167.719 28.569 166.778 28.569C163.952 28.569 161.126 28.569 158.3 28.569C155.118 24.094 150.407 21.1637 144.169 19.7786Z" fill="#1E4A9B"/>
<path id="Vector_9" fill-rule="evenodd" clip-rule="evenodd" d="M113.083 15.3833C112.639 18.4015 113.111 21.3318 114.496 24.1738C116.488 18.7114 118.842 18.7114 121.561 24.1738C117.35 28.0851 111.698 29.5503 104.604 28.569C103.262 22.388 106.088 17.9928 113.083 15.3833Z" fill="#1D4697"/>
<path id="Vector_10" fill-rule="evenodd" clip-rule="evenodd" d="M180.909 19.7786C181.85 19.7786 182.794 19.7786 183.735 19.7786C186.103 20.5295 187.047 21.9946 186.561 24.1738C183.141 27.8579 184.554 30.788 190.8 32.9643C192.111 31.658 192.583 30.1929 192.213 28.569C194.098 29.3015 195.98 30.0342 197.865 30.7667C197.552 32.1235 196.61 33.2223 195.039 34.0631C205.227 39.4288 206.168 45.6553 197.865 52.7428C193.838 49.3781 191.956 50.1108 192.213 54.9405C192.213 55.6729 192.213 56.4056 192.213 57.1381C191.272 57.1381 190.328 57.1381 189.387 57.1381C189.387 54.208 189.387 51.2777 189.387 48.3476C192.456 48.0839 194.341 46.6187 195.039 43.9524C194.918 41.9385 193.977 40.4733 192.213 39.5571C192.397 38.5941 191.928 37.8615 190.8 37.3595C190.144 40.0791 188.731 42.2767 186.561 43.9524C187.005 40.9342 186.533 38.0039 185.148 35.1619C182.296 38.513 180.883 42.1758 180.909 46.15C180.909 47.6151 180.909 49.0801 180.909 50.5452C179.968 50.5452 179.024 50.5452 178.083 50.5452C176.198 49.8128 174.315 49.0801 172.43 48.3476C174.592 42.6424 175.536 36.782 175.257 30.7667C177.142 30.7667 178.083 30.0342 178.083 28.569C180.722 26.2229 181.666 23.2926 180.909 19.7786ZM186.561 43.9524C185.594 45.7944 183.712 46.5271 180.909 46.15C180.883 42.1758 182.296 38.513 185.148 35.1619C186.533 38.0039 187.005 40.9342 186.561 43.9524ZM192.213 39.5571C193.977 40.4733 194.918 41.9385 195.039 43.9524C194.341 46.6187 192.456 48.0839 189.387 48.3476C191.461 45.6931 192.402 42.7628 192.213 39.5571Z" fill="#4461BE"/>
<path id="Vector_11" fill-rule="evenodd" clip-rule="evenodd" d="M158.3 28.569C161.126 28.569 163.952 28.569 166.778 28.569C165.837 32.9643 164.893 37.3595 163.952 41.7547C163.011 41.7547 162.067 41.7547 161.126 41.7547C159.241 41.0223 157.359 40.2896 155.474 39.5571C156.994 36.0031 157.935 32.3404 158.3 28.569Z" fill="#3959AF"/>
<path id="Vector_12" fill-rule="evenodd" clip-rule="evenodd" d="M175.256 26.3714C175.256 27.8366 175.256 29.3015 175.256 30.7667C175.536 36.782 174.592 42.6424 172.43 48.3476C170.198 45.9116 168.785 42.9813 168.191 39.5571C167.25 41.7548 166.306 43.9524 165.365 46.15C164.054 44.8437 163.582 43.3786 163.952 41.7548C164.893 37.3595 165.837 32.9643 166.778 28.569C167.719 28.569 168.663 28.569 169.604 28.569C171.489 27.8366 173.371 27.1039 175.256 26.3714Z" fill="#0A3E87"/>
<path id="Vector_13" fill-rule="evenodd" clip-rule="evenodd" d="M155.474 39.5571C157.359 40.2896 159.241 41.0223 161.126 41.7547C161.612 43.9339 160.668 45.3991 158.3 46.15C154.533 46.8825 154.533 47.6151 158.3 48.3476C158.3 49.0801 158.3 49.8128 158.3 50.5452C156.415 51.2777 154.533 52.0104 152.648 52.7428C150.763 51.2777 148.881 49.8128 146.996 48.3476C149.856 45.3331 152.682 42.403 155.474 39.5571Z" fill="#3451B2"/>
<path id="Vector_14" fill-rule="evenodd" clip-rule="evenodd" d="M192.213 39.5571C192.402 42.7628 191.461 45.6931 189.387 48.3476C189.387 51.2777 189.387 54.208 189.387 57.1381C187.502 54.9405 185.62 52.7429 183.735 50.5452C182.794 50.5452 181.85 50.5452 180.909 50.5452C180.909 49.0801 180.909 47.6152 180.909 46.15C183.712 46.5271 185.594 45.7944 186.561 43.9524C188.731 42.2767 190.144 40.0791 190.8 37.3595C191.928 37.8615 192.397 38.5942 192.213 39.5571Z" fill="#2A549A"/>
<path id="Vector_15" fill-rule="evenodd" clip-rule="evenodd" d="M172.43 48.3476C172.707 52.8591 170.822 56.5219 166.778 59.3357C164.95 55.7305 162.124 52.8002 158.3 50.5452C158.3 49.8128 158.3 49.0801 158.3 48.3476C158.3 47.6151 158.3 46.8825 158.3 46.15C160.668 45.3991 161.612 43.9339 161.126 41.7547C162.067 41.7547 163.011 41.7547 163.952 41.7547C163.582 43.3786 164.054 44.8437 165.365 46.15C166.306 43.9524 167.25 41.7547 168.191 39.5571C168.785 42.9812 170.198 45.9115 172.43 48.3476Z" fill="#15458A"/>
<path id="Vector_16" fill-rule="evenodd" clip-rule="evenodd" d="M158.3 50.5452C162.124 52.8002 164.95 55.7305 166.778 59.3357C165.054 61.2938 164.113 63.4914 163.952 65.9286C159.241 68.8586 154.533 71.789 149.822 74.719C146.269 70.6139 147.21 66.9511 152.648 63.7309C150.689 61.4942 148.807 59.2966 146.996 57.1381C149.822 56.4056 151.707 54.9405 152.648 52.7428C154.533 52.0104 156.415 51.2777 158.3 50.5452Z" fill="#10428B"/>
<path id="Vector_17" fill-rule="evenodd" clip-rule="evenodd" d="M146.996 48.3476C148.881 49.8128 150.763 51.2777 152.648 52.7429C151.707 54.9405 149.822 56.4056 146.996 57.1381C145.111 58.6033 143.228 60.0682 141.343 61.5333C138.526 58.8687 135.7 59.2351 132.865 62.6322C138.854 63.3833 139.798 65.2146 135.691 68.1262C133.806 68.1262 132.865 68.8587 132.865 70.3238C130.98 70.3238 130.039 71.0563 130.039 72.5214C128.154 72.5214 127.213 73.2539 127.213 74.7191C124.41 74.3419 122.527 75.0746 121.561 76.9167C119.676 76.9167 118.735 77.6491 118.735 79.1143C116.85 79.1143 115.909 79.8468 115.909 81.3119C114.024 81.3119 112.142 81.3119 110.257 81.3119C109.315 81.3119 108.372 81.3119 107.43 81.3119C107.43 80.5794 107.43 79.8468 107.43 79.1143C109.315 79.1143 110.257 78.3818 110.257 76.9167C112.142 76.9167 113.083 76.1842 113.083 74.7191C114.968 74.7191 115.909 73.9866 115.909 72.5214C115.909 71.0563 116.85 70.3238 118.735 70.3238C119.676 73.2539 120.62 73.2539 121.561 70.3238C123.446 70.3238 124.387 69.5914 124.387 68.1262C125.568 66.5404 127.45 65.4416 130.039 64.8298C128.36 63.8094 126.475 63.4431 124.387 63.731C131.924 58.6033 139.458 53.4753 146.996 48.3476Z" fill="#2E50A5"/>
<path id="Vector_18" fill-rule="evenodd" clip-rule="evenodd" d="M172.43 48.3476C174.315 49.0801 176.198 49.8128 178.083 50.5452C177.141 53.4753 176.198 56.4056 175.256 59.3357C173.176 63.1363 169.406 65.3339 163.952 65.9286C164.113 63.4914 165.054 61.2938 166.778 59.3357C170.822 56.5219 172.707 52.8591 172.43 48.3476Z" fill="#4B64DC"/>
<path id="Vector_19" fill-rule="evenodd" clip-rule="evenodd" d="M183.735 50.5452C185.62 52.7428 187.502 54.9405 189.387 57.1381C186.973 60.5114 186.973 63.4417 189.387 65.9286C189.387 68.1262 189.387 70.3238 189.387 72.5214C187.502 71.0563 185.62 69.5913 183.735 68.1262C182.234 60.947 179.408 60.2145 175.256 65.9286C175.256 63.7309 175.256 61.5333 175.256 59.3357C177.791 56.9225 180.146 56.9225 182.322 59.3357C183.706 56.4937 184.178 53.5634 183.735 50.5452Z" fill="#3C5CB7"/>
<path id="Vector_20" fill-rule="evenodd" clip-rule="evenodd" d="M141.343 61.5333C142.525 63.1191 144.407 64.2179 146.996 64.8298C145.492 70.2429 141.722 74.2718 135.691 76.9167C134.75 73.9866 133.806 73.9866 132.865 76.9167C130.98 76.9167 130.039 77.6491 130.039 79.1143C129.098 79.1143 128.154 79.1143 127.213 79.1143C125.328 79.1143 124.387 78.3818 124.387 76.9167C126.272 76.9167 127.213 76.1842 127.213 74.719C129.098 74.719 130.039 73.9866 130.039 72.5214C131.924 72.5214 132.865 71.789 132.865 70.3238C134.75 70.3238 135.691 69.5913 135.691 68.1262C139.798 65.2146 138.854 63.3833 132.865 62.6321C135.7 59.2351 138.526 58.8687 141.343 61.5333Z" fill="#3B57B5"/>
<path id="Vector_21" fill-rule="evenodd" clip-rule="evenodd" d="M197.865 52.7429C199.86 58.6114 197.978 64.1054 192.213 69.225C195.861 72.0637 195.861 74.6274 192.213 76.9167C190.328 76.9167 189.387 76.1842 189.387 74.719C189.387 73.9866 189.387 73.2539 189.387 72.5214C189.387 70.3238 189.387 68.1262 189.387 65.9286C191.461 63.2741 192.402 60.3438 192.213 57.1381C195.98 56.4056 195.98 55.6729 192.213 54.9405C191.956 50.1108 193.838 49.3781 197.865 52.7429Z" fill="#3B5DB0"/>
<path id="Vector_22" fill-rule="evenodd" clip-rule="evenodd" d="M183.735 68.1262C182.794 73.2539 179.024 76.1842 172.43 76.9167C172.43 75.4515 172.43 73.9866 172.43 72.5214C172.592 70.0843 173.533 67.8867 175.257 65.9286C179.408 60.2145 182.234 60.947 183.735 68.1262Z" fill="#3D5DB0"/>
<path id="Vector_23" fill-rule="evenodd" clip-rule="evenodd" d="M146.996 57.1381C148.807 59.2966 150.689 61.4942 152.648 63.7309C147.21 66.9511 146.269 70.6139 149.822 74.719C149.822 75.4515 149.822 76.1842 149.822 76.9167C147.937 76.9167 146.996 77.6491 146.996 79.1143C139.458 82.0444 131.924 84.9747 124.387 87.9048C124.548 85.4676 125.489 83.27 127.213 81.3119C129.098 81.3119 130.039 80.5794 130.039 79.1143C131.924 79.1143 132.865 78.3818 132.865 76.9167C133.806 76.9167 134.75 76.9167 135.691 76.9167C141.722 74.2718 145.492 70.2429 146.996 64.8298C144.407 64.2179 142.525 63.1191 141.343 61.5333C143.228 60.0682 145.111 58.6032 146.996 57.1381Z" fill="#244C93"/>
<path id="Vector_24" fill-rule="evenodd" clip-rule="evenodd" d="M124.387 63.7309C126.475 63.4431 128.36 63.8094 130.039 64.8297C127.45 65.4416 125.568 66.5404 124.387 68.1262C122.502 68.1262 121.561 68.8586 121.561 70.3238C120.62 70.3238 119.676 70.3238 118.735 70.3238C116.85 70.3238 115.909 71.0563 115.909 72.5214C114.024 72.5214 113.083 73.2539 113.083 74.719C111.198 74.719 110.257 75.4515 110.257 76.9167C108.372 76.9167 107.43 77.6491 107.43 79.1143C106.489 79.1143 105.545 79.1143 104.604 79.1143C102.236 78.3633 101.292 76.8982 101.778 74.719C108.442 69.9322 115.979 66.2694 124.387 63.7309Z" fill="#284A97"/>
<path id="Vector_25" fill-rule="evenodd" clip-rule="evenodd" d="M172.43 72.5214C172.43 73.9866 172.43 75.4515 172.43 76.9167C172.43 78.3818 172.43 79.8467 172.43 81.3119C170.39 83.6218 167.564 85.087 163.952 85.7071C162.211 84.164 162.211 81.9663 163.952 79.1143C167.601 76.9764 167.601 74.7788 163.952 72.5214C166.566 70.1867 169.392 70.1867 172.43 72.5214Z" fill="#365AAB"/>
<path id="Vector_26" fill-rule="evenodd" clip-rule="evenodd" d="M189.387 74.719C189.387 76.1842 190.328 76.9166 192.213 76.9166C183.735 82.0443 176.198 87.9047 169.604 94.4976C167.719 94.4976 166.778 93.7651 166.778 92.3C171.619 89.8048 173.504 86.1422 172.43 81.3119C179.346 81.0592 184.998 78.8615 189.387 74.719Z" fill="#375DB3"/>
<path id="Vector_27" fill-rule="evenodd" clip-rule="evenodd" d="M149.822 76.9167C156.033 76.7163 156.974 78.1814 152.648 81.3119C143.714 84.4174 135.236 88.0799 127.213 92.3C126.032 90.7142 124.149 89.6154 121.561 89.0036C122.205 88.1272 123.149 87.761 124.387 87.9048C131.924 84.9747 139.458 82.0444 146.996 79.1143C148.881 79.1143 149.822 78.3818 149.822 76.9167Z" fill="#4B64C2"/>
<path id="Vector_28" fill-rule="evenodd" clip-rule="evenodd" d="M101.778 74.719C101.292 76.8982 102.236 78.3633 104.604 79.1143C104.604 79.8467 104.604 80.5794 104.604 81.3119C102.719 81.3119 101.778 82.0443 101.778 83.5095C94.4614 85.53 88.8092 89.1925 84.8216 94.4976C82.9366 93.7651 81.0544 93.0324 79.1694 92.3C85.7627 85.7071 93.2999 79.8467 101.778 74.719Z" fill="#2D4BA0"/>
<path id="Vector_29" fill-rule="evenodd" clip-rule="evenodd" d="M121.561 76.9167C122.502 76.9167 123.446 76.9167 124.387 76.9167C124.387 78.3818 125.328 79.1143 127.213 79.1143C127.213 79.8467 127.213 80.5794 127.213 81.3119C125.489 83.27 124.548 85.4676 124.387 87.9048C123.149 87.761 122.205 88.1272 121.561 89.0036C124.15 89.6154 126.032 90.7142 127.213 92.3C127.213 93.7651 126.272 94.4976 124.387 94.4976C121.561 93.0325 118.735 91.5675 115.909 90.1024C115.909 89.3699 115.909 88.6372 115.909 87.9048C117.794 87.9048 118.735 87.1723 118.735 85.7071C120.62 85.7071 121.561 84.9747 121.561 83.5095C121.561 82.0444 120.62 81.3119 118.735 81.3119C118.735 80.5794 118.735 79.8467 118.735 79.1143C120.62 79.1143 121.561 78.3818 121.561 76.9167Z" fill="#4862CA"/>
<path id="Vector_30" fill-rule="evenodd" clip-rule="evenodd" d="M104.604 81.3119C105.545 81.3119 106.489 81.3119 107.43 81.3119C108.371 81.3119 109.315 81.3119 110.256 81.3119C108.371 83.5095 106.489 85.7072 104.604 87.9048C102.719 87.9048 101.778 88.6372 101.778 90.1024C99.8931 90.1024 98.9521 90.8349 98.9521 92.3C97.0671 92.3 96.126 93.0325 96.126 94.4976C94.241 94.4976 93.2999 95.2301 93.2999 96.6953C90.7677 98.9067 88.8855 98.9067 87.6477 96.6953C92.3588 92.3 97.0671 87.9048 101.778 83.5095C103.663 83.5095 104.604 82.7771 104.604 81.3119Z" fill="#3D62A8"/>
<path id="Vector_31" fill-rule="evenodd" clip-rule="evenodd" d="M163.952 79.1143C162.211 81.9664 162.211 84.164 163.952 85.7071C152.343 89.7286 153.284 91.9262 166.778 92.3C166.778 93.7652 167.719 94.4976 169.604 94.4976C165.747 99.6836 160.095 103.346 152.648 105.486C151.266 102.77 151.266 99.4737 152.648 95.5964C147.875 95.8916 143.163 96.9904 138.517 98.8929C138.517 98.1604 138.517 97.4277 138.517 96.6952C140.911 93.4729 144.678 91.6416 149.822 91.2012C148.53 90.2914 147.586 89.1926 146.996 87.9048C150.138 86.2231 152.023 84.0255 152.648 81.3119C154.688 82.2294 156.101 83.6946 156.887 85.7071C157.952 82.5375 160.306 80.3399 163.952 79.1143Z" fill="#405CBC"/>
<path id="Vector_32" fill-rule="evenodd" clip-rule="evenodd" d="M115.909 81.3119C116.85 81.3119 117.794 81.3119 118.735 81.3119C120.62 81.3119 121.561 82.0444 121.561 83.5095C119.676 83.5095 118.735 84.242 118.735 85.7072C116.85 85.7072 115.909 86.4396 115.909 87.9048C114.024 87.9048 113.082 88.6372 113.082 90.1024C110.714 90.8533 109.77 92.3185 110.256 94.4976C108.371 94.4976 107.43 95.2301 107.43 96.6953C106.489 96.6953 105.545 96.6953 104.604 96.6953C103.663 93.7652 102.719 93.7652 101.778 96.6953C99.8932 96.6953 98.9521 97.4277 98.9521 98.8929C98.011 98.8929 97.0671 98.8929 96.126 98.8929C96.126 98.1604 96.126 97.4277 96.126 96.6953C96.126 95.9628 96.126 95.2301 96.126 94.4976C98.011 94.4976 98.9521 93.7652 98.9521 92.3C100.837 92.3 101.778 91.5675 101.778 90.1024C103.663 90.1024 104.604 89.3699 104.604 87.9048C109.985 87.3826 113.755 85.185 115.909 81.3119Z" fill="#4763C0"/>
<path id="Vector_33" fill-rule="evenodd" clip-rule="evenodd" d="M113.083 90.1024C114.024 90.1024 114.968 90.1024 115.909 90.1024C118.735 91.5675 121.561 93.0325 124.387 94.4976C117.864 98.8285 111.268 103.224 104.604 107.683C105.545 104.753 106.489 101.823 107.43 98.8929C107.43 98.1604 107.43 97.4277 107.43 96.6952C109.315 96.6952 110.256 95.9628 110.256 94.4976C112.625 93.7467 113.569 92.2815 113.083 90.1024Z" fill="#4B64D1"/>
<path id="Vector_34" fill-rule="evenodd" clip-rule="evenodd" d="M79.1696 92.3C81.0546 93.0325 82.9367 93.7651 84.8217 94.4976C84.8217 95.2301 84.8217 95.9628 84.8217 96.6952C76.8946 101.733 70.3013 107.593 65.0391 114.276C63.1541 114.276 61.272 114.276 59.387 114.276C63.8748 105.683 70.4681 98.3577 79.1696 92.3Z" fill="#2C4DA7"/>
<path id="Vector_35" fill-rule="evenodd" clip-rule="evenodd" d="M138.517 96.6952C138.517 97.4277 138.517 98.1604 138.517 98.8929C131.876 100.234 132.817 100.967 141.343 101.09C141.343 102.556 141.343 104.021 141.343 105.486C140.402 107.683 138.517 109.148 135.691 109.881C136.361 107.044 135.42 104.846 132.865 103.288C130.98 103.288 130.039 102.556 130.039 101.09C129.618 98.7786 130.087 96.581 131.452 94.4976C133.348 96.1511 135.703 96.8838 138.517 96.6952Z" fill="#435ECB"/>
<path id="Vector_36" fill-rule="evenodd" clip-rule="evenodd" d="M101.778 96.6952C102.719 96.6952 103.663 96.6952 104.604 96.6952C104.604 97.4277 104.604 98.1604 104.604 98.8928C99.8452 107.808 92.308 112.935 81.9957 114.276C81.9957 112.811 81.9957 111.346 81.9957 109.881C81.5096 107.702 82.4535 106.237 84.8217 105.486C85.7628 105.486 86.7067 105.486 87.6478 105.486C88.5889 108.416 89.5328 108.416 90.4739 105.486C92.3589 105.486 93.3 104.753 93.3 103.288C95.185 103.288 96.1261 102.556 96.1261 101.09C98.0111 101.09 98.9522 100.358 98.9522 98.8928C100.837 98.8928 101.778 98.1604 101.778 96.6952Z" fill="#4B64DD"/>
<path id="Vector_37" fill-rule="evenodd" clip-rule="evenodd" d="M130.039 101.09C130.039 102.556 130.98 103.288 132.865 103.288C132.865 105.486 132.865 107.683 132.865 109.881C130.98 109.881 130.039 110.613 130.039 112.079C128.154 112.079 127.213 112.811 127.213 114.276C124.695 115.616 121.869 116.349 118.735 116.474C115.931 116.851 114.049 116.118 113.083 114.276C114.628 108.316 119.337 105.019 127.213 104.387C120.348 103.395 119.876 101.564 125.8 98.8929C126.882 100.115 128.295 100.847 130.039 101.09Z" fill="#375BA9"/>
<path id="Vector_38" fill-rule="evenodd" clip-rule="evenodd" d="M152.648 105.486C151.311 108.576 148.485 110.041 144.169 109.881C144.169 108.416 144.169 106.951 144.169 105.486C146.823 103.667 145.879 102.202 141.343 101.09C132.817 100.967 131.876 100.234 138.517 98.8928C143.163 96.9904 147.874 95.8915 152.648 95.5964C151.266 99.4737 151.266 102.77 152.648 105.486Z" fill="#3756AD"/>
<path id="Vector_39" fill-rule="evenodd" clip-rule="evenodd" d="M84.8216 96.6952C85.7627 96.6952 86.7066 96.6952 87.6477 96.6952C88.8856 98.9067 90.7677 98.9067 93.2999 96.6952C94.241 96.6952 95.1849 96.6952 96.126 96.6952C96.126 97.4277 96.126 98.1604 96.126 98.8928C96.126 99.6253 96.126 100.358 96.126 101.09C94.241 101.09 93.2999 101.823 93.2999 103.288C91.4149 103.288 90.4738 104.021 90.4738 105.486C89.5327 105.486 88.5888 105.486 87.6477 105.486C86.7066 102.556 85.7627 102.556 84.8216 105.486C82.4534 106.237 81.5095 107.702 81.9956 109.881C80.1106 109.881 79.1695 110.613 79.1695 112.079C77.2845 112.079 76.3434 111.346 76.3434 109.881C79.2514 105.449 82.0775 101.054 84.8216 96.6952Z" fill="#4B64CC"/>
<path id="Vector_40" fill-rule="evenodd" clip-rule="evenodd" d="M104.604 98.8929C105.545 98.8929 106.489 98.8929 107.43 98.8929C106.489 101.823 105.545 104.753 104.604 107.683C104.604 108.416 104.604 109.148 104.604 109.881C100.837 112.079 97.067 114.276 93.2999 116.474C93.4836 115.511 93.0144 114.778 91.8868 114.276C89.479 116.629 87.1249 118.827 84.8216 120.869C83.8551 119.027 81.9729 118.294 79.1694 118.671C79.1694 117.206 79.1694 115.741 79.1694 114.276C80.1105 114.276 81.0544 114.276 81.9955 114.276C92.3079 112.935 99.8451 107.808 104.604 98.8929Z" fill="#4762C2"/>
<path id="Vector_41" fill-rule="evenodd" clip-rule="evenodd" d="M76.3434 109.881C76.3434 111.346 77.2845 112.079 79.1695 112.079C79.1695 112.811 79.1695 113.544 79.1695 114.276C75.4024 115.741 75.4024 117.206 79.1695 118.671C79.6556 120.851 78.7117 122.316 76.3434 123.067C76.3434 124.532 75.4024 125.264 73.5174 125.264C69.7502 126.729 69.7502 128.194 73.5174 129.66C73.5174 131.125 72.5763 131.857 70.6913 131.857C66.9241 133.322 66.9241 134.787 70.6913 136.252C71.1774 138.432 70.2334 139.897 67.8652 140.648C66.9241 140.648 65.9802 140.648 65.0391 140.648C64.098 137.718 63.1541 137.718 62.213 140.648C62.2469 129.606 66.958 119.35 76.3434 109.881Z" fill="#4B64DA"/>
<path id="Vector_42" fill-rule="evenodd" clip-rule="evenodd" d="M104.604 109.881C107.43 111.346 110.256 112.811 113.083 114.276C114.049 116.118 115.931 116.851 118.735 116.474C118.735 117.206 118.735 117.939 118.735 118.671C116.85 119.404 114.968 120.137 113.083 120.869C108.055 118.298 105.229 114.636 104.604 109.881Z" fill="#4C64E0"/>
<path id="Vector_43" fill-rule="evenodd" clip-rule="evenodd" d="M141.343 105.486C142.285 105.486 143.228 105.486 144.17 105.486C144.17 106.951 144.17 108.416 144.17 109.881C142.909 118.832 136.313 123.227 124.387 123.067C122.019 122.316 121.075 120.851 121.561 118.671C125.441 119.016 129.211 118.649 132.865 117.573C130.276 116.961 128.394 115.862 127.213 114.276C129.098 114.276 130.039 113.544 130.039 112.079C131.924 112.079 132.865 111.346 132.865 109.881C133.806 109.881 134.75 109.881 135.691 109.881C138.517 109.148 140.402 107.683 141.343 105.486Z" fill="#345CAA"/>
<path id="Vector_44" fill-rule="evenodd" clip-rule="evenodd" d="M118.735 118.671C119.676 118.671 120.62 118.671 121.561 118.671C121.075 120.851 122.019 122.316 124.387 123.067C128.154 126.729 128.154 130.392 124.387 134.055C119.642 134.527 116.816 133.062 115.909 129.66C116.222 128.303 117.163 127.204 118.735 126.363C115.185 125.447 113.3 123.616 113.083 120.869C114.968 120.137 116.85 119.404 118.735 118.671Z" fill="#31549C"/>
<path id="Vector_45" fill-rule="evenodd" clip-rule="evenodd" d="M59.3869 114.276C61.2719 114.276 63.154 114.276 65.039 114.276C60.8988 122.021 58.0727 130.079 56.5608 138.45C54.1925 139.201 53.2486 140.666 53.7347 142.845C51.8497 142.845 49.9675 142.845 48.0825 142.845C49.586 132.747 53.3532 123.224 59.3869 114.276Z" fill="#3052A5"/>
<path id="Vector_46" fill-rule="evenodd" clip-rule="evenodd" d="M93.3 116.474C92.3589 119.404 91.415 122.334 90.4739 125.264C87.1194 128.72 84.2933 132.383 81.9957 136.252C81.3711 130.545 79.9581 130.545 77.7565 136.252C76.9228 130.227 79.277 125.099 84.8218 120.869C87.125 118.827 89.4791 116.629 91.887 114.276C93.0146 114.778 93.4837 115.511 93.3 116.474Z" fill="#3C5CB4"/>
<path id="Vector_47" fill-rule="evenodd" clip-rule="evenodd" d="M79.1694 118.671C81.9729 118.294 83.8551 119.027 84.8216 120.869C79.2768 125.099 76.9227 130.227 77.7564 136.252C79.9579 130.545 81.3709 130.545 81.9955 136.252C82.7529 139.766 81.809 142.697 79.1694 145.043C78.624 136.364 77.2109 136.364 74.9303 145.043C74.3368 141.619 72.9238 138.688 70.6912 136.252C70.6912 134.787 70.6912 133.322 70.6912 131.857C72.5762 131.857 73.5172 131.125 73.5172 129.66C73.5172 128.194 73.5172 126.729 73.5172 125.264C75.4022 125.264 76.3433 124.532 76.3433 123.067C78.7116 122.316 79.6555 120.851 79.1694 118.671Z" fill="#3E61A7"/>
<path id="Vector_48" fill-rule="evenodd" clip-rule="evenodd" d="M90.4738 125.264C107.733 122.331 111.972 127.458 103.191 140.648C98.7966 145.076 93.6136 145.809 87.6477 142.845C89.8012 141.943 92.6273 141.577 96.126 141.746C92.5453 137.8 92.5453 133.771 96.126 129.66C94.0262 128.161 92.144 126.696 90.4738 125.264Z" fill="#3B5DB5"/>
<path id="Vector_49" fill-rule="evenodd" clip-rule="evenodd" d="M115.909 129.66C116.816 133.062 119.642 134.527 124.387 134.055C121.829 137.273 121.829 140.203 124.387 142.845C121.128 144.632 121.128 146.83 124.387 149.438C121.343 152.086 117.576 153.552 113.083 153.833C114.575 151.15 116.46 148.587 118.735 146.142C113.673 145.229 109.906 143.032 107.43 139.549C111.051 136.453 113.877 133.157 115.909 129.66Z" fill="#435FBD"/>
<path id="Vector_50" fill-rule="evenodd" clip-rule="evenodd" d="M186.561 140.648C174.841 142.46 162.593 143.559 149.822 143.944C153.699 144.827 157.466 145.926 161.126 147.24C172.515 145.773 183.82 144.308 195.039 142.845C201.265 143.073 206.917 144.538 211.996 147.24C211.682 148.597 210.741 149.696 209.17 150.537C211.758 151.148 213.64 152.247 214.822 153.833C206.555 153.921 199.021 152.091 192.213 148.339C183.181 146.571 174.703 146.938 166.778 149.438C160.185 149.438 153.589 149.438 146.996 149.438C146.996 148.706 146.996 147.973 146.996 147.24C144.992 145.254 142.166 144.521 138.517 145.043C140.674 143.355 143.5 142.257 146.996 141.746C160.151 140.649 173.338 140.283 186.561 140.648Z" fill="#29539E"/>
<path id="Vector_51" fill-rule="evenodd" clip-rule="evenodd" d="M186.561 140.648C190.209 140.126 193.035 140.859 195.039 142.845C183.819 144.308 172.515 145.773 161.126 147.24C157.466 145.926 153.699 144.827 149.822 143.944C162.593 143.559 174.841 142.46 186.561 140.648Z" fill="#0A3A86"/>
<path id="Vector_52" fill-rule="evenodd" clip-rule="evenodd" d="M124.387 142.845C126.427 143.763 127.84 145.228 128.626 147.24C131.483 145.402 134.781 144.669 138.517 145.043C142.166 144.521 144.992 145.254 146.996 147.24C141.618 147.891 136.906 149.356 132.865 151.636C131.924 151.636 130.98 151.636 130.039 151.636C128.154 151.636 127.213 152.368 127.213 153.833C125.328 153.833 124.387 154.565 124.387 156.031C121.583 155.653 119.701 156.387 118.735 158.229C117.794 158.229 116.85 158.229 115.909 158.229C113.54 157.477 112.596 156.013 113.083 153.833C117.576 153.552 121.343 152.086 124.387 149.438C121.128 146.83 121.128 144.632 124.387 142.845Z" fill="#1E4592"/>
<path id="Vector_53" fill-rule="evenodd" clip-rule="evenodd" d="M56.5608 138.45C57.1571 142.678 59.0392 143.411 62.2129 140.648C63.154 137.718 64.0979 137.718 65.039 140.648C64.5529 142.827 65.4968 144.292 67.8651 145.043C68.8995 156.969 67.9584 165.76 65.039 171.414C64.974 166.081 63.561 160.954 60.7999 156.031C58.9036 157.684 56.5495 158.418 53.7347 158.229C53.7347 157.497 53.7347 156.763 53.7347 156.031C53.7347 151.636 53.7347 147.24 53.7347 142.845C53.2486 140.666 54.1925 139.201 56.5608 138.45Z" fill="#4B64CD"/>
<path id="Vector_54" fill-rule="evenodd" clip-rule="evenodd" d="M48.0826 142.845C49.9676 142.845 51.8497 142.845 53.7347 142.845C53.7347 147.24 53.7347 151.636 53.7347 156.031C51.0471 159.149 50.1061 162.811 50.9087 167.019C48.1334 159.411 47.1924 151.352 48.0826 142.845Z" fill="#285B9C"/>
<path id="Vector_55" fill-rule="evenodd" clip-rule="evenodd" d="M70.6912 136.252C72.9238 138.688 74.3369 141.619 74.9304 145.043C77.211 136.364 78.6241 136.364 79.1695 145.043C79.1695 146.508 79.1695 147.973 79.1695 149.438C78.2284 149.438 77.2845 149.438 76.3434 149.438C73.7999 160.057 71.9177 171.045 70.6912 182.402C66.9749 177.79 62.2638 177.056 56.5608 180.205C56.5608 179.473 56.5608 178.739 56.5608 178.007C56.7219 175.57 57.663 173.372 59.3869 171.414C59.0167 169.79 59.4886 168.324 60.7999 167.019C61.5856 169.032 62.9986 170.496 65.0391 171.414C67.9584 165.76 68.8995 156.969 67.8651 145.043C67.8651 143.578 67.8651 142.113 67.8651 140.648C70.2334 139.897 71.1773 138.432 70.6912 136.252Z" fill="#11468A"/>
<path id="Vector_56" fill-rule="evenodd" clip-rule="evenodd" d="M104.604 153.833C103.663 153.833 102.719 153.833 101.778 153.833C98.011 156.031 98.011 158.229 101.778 160.426C101.609 161.619 100.667 162.351 98.9521 162.624C97.0529 159.439 95.1679 156.51 93.2999 153.833C93.2999 152.368 92.3588 151.636 90.4738 151.636C88.5888 151.636 87.6477 150.904 87.6477 149.438C91.7342 146.992 96.4453 146.626 101.778 148.339C103.903 149.813 104.847 151.644 104.604 153.833Z" fill="#4361BC"/>
<path id="Vector_57" fill-rule="evenodd" clip-rule="evenodd" d="M166.778 149.438C174.703 146.938 183.181 146.571 192.213 148.339C199.021 152.091 206.555 153.921 214.822 153.833C207.903 155.972 200.366 156.703 192.213 156.031C187.225 153.919 181.573 153.185 175.256 153.833C173.371 153.833 172.43 153.102 172.43 151.636C179.072 150.295 178.131 149.562 169.604 149.438C168.663 149.438 167.719 149.438 166.778 149.438Z" fill="#4963BF"/>
<path id="Vector_58" fill-rule="evenodd" clip-rule="evenodd" d="M146.996 147.24C146.996 147.973 146.996 148.706 146.996 149.438C146.996 150.171 146.996 150.904 146.996 151.636C146.054 151.636 145.111 151.636 144.169 151.636C142.284 151.636 141.343 152.368 141.343 153.833C138.54 153.455 136.658 154.189 135.691 156.031C128.793 158.354 122.197 161.283 115.909 164.821C113.187 163.789 113.187 162.323 115.909 160.426C117.794 160.426 118.735 159.694 118.735 158.229C121.538 158.607 123.42 157.873 124.387 156.031C126.272 156.031 127.213 155.299 127.213 153.833C127.213 152.368 128.154 151.636 130.039 151.636C130.98 154.565 131.924 154.565 132.865 151.636C136.906 149.356 141.617 147.891 146.996 147.24Z" fill="#4B64CF"/>
<path id="Vector_59" fill-rule="evenodd" clip-rule="evenodd" d="M146.996 149.438C153.589 149.438 160.185 149.438 166.778 149.438C167.719 149.438 168.663 149.438 169.604 149.438C169.604 150.904 170.545 151.636 172.43 151.636C172.43 153.102 173.372 153.833 175.257 153.833C175.257 154.565 175.257 155.299 175.257 156.031C170.738 155.442 166.97 156.176 163.952 158.229C155.887 159.16 148.349 161.358 141.343 164.821C137.963 164.061 137.963 162.962 141.343 161.525C146.996 159.327 152.648 157.13 158.3 154.932C150.215 154.745 142.677 156.578 135.691 160.426C132.97 159.393 132.97 157.927 135.691 156.031C138.495 156.409 140.377 155.675 141.343 153.833C141.343 152.368 142.285 151.636 144.17 151.636C145.111 154.565 146.055 154.565 146.996 151.636C146.996 150.904 146.996 150.171 146.996 149.438Z" fill="#4B64DD"/>
<path id="Vector_60" fill-rule="evenodd" clip-rule="evenodd" d="M214.822 153.833C217.19 154.585 218.134 156.049 217.648 158.229C211.054 158.229 204.458 158.229 197.865 158.229C193.154 158.229 188.446 158.229 183.735 158.229C180.931 158.607 179.049 157.873 178.083 156.031C182.794 156.031 187.502 156.031 192.213 156.031C200.366 156.703 207.903 155.972 214.822 153.833Z" fill="#4261AB"/>
<path id="Vector_61" fill-rule="evenodd" clip-rule="evenodd" d="M76.3434 149.438C77.2845 149.438 78.2284 149.438 79.1695 149.438C78.7173 153.172 79.1864 156.835 80.5825 160.426C81.6395 156.051 83.9936 152.387 87.6477 149.438C87.6477 150.904 88.5888 151.636 90.4738 151.636C90.4738 152.368 90.4738 153.102 90.4738 153.833C86.8197 156.783 84.4656 160.446 83.4086 164.821C82.4675 164.09 81.5236 163.356 80.5825 162.624C79.2175 164.707 78.7484 166.905 79.1695 169.217C78.2284 169.217 77.2845 169.217 76.3434 169.217C76.3434 162.624 76.3434 156.031 76.3434 149.438Z" fill="#4B64CF"/>
<path id="Vector_62" fill-rule="evenodd" clip-rule="evenodd" d="M175.256 156.031C176.197 156.031 177.141 156.031 178.082 156.031C179.049 157.873 180.931 158.607 183.735 158.229C184.701 160.07 186.583 160.804 189.387 160.426C189.387 161.892 190.328 162.624 192.213 162.624C188.203 164.714 183.494 165.446 178.082 164.821C176.197 164.821 175.256 164.09 175.256 162.624C178.009 159.543 174.714 159.543 165.365 162.624C157.186 165.254 149.18 168.184 141.343 171.414C137.963 170.654 137.963 169.555 141.343 168.118C149.514 165.318 157.051 162.022 163.952 158.229C168.471 158.818 172.238 158.084 175.256 156.031Z" fill="#4B64D8"/>
<path id="Vector_63" fill-rule="evenodd" clip-rule="evenodd" d="M211.996 147.24C222.969 149.917 231.448 155.044 237.43 162.624C233.663 162.624 229.893 162.624 226.126 162.624C224.789 159.534 221.963 158.068 217.648 158.229C218.134 156.049 217.19 154.585 214.822 153.833C213.64 152.247 211.758 151.148 209.17 150.537C210.741 149.696 211.682 148.597 211.996 147.24Z" fill="#1F4694"/>
<path id="Vector_64" fill-rule="evenodd" clip-rule="evenodd" d="M90.4739 153.833C91.415 153.833 92.3589 153.833 93.3 153.833C95.168 156.51 97.053 159.439 98.9521 162.624C100.668 162.351 101.609 161.62 101.778 160.426C101.778 158.229 101.778 156.031 101.778 153.833C102.719 153.833 103.663 153.833 104.604 153.833C107.43 156.763 110.256 156.763 113.083 153.833C112.596 156.013 113.54 157.477 115.909 158.229C115.909 158.96 115.909 159.694 115.909 160.426C107.501 162.964 99.9639 166.628 93.3 171.414C93.7861 169.234 92.8421 167.771 90.4739 167.019C94.2411 162.624 94.2411 158.229 90.4739 153.833Z" fill="#2D50A8"/>
<path id="Vector_65" fill-rule="evenodd" clip-rule="evenodd" d="M197.865 158.229C204.458 158.229 211.055 158.229 217.648 158.229C221.963 158.068 224.789 159.534 226.126 162.624C224.241 162.624 223.3 163.356 223.3 164.821C220.474 164.821 217.648 164.821 214.822 164.821C207.903 162.683 200.366 161.951 192.213 162.624C190.328 162.624 189.387 161.892 189.387 160.426C193.035 160.947 195.861 160.215 197.865 158.229Z" fill="#4063B9"/>
<path id="Vector_66" fill-rule="evenodd" clip-rule="evenodd" d="M223.3 164.821C223.3 163.356 224.241 162.624 226.126 162.624C229.893 162.624 233.663 162.624 237.43 162.624C242.141 164.821 245.909 167.751 248.735 171.414C245.086 170.893 242.26 171.625 240.256 173.612C239.315 173.612 238.371 173.612 237.43 173.612C234.412 171.559 230.645 170.825 226.126 171.414C237.038 169.307 237.038 167.109 226.126 164.821C225.185 164.821 224.241 164.821 223.3 164.821Z" fill="#1B4994"/>
<path id="Vector_67" fill-rule="evenodd" clip-rule="evenodd" d="M53.7347 156.031C53.7347 156.763 53.7347 157.497 53.7347 158.229C53.0536 163.498 54.9386 167.894 59.3869 171.414C57.663 173.372 56.7219 175.57 56.5608 178.007C52.5167 175.194 50.6317 171.531 50.9086 167.019C50.106 162.811 51.0471 159.149 53.7347 156.031Z" fill="#1B4393"/>
<path id="Vector_68" fill-rule="evenodd" clip-rule="evenodd" d="M65.0391 171.414C62.9986 170.496 61.5856 169.032 60.7999 167.019C59.4886 168.324 59.0167 169.79 59.3869 171.414C54.9386 167.894 53.0536 163.498 53.7347 158.229C56.5495 158.418 58.9036 157.684 60.7999 156.031C63.561 160.954 64.9741 166.081 65.0391 171.414Z" fill="#2F5A9B"/>
<path id="Vector_69" fill-rule="evenodd" clip-rule="evenodd" d="M214.822 164.821C218.589 167.751 222.359 167.751 226.126 164.821C237.038 167.109 237.038 169.307 226.126 171.414C223.3 171.414 220.474 171.414 217.648 171.414C208.816 169.263 199.397 168.529 189.387 169.217C187.502 169.217 186.561 168.485 186.561 167.019C195.847 165.465 205.267 164.734 214.822 164.821Z" fill="#4863C5"/>
<path id="Vector_70" fill-rule="evenodd" clip-rule="evenodd" d="M206.343 173.612C206.343 172.88 206.343 172.146 206.343 171.414C210.111 171.414 213.881 171.414 217.648 171.414C220.474 171.414 223.3 171.414 226.126 171.414C230.645 170.825 234.412 171.559 237.43 173.612C238.371 176.541 239.315 176.541 240.256 173.612C244.024 175.078 244.024 176.541 240.256 178.007C239.315 178.007 238.371 178.007 237.43 178.007C236.489 178.007 235.545 178.007 234.604 178.007C234.604 176.541 233.663 175.81 231.778 175.81C228.952 175.81 226.126 175.81 223.3 175.81C223.3 174.344 222.359 173.612 220.474 173.612C215.763 173.612 211.054 173.612 206.343 173.612Z" fill="#4963BC"/>
<path id="Vector_71" fill-rule="evenodd" clip-rule="evenodd" d="M90.4738 167.019C92.8421 167.771 93.786 169.234 93.2999 171.414C89.5327 173.612 85.7627 175.81 81.9956 178.007C78.3047 175.882 76.4197 172.95 76.3434 169.217C77.2845 169.217 78.2284 169.217 79.1695 169.217C78.7993 170.841 79.2712 172.307 80.5825 173.612C83.5188 170.953 86.8169 168.755 90.4738 167.019Z" fill="#314B9D"/>
<path id="Vector_72" fill-rule="evenodd" clip-rule="evenodd" d="M175.256 162.624C175.256 164.09 176.198 164.821 178.083 164.821C178.083 165.553 178.083 166.287 178.083 167.019C174.434 166.498 171.608 167.23 169.604 169.217C160.23 171.799 150.811 173.629 141.343 174.711C152.385 170.05 163.689 166.019 175.256 162.624Z" fill="#4B64DF"/>
<path id="Vector_73" fill-rule="evenodd" clip-rule="evenodd" d="M206.343 171.414C206.343 172.146 206.343 172.88 206.343 173.612C203.54 173.234 201.658 173.968 200.691 175.81C191.283 175.183 182.805 176.649 175.256 180.205C170.379 180.897 165.667 181.262 161.126 181.304C175.095 175.289 190.167 171.992 206.343 171.414Z" fill="#4B64DD"/>
<path id="Vector_74" fill-rule="evenodd" clip-rule="evenodd" d="M76.3433 149.438C76.3433 156.031 76.3433 162.624 76.3433 169.217C76.4196 172.95 78.3046 175.882 81.9955 178.007C78.2283 179.473 75.4022 181.671 73.5172 184.6C71.6322 184.6 70.6912 183.868 70.6912 182.402C71.9177 171.045 73.7999 160.057 76.3433 149.438Z" fill="#043783"/>
<path id="Vector_75" fill-rule="evenodd" clip-rule="evenodd" d="M178.083 167.019C180.909 167.019 183.735 167.019 186.561 167.019C186.561 168.485 187.502 169.217 189.387 169.217C177.136 171.309 165.36 174.97 154.061 180.205C152.116 178.376 152.588 176.913 155.474 175.81C160.832 174.106 165.543 171.909 169.604 169.217C173.253 169.737 176.079 169.006 178.083 167.019Z" fill="#4B64DA"/>
<path id="Vector_76" fill-rule="evenodd" clip-rule="evenodd" d="M220.474 173.612C222.359 173.612 223.3 174.344 223.3 175.81C223.3 176.541 223.3 177.275 223.3 178.007C219.651 177.486 216.825 178.218 214.822 180.205C199.696 180.578 185.097 182.776 171.017 186.798C170.342 183.967 171.755 181.769 175.256 180.205C184.376 179.818 192.855 178.352 200.691 175.81C207.923 176.473 214.519 175.739 220.474 173.612Z" fill="#4B64D6"/>
<path id="Vector_77" fill-rule="evenodd" clip-rule="evenodd" d="M240.256 173.612C242.26 171.625 245.086 170.893 248.735 171.414C253.045 175.185 255.871 179.581 257.213 184.6C255.732 188.569 253.847 192.23 251.561 195.588C250.62 195.588 249.676 195.588 248.735 195.588C248.735 194.122 247.794 193.39 245.909 193.39C245.909 192.659 245.909 191.925 245.909 191.193C249.676 188.263 249.676 185.332 245.909 182.402C244.968 182.402 244.024 182.402 243.083 182.402C243.083 180.937 242.141 180.205 240.256 180.205C240.256 179.473 240.256 178.739 240.256 178.007C244.024 176.541 244.024 175.078 240.256 173.612Z" fill="#224C96"/>
<path id="Vector_78" fill-rule="evenodd" clip-rule="evenodd" d="M70.6912 182.402C70.6912 183.868 71.6323 184.6 73.5173 184.6C73.5173 185.332 73.5173 186.066 73.5173 186.798C71.6323 186.798 70.6912 187.529 70.6912 188.995C68.8062 188.995 67.8651 189.727 67.8651 191.193C65.9801 191.193 65.0391 191.925 65.0391 193.39C64.098 193.39 63.1541 193.39 62.213 193.39C60.328 192.659 58.4458 191.925 56.5608 191.193C57.841 189.088 59.7232 187.255 62.213 185.699C59.7232 184.143 57.841 182.31 56.5608 180.205C62.2638 177.056 66.9749 177.79 70.6912 182.402Z" fill="#1C4694"/>
<path id="Vector_79" fill-rule="evenodd" clip-rule="evenodd" d="M226.126 180.205C228.011 180.205 228.952 180.937 228.952 182.402C228.952 183.134 228.952 183.868 228.952 184.6C227.067 184.6 226.126 185.332 226.126 186.798C219.962 185.888 213.366 185.521 206.343 185.699C212.937 183.407 219.53 181.576 226.126 180.205Z" fill="#4B64EA"/>
<path id="Vector_80" fill-rule="evenodd" clip-rule="evenodd" d="M231.778 175.81C233.663 175.81 234.604 176.541 234.604 178.007C235.545 180.937 236.489 180.937 237.43 178.007C238.371 178.007 239.315 178.007 240.256 178.007C240.256 178.739 240.256 179.473 240.256 180.205C242.141 180.205 243.083 180.937 243.083 182.402C244.024 185.332 244.968 185.332 245.909 182.402C249.676 185.332 249.676 188.263 245.909 191.193C244.968 191.193 244.024 191.193 243.083 191.193C242.141 191.193 241.198 191.193 240.256 191.193C239.29 189.351 237.408 188.617 234.604 188.995C232.601 187.009 229.774 186.277 226.126 186.798C226.126 185.332 227.067 184.6 228.952 184.6C236.489 183.868 236.489 183.134 228.952 182.402C228.952 180.937 228.011 180.205 226.126 180.205C222.359 180.205 218.589 180.205 214.822 180.205C216.825 178.218 219.651 177.486 223.3 178.007C226.948 178.528 229.774 177.796 231.778 175.81Z" fill="#4A64CA"/>
<path id="Vector_81" fill-rule="evenodd" clip-rule="evenodd" d="M81.9956 178.007C81.6254 179.631 82.0973 181.097 83.4086 182.402C86.3506 178.422 89.6458 177.688 93.2999 180.205C91.4149 180.205 90.4739 180.937 90.4739 182.402C88.5889 182.402 87.6478 183.134 87.6478 184.6C85.7628 184.6 84.8217 185.332 84.8217 186.798C82.9367 186.798 81.9956 187.529 81.9956 188.995C81.0545 188.995 80.1106 188.995 79.1695 188.995C79.6556 186.815 78.7117 185.352 76.3434 184.6C75.4023 184.6 74.4584 184.6 73.5173 184.6C75.4023 181.671 78.2284 179.473 81.9956 178.007Z" fill="#4B64D0"/>
<path id="Vector_82" fill-rule="evenodd" clip-rule="evenodd" d="M67.8651 208.774C67.8651 208.042 67.8651 207.308 67.8651 206.576C67.8651 205.11 66.9241 204.379 65.0391 204.379C65.0391 202.913 65.9801 202.181 67.8651 202.181C69.7501 202.181 70.6912 201.449 70.6912 199.983C72.5762 199.983 73.5173 199.251 73.5173 197.786C75.4023 197.786 76.3434 197.054 76.3434 195.588C78.2284 195.588 79.1695 194.856 79.1695 193.39C81.5378 192.639 82.4817 191.175 81.9956 188.995C83.8806 188.995 84.8217 188.263 84.8217 186.798C86.7067 186.798 87.6478 186.066 87.6478 184.6C89.5328 184.6 90.4738 183.868 90.4738 182.402C92.3588 182.402 93.2999 181.671 93.2999 180.205C99.8169 176.831 106.41 174.267 113.083 172.513C97.0417 183.945 81.9701 196.032 67.8651 208.774Z" fill="#4B64CA"/>
<path id="Vector_83" fill-rule="evenodd" clip-rule="evenodd" d="M87.6477 202.181C87.6477 201.449 87.6477 200.715 87.6477 199.983C90.3494 195.553 94.1194 191.525 98.9521 187.896C105.904 184.692 112.028 180.664 117.322 175.81C110.344 186.035 100.453 194.826 87.6477 202.181Z" fill="#4B64DA"/>
<path id="Vector_84" fill-rule="evenodd" clip-rule="evenodd" d="M76.3434 184.6C78.7117 185.352 79.6556 186.815 79.1695 188.995C79.1695 190.461 79.1695 191.925 79.1695 193.39C77.2845 193.39 76.3434 194.122 76.3434 195.588C74.4584 195.588 73.5174 196.32 73.5174 197.786C71.6324 197.786 70.6913 198.517 70.6913 199.983C69.7502 199.983 68.8063 199.983 67.8652 199.983C65.9802 199.252 64.098 198.517 62.213 197.786C62.213 197.054 62.213 196.32 62.213 195.588C64.098 195.588 65.0391 194.856 65.0391 193.39C66.9241 193.39 67.8652 192.659 67.8652 191.193C69.7502 191.193 70.6913 190.461 70.6913 188.995C72.5763 188.995 73.5174 188.263 73.5174 186.798C75.4024 186.798 76.3434 186.066 76.3434 184.6Z" fill="#4B64C5"/>
<path id="Vector_85" fill-rule="evenodd" clip-rule="evenodd" d="M234.604 188.995C235.571 190.837 237.453 191.571 240.256 191.193C241.198 194.122 242.141 194.122 243.083 191.193C244.024 191.193 244.968 191.193 245.909 191.193C245.909 191.925 245.909 192.659 245.909 193.39C247.794 193.39 248.735 194.122 248.735 195.588C249.676 195.588 250.62 195.588 251.561 195.588C255.328 197.786 255.328 199.983 251.561 202.181C250.62 202.181 249.676 202.181 248.735 202.181C246.174 196.762 241.935 195.296 236.017 197.786C231.038 196.81 231.51 195.711 237.43 194.489C230.964 192.683 224.368 191.217 217.648 190.094C223.224 189.006 228.876 188.639 234.604 188.995Z" fill="#4B64DC"/>
<path id="Vector_86" fill-rule="evenodd" clip-rule="evenodd" d="M127.213 193.39C130.811 194.658 130.811 196.122 127.213 197.786C124.491 196.753 124.491 195.287 127.213 193.39Z" fill="#4B64E9"/>
<path id="Vector_87" fill-rule="evenodd" clip-rule="evenodd" d="M206.343 195.588C200.965 196.239 196.254 197.704 192.213 199.983C188.446 199.983 184.676 199.983 180.909 199.983C178.105 200.361 176.223 199.627 175.256 197.786C185.272 193.239 195.633 192.507 206.343 195.588Z" fill="#4A64B9"/>
<path id="Vector_88" fill-rule="evenodd" clip-rule="evenodd" d="M257.213 184.6C261.565 189.738 263.447 195.599 262.865 202.181C260.695 200.504 259.282 198.307 258.626 195.588C257.227 199.924 256.755 204.319 257.213 208.774C255.82 213.841 254.879 218.969 254.387 224.157C253.446 224.157 252.502 224.157 251.561 224.157C252.4 217.072 250.515 210.479 245.909 204.379C246.259 203.045 247.2 202.313 248.735 202.181C249.676 205.11 250.62 205.11 251.561 202.181C255.328 199.983 255.328 197.786 251.561 195.588C253.847 192.23 255.732 188.569 257.213 184.6Z" fill="#3254A7"/>
<path id="Vector_89" fill-rule="evenodd" clip-rule="evenodd" d="M56.5608 191.193C58.4458 191.925 60.328 192.659 62.213 193.39C62.213 194.122 62.213 194.856 62.213 195.588C60.328 195.588 59.3869 196.32 59.3869 197.786C55.4134 198.825 53.5284 201.023 53.7347 204.379C49.7612 205.418 47.8762 207.616 48.0825 210.971C45.7143 211.723 44.7704 213.187 45.2565 215.367C44.3154 215.367 43.3715 215.367 42.4304 215.367C41.4893 213.169 39.6043 211.703 36.7782 210.971C42.3795 203.697 48.9728 197.104 56.5608 191.193Z" fill="#2C4CA4"/>
<path id="Vector_90" fill-rule="evenodd" clip-rule="evenodd" d="M180.909 199.983C184.676 199.983 188.446 199.983 192.213 199.983C197.014 199.632 201.726 199.996 206.343 201.082C199.504 201.719 192.908 202.818 186.561 204.379C183.757 204.001 181.875 204.735 180.909 206.576C179.024 206.576 177.141 206.576 175.256 206.576C171.608 206.055 168.782 206.787 166.778 208.774C163.975 209.152 162.092 208.418 161.126 206.576C168.154 204.768 174.751 202.57 180.909 199.983Z" fill="#073B88"/>
<path id="Vector_91" fill-rule="evenodd" clip-rule="evenodd" d="M206.343 195.588C207.284 195.588 208.228 195.588 209.169 195.588C209.387 198.335 211.272 200.166 214.822 201.082C208.833 201.834 207.889 203.664 211.996 206.576C213.29 209.372 211.405 211.569 206.343 213.169C206.343 214.635 206.343 216.098 206.343 217.564C203.353 215.147 200.996 212.215 199.278 208.774C197.382 207.121 195.028 206.387 192.213 206.576C189.409 206.954 187.527 206.22 186.561 204.379C192.908 202.818 199.504 201.719 206.343 201.082C201.726 199.996 197.014 199.632 192.213 199.983C196.254 197.704 200.965 196.239 206.343 195.588Z" fill="#124B8C"/>
<path id="Vector_92" fill-rule="evenodd" clip-rule="evenodd" d="M223.3 199.983C228.189 201.139 231.959 203.337 234.604 206.576C232.991 209.813 232.991 213.477 234.604 217.564C231.801 217.186 229.919 217.92 228.952 219.762C228.952 220.494 228.952 221.228 228.952 221.96C225.193 217.582 221.423 213.187 217.648 208.774C232.507 210.279 232.507 208.446 217.648 203.28C219.185 201.704 221.07 200.605 223.3 199.983Z" fill="#375EA4"/>
<path id="Vector_93" fill-rule="evenodd" clip-rule="evenodd" d="M262.865 202.181C266.632 206.576 266.632 210.971 262.865 215.367C263.473 211.677 261.588 209.479 257.213 208.774C256.755 204.319 257.227 199.924 258.626 195.588C259.282 198.307 260.695 200.504 262.865 202.181Z" fill="#1C46A0"/>
<path id="Vector_94" fill-rule="evenodd" clip-rule="evenodd" d="M118.735 188.995C116.85 188.995 115.909 189.727 115.909 191.193C114.024 191.193 113.083 191.925 113.083 193.39C111.198 193.39 110.256 194.122 110.256 195.588C108.371 195.588 107.43 196.32 107.43 197.786C105.545 197.786 104.604 198.518 104.604 199.983C102.719 199.983 101.778 200.715 101.778 202.181C99.8932 202.181 98.9521 202.913 98.9521 204.379C93.9725 206.053 91.1464 208.985 90.4738 213.169C81.7723 219.228 75.179 226.553 70.6912 235.145C68.8062 235.145 67.8651 234.413 67.8651 232.948C77.9429 215.182 93.0173 200.166 113.083 187.896C115.731 186.376 117.613 186.743 118.735 188.995Z" fill="#4B64D4"/>
<path id="Vector_95" fill-rule="evenodd" clip-rule="evenodd" d="M175.256 197.786C176.223 199.627 178.105 200.361 180.909 199.983C174.751 202.57 168.154 204.768 161.126 206.576C159.241 206.576 158.3 205.844 158.3 204.379C163.051 201.065 168.703 198.867 175.256 197.786Z" fill="#4262A8"/>
<path id="Vector_96" fill-rule="evenodd" clip-rule="evenodd" d="M209.17 195.588C214.548 196.239 219.259 197.704 223.3 199.983C221.07 200.605 219.185 201.704 217.648 203.28C232.507 208.446 232.507 210.279 217.648 208.774C215.763 208.042 213.881 207.308 211.996 206.576C207.889 203.664 208.833 201.834 214.822 201.082C211.272 200.166 209.387 198.335 209.17 195.588Z" fill="#13438F"/>
<path id="Vector_97" fill-rule="evenodd" clip-rule="evenodd" d="M87.6477 199.983C87.6477 200.715 87.6477 201.449 87.6477 202.181C83.6318 207.695 78.9207 212.824 73.5172 217.564C71.6322 217.564 70.6912 216.832 70.6912 215.367C74.3651 208.923 80.0172 203.794 87.6477 199.983Z" fill="#4B64CB"/>
<path id="Vector_98" fill-rule="evenodd" clip-rule="evenodd" d="M180.909 206.576C181.875 204.735 183.757 204.001 186.561 204.379C187.527 206.22 189.41 206.954 192.213 206.576C194.771 209.794 194.771 212.725 192.213 215.367C191.272 215.367 190.328 215.367 189.387 215.367C188.446 209.506 187.502 209.506 186.561 215.367C182.438 215.219 178.67 215.951 175.256 217.564C174.584 213.38 171.758 210.448 166.778 208.774C168.782 206.787 171.608 206.055 175.256 206.576C176.52 212.011 179.346 212.378 183.735 207.675C183.09 206.798 182.146 206.433 180.909 206.576ZM175.256 206.576C177.141 206.576 179.024 206.576 180.909 206.576C182.146 206.433 183.09 206.798 183.735 207.675C179.346 212.378 176.52 212.011 175.256 206.576Z" fill="#425EC0"/>
<path id="Vector_99" fill-rule="evenodd" clip-rule="evenodd" d="M59.3869 197.786C60.328 197.786 61.2719 197.786 62.213 197.786C64.098 198.518 65.9802 199.252 67.8652 199.983C67.8652 200.715 67.8652 201.449 67.8652 202.181C65.9802 202.181 65.0391 202.913 65.0391 204.379C65.0391 205.11 65.0391 205.844 65.0391 206.576C63.1541 206.576 62.213 207.308 62.213 208.774C60.328 208.774 59.3869 209.506 59.3869 210.971C59.3869 211.703 59.3869 212.437 59.3869 213.169C58.4458 213.169 57.5019 213.169 56.5608 213.169C57.0469 210.989 56.103 209.525 53.7347 208.774C53.7347 207.308 53.7347 205.844 53.7347 204.379C57.7082 203.339 59.5932 201.141 59.3869 197.786Z" fill="#4964BA"/>
<path id="Vector_100" fill-rule="evenodd" clip-rule="evenodd" d="M158.3 204.379C158.3 205.844 159.241 206.576 161.126 206.576C162.093 208.418 163.975 209.152 166.778 208.774C165.597 210.36 163.715 211.459 161.126 212.07C172.306 214.518 172.306 216.349 161.126 217.564C161.883 221.078 160.94 224.008 158.3 226.355C157.359 226.355 156.415 226.355 155.474 226.355C154.533 226.355 153.589 226.355 152.648 226.355C153.589 223.425 154.533 220.494 155.474 217.564C158.489 212.336 155.663 210.139 146.996 210.971C149.641 207.732 153.411 205.535 158.3 204.379Z" fill="#3054AB"/>
<path id="Vector_101" fill-rule="evenodd" clip-rule="evenodd" d="M118.735 188.995C121.631 189.868 122.103 191.331 120.148 193.39C109.55 200.52 100.6 208.578 93.3 217.564C92.3589 217.564 91.415 217.564 90.4739 217.564C90.4739 216.098 90.4739 214.635 90.4739 213.169C95.4534 211.494 98.2795 208.563 98.9521 204.379C100.837 204.379 101.778 203.647 101.778 202.181C103.663 202.181 104.604 201.449 104.604 199.983C106.489 199.983 107.43 199.252 107.43 197.786C109.315 197.786 110.256 197.054 110.256 195.588C112.141 195.588 113.083 194.856 113.083 193.39C114.968 193.39 115.909 192.659 115.909 191.193C117.794 191.193 118.735 190.461 118.735 188.995Z" fill="#4B64D6"/>
<path id="Vector_102" fill-rule="evenodd" clip-rule="evenodd" d="M98.9521 219.762C100.453 215.27 103.751 211.607 108.843 208.774C108.626 213.767 105.331 217.428 98.9521 219.762Z" fill="#4B64E9"/>
<path id="Vector_103" fill-rule="evenodd" clip-rule="evenodd" d="M146.996 210.971C155.663 210.139 158.489 212.336 155.474 217.564C152.003 219.336 149.177 221.533 146.996 224.157C146.055 221.228 145.111 221.228 144.17 224.157C141.343 225.623 138.517 227.087 135.691 228.552C136.061 226.928 135.59 225.463 134.278 224.157C132.382 225.81 130.028 226.544 127.213 226.355C132.865 220.494 139.458 215.367 146.996 210.971Z" fill="#1D4898"/>
<path id="Vector_104" fill-rule="evenodd" clip-rule="evenodd" d="M65.0391 206.576C65.9802 206.576 66.9241 206.576 67.8652 206.576C67.8652 207.308 67.8652 208.042 67.8652 208.774C65.4913 213.945 61.7213 218.34 56.5608 221.96C56.5608 221.228 56.5608 220.494 56.5608 219.762C56.5608 218.296 55.6197 217.564 53.7347 217.564C53.7347 216.098 54.6758 215.367 56.5608 215.367C58.4458 215.367 59.3869 214.635 59.3869 213.169C63.1541 212.437 63.1541 211.703 59.3869 210.971C59.3869 209.506 60.328 208.774 62.213 208.774C64.098 208.774 65.0391 208.042 65.0391 206.576Z" fill="#4B64C6"/>
<path id="Vector_105" fill-rule="evenodd" clip-rule="evenodd" d="M53.7348 208.774C56.103 209.525 57.047 210.989 56.5609 213.169C56.5609 213.901 56.5609 214.635 56.5609 215.367C54.6759 215.367 53.7348 216.098 53.7348 217.564C55.6198 217.564 56.5609 218.296 56.5609 219.762C56.5609 220.494 56.5609 221.228 56.5609 221.96C54.5063 227.352 51.6802 232.48 48.0826 237.343C45.7143 236.591 44.7704 235.128 45.2565 232.948C48.5743 230.719 50.4565 227.79 50.9087 224.157C48.3624 222.421 46.4774 220.223 45.2565 217.564C45.2565 216.832 45.2565 216.098 45.2565 215.367C47.6248 214.615 48.5687 213.151 48.0826 210.971C49.9676 210.24 51.8498 209.506 53.7348 208.774Z" fill="#4A64BE"/>
<path id="Vector_106" fill-rule="evenodd" clip-rule="evenodd" d="M192.213 206.576C195.028 206.387 197.382 207.121 199.278 208.774C200.996 212.215 203.353 215.147 206.343 217.564C205.402 219.03 204.458 220.494 203.517 221.96C197.258 223.733 193.488 221.535 192.213 215.367C194.771 212.725 194.771 209.794 192.213 206.576Z" fill="#445FB7"/>
<path id="Vector_107" fill-rule="evenodd" clip-rule="evenodd" d="M234.604 206.576C239.584 208.251 242.41 211.182 243.083 215.367C239.437 216.593 237.083 218.791 236.017 221.96C234.706 220.654 234.234 219.188 234.604 217.564C232.991 213.477 232.991 209.813 234.604 206.576Z" fill="#4864B2"/>
<path id="Vector_108" fill-rule="evenodd" clip-rule="evenodd" d="M243.083 215.367C242.8 217.487 243.744 220.052 245.909 223.058C243.057 223.838 241.172 225.669 240.256 228.552C238.216 227.634 236.803 226.17 236.017 224.157C235.076 224.889 234.132 225.623 233.191 226.355C232.536 223.636 231.123 221.439 228.952 219.762C229.919 217.92 231.801 217.186 234.604 217.564C234.234 219.188 234.706 220.654 236.017 221.96C237.083 218.791 239.437 216.593 243.083 215.367Z" fill="#4B64CB"/>
<path id="Vector_109" fill-rule="evenodd" clip-rule="evenodd" d="M42.4303 217.564C43.3714 217.564 44.3153 217.564 45.2564 217.564C46.4773 220.223 48.3623 222.421 50.9086 224.157C50.4564 227.79 48.5742 230.719 45.2564 232.948C44.8042 229.315 42.9221 226.386 39.6042 224.157C39.6042 223.425 39.6042 222.691 39.6042 221.96C41.9725 221.208 42.9164 219.744 42.4303 217.564Z" fill="#4C64D1"/>
<path id="Vector_110" fill-rule="evenodd" clip-rule="evenodd" d="M90.4738 217.564C91.4149 217.564 92.3588 217.564 93.2999 217.564C83.6432 227.605 76.1088 238.593 70.6912 250.529C68.8062 250.529 67.8651 249.797 67.8651 248.331C72.5536 236.624 80.0908 226.37 90.4738 217.564Z" fill="#4B64D9"/>
<path id="Vector_111" fill-rule="evenodd" clip-rule="evenodd" d="M257.213 208.774C261.588 209.479 263.473 211.677 262.865 215.367C263.244 219.305 262.303 222.966 260.039 226.355C256.012 229.719 254.13 228.988 254.387 224.157C254.879 218.969 255.82 213.842 257.213 208.774Z" fill="#16428D"/>
<path id="Vector_112" fill-rule="evenodd" clip-rule="evenodd" d="M98.9521 219.762C99.1584 223.118 97.2734 225.315 93.2999 226.355C93.0936 222.999 94.9786 220.801 98.9521 219.762Z" fill="#4B64E9"/>
<path id="Vector_113" fill-rule="evenodd" clip-rule="evenodd" d="M211.996 206.576C213.881 207.308 215.763 208.042 217.648 208.774C221.423 213.187 225.193 217.582 228.952 221.96C227.562 227.056 224.736 231.451 220.474 235.145C220.474 233.679 220.474 232.216 220.474 230.75C220.474 230.018 220.474 229.284 220.474 228.552C222.359 228.552 223.3 227.821 223.3 226.355C223.325 222.381 221.912 218.718 219.061 215.367C217.995 218.536 215.641 220.733 211.996 221.96C211.996 221.228 211.996 220.494 211.996 219.762C210.775 217.103 208.89 214.905 206.343 213.169C211.405 211.569 213.29 209.372 211.996 206.576Z" fill="#4A64C2"/>
<path id="Vector_114" fill-rule="evenodd" clip-rule="evenodd" d="M228.952 219.762C231.123 221.439 232.536 223.636 233.191 226.355C234.132 225.623 235.076 224.889 236.017 224.157C236.803 226.17 238.216 227.634 240.256 228.552C233.296 236.141 224.818 239.437 214.822 238.442C216.359 236.866 218.244 235.767 220.474 235.145C224.736 231.451 227.562 227.056 228.952 221.96C228.952 221.228 228.952 220.494 228.952 219.762Z" fill="#4B64DA"/>
<path id="Vector_115" fill-rule="evenodd" clip-rule="evenodd" d="M186.561 215.367C187.502 215.367 188.446 215.367 189.387 215.367C194.333 223.977 192.448 231.304 183.735 237.343C181.85 237.343 180.909 236.611 180.909 235.145C186.451 231.146 187.392 226.75 183.735 221.959C183.924 225.166 182.983 228.095 180.909 230.75C178.676 228.313 177.263 225.383 176.67 221.959C176.13 226.812 174.717 231.207 172.43 235.145C169.63 229.115 170.574 223.254 175.256 217.564C178.67 215.951 182.438 215.219 186.561 215.367ZM183.735 221.959C187.392 226.75 186.451 231.146 180.909 235.145C178.066 234.183 178.066 232.719 180.909 230.75C182.983 228.095 183.924 225.166 183.735 221.959Z" fill="#3255A6"/>
<path id="Vector_116" fill-rule="evenodd" clip-rule="evenodd" d="M206.343 213.169C208.89 214.905 210.775 217.103 211.996 219.762C208.551 225.128 204.311 230.258 199.278 235.145C199.702 230.737 201.115 226.342 203.517 221.96C204.458 220.494 205.402 219.03 206.343 217.564C206.343 216.098 206.343 214.635 206.343 213.169Z" fill="#4B64DD"/>
<path id="Vector_117" fill-rule="evenodd" clip-rule="evenodd" d="M251.561 224.157C252.502 224.157 253.446 224.157 254.387 224.157C254.13 228.988 256.012 229.719 260.039 226.355C259.381 229.787 257.496 232.717 254.387 235.145C251.869 233.805 249.043 233.073 245.909 232.948C247.291 229.662 249.173 226.731 251.561 224.157Z" fill="#2B4EA2"/>
<path id="Vector_118" fill-rule="evenodd" clip-rule="evenodd" d="M93.3 226.355C93.4102 229.115 91.9972 231.313 89.0609 232.948C87.4076 229.656 88.8207 227.458 93.3 226.355Z" fill="#4B64E8"/>
<path id="Vector_119" fill-rule="evenodd" clip-rule="evenodd" d="M70.6913 215.367C70.6913 216.832 71.6323 217.564 73.5173 217.564C67.1473 225.271 61.4952 233.328 56.5608 241.738C54.6758 241.738 53.7347 241.006 53.7347 239.54C57.2447 230.409 62.8969 222.351 70.6913 215.367Z" fill="#4B64CE"/>
<path id="Vector_120" fill-rule="evenodd" clip-rule="evenodd" d="M155.474 217.564C154.533 220.494 153.589 223.425 152.648 226.355C153.589 229.284 154.533 229.284 155.474 226.355C156.415 226.355 157.359 226.355 158.3 226.355C160.722 229.216 162.135 232.145 162.539 235.145C153.041 234.71 146.916 231.047 144.169 224.157C145.111 224.157 146.054 224.157 146.996 224.157C149.177 221.533 152.003 219.336 155.474 217.564Z" fill="#4761CB"/>
<path id="Vector_121" fill-rule="evenodd" clip-rule="evenodd" d="M223.3 226.355C221.415 226.355 220.474 227.087 220.474 228.552C220.474 229.284 220.474 230.018 220.474 230.75C215.839 233.394 211.128 235.224 206.343 236.244C209.647 231.833 211.529 227.073 211.996 221.96C215.641 220.733 217.995 218.536 219.061 215.367C221.912 218.718 223.325 222.381 223.3 226.355Z" fill="#4B64DD"/>
<path id="Vector_122" fill-rule="evenodd" clip-rule="evenodd" d="M28.3 217.564C32.4232 217.417 36.1904 218.149 39.6043 219.762C39.6043 220.494 39.6043 221.228 39.6043 221.96C37.2361 222.711 36.2921 224.175 36.7782 226.355C34.41 227.106 33.4661 228.57 33.9521 230.75C31.5839 231.502 30.64 232.965 31.1261 235.145C28.7578 235.897 27.8139 237.36 28.3 239.54C27.3589 239.54 26.415 239.54 25.4739 239.54C25.4739 238.075 25.4739 236.611 25.4739 235.145C25.4739 233.679 25.4739 232.216 25.4739 230.75C27.5058 227.254 30.3319 223.957 33.9521 220.861C31.3634 220.25 29.4813 219.151 28.3 217.564Z" fill="#25499B"/>
<path id="Vector_123" fill-rule="evenodd" clip-rule="evenodd" d="M135.691 228.552C134.75 230.018 133.806 231.482 132.865 232.948C130.039 233.679 128.154 235.145 127.213 237.343C125.368 240.215 123.483 243.145 121.561 246.133C128.832 249.008 136.37 251.205 144.17 252.726C144.387 255.473 146.272 257.304 149.822 258.22C148.25 259.062 147.309 260.161 146.996 261.517C146.055 261.517 145.111 261.517 144.17 261.517C143.228 261.517 142.285 261.517 141.343 261.517C141.343 258.587 139.458 257.121 135.691 257.121C130.83 254.124 125.178 251.926 118.735 250.529C116.807 252.161 114.922 253.625 113.083 254.924C113.752 252.087 112.811 249.889 110.256 248.331C114.496 240.259 120.148 232.934 127.213 226.355C130.028 226.544 132.382 225.81 134.278 224.157C135.59 225.463 136.061 226.928 135.691 228.552Z" fill="#1F4993"/>
<path id="Vector_124" fill-rule="evenodd" clip-rule="evenodd" d="M180.909 230.75C178.066 232.719 178.066 234.183 180.909 235.145C180.909 236.611 181.85 237.343 183.735 237.343C179.498 242.402 175.731 241.67 172.43 235.145C174.717 231.207 176.13 226.812 176.67 221.96C177.263 225.383 178.676 228.313 180.909 230.75Z" fill="#4861C7"/>
<path id="Vector_125" fill-rule="evenodd" clip-rule="evenodd" d="M22.6478 235.145C23.5888 235.145 24.5328 235.145 25.4738 235.145C25.4738 236.611 25.4738 238.075 25.4738 239.54C25.4738 241.738 25.4738 243.936 25.4738 246.133C23.1056 246.885 22.1617 248.349 22.6478 250.529C21.7067 250.529 20.7628 250.529 19.8217 250.529C17.2669 248.97 16.3258 246.773 16.9956 243.936C19.3836 241.362 21.2658 238.431 22.6478 235.145Z" fill="#1A4293"/>
<path id="Vector_126" fill-rule="evenodd" clip-rule="evenodd" d="M245.909 232.948C249.043 233.073 251.869 233.805 254.387 235.145C251.561 238.809 247.794 241.738 243.083 243.936C243.083 241.006 241.198 239.54 237.43 239.54C239.315 236.611 242.142 234.413 245.909 232.948Z" fill="#244EA7"/>
<path id="Vector_127" fill-rule="evenodd" clip-rule="evenodd" d="M39.6043 224.157C42.9221 226.386 44.8043 229.315 45.2565 232.948C42.7102 234.684 40.8252 236.881 39.6043 239.54C39.6043 240.272 39.6043 241.006 39.6043 241.738C37.5639 240.819 36.1508 239.356 35.3652 237.343C34.4241 238.809 33.4802 240.272 32.5391 241.738C31.4115 241.237 30.9423 240.503 31.126 239.54C31.126 238.075 31.126 236.611 31.126 235.145C33.4943 234.394 34.4382 232.93 33.9521 230.75C36.3204 229.998 37.2643 228.535 36.7782 226.355C38.6632 226.355 39.6043 225.623 39.6043 224.157Z" fill="#4A64BF"/>
<path id="Vector_128" fill-rule="evenodd" clip-rule="evenodd" d="M45.2565 232.948C44.7704 235.128 45.7143 236.591 48.0826 237.343C44.7054 242.29 41.8793 247.419 39.6043 252.726C38.6632 252.726 37.7193 252.726 36.7782 252.726C35.8371 249.797 34.8932 249.797 33.9521 252.726C33.0111 252.726 32.0671 252.726 31.1261 252.726C29.2411 251.26 27.3589 249.797 25.4739 248.331C25.4739 247.599 25.4739 246.865 25.4739 246.133C28.0287 244.575 28.9697 242.378 28.3 239.54C29.2411 239.54 30.185 239.54 31.1261 239.54C30.9424 240.503 31.4115 241.237 32.5391 241.738C33.4802 240.272 34.4241 238.809 35.3652 237.343C36.1508 239.356 37.5639 240.819 39.6043 241.738C43.3715 241.006 43.3715 240.272 39.6043 239.54C40.8252 236.881 42.7102 234.684 45.2565 232.948Z" fill="#4B64CE"/>
<path id="Vector_129" fill-rule="evenodd" clip-rule="evenodd" d="M67.8651 232.948C67.8651 234.413 68.8062 235.145 70.6912 235.145C66.1554 241.47 62.3854 248.063 59.3869 254.924C58.4458 254.924 57.5019 254.924 56.5608 254.924C57.6121 246.579 61.3821 239.255 67.8651 232.948Z" fill="#4B64DD"/>
<path id="Vector_130" fill-rule="evenodd" clip-rule="evenodd" d="M132.865 232.948C146.88 244.257 163.836 250.849 183.735 252.726C180.086 252.205 177.26 252.937 175.256 254.924C172.453 254.546 170.571 255.28 169.604 257.121C166.778 257.121 163.952 257.121 161.126 257.121C161.126 256.39 161.126 255.656 161.126 254.924C163.215 255.212 165.1 254.845 166.778 253.825C152.484 249.606 139.295 244.112 127.213 237.343C128.154 235.145 130.039 233.679 132.865 232.948Z" fill="#4963C7"/>
<path id="Vector_131" fill-rule="evenodd" clip-rule="evenodd" d="M237.43 239.54C241.198 239.54 243.083 241.006 243.083 243.936C234.977 249.236 225.558 252.9 214.822 254.924C213.881 253.458 212.937 251.994 211.996 250.529C220.74 247.489 229.218 243.826 237.43 239.54Z" fill="#2B4CA3"/>
<path id="Vector_132" fill-rule="evenodd" clip-rule="evenodd" d="M211.996 250.529C212.937 251.994 213.881 253.458 214.822 254.924C211.996 254.924 209.17 254.924 206.343 254.924C197.865 254.924 189.387 254.924 180.909 254.924C179.024 254.924 177.141 254.924 175.256 254.924C177.26 252.937 180.086 252.205 183.735 252.726C193.154 251.994 202.576 251.26 211.996 250.529Z" fill="#1C4B95"/>
<path id="Vector_133" fill-rule="evenodd" clip-rule="evenodd" d="M180.909 257.121C180.909 256.39 180.909 255.656 180.909 254.924C189.387 254.924 197.865 254.924 206.343 254.924C201.632 256.39 196.924 257.853 192.213 259.319C189.387 259.319 186.561 259.319 183.735 259.319C183.735 257.853 182.794 257.121 180.909 257.121Z" fill="#4B64DA"/>
<path id="Vector_134" fill-rule="evenodd" clip-rule="evenodd" d="M67.8651 248.331C67.8651 249.797 68.8062 250.529 70.6912 250.529C65.5901 261.989 61.351 273.709 57.9738 285.69C57.2984 272.437 60.5964 259.983 67.8651 248.331Z" fill="#4B64E2"/>
<path id="Vector_135" fill-rule="evenodd" clip-rule="evenodd" d="M101.778 259.319C98.011 261.517 98.011 263.714 101.778 265.912C101.778 268.11 101.778 270.307 101.778 272.505C99.8932 273.971 98.011 275.434 96.126 276.9C96.7958 274.063 95.8547 271.865 93.2999 270.307C93.2999 265.18 93.2999 260.051 93.2999 254.924C95.1736 251.535 97.0586 247.872 98.9521 243.936C99.1019 249.008 100.043 254.137 101.778 259.319Z" fill="#4B64C8"/>
<path id="Vector_136" fill-rule="evenodd" clip-rule="evenodd" d="M110.256 248.331C112.811 249.889 113.752 252.087 113.083 254.924C113.083 256.39 113.083 257.853 113.083 259.319C111.198 259.319 110.256 260.051 110.256 261.517C110.256 262.248 110.256 262.982 110.256 263.714C107.597 267.121 105.715 270.782 104.604 274.702C102.719 274.702 101.778 273.971 101.778 272.505C101.778 270.307 101.778 268.11 101.778 265.912C101.778 263.714 101.778 261.517 101.778 259.319C104.076 255.449 106.902 251.786 110.256 248.331Z" fill="#1C4691"/>
<path id="Vector_137" fill-rule="evenodd" clip-rule="evenodd" d="M25.4739 248.331C27.3589 249.797 29.241 251.26 31.126 252.726C31.126 254.192 31.126 255.656 31.126 257.121C31.126 257.853 31.126 258.587 31.126 259.319C29.0856 258.4 27.6726 256.937 26.8869 254.924C25.2506 258.062 25.7226 260.994 28.3 263.714C28.3 264.446 28.3 265.18 28.3 265.912C27.3589 267.378 26.415 268.841 25.4739 270.307C25.4739 272.505 25.4739 274.702 25.4739 276.9C23.3034 275.223 21.8904 273.026 21.2347 270.307C19.5165 273.942 18.1034 277.605 16.9956 281.295C16.9956 282.027 16.9956 282.761 16.9956 283.493C16.9956 284.959 16.0545 285.69 14.1695 285.69C14.9269 282.176 13.983 279.247 11.3434 276.9C10.8573 274.72 11.8013 273.256 14.1695 272.505C17.7558 271.971 17.7558 269.773 14.1695 265.912C14.1695 264.446 15.1106 263.714 16.9956 263.714C20.7628 262.248 20.7628 260.785 16.9956 259.319C16.9956 258.587 16.9956 257.853 16.9956 257.121C17.9367 257.121 18.8806 257.121 19.8217 257.121C23.5889 255.656 23.5889 254.192 19.8217 252.726C19.8217 251.994 19.8217 251.26 19.8217 250.529C20.7628 250.529 21.7067 250.529 22.6478 250.529C24.5328 250.529 25.4739 249.797 25.4739 248.331Z" fill="#4B64C5"/>
<path id="Vector_138" fill-rule="evenodd" clip-rule="evenodd" d="M31.126 252.726C32.0671 252.726 33.011 252.726 33.9521 252.726C34.8932 252.726 35.8371 252.726 36.7782 252.726C37.7193 252.726 38.6632 252.726 39.6043 252.726C37.1427 258.466 35.2606 264.327 33.9521 270.307C31.5838 269.556 30.6399 268.092 31.126 265.912C31.126 264.446 30.1849 263.714 28.2999 263.714C25.7225 260.994 25.2506 258.062 26.8869 254.924C27.6725 256.937 29.0856 258.4 31.126 259.319C34.8932 258.587 34.8932 257.853 31.126 257.121C31.126 255.656 31.126 254.192 31.126 252.726Z" fill="#4B64D9"/>
<path id="Vector_139" fill-rule="evenodd" clip-rule="evenodd" d="M93.2999 254.924C90.5501 260.304 89.6091 266.165 90.4738 272.505C91.2765 276.713 90.3354 280.374 87.6478 283.493C87.6478 276.9 87.6478 270.307 87.6478 263.714C87.1899 259.26 87.6619 254.864 89.0608 250.529C91.0871 251.724 92.5001 253.19 93.2999 254.924Z" fill="#4B64C4"/>
<path id="Vector_140" fill-rule="evenodd" clip-rule="evenodd" d="M11.3434 254.924C13.2284 255.656 15.1106 256.39 16.9956 257.121C16.9956 257.853 16.9956 258.587 16.9956 259.319C16.9956 260.785 16.9956 262.248 16.9956 263.714C15.1106 263.714 14.1695 264.446 14.1695 265.912C14.1695 268.11 14.1695 270.307 14.1695 272.505C11.8012 273.256 10.8573 274.72 11.3434 276.9C11.3434 278.366 11.3434 279.829 11.3434 281.295C10.4023 281.295 9.45842 281.295 8.51734 281.295C6.63234 286.422 4.75016 291.552 2.86516 296.679C2.35647 288.514 3.30038 280.456 5.69125 272.505C3.74973 268.819 1.86473 265.156 0.0390748 261.517C-0.145751 260.554 0.325075 259.82 1.45212 259.319C2.23777 261.332 3.65081 262.796 5.69125 263.714C8.92429 265.215 8.92429 264.481 5.69125 261.517C5.69125 260.051 5.69125 258.587 5.69125 257.121C8.49473 257.499 10.3769 256.765 11.3434 254.924Z" fill="#3255A0"/>
<path id="Vector_141" fill-rule="evenodd" clip-rule="evenodd" d="M53.7347 239.54C53.7347 241.006 54.6758 241.738 56.5608 241.738C45.5758 259.783 38.9825 278.827 36.7782 298.876C34.4099 298.125 33.466 296.661 33.9521 294.481C34.8847 274.709 41.4779 256.396 53.7347 239.54Z" fill="#4B64D2"/>
<path id="Vector_142" fill-rule="evenodd" clip-rule="evenodd" d="M56.5608 254.924C57.5019 254.924 58.4458 254.924 59.3869 254.924C55.1195 264.916 52.2934 275.17 50.9087 285.69C49.9676 285.69 49.0237 285.69 48.0826 285.69C47.4184 274.601 50.2445 264.345 56.5608 254.924Z" fill="#4B64E6"/>
<path id="Vector_143" fill-rule="evenodd" clip-rule="evenodd" d="M28.3 265.912C29.241 265.912 30.185 265.912 31.126 265.912C30.64 268.092 31.5839 269.556 33.9521 270.307C31.3606 276.718 29.4756 283.31 28.3 290.086C27.3589 290.086 26.415 290.086 25.4739 290.086C26.2765 285.877 25.3354 282.216 22.6478 279.098C20.7628 279.098 19.8217 279.829 19.8217 281.295C18.8806 281.295 17.9367 281.295 16.9956 281.295C18.1034 277.605 19.5165 273.942 21.2347 270.307C21.8904 273.026 23.3034 275.223 25.4739 276.9C29.241 274.702 29.241 272.505 25.4739 270.307C26.415 268.841 27.3589 267.378 28.3 265.912Z" fill="#4B64E0"/>
<path id="Vector_144" fill-rule="evenodd" clip-rule="evenodd" d="M87.6478 263.714C87.6478 270.307 87.6478 276.9 87.6478 283.493C88.0689 285.805 87.5998 288.002 86.2348 290.086C82.9678 287.884 81.5548 285.686 81.9956 283.493C81.7695 276.282 83.6545 269.69 87.6478 263.714Z" fill="#4B64E3"/>
<path id="Vector_145" fill-rule="evenodd" clip-rule="evenodd" d="M101.778 272.505C101.778 273.971 102.719 274.702 104.604 274.702C105.545 274.702 106.489 274.702 107.43 274.702C107.43 276.168 106.489 276.9 104.604 276.9C102.861 277.144 101.448 277.876 100.365 279.098C98.9606 284.912 98.4887 290.774 98.9522 296.679C96.1911 290.554 95.25 283.961 96.1261 276.9C98.0111 275.434 99.8932 273.971 101.778 272.505Z" fill="#265994"/>
<path id="Vector_146" fill-rule="evenodd" clip-rule="evenodd" d="M22.6478 279.098C22.6478 283.493 22.6478 287.888 22.6478 292.283C19.9319 296.162 18.988 300.557 19.8217 305.469C17.9367 305.469 16.9956 304.737 16.9956 303.271C16.0545 300.342 15.1106 300.342 14.1695 303.271C12.2845 298.876 10.4023 294.481 8.51733 290.086C8.51733 287.156 8.51733 284.225 8.51733 281.295C9.45842 281.295 10.4023 281.295 11.3434 281.295C10.8573 283.475 11.8012 284.939 14.1695 285.69C16.0545 285.69 16.9956 284.959 16.9956 283.493C18.8806 283.493 19.8217 282.761 19.8217 281.295C19.8217 279.829 20.7628 279.098 22.6478 279.098Z" fill="#4B64D4"/>
<path id="Vector_147" fill-rule="evenodd" clip-rule="evenodd" d="M90.4738 272.505C91.4149 272.505 92.3588 272.505 93.2999 272.505C91.6042 283.64 91.6042 294.628 93.2999 305.469C93.4836 306.432 93.0145 307.166 91.8869 307.667C88.0829 301.896 84.7849 297.5 81.9955 294.481C78.2284 290.817 78.2284 287.156 81.9955 283.493C81.5547 285.686 82.9677 287.884 86.2347 290.086C87.5997 288.002 88.0688 285.805 87.6477 283.493C90.3353 280.374 91.2764 276.713 90.4738 272.505Z" fill="#4B64D7"/>
<path id="Vector_148" fill-rule="evenodd" clip-rule="evenodd" d="M93.2999 270.307C95.8547 271.865 96.7958 274.063 96.126 276.9C95.2499 283.961 96.191 290.554 98.9521 296.679C98.9521 298.876 98.9521 301.074 98.9521 303.271C99.4382 305.451 98.4943 306.915 96.126 307.667C96.126 306.201 95.1849 305.469 93.2999 305.469C91.6043 294.628 91.6043 283.64 93.2999 272.505C93.2999 271.773 93.2999 271.039 93.2999 270.307Z" fill="#4A64B9"/>
<path id="Vector_149" fill-rule="evenodd" clip-rule="evenodd" d="M48.0826 285.69C49.0236 285.69 49.9676 285.69 50.9086 285.69C52.0165 292.771 50.6034 299.364 46.6695 305.469C44.5895 298.674 45.0615 292.081 48.0826 285.69Z" fill="#4B64F1"/>
<path id="Vector_150" fill-rule="evenodd" clip-rule="evenodd" d="M104.604 276.9C104.604 277.632 104.604 278.366 104.604 279.098C104.604 279.829 104.604 280.563 104.604 281.295C104.604 282.027 104.604 282.761 104.604 283.493C103.66 289.4 105.542 294.527 110.256 298.876C108.168 298.588 106.283 298.955 104.604 299.975C107.193 300.586 109.075 301.685 110.256 303.271C108.371 303.271 107.43 304.003 107.43 305.469C105.687 305.713 104.274 306.445 103.191 307.667C102.406 305.654 100.992 304.19 98.9521 303.271C98.9521 301.074 98.9521 298.876 98.9521 296.679C98.4886 290.774 98.9605 284.913 100.365 279.098C101.447 277.876 102.861 277.144 104.604 276.9Z" fill="#214799"/>
<path id="Vector_151" fill-rule="evenodd" clip-rule="evenodd" d="M25.4739 290.086C26.415 290.086 27.3589 290.086 28.3 290.086C25.5671 306.913 25.098 323.762 26.8869 340.631C23.0774 324.674 21.6643 308.559 22.6478 292.283C24.5328 292.283 25.4739 291.552 25.4739 290.086Z" fill="#4B64E6"/>
<path id="Vector_152" fill-rule="evenodd" clip-rule="evenodd" d="M8.51729 281.295C8.51729 284.225 8.51729 287.156 8.51729 290.086C8.51729 300.342 8.51729 310.596 8.51729 320.852C6.63229 322.318 4.75011 323.782 2.86511 325.248C2.86511 315.725 2.86511 306.201 2.86511 296.679C4.75011 291.552 6.63229 286.422 8.51729 281.295Z" fill="#11498C"/>
<path id="Vector_153" fill-rule="evenodd" clip-rule="evenodd" d="M93.3 305.469C95.185 305.469 96.126 306.201 96.126 307.667C96.126 308.398 96.126 309.132 96.126 309.864C92.7206 312.44 92.7206 315.369 96.126 318.655C95.1228 320.901 93.2378 322.367 90.4739 323.05C90.6802 319.694 88.7952 317.497 84.8217 316.457C84.8217 315.725 84.8217 314.991 84.8217 314.26C84.6097 308.313 83.6686 302.452 81.9956 296.679C81.9956 295.947 81.9956 295.213 81.9956 294.481C84.785 297.5 88.083 301.896 91.8869 307.667C93.0145 307.166 93.4836 306.432 93.3 305.469Z" fill="#4B64CA"/>
<path id="Vector_154" fill-rule="evenodd" clip-rule="evenodd" d="M8.51733 290.086C10.4023 294.481 12.2845 298.876 14.1695 303.271C15.1106 303.271 16.0545 303.271 16.9956 303.271C16.9956 304.737 17.9367 305.469 19.8217 305.469C18.646 324.755 20.531 343.802 25.4739 362.607C24.448 364.108 23.5069 365.574 22.6478 367.002C19.7171 363.86 17.8321 360.196 16.9956 356.014C20.7628 354.548 20.7628 353.085 16.9956 351.619C16.0545 351.619 15.1106 351.619 14.1695 351.619C14.1695 350.887 14.1695 350.153 14.1695 349.421C17.9367 345.758 17.9367 342.097 14.1695 338.433C15.1615 332.849 14.2204 329.186 11.3434 327.445C10.4023 327.445 9.45842 327.445 8.51733 327.445C8.51733 325.248 8.51733 323.05 8.51733 320.852C8.51733 310.596 8.51733 300.342 8.51733 290.086Z" fill="#4B64E1"/>
<path id="Vector_155" fill-rule="evenodd" clip-rule="evenodd" d="M33.9521 294.481C33.466 296.661 34.41 298.125 36.7782 298.876C37.2473 309.159 36.7754 319.413 35.3652 329.643C30.5806 317.714 30.1086 305.994 33.9521 294.481Z" fill="#4B64E5"/>
<path id="Vector_156" fill-rule="evenodd" clip-rule="evenodd" d="M81.9956 296.679C83.6686 302.452 84.6097 308.313 84.8217 314.26C83.8806 314.26 82.9367 314.26 81.9956 314.26C81.0545 305.469 80.1106 305.469 79.1695 314.26C78.2284 314.26 77.2845 314.26 76.3434 314.26C76.8239 311.354 75.8828 308.79 73.5173 306.568C76.4819 303.118 79.308 299.821 81.9956 296.679Z" fill="#4B64DC"/>
<path id="Vector_157" fill-rule="evenodd" clip-rule="evenodd" d="M96.126 309.864C102.9 314.616 107.611 320.477 110.256 327.445C110.417 329.882 111.359 332.08 113.082 334.038C111.197 334.038 109.315 334.038 107.43 334.038C106.978 330.405 105.096 327.476 101.778 325.248C99.8932 320.121 98.011 314.991 96.126 309.864Z" fill="#4964B5"/>
<path id="Vector_158" fill-rule="evenodd" clip-rule="evenodd" d="M98.9521 303.271C100.992 304.19 102.406 305.654 103.191 307.667C104.274 306.445 105.687 305.713 107.43 305.469C107.43 306.201 107.43 306.935 107.43 307.667C109.315 307.667 110.256 308.398 110.256 309.864C112.141 314.991 114.024 320.121 115.909 325.248C115.909 326.713 114.967 327.445 113.082 327.445C112.141 327.445 111.197 327.445 110.256 327.445C107.611 320.477 102.9 314.616 96.126 309.864C96.126 309.132 96.126 308.398 96.126 307.667C98.4942 306.915 99.4382 305.451 98.9521 303.271Z" fill="#284E97"/>
<path id="Vector_159" fill-rule="evenodd" clip-rule="evenodd" d="M96.126 309.864C98.011 314.991 99.8931 320.121 101.778 325.248C100.837 328.177 99.8931 331.109 98.9521 334.038C96.8834 331.164 94.5264 328.232 91.8868 325.248C90.8044 326.469 89.3914 327.201 87.6477 327.445C87.6477 325.979 87.6477 324.516 87.6477 323.05C88.5888 323.05 89.5327 323.05 90.4738 323.05C93.2377 322.367 95.1227 320.901 96.126 318.655C92.7205 315.369 92.7205 312.44 96.126 309.864Z" fill="#4B64D4"/>
<path id="Vector_160" fill-rule="evenodd" clip-rule="evenodd" d="M101.778 325.248C105.096 327.476 106.978 330.405 107.43 334.038C107.43 334.77 107.43 335.504 107.43 336.236C105.706 338.194 104.765 340.391 104.604 342.829C98.9634 348.14 96.1373 346.674 96.126 338.433C98.011 338.433 98.9521 337.701 98.9521 336.236C98.9521 335.504 98.9521 334.77 98.9521 334.038C99.8932 331.109 100.837 328.177 101.778 325.248Z" fill="#4B64DB"/>
<path id="Vector_161" fill-rule="evenodd" clip-rule="evenodd" d="M76.3434 314.26C77.2844 314.26 78.2284 314.26 79.1694 314.26C80.1105 314.26 81.0544 314.26 81.9955 314.26C82.9366 314.26 83.8805 314.26 84.8216 314.26C84.8216 314.991 84.8216 315.725 84.8216 316.457C88.7951 317.497 90.6801 319.694 90.4738 323.05C89.5327 323.05 88.5888 323.05 87.6477 323.05C83.8805 324.516 83.8805 325.979 87.6477 327.445C89.3914 327.201 90.8044 326.469 91.8868 325.248C94.5264 328.232 96.8834 331.164 98.9521 334.038C98.9521 334.77 98.9521 335.504 98.9521 336.236C97.0671 336.236 96.126 336.968 96.126 338.433C93.9555 340.11 92.5425 342.308 91.8868 345.026C89.1342 339.8 87.2492 340.534 86.2347 347.224C77.9599 336.882 74.6618 325.894 76.3434 314.26Z" fill="#4B64DF"/>
<path id="Vector_162" fill-rule="evenodd" clip-rule="evenodd" d="M115.909 325.248C121.278 329.904 125.986 335.034 130.039 340.631C129.098 340.631 128.154 340.631 127.213 340.631C121.185 337.135 116.477 332.739 113.083 327.445C114.968 327.445 115.909 326.713 115.909 325.248Z" fill="#284BA1"/>
<path id="Vector_163" fill-rule="evenodd" clip-rule="evenodd" d="M8.5173 320.852C8.5173 323.05 8.5173 325.248 8.5173 327.445C8.5173 334.038 8.5173 340.631 8.5173 347.224C4.24708 340.534 2.36208 333.207 2.86512 325.248C4.75012 323.782 6.6323 322.318 8.5173 320.852Z" fill="#2D4FAA"/>
<path id="Vector_164" fill-rule="evenodd" clip-rule="evenodd" d="M107.43 336.236C114.08 341.422 119.732 347.283 124.387 353.817C118.184 355.397 113.944 353.199 111.669 347.224C110.728 348.69 109.784 350.153 108.843 351.619C106.608 348.883 105.195 345.954 104.604 342.829C104.765 340.391 105.706 338.194 107.43 336.236Z" fill="#4B64E3"/>
<path id="Vector_165" fill-rule="evenodd" clip-rule="evenodd" d="M110.256 327.445C111.198 327.445 112.141 327.445 113.083 327.445C116.477 332.739 121.185 337.135 127.213 340.631C127.213 342.097 127.213 343.56 127.213 345.026C127.213 346.492 126.272 347.224 124.387 347.224C119.605 343.477 115.838 339.082 113.083 334.038C111.359 332.08 110.418 329.882 110.256 327.445Z" fill="#4662B0"/>
<path id="Vector_166" fill-rule="evenodd" clip-rule="evenodd" d="M8.51735 327.445C9.45844 327.445 10.4023 327.445 11.3434 327.445C10.5408 331.654 11.4819 335.315 14.1695 338.433C14.1695 342.097 14.1695 345.758 14.1695 349.421C14.1695 350.153 14.1695 350.887 14.1695 351.619C14.6556 353.799 13.7117 355.263 11.3434 356.014C8.70387 353.667 7.75996 350.738 8.51735 347.224C8.51735 340.631 8.51735 334.038 8.51735 327.445Z" fill="#234693"/>
<path id="Vector_167" fill-rule="evenodd" clip-rule="evenodd" d="M127.213 340.631C128.154 340.631 129.098 340.631 130.039 340.631C135.609 345.703 141.261 350.832 146.996 356.014C147.937 358.944 148.881 361.875 149.822 364.805C147.937 364.073 146.055 363.339 144.17 362.607C139.586 356.113 133.933 350.252 127.213 345.026C127.213 343.56 127.213 342.097 127.213 340.631Z" fill="#254693"/>
<path id="Vector_168" fill-rule="evenodd" clip-rule="evenodd" d="M107.43 336.236C107.43 335.504 107.43 334.77 107.43 334.038C109.315 334.038 111.198 334.038 113.083 334.038C115.838 339.082 119.605 343.477 124.387 347.224C129.098 351.619 133.806 356.014 138.517 360.41C131.642 360.908 126.933 358.711 124.387 353.817C119.732 347.283 114.08 341.422 107.43 336.236Z" fill="#4B64D8"/>
<path id="Vector_169" fill-rule="evenodd" clip-rule="evenodd" d="M127.213 345.026C133.933 350.252 139.586 356.113 144.17 362.607C142.932 362.464 141.988 362.829 141.343 363.706C143.446 365.989 146.272 367.088 149.822 367.002C149.822 368.468 150.763 369.2 152.648 369.2C152.648 369.932 152.648 370.666 152.648 371.398C151.707 371.398 150.763 371.398 149.822 371.398C141.089 369.84 137.322 366.176 138.517 360.41C133.806 356.014 129.098 351.619 124.387 347.224C126.272 347.224 127.213 346.492 127.213 345.026Z" fill="#4B64CA"/>
<path id="Vector_170" fill-rule="evenodd" clip-rule="evenodd" d="M146.996 356.014C152.648 358.944 157.359 362.607 161.126 367.002C158.758 367.754 157.814 369.218 158.3 371.398C157.359 371.398 156.415 371.398 155.474 371.398C155.474 369.932 154.533 369.2 152.648 369.2C150.763 369.2 149.822 368.468 149.822 367.002C149.822 366.271 149.822 365.537 149.822 364.805C148.881 361.875 147.937 358.944 146.996 356.014Z" fill="#29489B"/>
<path id="Vector_171" fill-rule="evenodd" clip-rule="evenodd" d="M14.1695 351.619C15.1106 351.619 16.0545 351.619 16.9956 351.619C16.9956 353.085 16.9956 354.548 16.9956 356.014C17.8321 360.196 19.7171 363.86 22.6477 367.002C22.6477 367.734 22.6477 368.468 22.6477 369.2C21.7066 371.398 19.8216 372.863 16.9956 373.595C13.3951 368.117 11.5129 362.258 11.3434 356.014C13.7116 355.263 14.6556 353.799 14.1695 351.619Z" fill="#2B4C9B"/>
<path id="Vector_172" fill-rule="evenodd" clip-rule="evenodd" d="M62.213 367.002C60.328 367.002 59.3869 367.734 59.3869 369.2C53.5397 361.049 50.2445 352.259 49.4956 342.829C53.7771 350.942 58.0163 359.001 62.213 367.002Z" fill="#4B64E1"/>
<path id="Vector_173" fill-rule="evenodd" clip-rule="evenodd" d="M107.43 367.002C112.93 368.659 115.284 371.591 114.496 375.793C110.31 373.659 107.953 370.73 107.43 367.002Z" fill="#4B64E3"/>
<path id="Vector_174" fill-rule="evenodd" clip-rule="evenodd" d="M161.126 367.002C163.929 366.624 165.812 367.358 166.778 369.2C159.241 371.398 159.241 373.595 166.778 375.793C165.837 377.259 164.893 378.722 163.952 380.188C163.011 380.188 162.067 380.188 161.126 380.188C161.126 378.722 160.185 377.99 158.3 377.99C158.3 376.525 157.359 375.793 155.474 375.793C154.533 375.793 153.589 375.793 152.648 375.793C152.648 374.327 151.707 373.595 149.822 373.595C149.822 372.863 149.822 372.129 149.822 371.398C150.763 371.398 151.707 371.398 152.648 371.398C153.589 371.398 154.533 371.398 155.474 371.398C156.415 374.327 157.359 374.327 158.3 371.398C157.814 369.218 158.758 367.754 161.126 367.002Z" fill="#3855AE"/>
<path id="Vector_175" fill-rule="evenodd" clip-rule="evenodd" d="M50.9087 375.793C50.9087 377.259 49.9676 377.99 48.0826 377.99C42.4756 369.688 40.1215 360.897 41.0174 351.619C44.6178 359.649 47.913 367.706 50.9087 375.793Z" fill="#4B64CC"/>
<path id="Vector_176" fill-rule="evenodd" clip-rule="evenodd" d="M127.213 371.398C132.277 369.259 136.045 370.725 138.517 375.793C136.632 375.793 134.75 375.793 132.865 375.793C132.865 374.327 131.924 373.595 130.039 373.595C130.039 372.129 129.098 371.398 127.213 371.398Z" fill="#4B64E0"/>
<path id="Vector_177" fill-rule="evenodd" clip-rule="evenodd" d="M144.169 375.793C145.136 373.951 147.018 373.217 149.822 373.595C151.707 373.595 152.648 374.327 152.648 375.793C152.648 376.525 152.648 377.259 152.648 377.99C150.763 377.99 148.881 377.99 146.996 377.99C146.996 376.525 146.054 375.793 144.169 375.793Z" fill="#4B64DC"/>
<path id="Vector_178" fill-rule="evenodd" clip-rule="evenodd" d="M166.778 369.2C171.489 371.398 175.257 374.327 178.083 377.99C177.913 379.184 176.972 379.916 175.257 380.188C172.38 378.665 169.553 377.202 166.778 375.793C159.241 373.595 159.241 371.398 166.778 369.2Z" fill="#1B4595"/>
<path id="Vector_179" fill-rule="evenodd" clip-rule="evenodd" d="M22.6478 369.2C26.7654 377.283 31.4736 385.341 36.7782 393.374C34.8932 394.106 33.011 394.84 31.126 395.571C24.9736 388.935 20.2654 381.61 16.9956 373.595C19.8217 372.863 21.7067 371.398 22.6478 369.2Z" fill="#2D4DA3"/>
<path id="Vector_180" fill-rule="evenodd" clip-rule="evenodd" d="M127.213 371.398C129.098 371.398 130.039 372.129 130.039 373.595C131.924 373.595 132.865 374.327 132.865 375.793C138.517 380.92 144.169 386.049 149.822 391.176C149.822 391.908 149.822 392.642 149.822 393.374C137.017 386.018 127.125 377.228 120.148 367.002C122.149 368.938 124.506 370.402 127.213 371.398Z" fill="#4B64E1"/>
<path id="Vector_181" fill-rule="evenodd" clip-rule="evenodd" d="M62.213 367.002C71.3554 384.889 82.6598 401.738 96.1261 417.548C96.1261 418.279 96.1261 419.013 96.1261 419.745C80.3113 404.698 68.0659 387.849 59.387 369.2C59.387 367.734 60.328 367.002 62.213 367.002Z" fill="#4B64D5"/>
<path id="Vector_182" fill-rule="evenodd" clip-rule="evenodd" d="M155.474 375.793C157.359 375.793 158.3 376.525 158.3 377.99C160.185 377.99 161.126 378.722 161.126 380.188C162.067 380.188 163.011 380.188 163.952 380.188C167.829 382.412 171.597 384.61 175.256 386.781C173.371 386.781 172.43 387.513 172.43 388.979C167.581 385.627 161.929 383.43 155.474 382.386C154.533 380.92 153.589 379.456 152.648 377.99C154.533 377.99 155.474 377.259 155.474 375.793Z" fill="#4B64E1"/>
<path id="Vector_183" fill-rule="evenodd" clip-rule="evenodd" d="M50.9086 375.793C59.3332 388.893 67.8114 402.079 76.3434 415.35C75.4023 415.35 74.4584 415.35 73.5173 415.35C72.5762 413.152 70.6912 411.687 67.8651 410.955C68.0714 407.599 66.1864 405.401 62.213 404.362C57.4962 395.563 52.7851 386.772 48.0825 377.99C49.9675 377.99 50.9086 377.259 50.9086 375.793Z" fill="#4B64C3"/>
<path id="Vector_184" fill-rule="evenodd" clip-rule="evenodd" d="M107.43 408.757C105.545 408.757 104.604 409.489 104.604 410.955C89.3123 397.424 78.4799 382.041 72.1042 364.805C83.2023 379.887 94.9786 394.539 107.43 408.757Z" fill="#4B64DD"/>
<path id="Vector_185" fill-rule="evenodd" clip-rule="evenodd" d="M180.909 417.548C180.909 418.279 180.909 419.013 180.909 419.745C180.909 420.477 180.909 421.211 180.909 421.943C155.412 411.258 135.157 396.606 120.148 377.99C137.619 394.174 157.873 407.359 180.909 417.548Z" fill="#4B64D7"/>
<path id="Vector_186" fill-rule="evenodd" clip-rule="evenodd" d="M166.778 375.793C169.553 377.202 172.379 378.665 175.256 380.188C176.972 379.916 177.913 379.184 178.083 377.99C185.987 382.722 194.465 386.383 203.517 388.979C197.715 388.763 193.004 390.229 189.387 393.374C185.368 390.242 180.657 388.045 175.256 386.781C171.597 384.61 167.829 382.412 163.952 380.188C164.893 378.722 165.837 377.259 166.778 375.793Z" fill="#1B4893"/>
<path id="Vector_187" fill-rule="evenodd" clip-rule="evenodd" d="M138.517 375.793C140.402 375.793 142.285 375.793 144.17 375.793C146.055 375.793 146.996 376.525 146.996 377.99C148.332 381.08 151.158 382.546 155.474 382.386C161.522 388.014 168.115 393.143 175.256 397.769C174.315 397.769 173.371 397.769 172.43 397.769C160.058 391.486 148.753 384.161 138.517 375.793Z" fill="#4B64D1"/>
</g>
</svg>
