<svg width="358" height="374" viewBox="0 0 358 374" fill="none" xmlns="http://www.w3.org/2000/svg">
<g id="tentaculo 3">
<path id="Vector" fill-rule="evenodd" clip-rule="evenodd" d="M210.565 2.19766C210.565 3.66281 210.565 5.12774 210.565 6.5929C204.913 6.5929 199.261 6.5929 193.609 6.5929C194.052 9.61111 193.58 12.5414 192.196 15.3834C187.934 10.2445 181.81 8.04684 173.826 8.79052C173.826 7.32536 172.885 6.5929 171 6.5929C175.869 3.72061 181.052 3.72061 186.543 6.5929C194.078 1.73176 202.087 0.26683 210.565 2.19766Z" fill="#3E5CBA"/>
<path id="Vector_2" fill-rule="evenodd" clip-rule="evenodd" d="M244.478 8.79048C246.847 9.5414 247.79 11.0066 247.304 13.1857C238.518 12.8444 230.04 11.3795 221.87 8.79048C224.345 7.1405 227.171 6.04169 230.348 5.49405C225.73 4.40952 221.019 4.04318 216.217 4.39524C216.836 6.97744 215.895 9.17506 213.391 10.9881C211.136 9.984 210.195 8.51885 210.565 6.59286C210.565 5.12771 210.565 3.66277 210.565 2.19762C215.367 1.93303 220.075 1.20056 224.696 0C232.826 1.31528 239.42 4.24558 244.478 8.79048Z" fill="#4060B7"/>
<path id="Vector_3" fill-rule="evenodd" clip-rule="evenodd" d="M171 6.5929C172.885 6.5929 173.826 7.32536 173.826 8.79051C176.177 10.4638 179.944 12.6614 185.13 15.3834C182.612 17.7779 179.786 17.7779 176.652 15.3834C174.742 17.8043 172.859 20.0019 171 21.9762C171 19.7786 171 17.581 171 15.3834C168.174 15.3834 165.348 15.3834 162.522 15.3834C163.194 11.1982 166.02 8.26814 171 6.5929Z" fill="#4561BC"/>
<path id="Vector_4" fill-rule="evenodd" clip-rule="evenodd" d="M264.261 10.9881C260.287 12.0278 258.402 14.2254 258.609 17.581C254.384 16.507 250.614 15.0419 247.304 13.1857C247.79 11.0066 246.846 9.54143 244.478 8.7905C245.357 6.64167 247.242 5.17652 250.13 4.39526C255.489 6.09732 260.2 8.29494 264.261 10.9881Z" fill="#3D5AB6"/>
<path id="Vector_5" fill-rule="evenodd" clip-rule="evenodd" d="M264.261 10.9881C267.977 13.1321 271.744 15.3297 275.565 17.581C284.148 15.0574 289.8 17.255 292.522 24.1738C286.369 23.9846 280.717 22.5194 275.565 19.7786C273.85 20.0502 272.909 20.7827 272.739 21.9762C270.854 21.9762 268.972 21.9762 267.087 21.9762C264.854 19.9955 262.028 18.5305 258.609 17.581C258.402 14.2254 260.287 12.0278 264.261 10.9881Z" fill="#3959AC"/>
<path id="Vector_6" fill-rule="evenodd" clip-rule="evenodd" d="M162.522 15.3834C165.348 15.3834 168.174 15.3834 171 15.3834C171 17.581 171 19.7786 171 21.9762C167.626 27.5089 164.33 27.5089 161.109 21.9762C159.981 22.4782 159.512 23.2108 159.696 24.1738C157.327 23.4229 156.383 21.9578 156.87 19.7786C157.811 17.581 159.696 16.1158 162.522 15.3834Z" fill="#2D4D9F"/>
<path id="Vector_7" fill-rule="evenodd" clip-rule="evenodd" d="M213.391 17.581C216.195 17.2039 218.077 17.9365 219.043 19.7786C211.198 21.0732 204.602 24.0033 199.261 28.5691C195.494 26.3714 195.494 24.1738 199.261 21.9762C202.878 18.8308 207.589 17.3658 213.391 17.581Z" fill="#3053A6"/>
<path id="Vector_8" fill-rule="evenodd" clip-rule="evenodd" d="M213.391 17.581C217.045 16.1345 221.285 15.402 226.109 15.3834C233.298 15.0229 239.42 16.4881 244.478 19.7786C240.598 19.4342 236.828 19.8006 233.174 20.8774C235.763 21.4892 237.645 22.588 238.826 24.1738C234.703 24.3219 230.936 23.5895 227.522 21.9762C225.518 19.9896 222.692 19.2571 219.043 19.7786C218.077 17.9365 216.195 17.2039 213.391 17.581Z" fill="#425DC6"/>
<path id="Vector_9" fill-rule="evenodd" clip-rule="evenodd" d="M244.478 19.7786C252.126 19.9436 259.663 20.6761 267.087 21.9762C267.087 23.4414 268.028 24.1738 269.913 24.1738C271.654 27.0259 271.654 29.2235 269.913 30.7667C259.425 28.9112 249.065 26.7136 238.826 24.1738C237.645 22.588 235.763 21.4892 233.174 20.8774C236.828 19.8006 240.598 19.4342 244.478 19.7786Z" fill="#244A9B"/>
<path id="Vector_10" fill-rule="evenodd" clip-rule="evenodd" d="M199.261 21.9762C195.494 24.1738 195.494 26.3715 199.261 28.5691C198.32 30.0342 197.376 31.4992 196.435 32.9643C195.494 32.9643 194.55 32.9643 193.609 32.9643C192.701 29.5622 189.875 28.097 185.13 28.5691C188.298 22.972 193.01 20.7743 199.261 21.9762Z" fill="#395AB7"/>
<path id="Vector_11" fill-rule="evenodd" clip-rule="evenodd" d="M292.522 24.1738C301.941 30.0342 310.419 36.6271 317.956 43.9524C316.071 43.9524 315.13 44.6849 315.13 46.15C310.419 43.2199 305.711 40.2896 301 37.3595C300.059 37.3595 299.115 37.3595 298.174 37.3595C298.174 35.8944 297.233 35.1619 295.348 35.1619C295.348 33.6968 294.407 32.9643 292.522 32.9643C292.522 31.4992 291.581 30.7667 289.696 30.7667C289.696 29.3015 288.755 28.5691 286.87 28.5691C285.928 28.5691 284.985 28.5691 284.043 28.5691C283.077 26.727 281.195 25.9943 278.391 26.3715C277.425 24.5294 275.543 23.7967 272.739 24.1738C272.739 23.4414 272.739 22.7087 272.739 21.9762C272.909 20.7827 273.85 20.0502 275.565 19.7786C280.717 22.5195 286.369 23.9846 292.522 24.1738Z" fill="#224794"/>
<path id="Vector_12" fill-rule="evenodd" clip-rule="evenodd" d="M156.87 19.7786C156.383 21.9578 157.327 23.4229 159.696 24.1738C162.451 27.8937 166.218 31.1902 171 34.0631C162.282 35.0687 155.688 32.5048 151.217 26.3715C148.323 29.3422 145.497 32.2723 142.739 35.1619C139.936 34.7848 138.053 35.5175 137.087 37.3595C134.719 36.6086 133.775 35.1435 134.261 32.9643C137.737 24.4041 145.274 20.0089 156.87 19.7786Z" fill="#3E5FB7"/>
<path id="Vector_13" fill-rule="evenodd" clip-rule="evenodd" d="M227.522 21.9762C220.431 25.0997 213.835 28.7622 207.739 32.9643C205.854 32.9643 204.913 33.6968 204.913 35.1619C203.028 35.1619 202.087 35.8944 202.087 37.3595C200.202 37.3595 199.261 38.092 199.261 39.5571C197.376 39.5571 196.435 40.2896 196.435 41.7548C195.494 41.7548 194.55 41.7548 193.609 41.7548C193.609 41.0223 193.609 40.2896 193.609 39.5571C193.609 38.092 193.609 36.6271 193.609 35.1619C195.494 35.1619 196.435 34.4294 196.435 32.9643C205.645 27.5557 216.008 23.8932 227.522 21.9762Z" fill="#4B64D6"/>
<path id="Vector_14" fill-rule="evenodd" clip-rule="evenodd" d="M269.913 24.1738C270.854 24.1738 271.798 24.1738 272.739 24.1738C273.706 26.0159 275.588 26.7486 278.391 26.3714C279.358 28.2135 281.24 28.9462 284.043 28.5691C284.984 31.4992 285.928 31.4992 286.869 28.5691C288.754 28.5691 289.696 29.3015 289.696 30.7667C291.581 30.7667 292.522 31.4992 292.522 32.9643C294.407 32.9643 295.348 33.6968 295.348 35.1619C297.233 35.1619 298.174 35.8944 298.174 37.3595C298.174 38.8247 299.115 39.5572 301 39.5572C301 40.2896 301 41.0223 301 41.7548C299.115 41.7548 298.174 42.4872 298.174 43.9524C288.653 39.5251 279.233 35.1298 269.913 30.7667C271.654 29.2235 271.654 27.0259 269.913 24.1738Z" fill="#2B4DA2"/>
<path id="Vector_15" fill-rule="evenodd" clip-rule="evenodd" d="M185.13 28.5691C189.875 28.097 192.701 29.5622 193.609 32.9643C193.609 33.6968 193.609 34.4294 193.609 35.1619C191.24 35.9128 190.296 37.378 190.783 39.5572C188.898 39.5572 187.956 40.2896 187.956 41.7548C186.213 41.5115 184.8 40.779 183.717 39.5572C182.932 41.5697 181.519 43.0349 179.478 43.9524C179.478 42.4872 178.537 41.7548 176.652 41.7548C178.043 36.6596 180.869 32.2644 185.13 28.5691Z" fill="#2C4E9D"/>
<path id="Vector_16" fill-rule="evenodd" clip-rule="evenodd" d="M224.696 32.9643C225.413 36.386 231.066 38.5836 241.652 39.5572C241.652 41.0223 241.652 42.4872 241.652 43.9524C236.941 43.9524 232.233 43.9524 227.522 43.9524C227.522 43.2199 227.522 42.4872 227.522 41.7548C227.522 40.2896 226.581 39.5572 224.696 39.5572C224.696 38.8247 224.696 38.092 224.696 37.3595C224.696 36.6271 224.696 35.8944 224.696 35.1619C224.696 34.4294 224.696 33.6968 224.696 32.9643Z" fill="#4B64D9"/>
<path id="Vector_17" fill-rule="evenodd" clip-rule="evenodd" d="M224.696 32.9643C217.159 33.6968 217.159 34.4295 224.696 35.1619C224.696 35.8944 224.696 36.6271 224.696 37.3596C220.929 38.092 220.929 38.8247 224.696 39.5572C226.581 39.5572 227.522 40.2896 227.522 41.7548C225.637 41.7548 223.755 41.7548 221.87 41.7548C219.781 41.4669 217.896 41.8332 216.217 42.8536C219.716 44.37 219.716 45.4688 216.217 46.15C214.332 45.4176 212.45 44.6849 210.565 43.9524C210.879 42.5956 211.82 41.4968 213.391 40.656C208.649 39.5926 206.767 37.7613 207.739 35.1619C207.739 34.4295 207.739 33.6968 207.739 32.9643C214.838 29.8263 222.373 28.7275 230.348 29.6679C227.759 30.2797 225.877 31.3785 224.696 32.9643Z" fill="#4B64CA"/>
<path id="Vector_18" fill-rule="evenodd" clip-rule="evenodd" d="M134.261 32.9643C133.775 35.1435 134.719 36.6086 137.087 37.3595C139.89 37.7366 141.773 37.004 142.739 35.1619C145.215 34.8742 147.1 35.6069 148.391 37.3595C144.407 39.7099 141.58 42.64 139.913 46.15C138.028 46.15 136.146 46.15 134.261 46.15C134.111 41.6666 134.111 37.2714 134.261 32.9643Z" fill="#4B64CB"/>
<path id="Vector_19" fill-rule="evenodd" clip-rule="evenodd" d="M204.913 35.1619C205.854 35.1619 206.798 35.1619 207.739 35.1619C206.767 37.7613 208.649 39.5925 213.391 40.656C211.82 41.4968 210.879 42.5956 210.565 43.9524C207.431 44.0774 204.605 44.8099 202.087 46.15C199.719 45.3991 198.775 43.9339 199.261 41.7548C199.261 41.0223 199.261 40.2896 199.261 39.5572C201.146 39.5572 202.087 38.8247 202.087 37.3595C203.972 37.3595 204.913 36.6271 204.913 35.1619Z" fill="#4562B0"/>
<path id="Vector_20" fill-rule="evenodd" clip-rule="evenodd" d="M154.043 46.15C150.276 49.8128 150.276 53.4753 154.043 57.1381C154.043 58.6033 154.985 59.3357 156.87 59.3357C155.688 60.9215 153.806 62.0203 151.217 62.6322C155.007 65.4776 158.774 66.5764 162.522 65.9286C155.335 71.7751 149.214 71.0427 144.152 63.731C143.313 56.0731 145.195 48.7478 149.804 41.7548C158.147 35.2905 164.271 36.3893 168.174 45.0512C167.233 46.15 166.289 47.2488 165.348 48.3476C161.917 44.2168 158.147 43.4841 154.043 46.15Z" fill="#3A58BA"/>
<path id="Vector_21" fill-rule="evenodd" clip-rule="evenodd" d="M241.652 39.5572C250.732 38.8759 259.211 39.6084 267.087 41.7548C264.998 41.4669 263.113 41.8333 261.435 42.8536C264.023 43.4654 265.906 44.5642 267.087 46.15C258.736 44.7025 250.258 43.9698 241.652 43.9524C241.652 42.4873 241.652 41.0223 241.652 39.5572Z" fill="#4B64CC"/>
<path id="Vector_22" fill-rule="evenodd" clip-rule="evenodd" d="M301 41.7548C305.711 44.6848 310.419 47.6152 315.13 50.5452C315.13 52.0104 316.071 52.7429 317.956 52.7429C322.122 54.8005 324.948 57.7308 326.435 61.5333C324.55 61.5333 322.668 61.5333 320.783 61.5333C312.304 56.4056 304.767 50.5452 298.174 43.9524C298.174 42.4872 299.115 41.7548 301 41.7548Z" fill="#274BA8"/>
<path id="Vector_23" fill-rule="evenodd" clip-rule="evenodd" d="M301 37.3596C305.711 40.2896 310.419 43.2199 315.13 46.15C315.13 47.6152 315.13 49.0801 315.13 50.5453C310.419 47.6152 305.711 44.6849 301 41.7548C301 41.0223 301 40.2896 301 39.5572C301 38.8247 301 38.092 301 37.3596Z" fill="#4B64E2"/>
<path id="Vector_24" fill-rule="evenodd" clip-rule="evenodd" d="M221.87 41.7548C222.836 43.5968 224.718 44.3295 227.522 43.9524C232.233 43.9524 236.941 43.9524 241.652 43.9524C250.258 43.9698 258.736 44.7024 267.087 46.15C270.854 46.15 272.739 47.6152 272.739 50.5452C257.798 48.694 242.726 47.9615 227.522 48.3476C223.003 48.9362 219.236 48.2037 216.217 46.15C219.716 45.4688 219.716 44.3699 216.217 42.8536C217.896 41.8332 219.781 41.4669 221.87 41.7548Z" fill="#26499A"/>
<path id="Vector_25" fill-rule="evenodd" clip-rule="evenodd" d="M210.565 43.9524C212.45 44.6849 214.332 45.4175 216.217 46.15C219.236 48.2037 223.003 48.9362 227.522 48.3476C222.429 50.4534 216.777 51.9185 210.565 52.7429C209.599 50.9008 207.717 50.1681 204.913 50.5452C203.972 49.0801 203.028 47.6152 202.087 46.15C204.605 44.8099 207.431 44.0774 210.565 43.9524Z" fill="#2F54A6"/>
<path id="Vector_26" fill-rule="evenodd" clip-rule="evenodd" d="M267.087 41.7548C275.226 42.7222 282.76 44.9198 289.696 48.3476C289.727 51.6823 291.609 54.2463 295.348 56.0393C293.669 57.0597 291.784 57.426 289.696 57.1381C284.091 55.0051 278.439 52.8075 272.739 50.5452C272.739 47.6152 270.854 46.15 267.087 46.15C265.906 44.5642 264.023 43.4654 261.435 42.8536C263.113 41.8332 264.998 41.4669 267.087 41.7548Z" fill="#1E4993"/>
<path id="Vector_27" fill-rule="evenodd" clip-rule="evenodd" d="M187.956 41.7548C189.841 41.7548 190.783 41.0223 190.783 39.5572C191.724 39.5572 192.668 39.5572 193.609 39.5572C193.609 40.2896 193.609 41.0223 193.609 41.7548C193.609 42.4872 193.609 43.2199 193.609 43.9524C189.841 44.6849 189.841 45.4176 193.609 46.15C193.609 47.6152 192.668 48.3476 190.783 48.3476C188.898 48.3476 187.956 49.0801 187.956 50.5453C187.015 50.5453 186.071 50.5453 185.13 50.5453C181.397 51.6032 178.571 54.5333 176.652 59.3357C176.081 53.9524 177.022 48.8245 179.478 43.9524C181.519 43.0349 182.932 41.5697 183.717 39.5572C184.8 40.779 186.213 41.5115 187.956 41.7548Z" fill="#4963C1"/>
<path id="Vector_28" fill-rule="evenodd" clip-rule="evenodd" d="M196.435 41.7548C197.376 41.7548 198.32 41.7548 199.261 41.7548C198.775 43.9339 199.719 45.3991 202.087 46.15C203.028 47.6152 203.972 49.0801 204.913 50.5452C200.671 53.2956 195.96 55.4932 190.783 57.1381C191.269 54.9589 190.325 53.4938 187.956 52.7429C187.956 52.0104 187.956 51.2777 187.956 50.5452C189.841 50.5452 190.783 49.8128 190.783 48.3476C192.668 48.3476 193.609 47.6152 193.609 46.15C193.609 45.4175 193.609 44.6848 193.609 43.9524C195.494 43.9524 196.435 43.2199 196.435 41.7548Z" fill="#275799"/>
<path id="Vector_29" fill-rule="evenodd" clip-rule="evenodd" d="M317.957 43.9524C326.658 50.0101 333.251 57.3357 337.739 65.9286C335.854 66.6611 333.972 67.3937 332.087 68.1262C332.293 64.7707 330.408 62.573 326.435 61.5333C324.948 57.7308 322.122 54.8005 317.957 52.7429C316.072 52.7429 315.13 52.0104 315.13 50.5452C315.13 49.0801 315.13 47.6152 315.13 46.15C315.13 44.6849 316.072 43.9524 317.957 43.9524Z" fill="#254698"/>
<path id="Vector_30" fill-rule="evenodd" clip-rule="evenodd" d="M154.043 46.15C160.671 49.4199 161.615 53.8151 156.87 59.3357C154.985 59.3357 154.043 58.6033 154.043 57.1381C154.043 53.4753 154.043 49.8128 154.043 46.15Z" fill="#234F99"/>
<path id="Vector_31" fill-rule="evenodd" clip-rule="evenodd" d="M204.913 50.5453C207.717 50.1682 209.599 50.9008 210.565 52.7429C204.984 56.3404 199.332 60.0029 193.609 63.731C191.054 62.1729 190.113 59.9753 190.783 57.1381C195.96 55.4932 200.671 53.2956 204.913 50.5453Z" fill="#1B4590"/>
<path id="Vector_32" fill-rule="evenodd" clip-rule="evenodd" d="M289.696 48.3476C301.941 53.4753 311.363 60.8009 317.956 70.3238C316.071 71.789 314.189 73.2539 312.304 74.7191C305.711 68.1262 298.174 62.2658 289.696 57.1381C291.784 57.426 293.669 57.0596 295.348 56.0393C291.609 54.2463 289.727 51.6823 289.696 48.3476Z" fill="#254B9F"/>
<path id="Vector_33" fill-rule="evenodd" clip-rule="evenodd" d="M134.261 46.15C136.146 46.15 138.028 46.15 139.913 46.15C141.151 46.0063 142.095 46.3724 142.739 47.2488C138.972 48.714 135.202 50.1789 131.435 51.6441C135.015 55.5908 135.015 59.6199 131.435 63.731C140.345 65.2915 141.289 67.4891 134.261 70.3238C134.091 69.1303 133.15 68.3978 131.435 68.1262C128.931 69.9392 127.99 72.1369 128.609 74.7191C119.455 63.7301 121.34 54.2071 134.261 46.15Z" fill="#4160BA"/>
<path id="Vector_34" fill-rule="evenodd" clip-rule="evenodd" d="M176.652 41.7548C178.537 41.7548 179.478 42.4872 179.478 43.9524C177.022 48.8245 176.081 53.9524 176.652 59.3357C181.109 65.8899 180.168 71.7503 173.826 76.9167C172.885 76.9167 171.941 76.9167 171 76.9167C169.957 72.6506 168.072 68.6218 165.348 64.8298C169.236 57.0697 173.004 49.3781 176.652 41.7548Z" fill="#1E4797"/>
<path id="Vector_35" fill-rule="evenodd" clip-rule="evenodd" d="M185.13 52.7429C186.071 52.7429 187.015 52.7429 187.956 52.7429C190.325 53.4938 191.269 54.9589 190.783 57.1381C190.113 59.9752 191.054 62.1728 193.609 63.731C192.772 67.913 190.887 71.5758 187.956 74.719C188.287 70.3601 186.402 66.6973 182.304 63.731C186.295 60.0009 187.239 56.3382 185.13 52.7429Z" fill="#1D4898"/>
<path id="Vector_36" fill-rule="evenodd" clip-rule="evenodd" d="M185.13 50.5453C185.13 51.2777 185.13 52.0104 185.13 52.7429C187.239 56.3382 186.295 60.001 182.304 63.731C186.402 66.6973 188.287 70.3601 187.956 74.7191C187.956 77.6485 187.956 80.5801 187.956 83.5095C185.724 81.0724 184.311 78.143 183.717 74.7191C182.776 76.1849 181.832 77.6485 180.891 79.1143C178.995 77.4617 176.641 76.7277 173.826 76.9167C180.168 71.7503 181.109 65.8899 176.652 59.3357C178.571 54.5333 181.397 51.6032 185.13 50.5453Z" fill="#194B8D"/>
<path id="Vector_37" fill-rule="evenodd" clip-rule="evenodd" d="M320.783 61.5333C322.668 61.5333 324.55 61.5333 326.435 61.5333C330.408 62.573 332.293 64.7706 332.087 68.1262C336.496 73.518 339.322 79.378 340.565 85.7071C338.68 84.9753 336.798 84.2413 334.913 83.5095C334.913 82.0437 333.972 81.3119 332.087 81.3119C329.088 74.4503 325.318 67.8574 320.783 61.5333Z" fill="#4A63C7"/>
<path id="Vector_38" fill-rule="evenodd" clip-rule="evenodd" d="M337.739 65.9286C342.247 72.0498 345.073 78.6418 346.217 85.7072C346.887 88.5443 345.946 90.7419 343.391 92.3C343.877 90.12 342.933 88.6564 340.565 87.9048C340.565 87.173 340.565 86.439 340.565 85.7072C339.322 79.378 336.496 73.5181 332.087 68.1262C333.972 67.3937 335.854 66.6611 337.739 65.9286Z" fill="#274899"/>
<path id="Vector_39" fill-rule="evenodd" clip-rule="evenodd" d="M134.261 70.3238C133.023 70.1801 132.079 70.5462 131.435 71.4226C134.611 71.9703 137.437 73.0691 139.913 74.7191C136.324 76.4508 133.498 78.6484 131.435 81.3119C129.55 81.3119 127.668 81.3119 125.783 81.3119C125.944 78.8748 126.885 76.6772 128.609 74.7191C127.99 72.1369 128.931 69.9393 131.435 68.1262C133.15 68.3978 134.091 69.1303 134.261 70.3238Z" fill="#345CA8"/>
<path id="Vector_40" fill-rule="evenodd" clip-rule="evenodd" d="M171 76.9167C171 79.1143 171 81.3119 171 83.5095C171 84.9753 170.059 85.7071 168.174 85.7071C168.66 83.5271 167.716 82.0635 165.348 81.3119C165.348 79.8461 164.407 79.1143 162.522 79.1143C160.637 79.1143 158.755 79.1143 156.87 79.1143C156.87 77.6485 155.928 76.9167 154.043 76.9167C153.102 76.9167 152.158 76.9167 151.217 76.9167C157.178 71.476 163.774 71.476 171 76.9167Z" fill="#415EBA"/>
<path id="Vector_41" fill-rule="evenodd" clip-rule="evenodd" d="M187.956 83.5095C187.713 85.6984 188.657 87.529 190.783 89.0036C189.104 90.0233 187.219 90.3903 185.13 90.1024C179.97 86.4829 176.2 82.0877 173.826 76.9167C176.641 76.7277 178.995 77.4617 180.891 79.1143C181.832 77.6485 182.776 76.1849 183.717 74.7191C184.311 78.1429 185.724 81.0724 187.956 83.5095Z" fill="#144290"/>
<path id="Vector_42" fill-rule="evenodd" clip-rule="evenodd" d="M156.87 79.1143C158.755 79.1143 160.637 79.1143 162.522 79.1143C164.407 79.1143 165.348 79.8461 165.348 81.3119C166.153 85.2413 165.212 88.9047 162.522 92.3C160.594 90.6672 158.709 89.2036 156.87 87.9048C156.87 84.9754 156.87 82.0437 156.87 79.1143Z" fill="#2B4C9F"/>
<path id="Vector_43" fill-rule="evenodd" clip-rule="evenodd" d="M317.957 70.3238C323.193 76.275 326.019 82.8678 326.435 90.1024C324.394 89.1838 322.981 87.7202 322.196 85.7072C322.95 94.368 323.422 103.158 323.609 112.079C322.668 112.079 321.724 112.079 320.783 112.079C320.769 103.213 319.827 94.4229 317.957 85.7072C317.504 82.0745 315.622 79.1451 312.304 76.9167C312.304 76.1849 312.304 75.4515 312.304 74.7191C314.189 73.2539 316.072 71.789 317.957 70.3238Z" fill="#2F52A4"/>
<path id="Vector_44" fill-rule="evenodd" clip-rule="evenodd" d="M125.783 81.3119C127.668 81.3119 129.55 81.3119 131.435 81.3119C133.178 86.1027 136.005 90.498 139.913 94.4976C150.35 92.4429 150.35 93.9087 139.913 98.8929C137.087 95.9634 134.261 95.9634 131.435 98.8929C122.908 94.2449 121.023 88.3839 125.783 81.3119Z" fill="#405DBB"/>
<path id="Vector_45" fill-rule="evenodd" clip-rule="evenodd" d="M151.217 76.9167C152.158 76.9167 153.102 76.9167 154.043 76.9167C153.241 81.1251 154.182 84.7864 156.87 87.9048C156.87 90.1024 156.87 92.3 156.87 94.4976C155.928 94.4976 154.985 94.4976 154.043 94.4976C148.637 88.9157 147.696 83.0546 151.217 76.9167Z" fill="#4564BD"/>
<path id="Vector_46" fill-rule="evenodd" clip-rule="evenodd" d="M306.652 81.3119C308.741 81.024 310.626 81.391 312.304 82.4107C309.716 83.0217 307.833 84.1205 306.652 85.7072C304.284 86.4587 303.34 87.9224 303.826 90.1024C300.356 91.8737 297.53 94.0713 295.348 96.6953C292.98 95.9437 292.036 94.4801 292.522 92.3C294.407 86.439 299.115 82.7777 306.652 81.3119Z" fill="#2B4DA1"/>
<path id="Vector_47" fill-rule="evenodd" clip-rule="evenodd" d="M187.956 83.5095C193.117 87.129 196.887 91.5242 199.261 96.6952C197.537 98.6533 196.596 100.851 196.435 103.288C191.58 99.5016 187.812 95.1064 185.13 90.1024C187.219 90.3903 189.104 90.0233 190.783 89.0036C188.657 87.529 187.713 85.6984 187.956 83.5095Z" fill="#2E50A6"/>
<path id="Vector_48" fill-rule="evenodd" clip-rule="evenodd" d="M312.304 76.9167C315.622 79.1451 317.504 82.0745 317.956 85.7072C315.249 86.7027 312.892 88.1663 310.891 90.1024C308.919 95.6052 306.565 100.732 303.826 105.486C301.941 104.754 300.059 104.02 298.174 103.288C300.059 98.8929 301.941 94.4976 303.826 90.1024C308.362 88.9904 309.306 87.5246 306.652 85.7072C307.833 84.1205 309.716 83.0217 312.304 82.4107C310.626 81.391 308.741 81.024 306.652 81.3119C308.537 79.8461 310.419 78.3825 312.304 76.9167Z" fill="#3F5CBA"/>
<path id="Vector_49" fill-rule="evenodd" clip-rule="evenodd" d="M346.217 85.7072C348.792 90.654 352.559 95.0492 357.522 98.8929C357.522 102.556 357.522 106.218 357.522 109.881C354.388 110.006 351.562 110.738 349.043 112.079C349.043 110.613 349.043 109.149 349.043 107.683C352.811 106.952 352.811 106.218 349.043 105.486C349.043 104.754 349.043 104.02 349.043 103.288C352.811 101.822 352.811 100.359 349.043 98.8929C347.158 104.02 345.276 109.149 343.391 114.276C343.391 113.544 343.391 112.81 343.391 112.079C343.391 109.881 343.391 107.683 343.391 105.486C343.391 101.822 343.391 98.1611 343.391 94.4976C343.391 93.7658 343.391 93.0318 343.391 92.3C345.946 90.7419 346.887 88.5443 346.217 85.7072Z" fill="#4160B5"/>
<path id="Vector_50" fill-rule="evenodd" clip-rule="evenodd" d="M171 83.5095C173.75 88.8893 174.691 94.7503 173.826 101.09C165.373 101.824 158.78 99.6269 154.043 94.4976C154.985 94.4976 155.928 94.4976 156.87 94.4976C160.283 96.1107 164.051 96.8425 168.174 96.6952C168.174 93.0318 168.174 89.3706 168.174 85.7071C170.059 85.7071 171 84.9753 171 83.5095Z" fill="#4A64C6"/>
<path id="Vector_51" fill-rule="evenodd" clip-rule="evenodd" d="M139.913 98.8929C138.675 98.75 137.731 99.1148 137.087 99.9917C138.633 102.024 140.515 103.855 142.739 105.486C145.873 103.09 148.699 103.09 151.217 105.486C149.734 107.006 147.849 108.105 145.565 108.782C152.992 112.23 157.703 117.357 159.696 124.165C158.746 126.429 156.861 127.528 154.043 127.462C151.887 123.357 149.061 119.693 145.565 116.474C144.624 110.613 143.68 110.613 142.739 116.474C143.225 118.654 142.281 120.117 139.913 120.869C138.282 113.252 135.456 105.927 131.435 98.8929C134.261 95.9634 137.087 95.9634 139.913 98.8929Z" fill="#3357AE"/>
<path id="Vector_52" fill-rule="evenodd" clip-rule="evenodd" d="M292.522 92.3C292.036 94.4801 292.98 95.9437 295.348 96.6953C290.592 105.785 288.707 115.307 289.696 125.264C287.811 120.137 285.929 115.008 284.044 109.881C284.702 103.196 287.528 97.337 292.522 92.3Z" fill="#3C59B7"/>
<path id="Vector_53" fill-rule="evenodd" clip-rule="evenodd" d="M326.435 90.1024C326.435 93.7658 326.435 97.4271 326.435 101.09C327.831 108.611 326.89 112.274 323.609 112.079C323.422 103.158 322.95 94.368 322.196 85.7072C322.981 87.7202 324.394 89.1838 326.435 90.1024Z" fill="#002C79"/>
<path id="Vector_54" fill-rule="evenodd" clip-rule="evenodd" d="M332.087 81.3119C333.972 81.3119 334.913 82.0437 334.913 83.5095C334.294 86.0917 335.235 88.2894 337.739 90.1024C339.455 89.8299 340.396 89.0981 340.565 87.9048C342.933 88.6564 343.877 90.12 343.391 92.3C343.391 93.0318 343.391 93.7658 343.391 94.4976C339.624 98.1611 339.624 101.822 343.391 105.486C343.391 107.683 343.391 109.881 343.391 112.079C342.45 112.079 341.506 112.079 340.565 112.079C339.624 112.079 338.68 112.079 337.739 112.079C336.798 112.079 335.854 112.079 334.913 112.079C334.037 109.358 332.624 109.358 330.674 112.079C330.114 107.943 328.701 104.281 326.435 101.09C326.435 97.4271 326.435 93.7658 326.435 90.1024C328.667 92.5396 330.08 95.469 330.674 98.8929C330.699 92.5879 331.171 86.7269 332.087 81.3119Z" fill="#4B64D3"/>
<path id="Vector_55" fill-rule="evenodd" clip-rule="evenodd" d="M199.261 96.6953C203.576 96.5349 206.402 98.0007 207.739 101.091C207.434 105.517 209.316 109.178 213.391 112.079C213.391 113.544 213.391 115.008 213.391 116.474C206.798 112.81 201.146 108.415 196.435 103.288C196.596 100.851 197.537 98.6534 199.261 96.6953Z" fill="#1C4696"/>
<path id="Vector_56" fill-rule="evenodd" clip-rule="evenodd" d="M207.739 101.09C214.389 102.936 220.041 105.868 224.696 109.881C222.811 109.881 220.929 109.881 219.044 109.881C217.159 109.881 216.217 110.613 216.217 112.079C215.276 112.079 214.332 112.079 213.391 112.079C209.316 109.178 207.434 105.516 207.739 101.09Z" fill="#3555AF"/>
<path id="Vector_57" fill-rule="evenodd" clip-rule="evenodd" d="M213.391 112.079C214.332 112.079 215.276 112.079 216.217 112.079C223.755 119.403 231.289 126.73 238.826 134.055C228.596 129.763 220.117 123.904 213.391 116.474C213.391 115.008 213.391 113.544 213.391 112.079Z" fill="#24479C"/>
<path id="Vector_58" fill-rule="evenodd" clip-rule="evenodd" d="M219.043 109.881C224.551 114.228 230.204 118.623 236 123.067C238.82 122.724 241.646 123.823 244.478 126.363C242.113 128.585 241.172 131.15 241.652 134.055C240.711 134.055 239.767 134.055 238.826 134.055C231.289 126.73 223.755 119.403 216.217 112.079C216.217 110.613 217.158 109.881 219.043 109.881Z" fill="#1F5191"/>
<path id="Vector_59" fill-rule="evenodd" clip-rule="evenodd" d="M349.043 98.8929C349.043 100.359 349.043 101.822 349.043 103.288C349.043 104.02 349.043 104.754 349.043 105.486C349.043 106.218 349.043 106.952 349.043 107.683C349.043 109.149 349.043 110.613 349.043 112.079C354.956 117.647 355.9 123.508 351.87 129.66C349.985 129.66 349.043 128.928 349.043 127.462C348.885 120.832 347.941 120.1 346.217 125.264C344.177 126.183 342.764 127.647 341.978 129.66C340.851 129.158 340.381 128.424 340.565 127.462C340.565 126.73 340.565 125.996 340.565 125.264C342.289 123.306 343.23 121.109 343.391 118.671C343.391 117.206 343.391 115.742 343.391 114.276C345.276 109.149 347.158 104.02 349.043 98.8929Z" fill="#26509F"/>
<path id="Vector_60" fill-rule="evenodd" clip-rule="evenodd" d="M219.043 109.881C220.928 109.881 222.811 109.881 224.696 109.881C231.066 111.252 235.777 114.182 238.826 118.671C236.458 119.423 235.514 120.887 236 123.067C230.204 118.623 224.552 114.228 219.043 109.881Z" fill="#194491"/>
<path id="Vector_61" fill-rule="evenodd" clip-rule="evenodd" d="M298.174 103.288C300.059 104.02 301.941 104.754 303.826 105.486C304.318 110.674 305.259 115.801 306.652 120.869C309.478 120.869 312.304 120.869 315.13 120.869C315.13 121.601 315.13 122.335 315.13 123.067C311.482 122.546 308.656 123.278 306.652 125.264C303.945 124.269 301.588 122.805 299.587 120.869C298.182 115.054 297.71 109.193 298.174 103.288Z" fill="#2F54A6"/>
<path id="Vector_62" fill-rule="evenodd" clip-rule="evenodd" d="M326.435 101.09C328.701 104.281 330.114 107.943 330.674 112.079C332.624 109.358 334.037 109.358 334.913 112.079C334.913 113.544 334.913 115.008 334.913 116.474C333.028 116.474 332.087 117.206 332.087 118.671C325.211 120.975 325.211 122.438 332.087 123.067C332.087 123.798 332.087 124.532 332.087 125.264C331.146 125.264 330.202 125.264 329.261 125.264C326.743 126.605 323.917 127.337 320.783 127.462C318.694 127.75 316.809 127.383 315.13 126.363C322.984 126.036 324.397 124.203 319.37 120.869C318.287 122.091 316.874 122.823 315.13 123.067C315.13 122.335 315.13 121.601 315.13 120.869C317.015 117.94 318.898 115.008 320.783 112.079C321.724 112.079 322.668 112.079 323.609 112.079C326.89 112.274 327.831 108.611 326.435 101.09Z" fill="#285098"/>
<path id="Vector_63" fill-rule="evenodd" clip-rule="evenodd" d="M142.739 116.474C143.68 116.474 144.624 116.474 145.565 116.474C144.884 122.043 147.71 125.704 154.043 127.462C159.992 130.361 165.645 129.629 171 125.264C171.941 125.996 172.885 126.73 173.826 127.462C171.941 128.928 170.059 130.391 168.174 131.857C171.068 134.828 173.894 137.758 176.652 140.648C174.767 140.648 173.826 141.379 173.826 142.845C170.048 141.054 167.222 138.49 165.348 135.154C151.506 135.672 143.027 130.91 139.913 120.869C142.281 120.117 143.225 118.654 142.739 116.474Z" fill="#3E5EB4"/>
<path id="Vector_64" fill-rule="evenodd" clip-rule="evenodd" d="M213.391 134.055C211.506 134.055 210.565 134.787 210.565 136.252C207.151 137.865 203.384 138.597 199.261 138.45C197.257 136.463 194.431 135.732 190.783 136.252C178.56 128.948 174.321 119.425 178.065 107.683C188.556 101.653 189.969 102.752 182.304 110.98C186.348 112.002 189.644 113.834 192.196 116.474C194.595 123.201 198.834 129.062 204.913 134.055C208.268 131.521 211.094 131.521 213.391 134.055Z" fill="#3353AC"/>
<path id="Vector_65" fill-rule="evenodd" clip-rule="evenodd" d="M320.783 127.462C319.816 129.304 317.934 130.038 315.13 129.66C310.815 129.82 307.989 128.354 306.652 125.264C308.656 123.278 311.482 122.546 315.13 123.067C316.874 122.823 318.287 122.091 319.37 120.869C324.397 124.203 322.984 126.036 315.13 126.363C316.809 127.383 318.694 127.75 320.783 127.462Z" fill="#114092"/>
<path id="Vector_66" fill-rule="evenodd" clip-rule="evenodd" d="M298.174 134.055C298.174 132.589 297.233 131.857 295.348 131.857C295.348 130.391 294.407 129.66 292.522 129.66C297.01 123.686 300.777 124.051 303.826 130.758C302.877 133.022 300.992 134.121 298.174 134.055Z" fill="#4C64D3"/>
<path id="Vector_67" fill-rule="evenodd" clip-rule="evenodd" d="M337.739 112.079C338.68 112.079 339.624 112.079 340.565 112.079C339.895 114.916 340.836 117.113 343.391 118.671C343.23 121.109 342.289 123.306 340.565 125.264C338.68 125.264 337.739 125.996 337.739 127.462C335.854 127.462 334.913 128.194 334.913 129.66C328.701 130.484 323.049 131.949 317.956 134.055C315.13 134.055 312.304 134.055 309.478 134.055C311.363 132.589 313.245 131.125 315.13 129.66C317.934 130.038 319.816 129.304 320.783 127.462C323.917 127.337 326.743 126.605 329.261 125.264C330.202 128.194 331.146 128.194 332.087 125.264C335.854 124.532 335.854 123.798 332.087 123.067C325.211 122.438 325.211 120.975 332.087 118.671C333.972 118.671 334.913 117.94 334.913 116.474C337.281 115.722 338.225 114.259 337.739 112.079Z" fill="#4A64CE"/>
<path id="Vector_68" fill-rule="evenodd" clip-rule="evenodd" d="M238.826 118.671C245.182 119.946 249.89 122.875 252.957 127.462C245.241 129.684 243.356 133.347 247.304 138.45C246.363 138.45 245.419 138.45 244.478 138.45C243.537 136.984 242.593 135.521 241.652 134.055C241.172 131.15 242.113 128.585 244.478 126.363C241.647 123.823 238.82 122.724 236 123.067C235.514 120.887 236.458 119.423 238.826 118.671Z" fill="#19459A"/>
<path id="Vector_69" fill-rule="evenodd" clip-rule="evenodd" d="M284.044 109.881C285.929 115.008 287.811 120.137 289.696 125.264C289.21 127.444 290.154 128.908 292.522 129.66C294.407 129.66 295.348 130.391 295.348 131.857C297.233 131.857 298.174 132.589 298.174 134.055C300.178 136.041 303.004 136.773 306.652 136.252C306.652 138.45 306.652 140.648 306.652 142.845C285.247 137.595 277.713 126.607 284.044 109.881Z" fill="#2C4CA0"/>
<path id="Vector_70" fill-rule="evenodd" clip-rule="evenodd" d="M252.957 127.462C254.842 127.462 255.783 128.194 255.783 129.66C256.857 134.49 254.972 138.153 250.13 140.648C250.13 139.182 249.189 138.45 247.304 138.45C243.356 133.347 245.241 129.684 252.957 127.462Z" fill="#0E4789"/>
<path id="Vector_71" fill-rule="evenodd" clip-rule="evenodd" d="M309.478 134.055C312.304 134.055 315.13 134.055 317.957 134.055C320.622 137.094 323.448 140.024 326.435 142.845C326.435 143.577 326.435 144.311 326.435 145.043C319.751 146.777 313.155 146.045 306.652 142.845C306.652 140.648 306.652 138.45 306.652 136.252C306.652 134.787 307.593 134.055 309.478 134.055Z" fill="#2F55A6"/>
<path id="Vector_72" fill-rule="evenodd" clip-rule="evenodd" d="M346.217 125.264C346.217 126.73 347.158 127.462 349.043 127.462C349.043 128.928 349.985 129.66 351.87 129.66C348.735 131.396 344.968 132.494 340.565 132.956C342.283 137.756 340.398 142.151 334.913 146.142C331.383 147.768 328.557 147.401 326.435 145.043C326.435 144.311 326.435 143.577 326.435 142.845C329.25 143.034 331.604 142.3 333.5 140.648C332.013 136.852 332.485 133.189 334.913 129.66C336.798 129.66 337.739 128.928 337.739 127.462C338.68 127.462 339.624 127.462 340.565 127.462C340.381 128.424 340.851 129.158 341.978 129.66C342.764 127.647 344.177 126.183 346.217 125.264Z" fill="#3B5BB4"/>
<path id="Vector_73" fill-rule="evenodd" clip-rule="evenodd" d="M244.478 138.45C245.419 140.648 247.304 142.113 250.13 142.845C250.13 144.311 251.071 145.043 252.956 145.043C252.47 147.223 253.414 148.687 255.783 149.438C255.296 151.618 256.24 153.082 258.609 153.833C258.609 155.299 259.55 156.031 261.435 156.031C263.32 156.031 264.261 156.763 264.261 158.229C260.494 159.694 260.494 161.158 264.261 162.624C263.775 164.804 264.719 166.268 267.087 167.019C268.972 167.019 269.913 167.751 269.913 169.217C266.146 171.414 266.146 173.612 269.913 175.81C268.921 181.394 269.862 185.057 272.739 186.798C275.107 187.549 276.051 189.013 275.565 191.193C273.691 194.582 271.806 198.245 269.913 202.181C268.141 178.623 257.781 157.745 238.826 139.549C240.505 138.529 242.39 138.162 244.478 138.45Z" fill="#4360BE"/>
<path id="Vector_74" fill-rule="evenodd" clip-rule="evenodd" d="M255.783 129.66C258.575 132.505 261.401 135.435 264.261 138.45C264.82 143.01 265.292 147.405 265.674 151.636C263.368 148.728 260.07 147.265 255.783 147.24C255.783 145.775 254.841 145.043 252.956 145.043C251.071 145.043 250.13 144.311 250.13 142.845C250.13 142.113 250.13 141.379 250.13 140.648C254.971 138.153 256.856 134.49 255.783 129.66Z" fill="#10448D"/>
<path id="Vector_75" fill-rule="evenodd" clip-rule="evenodd" d="M216.217 140.648C215.847 142.272 216.319 143.737 217.63 145.043C220.456 142.113 223.283 142.113 226.109 145.043C229.48 150.286 232.778 155.416 236 160.426C233.196 160.804 231.314 160.07 230.348 158.229C230.348 156.763 229.407 156.031 227.522 156.031C227.522 154.565 226.581 153.833 224.696 153.833C224.696 152.368 223.755 151.636 221.87 151.636C221.87 150.17 220.928 149.438 219.043 149.438C219.043 147.972 218.102 147.241 216.217 147.241C212.45 145.043 212.45 142.845 216.217 140.648Z" fill="#3A5ABB"/>
<path id="Vector_76" fill-rule="evenodd" clip-rule="evenodd" d="M216.217 140.648C212.45 142.845 212.45 145.043 216.217 147.241C218.102 147.241 219.043 147.972 219.043 149.438C219.043 150.17 219.043 150.904 219.043 151.636C216.675 152.387 215.731 153.851 216.217 156.031C208.536 150.541 206.654 143.948 210.565 136.252C212.45 136.252 213.391 135.521 213.391 134.055C223.859 132.051 224.803 134.248 216.217 140.648Z" fill="#2D4FA8"/>
<path id="Vector_77" fill-rule="evenodd" clip-rule="evenodd" d="M190.783 136.252C192.786 138.239 195.612 138.971 199.261 138.45C197.63 143.179 194.332 143.911 189.37 140.648C183.271 141.856 181.858 144.054 185.13 147.241C182.762 147.992 181.818 149.456 182.304 151.636C181.363 151.636 180.419 151.636 179.478 151.636C177.794 148.482 177.794 144.819 179.478 140.648C182.344 138.068 186.111 136.604 190.783 136.252Z" fill="#3E5DB6"/>
<path id="Vector_78" fill-rule="evenodd" clip-rule="evenodd" d="M176.652 140.648C177.593 140.648 178.537 140.648 179.478 140.648C177.794 144.819 177.794 148.482 179.478 151.636C179.478 153.102 180.419 153.833 182.304 153.833C182.304 155.299 183.245 156.031 185.13 156.031C185.13 157.497 186.072 158.229 187.957 158.229C188.923 160.07 190.805 160.804 193.609 160.426C193.609 161.892 194.55 162.624 196.435 162.624C197.376 164.09 198.32 165.553 199.261 167.019C181.524 164.942 173.046 156.884 173.826 142.845C173.826 141.379 174.767 140.648 176.652 140.648Z" fill="#3455A8"/>
<path id="Vector_79" fill-rule="evenodd" clip-rule="evenodd" d="M219.043 151.636C219.985 151.636 220.928 151.636 221.87 151.636C223.755 151.636 224.696 152.368 224.696 153.833C226.581 153.833 227.522 154.565 227.522 156.031C229.407 156.031 230.348 156.763 230.348 158.229C231.314 160.07 233.197 160.804 236 160.426C236.941 160.426 237.885 160.426 238.826 160.426C244.425 161.756 245.368 163.953 241.652 167.019C240.711 167.019 239.767 167.019 238.826 167.019C238.826 165.553 237.885 164.821 236 164.821C229.037 162.477 222.443 159.547 216.217 156.031C215.731 153.851 216.675 152.387 219.043 151.636Z" fill="#2E56A3"/>
<path id="Vector_80" fill-rule="evenodd" clip-rule="evenodd" d="M264.261 138.45C272.564 146.025 278.216 154.816 281.217 164.821C280.276 164.821 279.332 164.821 278.391 164.821C275.401 162.404 273.044 159.472 271.326 156.031C268.39 157.666 266.977 159.864 267.087 162.624C266.146 162.624 265.202 162.624 264.261 162.624C264.261 161.158 264.261 159.694 264.261 158.229C264.261 156.763 263.32 156.031 261.435 156.031C259.55 156.031 258.609 155.299 258.609 153.833C259.095 151.653 258.151 150.19 255.783 149.438C255.783 148.706 255.783 147.972 255.783 147.24C260.07 147.265 263.368 148.728 265.674 151.636C265.292 147.405 264.82 143.01 264.261 138.45Z" fill="#20499A"/>
<path id="Vector_81" fill-rule="evenodd" clip-rule="evenodd" d="M185.13 147.24C190.783 150.17 195.494 153.833 199.261 158.229C199.747 160.409 198.803 161.872 196.435 162.624C194.55 162.624 193.609 161.892 193.609 160.426C192.642 158.585 190.76 157.851 187.956 158.229C186.071 158.229 185.13 157.497 185.13 156.031C183.245 156.031 182.304 155.299 182.304 153.833C182.304 153.102 182.304 152.368 182.304 151.636C181.818 149.456 182.762 147.992 185.13 147.24Z" fill="#294C9B"/>
<path id="Vector_82" fill-rule="evenodd" clip-rule="evenodd" d="M199.261 158.229C201.101 159.527 202.986 160.991 204.913 162.624C208.047 160.228 210.873 160.228 213.391 162.624C210.249 164.305 208.364 166.503 207.739 169.217C204.936 168.839 203.053 169.573 202.087 171.414C199.719 170.663 198.775 169.199 199.261 167.019C198.32 165.553 197.376 164.09 196.435 162.624C198.803 161.872 199.747 160.409 199.261 158.229Z" fill="#465FC4"/>
<path id="Vector_83" fill-rule="evenodd" clip-rule="evenodd" d="M238.826 160.426C241.938 158.013 245.705 157.646 250.13 159.327C248.839 160.237 247.895 161.336 247.304 162.624C250.8 164.34 253.626 166.538 255.783 169.217C254.841 169.948 253.898 170.683 252.956 171.414C249.786 168.931 246.016 167.465 241.652 167.019C245.368 163.953 244.425 161.756 238.826 160.426Z" fill="#4662C6"/>
<path id="Vector_84" fill-rule="evenodd" clip-rule="evenodd" d="M278.391 164.821C278.391 167.751 278.391 170.683 278.391 173.612C276.506 175.078 274.624 176.541 272.739 178.007C272.739 176.541 271.798 175.81 269.913 175.81C269.913 173.612 269.913 171.414 269.913 169.217C269.913 167.751 268.972 167.019 267.087 167.019C267.087 165.553 267.087 164.09 267.087 162.624C266.977 159.864 268.39 157.666 271.326 156.031C273.044 159.472 275.401 162.404 278.391 164.821Z" fill="#10498E"/>
<path id="Vector_85" fill-rule="evenodd" clip-rule="evenodd" d="M278.391 164.821C279.332 164.821 280.276 164.821 281.217 164.821C288.907 178.603 292.674 193.254 292.522 208.774C290.235 204.836 288.822 200.44 288.283 195.588C286.918 197.671 286.448 199.869 286.87 202.181C285.126 201.937 283.713 201.205 282.63 199.983C281.226 194.907 280.757 189.78 281.217 184.6C279.697 181.046 278.756 177.383 278.391 173.612C278.391 170.682 278.391 167.751 278.391 164.821Z" fill="#244B98"/>
<path id="Vector_86" fill-rule="evenodd" clip-rule="evenodd" d="M236 164.821C237.885 164.821 238.826 165.553 238.826 167.019C234.296 172.265 231.47 178.126 230.348 184.6C230.834 186.78 229.89 188.244 227.522 188.995C223.769 179.416 226.595 171.357 236 164.821Z" fill="#395DB1"/>
<path id="Vector_87" fill-rule="evenodd" clip-rule="evenodd" d="M207.739 169.217C210.862 173.172 208.98 175.737 202.087 176.908C207.547 179.88 211.317 183.908 213.391 188.995C212.1 190.749 210.215 191.481 207.739 191.193C208.225 189.013 207.281 187.549 204.913 186.798C205.399 184.618 204.455 183.154 202.087 182.402C199.487 181.156 198.543 182.62 199.261 186.798C195.31 181.288 196.254 176.161 202.087 171.414C203.053 169.573 204.936 168.839 207.739 169.217Z" fill="#3F60B9"/>
<path id="Vector_88" fill-rule="evenodd" clip-rule="evenodd" d="M238.826 173.612C247.779 177.3 249.192 182.427 243.065 188.995C240.304 184.073 238.891 178.946 238.826 173.612Z" fill="#395BAA"/>
<path id="Vector_89" fill-rule="evenodd" clip-rule="evenodd" d="M202.087 182.402C201.601 184.582 202.545 186.046 204.913 186.798C204.427 188.978 205.371 190.441 207.739 191.193C213.021 192.654 218.673 194.118 224.696 195.588C222.22 197.239 219.394 198.337 216.217 198.885C223.082 199.876 223.554 201.708 217.63 204.379C214.869 201.579 212.512 201.579 210.565 204.379C207.31 206.851 204.483 206.851 202.087 204.379C203.664 201.544 206.49 199.713 210.565 198.885C202.892 196.962 199.125 192.933 199.261 186.798C198.543 182.62 199.487 181.156 202.087 182.402Z" fill="#3A5CAC"/>
<path id="Vector_90" fill-rule="evenodd" clip-rule="evenodd" d="M241.652 197.786C238.1 195.318 239.041 193.854 244.478 193.391C249.927 191.114 255.579 190.015 261.435 190.094C254.245 193.995 254.245 198.023 261.435 202.181C260.494 202.913 259.55 203.647 258.609 204.379C254.437 199.827 248.785 197.63 241.652 197.786Z" fill="#3658AC"/>
<path id="Vector_91" fill-rule="evenodd" clip-rule="evenodd" d="M278.391 173.612C278.756 177.383 279.697 181.046 281.217 184.6C278.468 189.98 277.526 195.841 278.391 202.181C278.391 202.913 278.391 203.647 278.391 204.379C277.45 204.379 276.506 204.379 275.565 204.379C275.565 199.983 275.565 195.588 275.565 191.193C276.051 189.013 275.107 187.549 272.739 186.798C272.739 183.868 272.739 180.937 272.739 178.007C274.624 176.541 276.506 175.078 278.391 173.612Z" fill="#3F63A6"/>
<path id="Vector_92" fill-rule="evenodd" clip-rule="evenodd" d="M230.348 184.6C233.53 189.074 238.241 192.006 244.478 193.39C239.041 193.854 238.1 195.318 241.652 197.786C243.322 199.216 245.205 200.682 247.304 202.181C244.125 220.577 239.886 221.309 234.587 204.379C231.08 208.879 230.608 213.275 233.174 217.564C233.174 219.03 232.233 219.762 230.348 219.762C228.18 218.285 226.295 216.454 224.696 214.268C226.564 207.374 230.334 201.148 236 195.588C232.411 193.856 229.585 191.659 227.522 188.995C229.89 188.244 230.834 186.78 230.348 184.6Z" fill="#3659B0"/>
<path id="Vector_93" fill-rule="evenodd" clip-rule="evenodd" d="M281.217 184.6C280.757 189.78 281.226 194.907 282.63 199.983C283.713 201.205 285.126 201.937 286.869 202.181C287.799 208.176 285.917 213.305 281.217 217.564C282.071 211.941 281.127 206.811 278.391 202.181C277.526 195.841 278.467 189.98 281.217 184.6Z" fill="#4B64D0"/>
<path id="Vector_94" fill-rule="evenodd" clip-rule="evenodd" d="M202.087 204.379C204.483 206.851 207.31 206.851 210.565 204.379C209.992 210.385 207.165 215.512 202.087 219.762C199.261 219.762 196.435 219.762 193.609 219.762C195.177 214.057 198.003 208.93 202.087 204.379Z" fill="#4863BD"/>
<path id="Vector_95" fill-rule="evenodd" clip-rule="evenodd" d="M275.565 204.379C276.506 204.379 277.45 204.379 278.391 204.379C279.236 209.002 278.295 213.398 275.565 217.564C272.685 213.257 272.685 208.862 275.565 204.379Z" fill="#4B64D0"/>
<path id="Vector_96" fill-rule="evenodd" clip-rule="evenodd" d="M292.522 208.774C295.687 216.503 295.687 224.562 292.522 232.948C290.481 233.866 289.068 235.33 288.283 237.343C286.971 236.037 286.499 234.572 286.87 232.948C287.322 229.214 286.853 225.55 285.456 221.96C282.385 227.304 280.971 226.57 281.217 219.762C281.217 219.03 281.217 218.296 281.217 217.564C285.917 213.305 287.799 208.176 286.87 202.181C286.448 199.869 286.918 197.671 288.283 195.588C288.822 200.44 290.235 204.836 292.522 208.774Z" fill="#204A9A"/>
<path id="Vector_97" fill-rule="evenodd" clip-rule="evenodd" d="M193.609 219.762C196.435 219.762 199.261 219.762 202.087 219.762C204.317 220.384 206.202 221.483 207.739 223.058C201.776 222.296 196.124 222.663 190.783 224.157C187.66 226.575 183.893 228.04 179.478 228.552C182.545 223.966 187.253 221.037 193.609 219.762Z" fill="#2C4DA3"/>
<path id="Vector_98" fill-rule="evenodd" clip-rule="evenodd" d="M233.174 217.564C239.521 219.125 246.117 220.223 252.956 220.861C249.119 222.913 245.349 224.746 241.652 226.355C238.238 224.742 234.471 224.01 230.348 224.157C230.348 222.691 230.348 221.228 230.348 219.762C232.233 219.762 233.174 219.03 233.174 217.564Z" fill="#4A64D4"/>
<path id="Vector_99" fill-rule="evenodd" clip-rule="evenodd" d="M230.348 224.157C234.471 224.01 238.238 224.742 241.652 226.355C248.243 227.81 250.128 230.739 247.304 235.145C241.141 228.818 233.603 227.355 224.696 230.75C222.811 230.75 220.928 230.75 219.043 230.75C221.197 226.878 224.967 224.68 230.348 224.157Z" fill="#3553B1"/>
<path id="Vector_100" fill-rule="evenodd" clip-rule="evenodd" d="M281.217 219.762C280.972 226.57 282.385 227.304 285.457 221.96C286.853 225.55 287.322 229.214 286.87 232.948C284.985 234.413 283.102 235.877 281.217 237.343C279.177 238.261 277.764 239.725 276.978 241.738C275.667 240.433 275.195 238.967 275.565 237.343C276.419 231.029 278.304 225.17 281.217 219.762Z" fill="#4362B8"/>
<path id="Vector_101" fill-rule="evenodd" clip-rule="evenodd" d="M190.783 224.157C191.642 225.586 192.583 227.051 193.609 228.552C189.689 232.31 185.919 235.974 182.304 239.54C183.062 236.026 182.118 233.097 179.478 230.75C179.478 230.018 179.478 229.284 179.478 228.552C183.893 228.04 187.66 226.575 190.783 224.157Z" fill="#425FC3"/>
<path id="Vector_102" fill-rule="evenodd" clip-rule="evenodd" d="M219.043 230.75C220.928 230.75 222.811 230.75 224.696 230.75C221.974 232.647 221.974 234.112 224.696 235.145C229.198 230.398 233.909 230.031 238.826 234.046C232.942 238.07 226.349 240.635 219.043 241.738C216.675 240.987 215.731 239.523 216.217 237.343C216.378 234.906 217.32 232.708 219.043 230.75Z" fill="#405DB3"/>
<path id="Vector_103" fill-rule="evenodd" clip-rule="evenodd" d="M267.087 241.738C267.087 240.272 266.146 239.54 264.261 239.54C260.494 240.272 260.494 241.006 264.261 241.738C264.261 243.204 263.32 243.936 261.435 243.936C257.668 244.668 257.668 245.402 261.435 246.133C261.435 247.599 260.494 248.331 258.609 248.331C257.668 248.331 256.724 248.331 255.783 248.331C255.783 247.599 255.783 246.865 255.783 246.133C255.783 244.668 254.841 243.936 252.956 243.936C252.956 243.204 252.956 242.47 252.956 241.738C254.573 237.881 256.93 234.218 260.022 230.75C261.822 234.712 265.117 237.642 269.913 239.54C269.563 240.874 268.621 241.606 267.087 241.738Z" fill="#4B64E4"/>
<path id="Vector_104" fill-rule="evenodd" clip-rule="evenodd" d="M179.478 230.75C182.118 233.097 183.062 236.026 182.304 239.54C183.245 241.738 185.13 243.204 187.956 243.936C187.015 246.133 185.13 247.599 182.304 248.331C180.617 246.927 178.263 246.195 175.239 246.133C170.438 245.885 167.14 247.349 165.348 250.529C163.463 249.797 161.581 249.063 159.696 248.331C163.683 243.85 169.335 241.652 176.652 241.738C177.017 237.967 177.958 234.304 179.478 230.75Z" fill="#345BB3"/>
<path id="Vector_105" fill-rule="evenodd" clip-rule="evenodd" d="M216.217 237.343C215.731 239.523 216.675 240.987 219.043 241.738C223.955 245.296 225.368 249.691 223.283 254.924C220.318 250.269 216.079 246.608 210.565 243.936C210.808 246.125 209.864 247.955 207.739 249.43C201.072 252.807 194.479 253.906 187.956 252.726C188.898 249.797 189.841 246.865 190.783 243.936C197.41 238.277 205.888 236.079 216.217 237.343ZM210.565 243.936C206.798 244.668 203.028 245.402 199.261 246.133C202.194 241.696 205.964 240.962 210.565 243.936Z" fill="#3254AB"/>
<path id="Vector_106" fill-rule="evenodd" clip-rule="evenodd" d="M286.87 232.948C286.499 234.572 286.971 236.038 288.283 237.343C289.068 235.33 290.481 233.866 292.522 232.948C292.748 240.158 290.863 246.751 286.87 252.726C287.245 245.199 285.363 244.468 281.217 250.529C278.685 252.739 276.803 252.739 275.565 250.529C275.565 249.797 275.565 249.063 275.565 248.331C277.45 248.331 278.391 247.599 278.391 246.133C278.391 245.402 278.391 244.668 278.391 243.936C280.946 242.378 281.887 240.18 281.217 237.343C283.102 235.877 284.985 234.413 286.87 232.948Z" fill="#28519D"/>
<path id="Vector_107" fill-rule="evenodd" clip-rule="evenodd" d="M264.261 239.54C266.146 239.54 267.087 240.272 267.087 241.738C265.202 246.133 263.32 250.529 261.435 254.924C258.609 255.656 256.724 257.121 255.783 259.319C253.898 259.319 252.956 258.587 252.956 257.121C252.956 256.39 252.956 255.656 252.956 254.924C255.325 254.172 256.269 252.709 255.783 250.529C257.668 250.529 258.609 249.797 258.609 248.331C260.494 248.331 261.435 247.599 261.435 246.133C261.435 245.402 261.435 244.668 261.435 243.936C263.32 243.936 264.261 243.204 264.261 241.738C264.261 241.006 264.261 240.272 264.261 239.54Z" fill="#4B64C1"/>
<path id="Vector_108" fill-rule="evenodd" clip-rule="evenodd" d="M187.956 243.936C188.898 243.936 189.841 243.936 190.783 243.936C189.841 246.865 188.898 249.797 187.956 252.726C187.733 255.869 188.674 258.8 190.783 261.517C189.841 263.714 187.956 265.18 185.13 265.912C181.988 261.695 178.218 258.031 173.826 254.924C169.446 252.243 164.737 252.243 159.696 254.924C158.755 254.924 157.811 254.924 156.87 254.924C158.593 252.966 159.535 250.768 159.696 248.331C161.581 249.063 163.463 249.797 165.348 250.529C171.664 251.177 177.316 250.443 182.304 248.331C185.13 247.599 187.015 246.133 187.956 243.936Z" fill="#29509D"/>
<path id="Vector_109" fill-rule="evenodd" clip-rule="evenodd" d="M252.956 241.738C252.956 242.47 252.956 243.204 252.956 243.936C252.956 244.668 252.956 245.402 252.956 246.133C251.071 246.133 250.13 246.865 250.13 248.331C247.762 249.083 246.818 250.546 247.304 252.726C245.419 252.726 244.478 253.458 244.478 254.924C242.593 254.924 241.652 255.656 241.652 257.121C239.767 257.121 238.826 257.853 238.826 259.319C237.885 259.319 236.941 259.319 236 259.319C236 257.853 235.059 257.121 233.174 257.121C238.826 251.26 245.419 246.133 252.956 241.738Z" fill="#4B64DB"/>
<path id="Vector_110" fill-rule="evenodd" clip-rule="evenodd" d="M275.565 237.343C275.195 238.967 275.667 240.433 276.978 241.738C277.764 239.725 279.177 238.261 281.217 237.343C281.887 240.18 280.946 242.378 278.391 243.936C274.624 244.668 274.624 245.402 278.391 246.133C278.391 247.599 277.45 248.331 275.565 248.331C271.798 249.063 271.798 249.797 275.565 250.529C276.803 252.739 278.685 252.739 281.217 250.529C280.765 254.161 278.883 257.091 275.565 259.319C271.798 260.051 271.798 260.785 275.565 261.517C275.565 262.248 275.565 262.982 275.565 263.714C274.624 263.714 273.68 263.714 272.739 263.714C270.854 263.714 269.913 264.446 269.913 265.912C267.545 266.663 266.601 268.127 267.087 270.307C265.202 270.307 264.261 271.039 264.261 272.505C261.893 273.256 260.949 274.72 261.435 276.9C259.55 276.9 258.609 277.632 258.609 279.098C256.724 279.098 255.783 279.829 255.783 281.295C251.651 283.401 247.884 285.963 244.478 288.987C242.593 290.453 240.711 290.453 238.826 288.987C246.225 284.359 251.877 278.865 255.783 272.505C259.756 271.465 261.641 269.268 261.435 265.912C263.32 265.912 264.261 265.18 264.261 263.714C266.629 262.963 267.573 261.499 267.087 259.319C270.32 256.354 270.32 255.62 267.087 257.121C265.202 257.121 264.261 256.39 264.261 254.924C268.121 248.92 271.888 243.059 275.565 237.343Z" fill="#4964C7"/>
<path id="Vector_111" fill-rule="evenodd" clip-rule="evenodd" d="M286.87 252.726C286.87 254.192 286.87 255.656 286.87 257.121C282.503 258.726 280.149 261.655 279.804 265.912C278.722 264.69 277.309 263.958 275.565 263.714C275.565 262.983 275.565 262.249 275.565 261.517C275.565 260.785 275.565 260.051 275.565 259.319C278.883 257.091 280.765 254.161 281.217 250.529C285.363 244.468 287.245 245.199 286.87 252.726Z" fill="#103E84"/>
<path id="Vector_112" fill-rule="evenodd" clip-rule="evenodd" d="M159.696 248.331C159.535 250.768 158.593 252.966 156.87 254.924C156.87 255.656 156.87 256.39 156.87 257.121C156.734 259.334 159.56 260.066 165.348 259.319C159.696 260.785 154.043 262.248 148.391 263.714C145.565 262.982 143.68 261.517 142.739 259.319C147.235 254.632 152.888 250.97 159.696 248.331Z" fill="#3759B4"/>
<path id="Vector_113" fill-rule="evenodd" clip-rule="evenodd" d="M173.826 254.924C171.786 257.234 168.96 258.699 165.348 259.319C159.56 260.066 156.734 259.334 156.87 257.121C158.755 257.121 159.696 256.39 159.696 254.924C164.737 252.243 169.446 252.243 173.826 254.924Z" fill="#3154A8"/>
<path id="Vector_114" fill-rule="evenodd" clip-rule="evenodd" d="M252.956 246.133C253.898 246.133 254.841 246.133 255.783 246.133C255.783 246.865 255.783 247.599 255.783 248.331C255.783 249.063 255.783 249.797 255.783 250.529C253.414 251.28 252.47 252.744 252.956 254.924C251.071 254.924 250.13 255.656 250.13 257.121C241.649 263.345 232.702 269.204 223.283 274.702C221.398 273.237 221.398 271.773 223.283 270.307C229.862 267.749 235.045 264.088 238.826 259.319C240.711 259.319 241.652 258.587 241.652 257.121C243.537 257.121 244.478 256.39 244.478 254.924C246.363 254.924 247.304 254.192 247.304 252.726C249.673 251.975 250.616 250.511 250.13 248.331C252.015 248.331 252.956 247.599 252.956 246.133Z" fill="#4B64DD"/>
<path id="Vector_115" fill-rule="evenodd" clip-rule="evenodd" d="M250.13 257.121C251.071 257.121 252.015 257.121 252.956 257.121C252.956 258.587 253.898 259.319 255.783 259.319C247.259 268.553 236.896 275.513 224.696 280.196C234.889 273.388 243.368 265.697 250.13 257.121Z" fill="#4B64D8"/>
<path id="Vector_116" fill-rule="evenodd" clip-rule="evenodd" d="M261.435 254.924C262.376 254.924 263.32 254.924 264.261 254.924C264.261 256.39 265.202 257.121 267.087 257.121C267.087 257.853 267.087 258.587 267.087 259.319C264.719 260.071 263.775 261.534 264.261 263.714C262.376 263.714 261.435 264.446 261.435 265.912C257.461 266.951 255.576 269.149 255.783 272.505C254.841 272.505 253.898 272.505 252.956 272.505C252.015 272.505 251.071 272.505 250.13 272.505C255.042 267.184 258.809 261.323 261.435 254.924Z" fill="#4B64CE"/>
<path id="Vector_117" fill-rule="evenodd" clip-rule="evenodd" d="M142.739 259.319C143.68 261.517 145.565 262.982 148.391 263.714C172.82 263.143 173.761 264.976 151.217 269.208C154.092 271.514 154.563 274.078 152.63 276.9C146.95 273.938 141.298 271.006 135.674 268.11C132.458 269.184 129.16 269.916 125.783 270.307C119.794 270.377 116.027 268.18 114.478 263.714C124.019 262.448 133.438 260.983 142.739 259.319Z" fill="#3353AA"/>
<path id="Vector_118" fill-rule="evenodd" clip-rule="evenodd" d="M286.869 257.121C284.549 265.092 280.782 272.417 275.565 279.098C276.761 274.085 274.876 270.421 269.913 268.11C269.913 267.378 269.913 266.644 269.913 265.912C271.798 265.912 272.739 265.18 272.739 263.714C273.68 263.714 274.624 263.714 275.565 263.714C277.309 263.958 278.722 264.69 279.804 265.912C280.149 261.655 282.503 258.726 286.869 257.121Z" fill="#2950A7"/>
<path id="Vector_119" fill-rule="evenodd" clip-rule="evenodd" d="M114.478 263.714C116.027 268.18 119.794 270.377 125.783 270.307C120.913 273.179 115.73 273.179 110.239 270.307C110.369 274.291 109.9 277.953 108.826 281.295C106.602 279.665 104.72 277.834 103.174 275.801C95.6961 274.709 88.1589 274.342 80.5652 274.702C83.8406 271.977 86.6667 269.046 89.0434 265.912C97.6658 268.839 106.144 268.107 114.478 263.714Z" fill="#3150AA"/>
<path id="Vector_120" fill-rule="evenodd" clip-rule="evenodd" d="M233.174 257.121C235.059 257.121 236 257.853 236 259.319C225.173 266.833 212.925 272.694 199.261 276.9C199.261 275.434 198.32 274.702 196.435 274.702C209.053 269.424 221.299 263.565 233.174 257.121Z" fill="#4C64CA"/>
<path id="Vector_121" fill-rule="evenodd" clip-rule="evenodd" d="M196.435 274.702C198.32 274.702 199.261 275.434 199.261 276.9C191.738 279.095 184.203 281.293 176.652 283.493C176.652 282.027 175.711 281.295 173.826 281.295C180.71 278.282 188.248 276.085 196.435 274.702Z" fill="#4C64BF"/>
<path id="Vector_122" fill-rule="evenodd" clip-rule="evenodd" d="M250.13 272.505C251.071 272.505 252.015 272.505 252.956 272.505C247.225 279.579 239.688 284.341 230.348 286.789C236.574 281.577 243.17 276.814 250.13 272.505Z" fill="#4B64E1"/>
<path id="Vector_123" fill-rule="evenodd" clip-rule="evenodd" d="M264.261 272.505C265.202 272.505 266.146 272.505 267.087 272.505C269.834 277.823 267.949 282.218 261.435 285.691C260.197 283.48 258.315 283.48 255.783 285.691C255.783 284.225 255.783 282.761 255.783 281.295C257.668 281.295 258.609 280.563 258.609 279.098C260.494 279.098 261.435 278.366 261.435 276.9C263.803 276.148 264.747 274.685 264.261 272.505Z" fill="#4964BE"/>
<path id="Vector_124" fill-rule="evenodd" clip-rule="evenodd" d="M269.913 268.11C274.876 270.421 276.761 274.085 275.565 279.098C270.795 289.484 263.258 298.274 252.957 305.469C250.882 302.814 249.941 299.885 250.13 296.679C250.13 295.947 250.13 295.213 250.13 294.481C252.015 294.481 252.957 293.749 252.957 292.283C254.842 292.283 255.783 291.552 255.783 290.086C258.609 289.354 260.494 287.888 261.435 285.69C267.949 282.218 269.834 277.823 267.087 272.505C267.087 271.773 267.087 271.039 267.087 270.307C268.972 270.307 269.913 269.575 269.913 268.11Z" fill="#224A96"/>
<path id="Vector_125" fill-rule="evenodd" clip-rule="evenodd" d="M173.826 281.295C175.711 281.295 176.652 282.027 176.652 283.493C163.039 287.418 148.908 289.615 134.261 290.086C130.612 290.607 127.786 289.875 125.783 287.888C141.857 285.928 157.87 283.73 173.826 281.295Z" fill="#4363BB"/>
<path id="Vector_126" fill-rule="evenodd" clip-rule="evenodd" d="M100.348 290.086C108.224 287.939 116.702 287.207 125.783 287.888C127.786 289.875 130.612 290.607 134.261 290.086C130.251 292.176 125.542 292.907 120.13 292.283C114.176 290.156 107.58 289.422 100.348 290.086Z" fill="#4B64C6"/>
<path id="Vector_127" fill-rule="evenodd" clip-rule="evenodd" d="M165.348 294.481C165.348 293.015 164.407 292.283 162.522 292.283C178.059 288.451 193.131 283.324 207.739 276.9C211.506 278.366 211.506 279.829 207.739 281.295C194.442 287.424 180.312 291.82 165.348 294.481Z" fill="#4B64C7"/>
<path id="Vector_128" fill-rule="evenodd" clip-rule="evenodd" d="M91.8695 290.086C94.6956 290.086 97.5217 290.086 100.348 290.086C107.58 289.422 114.176 290.156 120.13 292.283C109.858 293.633 99.4943 294.367 89.0434 294.481C89.9845 293.015 90.9284 291.552 91.8695 290.086Z" fill="#254FA2"/>
<path id="Vector_129" fill-rule="evenodd" clip-rule="evenodd" d="M171 301.074C171 299.608 170.059 298.876 168.174 298.876C182.785 293.745 197.859 289.717 213.391 286.789C200.106 293.042 185.975 297.804 171 301.074Z" fill="#4B64D7"/>
<path id="Vector_130" fill-rule="evenodd" clip-rule="evenodd" d="M261.435 285.69C260.494 287.888 258.609 289.354 255.783 290.086C253.898 290.086 252.957 290.818 252.957 292.283C251.072 292.283 250.13 293.015 250.13 294.481C248.245 294.481 247.304 295.213 247.304 296.679C245.419 296.679 244.478 297.41 244.478 298.876C242.593 298.876 241.652 299.608 241.652 301.074C239.767 301.074 238.826 301.806 238.826 303.271C236.941 303.271 236 304.003 236 305.469C234.115 305.469 233.174 306.201 233.174 307.667C230.277 306.794 229.805 305.331 231.761 303.271C239.4 296.962 247.406 291.101 255.783 285.69C258.315 283.48 260.197 283.48 261.435 285.69Z" fill="#4B64D1"/>
<path id="Vector_131" fill-rule="evenodd" clip-rule="evenodd" d="M162.522 292.283C164.407 292.283 165.348 293.015 165.348 294.481C157.104 296.496 148.626 297.962 139.913 298.876C135.903 296.786 131.195 296.054 125.783 296.679C137.48 294.343 149.725 292.877 162.522 292.283Z" fill="#3C60B8"/>
<path id="Vector_132" fill-rule="evenodd" clip-rule="evenodd" d="M91.8695 298.876C102.603 296.716 113.907 295.982 125.783 296.679C131.195 296.054 135.903 296.786 139.913 298.876C130.626 300.43 121.207 301.162 111.652 301.074C105.698 298.947 99.1015 298.213 91.8695 298.876Z" fill="#3157A7"/>
<path id="Vector_133" fill-rule="evenodd" clip-rule="evenodd" d="M46.6522 296.679C47.5933 296.679 48.5372 296.679 49.4783 296.679C52.5813 298.65 52.5813 300.48 49.4783 302.173C53.008 303.799 55.8341 303.432 57.9565 301.074C61.605 301.595 64.4311 300.863 66.4348 298.876C74.913 298.876 83.3913 298.876 91.8696 298.876C99.1015 298.213 105.698 298.947 111.652 301.074C89.1933 303.555 66.5846 305.753 43.8261 307.667C43.8261 306.201 42.885 305.469 41 305.469C41 304.737 41 304.003 41 303.271C41 302.54 41 301.806 41 301.074C42.885 301.074 43.8261 300.342 43.8261 298.876C45.7111 298.876 46.6522 298.144 46.6522 296.679Z" fill="#2D51A3"/>
<path id="Vector_134" fill-rule="evenodd" clip-rule="evenodd" d="M168.174 298.876C170.059 298.876 171 299.608 171 301.074C159.978 303.948 148.674 306.146 137.087 307.667C135.083 305.68 132.257 304.948 128.609 305.469C141.162 302.195 154.352 299.997 168.174 298.876Z" fill="#4964C2"/>
<path id="Vector_135" fill-rule="evenodd" clip-rule="evenodd" d="M185.13 307.667C183.245 307.667 181.363 307.667 179.478 307.667C179.478 306.935 179.478 306.201 179.478 305.469C191.435 301.122 203.681 296.727 216.217 292.283C219.597 293.044 219.597 294.143 216.217 295.58C205.594 299.709 195.234 303.74 185.13 307.667Z" fill="#4B64CF"/>
<path id="Vector_136" fill-rule="evenodd" clip-rule="evenodd" d="M128.609 305.469C132.257 304.948 135.083 305.68 137.087 307.667C117.584 310.946 97.8015 312.411 77.7391 312.062C71.4228 312.71 65.7706 311.976 60.7826 309.864C83.3743 308.267 105.983 306.803 128.609 305.469Z" fill="#335BAD"/>
<path id="Vector_137" fill-rule="evenodd" clip-rule="evenodd" d="M247.304 296.679C248.245 296.679 249.189 296.679 250.13 296.679C249.941 299.885 250.882 302.814 252.956 305.469C251.47 309.271 248.644 312.203 244.478 314.26C242.593 313.528 240.711 312.794 238.826 312.062C240.106 309.957 241.988 308.124 244.478 306.568C242.8 305.548 240.915 305.181 238.826 305.469C238.826 304.737 238.826 304.003 238.826 303.271C240.711 303.271 241.652 302.54 241.652 301.074C243.537 301.074 244.478 300.342 244.478 298.876C246.363 298.876 247.304 298.144 247.304 296.679Z" fill="#2F4FA2"/>
<path id="Vector_138" fill-rule="evenodd" clip-rule="evenodd" d="M179.478 305.469C179.478 306.201 179.478 306.935 179.478 307.667C177.593 307.667 176.652 308.399 176.652 309.864C165.348 310.596 165.348 311.33 176.652 312.062C178.537 312.062 179.478 312.794 179.478 314.26C171.941 315.725 164.407 317.189 156.87 318.655C155.903 316.813 154.021 316.079 151.217 316.457C150.251 314.616 148.369 313.882 145.565 314.26C145.565 312.794 144.624 312.062 142.739 312.062C154.368 308.891 166.614 306.693 179.478 305.469Z" fill="#4A64CA"/>
<path id="Vector_139" fill-rule="evenodd" clip-rule="evenodd" d="M179.478 314.26C179.478 312.794 178.537 312.062 176.652 312.062C176.652 311.33 176.652 310.596 176.652 309.864C180.301 310.385 183.127 309.653 185.13 307.667C196.712 305.986 208.016 304.155 219.043 302.173C206.541 307.535 193.354 311.563 179.478 314.26Z" fill="#4B64D9"/>
<path id="Vector_140" fill-rule="evenodd" clip-rule="evenodd" d="M236 305.469C236.941 305.469 237.885 305.469 238.826 305.469C240.915 305.181 242.8 305.548 244.478 306.568C241.988 308.124 240.106 309.957 238.826 312.062C236.941 312.794 235.059 313.528 233.174 314.26C232.233 311.33 231.289 311.33 230.348 314.26C228.463 314.26 227.522 314.991 227.522 316.457C225.637 316.457 224.696 317.189 224.696 318.655C221.115 319.945 218.289 319.945 216.217 318.655C221.994 314.877 227.646 311.214 233.174 307.667C235.059 307.667 236 306.935 236 305.469Z" fill="#4B64DA"/>
<path id="Vector_141" fill-rule="evenodd" clip-rule="evenodd" d="M77.7391 316.457C77.7391 315.725 77.7391 314.991 77.7391 314.26C90.9284 314.26 104.115 314.26 117.304 314.26C120.953 313.739 123.779 314.471 125.783 316.457C111.785 318.279 97.6545 319.013 83.3912 318.655C82.4247 316.813 80.5426 316.079 77.7391 316.457Z" fill="#4563B6"/>
<path id="Vector_142" fill-rule="evenodd" clip-rule="evenodd" d="M117.304 314.26C125.181 312.112 133.659 311.381 142.739 312.062C144.624 312.062 145.565 312.794 145.565 314.26C143.477 313.972 141.592 314.339 139.913 315.358C143.567 316.435 147.337 316.802 151.217 316.457C154.021 316.079 155.903 316.813 156.87 318.655C149.445 319.956 141.908 320.688 134.261 320.852C131.457 321.23 129.575 320.496 128.609 318.655C138.986 317.457 138.042 316.725 125.783 316.457C123.779 314.471 120.953 313.739 117.304 314.26Z" fill="#4A64C2"/>
<path id="Vector_143" fill-rule="evenodd" clip-rule="evenodd" d="M238.826 312.062C240.711 312.794 242.593 313.528 244.478 314.26C241.652 317.923 237.885 320.852 233.174 323.05C233.174 320.121 231.289 318.655 227.522 318.655C227.522 317.923 227.522 317.189 227.522 316.457C229.407 316.457 230.348 315.725 230.348 314.26C231.289 314.26 232.233 314.26 233.174 314.26C235.059 313.528 236.941 312.794 238.826 312.062Z" fill="#244EA5"/>
<path id="Vector_144" fill-rule="evenodd" clip-rule="evenodd" d="M224.696 318.655C225.637 318.655 226.581 318.655 227.522 318.655C231.289 318.655 233.174 320.121 233.174 323.05C229.407 325.248 225.637 327.445 221.87 329.643C218.102 327.445 218.102 325.248 221.87 323.05C222.811 321.584 223.755 320.121 224.696 318.655Z" fill="#1E4392"/>
<path id="Vector_145" fill-rule="evenodd" clip-rule="evenodd" d="M128.609 318.655C129.575 320.496 131.457 321.23 134.261 320.852C123.615 323.698 112.311 325.162 100.348 325.248C98.3441 323.261 95.518 322.529 91.8695 323.05C103.663 321.164 115.911 319.701 128.609 318.655Z" fill="#4A64C7"/>
<path id="Vector_146" fill-rule="evenodd" clip-rule="evenodd" d="M159.696 327.445C159.696 325.979 158.755 325.248 156.87 325.248C167.725 322.167 179.029 320.336 190.783 319.754C180.931 323.323 170.568 325.885 159.696 327.445Z" fill="#4B64E2"/>
<path id="Vector_147" fill-rule="evenodd" clip-rule="evenodd" d="M156.87 325.248C158.755 325.248 159.696 325.979 159.696 327.445C143.751 329.924 127.735 332.122 111.652 334.038C110.686 332.197 108.803 331.463 106 331.841C122.366 328.573 139.322 326.375 156.87 325.248Z" fill="#4B64CB"/>
<path id="Vector_148" fill-rule="evenodd" clip-rule="evenodd" d="M221.87 323.05C218.102 325.248 218.102 327.445 221.87 329.643C217.916 332.698 213.205 334.895 207.739 336.236C203.972 336.236 202.087 334.77 202.087 331.84C208.299 328.329 214.892 325.399 221.87 323.05Z" fill="#224A98"/>
<path id="Vector_149" fill-rule="evenodd" clip-rule="evenodd" d="M106 331.84C108.803 331.463 110.686 332.197 111.652 334.038C103.372 335.794 94.8935 336.526 86.2174 336.236C81.6985 336.825 77.9313 336.091 74.913 334.038C85.1406 332.403 95.5011 331.671 106 331.84Z" fill="#3660AE"/>
<path id="Vector_150" fill-rule="evenodd" clip-rule="evenodd" d="M148.391 338.433C148.391 336.968 147.45 336.236 145.565 336.236C158.483 332.278 171.67 328.981 185.13 326.346C173.905 332.306 161.657 336.337 148.391 338.433Z" fill="#4B64E2"/>
<path id="Vector_151" fill-rule="evenodd" clip-rule="evenodd" d="M202.087 331.841C202.087 334.77 203.972 336.236 207.739 336.236C205.094 339.475 201.324 341.673 196.435 342.829C195.098 339.739 192.272 338.273 187.956 338.433C192.097 335.715 196.808 333.517 202.087 331.841Z" fill="#2B4DA8"/>
<path id="Vector_152" fill-rule="evenodd" clip-rule="evenodd" d="M145.565 336.236C147.45 336.236 148.391 336.968 148.391 338.433C132.551 341.341 116.538 343.538 100.348 345.026C98.3441 343.04 95.518 342.308 91.8695 342.829C109.258 339.967 127.156 337.77 145.565 336.236Z" fill="#4B64CE"/>
<path id="Vector_153" fill-rule="evenodd" clip-rule="evenodd" d="M187.956 338.433C192.272 338.273 195.098 339.739 196.435 342.829C190.181 345.626 183.587 347.824 176.652 349.421C175.471 347.835 173.589 346.736 171 346.125C172.571 345.283 173.512 344.185 173.826 342.829C178.206 340.761 182.915 339.297 187.956 338.433Z" fill="#234999"/>
<path id="Vector_154" fill-rule="evenodd" clip-rule="evenodd" d="M142.739 349.421C139.091 348.901 136.265 349.632 134.261 351.619C132.376 351.619 130.494 351.619 128.609 351.619C128.609 350.887 128.609 350.153 128.609 349.421C139.455 345.756 150.76 343.193 162.522 341.73C155.668 344.396 149.072 346.958 142.739 349.421Z" fill="#4B64EA"/>
<path id="Vector_155" fill-rule="evenodd" clip-rule="evenodd" d="M173.826 342.829C173.512 344.185 172.571 345.283 171 346.125C173.589 346.736 175.471 347.835 176.652 349.421C168.979 352.876 160.501 355.074 151.217 356.014C150.276 356.014 149.332 356.014 148.391 356.014C146.506 354.548 144.624 353.085 142.739 351.619C142.739 350.887 142.739 350.153 142.739 349.421C153.597 348.56 163.96 346.362 173.826 342.829Z" fill="#264C9E"/>
<path id="Vector_156" fill-rule="evenodd" clip-rule="evenodd" d="M128.609 349.421C128.609 350.153 128.609 350.887 128.609 351.619C125.805 351.241 123.923 351.975 122.956 353.817C118.438 353.228 114.67 353.962 111.652 356.014C106.24 355.39 101.532 356.122 97.5217 358.212C92.1097 357.588 87.4015 358.32 83.3913 360.41C81.5063 360.41 79.6241 360.41 77.7391 360.41C76.7726 358.568 74.8904 357.834 72.0869 358.212C72.0869 357.48 72.0869 356.746 72.0869 356.014C78.4032 356.663 84.0554 355.929 89.0434 353.817C102.286 352.637 115.476 351.171 128.609 349.421Z" fill="#4B64D0"/>
<path id="Vector_157" fill-rule="evenodd" clip-rule="evenodd" d="M139.913 351.619C140.854 351.619 141.798 351.619 142.739 351.619C144.624 353.085 146.506 354.549 148.391 356.014C149.01 358.597 148.069 360.794 145.565 362.607C142.688 361.084 139.862 359.621 137.087 358.212C137.248 355.775 138.189 353.577 139.913 351.619Z" fill="#0F4187"/>
<path id="Vector_158" fill-rule="evenodd" clip-rule="evenodd" d="M134.261 351.619C136.146 351.619 138.028 351.619 139.913 351.619C138.189 353.577 137.248 355.775 137.087 358.212C129.81 358.981 124.158 360.447 120.13 362.607C121.953 365.126 124.307 367.323 127.196 369.2C128.603 364.708 131.901 361.776 137.087 360.41C137.087 361.141 137.087 361.875 137.087 362.607C133.549 365.906 130.723 369.569 128.609 373.595C123.898 371.398 120.13 368.468 117.304 364.805C116.504 363.071 115.091 361.605 113.065 360.41C107.899 363.161 102.719 363.161 97.5217 360.41C97.5217 359.678 97.5217 358.944 97.5217 358.212C102.934 358.836 107.642 358.104 111.652 356.014C116.171 356.603 119.938 355.869 122.956 353.817C127.475 354.406 131.243 353.672 134.261 351.619Z" fill="#16438F"/>
<path id="Vector_159" fill-rule="evenodd" clip-rule="evenodd" d="M93.2609 290.062C92.3198 291.528 91.3759 292.991 90.4348 294.457C83.0983 296.138 75.5611 296.872 67.8261 296.655C67.8261 295.923 67.8261 295.189 67.8261 294.457C67.8261 293.725 67.8261 292.991 67.8261 292.259C76.1065 290.503 84.5848 289.772 93.2609 290.062Z" fill="#2952A0"/>
<path id="Vector_160" fill-rule="evenodd" clip-rule="evenodd" d="M45.2174 307.643C50.2055 309.755 55.8576 310.489 62.1739 309.84C67.162 311.952 72.8142 312.686 79.1305 312.038C79.1305 312.77 79.1305 313.504 79.1305 314.236C79.1305 314.967 79.1305 315.701 79.1305 316.433C73.4783 316.433 67.8261 316.433 62.1739 316.433C55.2557 314.295 47.7185 313.563 39.5652 314.236C40.7861 311.576 42.6711 309.379 45.2174 307.643Z" fill="#4B64C7"/>
<path id="Vector_161" fill-rule="evenodd" clip-rule="evenodd" d="M39.5652 316.433C47.1024 316.433 54.6368 316.433 62.1739 316.433C67.8261 316.433 73.4783 316.433 79.1305 316.433C81.9339 316.055 83.8161 316.789 84.7826 318.631C75.7109 319.182 67.2326 319.182 59.3479 318.631C52.1159 319.295 45.5198 318.561 39.5652 316.433Z" fill="#225998"/>
<path id="Vector_162" fill-rule="evenodd" clip-rule="evenodd" d="M39.5653 314.236C39.5653 314.967 39.5653 315.701 39.5653 316.433C45.5198 318.561 52.1159 319.295 59.3479 318.631C51.4716 320.778 42.9933 321.51 33.9131 320.828C35.134 318.169 37.019 315.972 39.5653 314.236Z" fill="#4B64DE"/>
<path id="Vector_163" fill-rule="evenodd" clip-rule="evenodd" d="M42.3913 305.445C44.2763 305.445 45.2174 306.177 45.2174 307.643C42.6711 309.379 40.7861 311.576 39.5652 314.236C37.0189 315.972 35.1339 318.169 33.913 320.828C32.028 320.828 31.087 321.56 31.087 323.026C41.4502 324.492 51.8106 325.956 62.1739 327.421C49.3661 326.722 37.1178 327.454 25.4348 329.619C27.2915 331.412 31.0587 332.878 36.7391 334.014C31.3272 333.39 26.6189 334.122 22.6087 336.212C20.7237 336.212 19.7826 336.944 19.7826 338.409C17.8976 338.409 16.0154 338.409 14.1304 338.409C14.1304 337.678 14.1304 336.944 14.1304 336.212C16.0154 336.212 16.9565 335.48 16.9565 334.014C16.9565 333.282 16.9565 332.548 16.9565 331.817C19.3248 331.065 20.2687 329.601 19.7826 327.421C23.7561 326.382 25.6411 324.184 25.4348 320.828C30.5952 317.209 34.3652 312.814 36.7391 307.643C38.6241 306.911 40.5063 306.177 42.3913 305.445Z" fill="#295198"/>
<path id="Vector_164" fill-rule="evenodd" clip-rule="evenodd" d="M31.087 323.026C51.8107 323.026 72.5373 323.026 93.2609 323.026C96.9094 322.505 99.7355 323.237 101.739 325.224C88.6855 327.013 75.4962 327.744 62.174 327.421C51.8107 325.955 41.4503 324.492 31.087 323.026Z" fill="#4763BB"/>
<path id="Vector_165" fill-rule="evenodd" clip-rule="evenodd" d="M25.4348 329.619C45.5707 328.544 57.8161 329.276 62.1739 331.817C58.5255 331.296 55.6994 332.027 53.6957 334.014C48.0435 334.014 42.3913 334.014 36.7392 334.014C31.0587 332.878 27.2916 331.412 25.4348 329.619Z" fill="#4863B4"/>
<path id="Vector_166" fill-rule="evenodd" clip-rule="evenodd" d="M53.6957 334.014C55.6994 332.027 58.5255 331.296 62.1739 331.817C66.1842 333.906 70.8924 334.638 76.3044 334.014C79.3226 336.067 83.0898 336.801 87.6087 336.212C82.6207 338.324 76.9685 339.058 70.6522 338.409C67.6339 336.357 63.8668 335.623 59.3479 336.212C58.3813 334.37 56.4992 333.636 53.6957 334.014Z" fill="#4C64CA"/>
<path id="Vector_167" fill-rule="evenodd" clip-rule="evenodd" d="M22.6088 338.409C22.6088 337.678 22.6088 336.944 22.6088 336.212C34.8542 336.212 47.1025 336.212 59.3479 336.212C63.8668 335.623 67.634 336.357 70.6522 338.409C59.444 339.864 48.1396 340.596 36.7392 340.607C32.729 338.517 28.0207 337.785 22.6088 338.409Z" fill="#4160B9"/>
<path id="Vector_168" fill-rule="evenodd" clip-rule="evenodd" d="M11.3043 338.409C12.2454 338.409 13.1893 338.409 14.1304 338.409C16.0154 338.409 17.8976 338.409 19.7826 338.409C20.7237 338.409 21.6676 338.409 22.6087 338.409C28.0206 337.785 32.7289 338.517 36.7391 340.607C29.8887 339.93 23.2954 340.664 16.9565 342.805C20.3167 344.846 24.0839 345.578 28.2609 345.002C31.0643 344.624 32.9465 345.358 33.913 347.2C32.028 347.2 30.1459 347.2 28.2609 347.2C24.6124 346.679 21.7863 347.411 19.7826 349.397C16.1341 348.877 13.308 349.608 11.3043 351.595C8.93609 350.844 7.99217 349.38 8.47826 347.2C8.47826 345.734 8.47826 344.27 8.47826 342.805C10.8465 342.053 11.7904 340.589 11.3043 338.409Z" fill="#385DAA"/>
<path id="Vector_169" fill-rule="evenodd" clip-rule="evenodd" d="M28.2609 345.002C37.392 342.185 46.8114 342.185 56.5218 345.002C54.5181 346.989 51.692 347.721 48.0435 347.2C46.1585 344.27 44.2764 344.27 42.3914 347.2C39.8733 348.54 37.0472 349.272 33.9131 349.397C33.9131 348.666 33.9131 347.932 33.9131 347.2C32.9466 345.358 31.0644 344.624 28.2609 345.002Z" fill="#4B64D3"/>
<path id="Vector_170" fill-rule="evenodd" clip-rule="evenodd" d="M67.8261 345.002C75.7024 342.855 84.1807 342.123 93.2609 342.805C96.9094 342.284 99.7355 343.016 101.739 345.002C95.2222 346.086 88.6289 346.817 81.9565 347.2C77.9463 345.11 73.2381 344.378 67.8261 345.002Z" fill="#4664BC"/>
<path id="Vector_171" fill-rule="evenodd" clip-rule="evenodd" d="M56.5218 345.002C60.289 345.002 64.059 345.002 67.8261 345.002C73.2381 344.378 77.9464 345.11 81.9566 347.2C66.0118 349.077 49.9964 350.54 33.9131 351.595C31.1096 351.973 29.2274 351.239 28.2609 349.398C30.1459 349.398 32.0281 349.398 33.9131 349.398C37.0472 349.272 39.8733 348.54 42.3914 347.2C44.2764 347.2 46.1585 347.2 48.0435 347.2C51.692 347.721 54.5181 346.989 56.5218 345.002Z" fill="#365FAD"/>
<path id="Vector_172" fill-rule="evenodd" clip-rule="evenodd" d="M90.4348 353.793C84.1185 353.144 78.4664 353.878 73.4783 355.99C68.0664 355.366 63.3581 356.098 59.3479 358.188C55.5807 358.188 51.8107 358.188 48.0435 358.188C45.0253 356.135 41.2581 355.401 36.7392 355.99C56.6999 352.98 76.9544 350.048 97.5001 347.2C97.972 347.932 98.4412 348.666 98.9131 349.397C95.7988 350.883 92.9727 352.347 90.4348 353.793Z" fill="#4763C4"/>
<path id="Vector_173" fill-rule="evenodd" clip-rule="evenodd" d="M8.47826 347.2C7.99217 349.38 8.93609 350.844 11.3043 351.595C14.9528 352.116 17.7789 351.384 19.7826 349.397C21.7863 347.411 24.6124 346.679 28.2609 347.2C28.2609 347.932 28.2609 348.666 28.2609 349.397C29.2274 351.239 31.1096 351.973 33.913 351.595C29.202 353.061 24.4937 354.525 19.7826 355.99C13.9948 355.243 11.1687 355.975 11.3043 358.188C12.2454 359.654 13.1893 361.117 14.1304 362.583C9.61717 363.88 5.84717 366.077 2.82609 369.176C1.885 368.444 0.941087 367.71 0 366.978C2.44457 360.03 5.27065 353.437 8.47826 347.2Z" fill="#4661C3"/>
<path id="Vector_174" fill-rule="evenodd" clip-rule="evenodd" d="M19.7826 355.99C25.4348 355.99 31.0869 355.99 36.7391 355.99C41.258 355.401 45.0252 356.135 48.0435 358.188C36.9482 360.5 25.6439 361.963 14.1304 362.583C13.1893 361.117 12.2454 359.654 11.3043 358.188C14.9528 358.709 17.7789 357.977 19.7826 355.99Z" fill="#2C53A0"/>
<path id="Vector_175" fill-rule="evenodd" clip-rule="evenodd" d="M59.3479 358.188C64.0589 358.188 68.7672 358.188 73.4783 358.188C76.2818 357.81 78.1639 358.544 79.1305 360.386C67.8939 362.133 56.5896 363.599 45.2174 364.781C42.4139 365.159 40.5318 364.425 39.5652 362.583C46.6587 361.645 53.252 360.181 59.3479 358.188Z" fill="#4464B8"/>
</g>
</svg>
